<?xml version="1.0" encoding="utf-8"?>
<svg xmlns="http://www.w3.org/2000/svg" xmlns:xlink="http://www.w3.org/1999/xlink" width="600" height="400" viewBox="0 0 2400 1600">
<defs>
  <clipPath id="clip100">
    <rect x="0" y="0" width="2400" height="1600"/>
  </clipPath>
</defs>
<path clip-path="url(#clip100)" d="
M0 1600 L2400 1600 L2400 0 L0 0  Z
  " fill="#ffffff" fill-rule="evenodd" fill-opacity="1"/>
<defs>
  <clipPath id="clip101">
    <rect x="480" y="0" width="1681" height="1600"/>
  </clipPath>
</defs>
<path clip-path="url(#clip100)" d="
M203.964 1423.18 L2352.76 1423.18 L2352.76 123.472 L203.964 123.472  Z
  " fill="#ffffff" fill-rule="evenodd" fill-opacity="1"/>
<defs>
  <clipPath id="clip102">
    <rect x="203" y="123" width="2150" height="1301"/>
  </clipPath>
</defs>
<polyline clip-path="url(#clip102)" style="stroke:#000000; stroke-width:2; stroke-opacity:0.1; fill:none" points="
  264.778,1423.18 264.778,123.472 
  "/>
<polyline clip-path="url(#clip102)" style="stroke:#000000; stroke-width:2; stroke-opacity:0.1; fill:none" points="
  771.569,1423.18 771.569,123.472 
  "/>
<polyline clip-path="url(#clip102)" style="stroke:#000000; stroke-width:2; stroke-opacity:0.1; fill:none" points="
  1278.36,1423.18 1278.36,123.472 
  "/>
<polyline clip-path="url(#clip102)" style="stroke:#000000; stroke-width:2; stroke-opacity:0.1; fill:none" points="
  1785.15,1423.18 1785.15,123.472 
  "/>
<polyline clip-path="url(#clip102)" style="stroke:#000000; stroke-width:2; stroke-opacity:0.1; fill:none" points="
  2291.94,1423.18 2291.94,123.472 
  "/>
<polyline clip-path="url(#clip100)" style="stroke:#000000; stroke-width:4; stroke-opacity:1; fill:none" points="
  203.964,1423.18 2352.76,1423.18 
  "/>
<polyline clip-path="url(#clip100)" style="stroke:#000000; stroke-width:4; stroke-opacity:1; fill:none" points="
  264.778,1423.18 264.778,1407.58 
  "/>
<polyline clip-path="url(#clip100)" style="stroke:#000000; stroke-width:4; stroke-opacity:1; fill:none" points="
  771.569,1423.18 771.569,1407.58 
  "/>
<polyline clip-path="url(#clip100)" style="stroke:#000000; stroke-width:4; stroke-opacity:1; fill:none" points="
  1278.36,1423.18 1278.36,1407.58 
  "/>
<polyline clip-path="url(#clip100)" style="stroke:#000000; stroke-width:4; stroke-opacity:1; fill:none" points="
  1785.15,1423.18 1785.15,1407.58 
  "/>
<polyline clip-path="url(#clip100)" style="stroke:#000000; stroke-width:4; stroke-opacity:1; fill:none" points="
  2291.94,1423.18 2291.94,1407.58 
  "/>
<path clip-path="url(#clip100)" d="M 0 0 M255.16 1479.92 L262.799 1479.92 L262.799 1453.55 L254.489 1455.22 L254.489 1450.96 L262.753 1449.29 L267.429 1449.29 L267.429 1479.92 L275.068 1479.92 L275.068 1483.85 L255.16 1483.85 L255.16 1479.92 Z" fill="#000000" fill-rule="evenodd" fill-opacity="1" /><path clip-path="url(#clip100)" d="M 0 0 M766.222 1479.92 L782.541 1479.92 L782.541 1483.85 L760.597 1483.85 L760.597 1479.92 Q763.259 1477.16 767.842 1472.53 Q772.449 1467.88 773.629 1466.54 Q775.875 1464.01 776.754 1462.28 Q777.657 1460.52 777.657 1458.83 Q777.657 1456.07 775.713 1454.34 Q773.791 1452.6 770.689 1452.6 Q768.49 1452.6 766.037 1453.37 Q763.606 1454.13 760.828 1455.68 L760.828 1450.96 Q763.652 1449.82 766.106 1449.25 Q768.56 1448.67 770.597 1448.67 Q775.967 1448.67 779.162 1451.35 Q782.356 1454.04 782.356 1458.53 Q782.356 1460.66 781.546 1462.58 Q780.759 1464.48 778.652 1467.07 Q778.074 1467.74 774.972 1470.96 Q771.87 1474.15 766.222 1479.92 Z" fill="#000000" fill-rule="evenodd" fill-opacity="1" /><path clip-path="url(#clip100)" d="M 0 0 M1282.61 1465.22 Q1285.96 1465.94 1287.84 1468.2 Q1289.74 1470.47 1289.74 1473.81 Q1289.74 1478.92 1286.22 1481.72 Q1282.7 1484.52 1276.22 1484.52 Q1274.04 1484.52 1271.73 1484.08 Q1269.44 1483.67 1266.98 1482.81 L1266.98 1478.3 Q1268.93 1479.43 1271.24 1480.01 Q1273.56 1480.59 1276.08 1480.59 Q1280.48 1480.59 1282.77 1478.85 Q1285.08 1477.12 1285.08 1473.81 Q1285.08 1470.75 1282.93 1469.04 Q1280.8 1467.3 1276.98 1467.3 L1272.95 1467.3 L1272.95 1463.46 L1277.17 1463.46 Q1280.62 1463.46 1282.45 1462.09 Q1284.27 1460.7 1284.27 1458.11 Q1284.27 1455.45 1282.38 1454.04 Q1280.5 1452.6 1276.98 1452.6 Q1275.06 1452.6 1272.86 1453.02 Q1270.66 1453.44 1268.02 1454.31 L1268.02 1450.15 Q1270.69 1449.41 1273 1449.04 Q1275.34 1448.67 1277.4 1448.67 Q1282.72 1448.67 1285.82 1451.1 Q1288.93 1453.5 1288.93 1457.63 Q1288.93 1460.5 1287.28 1462.49 Q1285.64 1464.45 1282.61 1465.22 Z" fill="#000000" fill-rule="evenodd" fill-opacity="1" /><path clip-path="url(#clip100)" d="M 0 0 M1788.16 1453.37 L1776.35 1471.81 L1788.16 1471.81 L1788.16 1453.37 M1786.93 1449.29 L1792.81 1449.29 L1792.81 1471.81 L1797.74 1471.81 L1797.74 1475.7 L1792.81 1475.7 L1792.81 1483.85 L1788.16 1483.85 L1788.16 1475.7 L1772.56 1475.7 L1772.56 1471.19 L1786.93 1449.29 Z" fill="#000000" fill-rule="evenodd" fill-opacity="1" /><path clip-path="url(#clip100)" d="M 0 0 M2282.22 1449.29 L2300.58 1449.29 L2300.58 1453.23 L2286.5 1453.23 L2286.5 1461.7 Q2287.52 1461.35 2288.54 1461.19 Q2289.56 1461 2290.58 1461 Q2296.36 1461 2299.74 1464.18 Q2303.12 1467.35 2303.12 1472.76 Q2303.12 1478.34 2299.65 1481.44 Q2296.18 1484.52 2289.86 1484.52 Q2287.68 1484.52 2285.41 1484.15 Q2283.17 1483.78 2280.76 1483.04 L2280.76 1478.34 Q2282.84 1479.48 2285.07 1480.03 Q2287.29 1480.59 2289.77 1480.59 Q2293.77 1480.59 2296.11 1478.48 Q2298.45 1476.38 2298.45 1472.76 Q2298.45 1469.15 2296.11 1467.05 Q2293.77 1464.94 2289.77 1464.94 Q2287.89 1464.94 2286.02 1465.36 Q2284.16 1465.77 2282.22 1466.65 L2282.22 1449.29 Z" fill="#000000" fill-rule="evenodd" fill-opacity="1" /><path clip-path="url(#clip100)" d="M 0 0 M1069.44 1525.81 L1069.44 1562.76 L1077.2 1562.76 Q1087.04 1562.76 1091.59 1558.3 Q1096.17 1553.85 1096.17 1544.24 Q1096.17 1534.69 1091.59 1530.26 Q1087.04 1525.81 1077.2 1525.81 L1069.44 1525.81 M1063.01 1520.52 L1076.22 1520.52 Q1090.03 1520.52 1096.49 1526.28 Q1102.95 1532.01 1102.95 1544.24 Q1102.95 1556.52 1096.46 1562.28 Q1089.97 1568.04 1076.22 1568.04 L1063.01 1568.04 L1063.01 1520.52 Z" fill="#000000" fill-rule="evenodd" fill-opacity="1" /><path clip-path="url(#clip100)" d="M 0 0 M1112.95 1532.4 L1118.8 1532.4 L1118.8 1568.04 L1112.95 1568.04 L1112.95 1532.4 M1112.95 1518.52 L1118.8 1518.52 L1118.8 1525.93 L1112.95 1525.93 L1112.95 1518.52 Z" fill="#000000" fill-rule="evenodd" fill-opacity="1" /><path clip-path="url(#clip100)" d="M 0 0 M1131.06 1518.52 L1136.91 1518.52 L1136.91 1568.04 L1131.06 1568.04 L1131.06 1518.52 Z" fill="#000000" fill-rule="evenodd" fill-opacity="1" /><path clip-path="url(#clip100)" d="M 0 0 M1148.56 1553.98 L1148.56 1532.4 L1154.42 1532.4 L1154.42 1553.75 Q1154.42 1558.81 1156.39 1561.36 Q1158.37 1563.87 1162.31 1563.87 Q1167.06 1563.87 1169.79 1560.85 Q1172.56 1557.83 1172.56 1552.61 L1172.56 1532.4 L1178.42 1532.4 L1178.42 1568.04 L1172.56 1568.04 L1172.56 1562.57 Q1170.43 1565.82 1167.6 1567.41 Q1164.8 1568.97 1161.07 1568.97 Q1154.93 1568.97 1151.75 1565.15 Q1148.56 1561.33 1148.56 1553.98 M1163.3 1531.54 L1163.3 1531.54 Z" fill="#000000" fill-rule="evenodd" fill-opacity="1" /><path clip-path="url(#clip100)" d="M 0 0 M1196.27 1522.27 L1196.27 1532.4 L1208.34 1532.4 L1208.34 1536.95 L1196.27 1536.95 L1196.27 1556.3 Q1196.27 1560.66 1197.45 1561.9 Q1198.66 1563.14 1202.32 1563.14 L1208.34 1563.14 L1208.34 1568.04 L1202.32 1568.04 Q1195.54 1568.04 1192.96 1565.53 Q1190.39 1562.98 1190.39 1556.3 L1190.39 1536.95 L1186.09 1536.95 L1186.09 1532.4 L1190.39 1532.4 L1190.39 1522.27 L1196.27 1522.27 Z" fill="#000000" fill-rule="evenodd" fill-opacity="1" /><path clip-path="url(#clip100)" d="M 0 0 M1216.04 1532.4 L1221.9 1532.4 L1221.9 1568.04 L1216.04 1568.04 L1216.04 1532.4 M1216.04 1518.52 L1221.9 1518.52 L1221.9 1525.93 L1216.04 1525.93 L1216.04 1518.52 Z" fill="#000000" fill-rule="evenodd" fill-opacity="1" /><path clip-path="url(#clip100)" d="M 0 0 M1247.96 1536.5 Q1243.25 1536.5 1240.52 1540.19 Q1237.78 1543.85 1237.78 1550.25 Q1237.78 1556.65 1240.48 1560.34 Q1243.22 1564 1247.96 1564 Q1252.64 1564 1255.38 1560.31 Q1258.12 1556.62 1258.12 1550.25 Q1258.12 1543.92 1255.38 1540.23 Q1252.64 1536.5 1247.96 1536.5 M1247.96 1531.54 Q1255.6 1531.54 1259.96 1536.5 Q1264.32 1541.47 1264.32 1550.25 Q1264.32 1559 1259.96 1564 Q1255.6 1568.97 1247.96 1568.97 Q1240.29 1568.97 1235.93 1564 Q1231.6 1559 1231.6 1550.25 Q1231.6 1541.47 1235.93 1536.5 Q1240.29 1531.54 1247.96 1531.54 Z" fill="#000000" fill-rule="evenodd" fill-opacity="1" /><path clip-path="url(#clip100)" d="M 0 0 M1303.66 1546.53 L1303.66 1568.04 L1297.81 1568.04 L1297.81 1546.72 Q1297.81 1541.66 1295.83 1539.14 Q1293.86 1536.63 1289.91 1536.63 Q1285.17 1536.63 1282.43 1539.65 Q1279.7 1542.68 1279.7 1547.9 L1279.7 1568.04 L1273.81 1568.04 L1273.81 1532.4 L1279.7 1532.4 L1279.7 1537.93 Q1281.8 1534.72 1284.63 1533.13 Q1287.49 1531.54 1291.22 1531.54 Q1297.36 1531.54 1300.51 1535.36 Q1303.66 1539.14 1303.66 1546.53 Z" fill="#000000" fill-rule="evenodd" fill-opacity="1" /><path clip-path="url(#clip100)" d="M 0 0 M1358.85 1545.76 Q1360.92 1546.46 1362.86 1548.76 Q1364.84 1551.05 1366.81 1555.06 L1373.34 1568.04 L1366.43 1568.04 L1360.35 1555.85 Q1357.99 1551.08 1355.77 1549.52 Q1353.57 1547.96 1349.75 1547.96 L1342.75 1547.96 L1342.75 1568.04 L1336.32 1568.04 L1336.32 1520.52 L1350.83 1520.52 Q1358.98 1520.52 1362.99 1523.93 Q1367 1527.34 1367 1534.21 Q1367 1538.7 1364.9 1541.66 Q1362.83 1544.62 1358.85 1545.76 M1342.75 1525.81 L1342.75 1542.68 L1350.83 1542.68 Q1355.48 1542.68 1357.84 1540.54 Q1360.22 1538.38 1360.22 1534.21 Q1360.22 1530.04 1357.84 1527.94 Q1355.48 1525.81 1350.83 1525.81 L1342.75 1525.81 Z" fill="#000000" fill-rule="evenodd" fill-opacity="1" /><path clip-path="url(#clip100)" d="M 0 0 M1396.13 1550.12 Q1389.03 1550.12 1386.29 1551.75 Q1383.55 1553.37 1383.55 1557.29 Q1383.55 1560.4 1385.59 1562.25 Q1387.66 1564.07 1391.19 1564.07 Q1396.06 1564.07 1398.99 1560.63 Q1401.95 1557.16 1401.95 1551.43 L1401.95 1550.12 L1396.13 1550.12 M1407.81 1547.71 L1407.81 1568.04 L1401.95 1568.04 L1401.95 1562.63 Q1399.94 1565.88 1396.95 1567.44 Q1393.96 1568.97 1389.63 1568.97 Q1384.16 1568.97 1380.91 1565.91 Q1377.7 1562.82 1377.7 1557.67 Q1377.7 1551.65 1381.71 1548.6 Q1385.75 1545.54 1393.74 1545.54 L1401.95 1545.54 L1401.95 1544.97 Q1401.95 1540.93 1399.28 1538.73 Q1396.63 1536.5 1391.83 1536.5 Q1388.77 1536.5 1385.88 1537.23 Q1382.98 1537.97 1380.31 1539.43 L1380.31 1534.02 Q1383.52 1532.78 1386.54 1532.17 Q1389.57 1531.54 1392.43 1531.54 Q1400.17 1531.54 1403.99 1535.55 Q1407.81 1539.56 1407.81 1547.71 Z" fill="#000000" fill-rule="evenodd" fill-opacity="1" /><path clip-path="url(#clip100)" d="M 0 0 M1425.66 1522.27 L1425.66 1532.4 L1437.73 1532.4 L1437.73 1536.95 L1425.66 1536.95 L1425.66 1556.3 Q1425.66 1560.66 1426.84 1561.9 Q1428.05 1563.14 1431.71 1563.14 L1437.73 1563.14 L1437.73 1568.04 L1431.71 1568.04 Q1424.93 1568.04 1422.35 1565.53 Q1419.77 1562.98 1419.77 1556.3 L1419.77 1536.95 L1415.48 1536.95 L1415.48 1532.4 L1419.77 1532.4 L1419.77 1522.27 L1425.66 1522.27 Z" fill="#000000" fill-rule="evenodd" fill-opacity="1" /><path clip-path="url(#clip100)" d="M 0 0 M1445.43 1532.4 L1451.28 1532.4 L1451.28 1568.04 L1445.43 1568.04 L1445.43 1532.4 M1445.43 1518.52 L1451.28 1518.52 L1451.28 1525.93 L1445.43 1525.93 L1445.43 1518.52 Z" fill="#000000" fill-rule="evenodd" fill-opacity="1" /><path clip-path="url(#clip100)" d="M 0 0 M1477.35 1536.5 Q1472.64 1536.5 1469.9 1540.19 Q1467.17 1543.85 1467.17 1550.25 Q1467.17 1556.65 1469.87 1560.34 Q1472.61 1564 1477.35 1564 Q1482.03 1564 1484.77 1560.31 Q1487.51 1556.62 1487.51 1550.25 Q1487.51 1543.92 1484.77 1540.23 Q1482.03 1536.5 1477.35 1536.5 M1477.35 1531.54 Q1484.99 1531.54 1489.35 1536.5 Q1493.71 1541.47 1493.71 1550.25 Q1493.71 1559 1489.35 1564 Q1484.99 1568.97 1477.35 1568.97 Q1469.68 1568.97 1465.32 1564 Q1460.99 1559 1460.99 1550.25 Q1460.99 1541.47 1465.32 1536.5 Q1469.68 1531.54 1477.35 1531.54 Z" fill="#000000" fill-rule="evenodd" fill-opacity="1" /><polyline clip-path="url(#clip102)" style="stroke:#000000; stroke-width:2; stroke-opacity:0.1; fill:none" points="
  203.964,1386.4 2352.76,1386.4 
  "/>
<polyline clip-path="url(#clip102)" style="stroke:#000000; stroke-width:2; stroke-opacity:0.1; fill:none" points="
  203.964,1169.64 2352.76,1169.64 
  "/>
<polyline clip-path="url(#clip102)" style="stroke:#000000; stroke-width:2; stroke-opacity:0.1; fill:none" points="
  203.964,952.89 2352.76,952.89 
  "/>
<polyline clip-path="url(#clip102)" style="stroke:#000000; stroke-width:2; stroke-opacity:0.1; fill:none" points="
  203.964,736.137 2352.76,736.137 
  "/>
<polyline clip-path="url(#clip102)" style="stroke:#000000; stroke-width:2; stroke-opacity:0.1; fill:none" points="
  203.964,519.384 2352.76,519.384 
  "/>
<polyline clip-path="url(#clip102)" style="stroke:#000000; stroke-width:2; stroke-opacity:0.1; fill:none" points="
  203.964,302.631 2352.76,302.631 
  "/>
<polyline clip-path="url(#clip100)" style="stroke:#000000; stroke-width:4; stroke-opacity:1; fill:none" points="
  203.964,1423.18 203.964,123.472 
  "/>
<polyline clip-path="url(#clip100)" style="stroke:#000000; stroke-width:4; stroke-opacity:1; fill:none" points="
  203.964,1386.4 229.749,1386.4 
  "/>
<polyline clip-path="url(#clip100)" style="stroke:#000000; stroke-width:4; stroke-opacity:1; fill:none" points="
  203.964,1169.64 229.749,1169.64 
  "/>
<polyline clip-path="url(#clip100)" style="stroke:#000000; stroke-width:4; stroke-opacity:1; fill:none" points="
  203.964,952.89 229.749,952.89 
  "/>
<polyline clip-path="url(#clip100)" style="stroke:#000000; stroke-width:4; stroke-opacity:1; fill:none" points="
  203.964,736.137 229.749,736.137 
  "/>
<polyline clip-path="url(#clip100)" style="stroke:#000000; stroke-width:4; stroke-opacity:1; fill:none" points="
  203.964,519.384 229.749,519.384 
  "/>
<polyline clip-path="url(#clip100)" style="stroke:#000000; stroke-width:4; stroke-opacity:1; fill:none" points="
  203.964,302.631 229.749,302.631 
  "/>
<path clip-path="url(#clip100)" d="M 0 0 M156.019 1372.19 Q152.408 1372.19 150.579 1375.76 Q148.774 1379.3 148.774 1386.43 Q148.774 1393.54 150.579 1397.1 Q152.408 1400.64 156.019 1400.64 Q159.653 1400.64 161.459 1397.1 Q163.288 1393.54 163.288 1386.43 Q163.288 1379.3 161.459 1375.76 Q159.653 1372.19 156.019 1372.19 M156.019 1368.49 Q161.829 1368.49 164.885 1373.1 Q167.964 1377.68 167.964 1386.43 Q167.964 1395.16 164.885 1399.76 Q161.829 1404.35 156.019 1404.35 Q150.209 1404.35 147.13 1399.76 Q144.075 1395.16 144.075 1386.43 Q144.075 1377.68 147.13 1373.1 Q150.209 1368.49 156.019 1368.49 Z" fill="#000000" fill-rule="evenodd" fill-opacity="1" /><path clip-path="url(#clip100)" d="M 0 0 M147.061 1152.36 L165.417 1152.36 L165.417 1156.3 L151.343 1156.3 L151.343 1164.77 Q152.362 1164.42 153.38 1164.26 Q154.399 1164.08 155.417 1164.08 Q161.204 1164.08 164.584 1167.25 Q167.964 1170.42 167.964 1175.83 Q167.964 1181.41 164.491 1184.52 Q161.019 1187.59 154.7 1187.59 Q152.524 1187.59 150.255 1187.22 Q148.01 1186.85 145.603 1186.11 L145.603 1181.41 Q147.686 1182.55 149.908 1183.1 Q152.13 1183.66 154.607 1183.66 Q158.612 1183.66 160.95 1181.55 Q163.288 1179.45 163.288 1175.83 Q163.288 1172.22 160.95 1170.12 Q158.612 1168.01 154.607 1168.01 Q152.732 1168.01 150.857 1168.43 Q149.005 1168.84 147.061 1169.72 L147.061 1152.36 Z" fill="#000000" fill-rule="evenodd" fill-opacity="1" /><path clip-path="url(#clip100)" d="M 0 0 M116.668 966.235 L124.306 966.235 L124.306 939.869 L115.996 941.536 L115.996 937.277 L124.26 935.61 L128.936 935.61 L128.936 966.235 L136.575 966.235 L136.575 970.17 L116.668 970.17 L116.668 966.235 Z" fill="#000000" fill-rule="evenodd" fill-opacity="1" /><path clip-path="url(#clip100)" d="M 0 0 M156.019 938.689 Q152.408 938.689 150.579 942.253 Q148.774 945.795 148.774 952.925 Q148.774 960.031 150.579 963.596 Q152.408 967.138 156.019 967.138 Q159.653 967.138 161.459 963.596 Q163.288 960.031 163.288 952.925 Q163.288 945.795 161.459 942.253 Q159.653 938.689 156.019 938.689 M156.019 934.985 Q161.829 934.985 164.885 939.591 Q167.964 944.175 167.964 952.925 Q167.964 961.651 164.885 966.258 Q161.829 970.841 156.019 970.841 Q150.209 970.841 147.13 966.258 Q144.075 961.651 144.075 952.925 Q144.075 944.175 147.13 939.591 Q150.209 934.985 156.019 934.985 Z" fill="#000000" fill-rule="evenodd" fill-opacity="1" /><path clip-path="url(#clip100)" d="M 0 0 M117.663 749.482 L125.302 749.482 L125.302 723.116 L116.992 724.783 L116.992 720.524 L125.255 718.857 L129.931 718.857 L129.931 749.482 L137.57 749.482 L137.57 753.417 L117.663 753.417 L117.663 749.482 Z" fill="#000000" fill-rule="evenodd" fill-opacity="1" /><path clip-path="url(#clip100)" d="M 0 0 M147.061 718.857 L165.417 718.857 L165.417 722.792 L151.343 722.792 L151.343 731.264 Q152.362 730.917 153.38 730.755 Q154.399 730.57 155.417 730.57 Q161.204 730.57 164.584 733.741 Q167.964 736.913 167.964 742.329 Q167.964 747.908 164.491 751.01 Q161.019 754.088 154.7 754.088 Q152.524 754.088 150.255 753.718 Q148.01 753.348 145.603 752.607 L145.603 747.908 Q147.686 749.042 149.908 749.598 Q152.13 750.153 154.607 750.153 Q158.612 750.153 160.95 748.047 Q163.288 745.94 163.288 742.329 Q163.288 738.718 160.95 736.612 Q158.612 734.505 154.607 734.505 Q152.732 734.505 150.857 734.922 Q149.005 735.338 147.061 736.218 L147.061 718.857 Z" fill="#000000" fill-rule="evenodd" fill-opacity="1" /><path clip-path="url(#clip100)" d="M 0 0 M119.885 532.729 L136.204 532.729 L136.204 536.664 L114.26 536.664 L114.26 532.729 Q116.922 529.974 121.505 525.345 Q126.112 520.692 127.292 519.349 Q129.538 516.826 130.417 515.09 Q131.32 513.331 131.32 511.641 Q131.32 508.887 129.376 507.15 Q127.455 505.414 124.353 505.414 Q122.154 505.414 119.7 506.178 Q117.269 506.942 114.492 508.493 L114.492 503.771 Q117.316 502.637 119.769 502.058 Q122.223 501.479 124.26 501.479 Q129.63 501.479 132.825 504.164 Q136.019 506.85 136.019 511.34 Q136.019 513.47 135.209 515.391 Q134.422 517.289 132.316 519.882 Q131.737 520.553 128.635 523.771 Q125.533 526.965 119.885 532.729 Z" fill="#000000" fill-rule="evenodd" fill-opacity="1" /><path clip-path="url(#clip100)" d="M 0 0 M156.019 505.183 Q152.408 505.183 150.579 508.748 Q148.774 512.289 148.774 519.419 Q148.774 526.525 150.579 530.09 Q152.408 533.632 156.019 533.632 Q159.653 533.632 161.459 530.09 Q163.288 526.525 163.288 519.419 Q163.288 512.289 161.459 508.748 Q159.653 505.183 156.019 505.183 M156.019 501.479 Q161.829 501.479 164.885 506.086 Q167.964 510.669 167.964 519.419 Q167.964 528.146 164.885 532.752 Q161.829 537.336 156.019 537.336 Q150.209 537.336 147.13 532.752 Q144.075 528.146 144.075 519.419 Q144.075 510.669 147.13 506.086 Q150.209 501.479 156.019 501.479 Z" fill="#000000" fill-rule="evenodd" fill-opacity="1" /><path clip-path="url(#clip100)" d="M 0 0 M120.88 315.976 L137.2 315.976 L137.2 319.911 L115.256 319.911 L115.256 315.976 Q117.918 313.222 122.501 308.592 Q127.107 303.939 128.288 302.597 Q130.533 300.073 131.413 298.337 Q132.316 296.578 132.316 294.888 Q132.316 292.134 130.371 290.398 Q128.45 288.662 125.348 288.662 Q123.149 288.662 120.695 289.425 Q118.265 290.189 115.487 291.74 L115.487 287.018 Q118.311 285.884 120.765 285.305 Q123.218 284.726 125.255 284.726 Q130.626 284.726 133.82 287.412 Q137.015 290.097 137.015 294.587 Q137.015 296.717 136.204 298.638 Q135.417 300.536 133.311 303.129 Q132.732 303.8 129.63 307.018 Q126.529 310.212 120.88 315.976 Z" fill="#000000" fill-rule="evenodd" fill-opacity="1" /><path clip-path="url(#clip100)" d="M 0 0 M147.061 285.351 L165.417 285.351 L165.417 289.287 L151.343 289.287 L151.343 297.759 Q152.362 297.411 153.38 297.249 Q154.399 297.064 155.417 297.064 Q161.204 297.064 164.584 300.236 Q167.964 303.407 167.964 308.823 Q167.964 314.402 164.491 317.504 Q161.019 320.583 154.7 320.583 Q152.524 320.583 150.255 320.212 Q148.01 319.842 145.603 319.101 L145.603 314.402 Q147.686 315.536 149.908 316.092 Q152.13 316.647 154.607 316.647 Q158.612 316.647 160.95 314.541 Q163.288 312.435 163.288 308.823 Q163.288 305.212 160.95 303.106 Q158.612 300.999 154.607 300.999 Q152.732 300.999 150.857 301.416 Q149.005 301.833 147.061 302.712 L147.061 285.351 Z" fill="#000000" fill-rule="evenodd" fill-opacity="1" /><path clip-path="url(#clip100)" d="M 0 0 M21.7677 1262.02 L58.7206 1262.02 L58.7206 1254.26 Q58.7206 1244.42 54.2646 1239.87 Q49.8086 1235.29 40.1964 1235.29 Q30.6479 1235.29 26.2237 1239.87 Q21.7677 1244.42 21.7677 1254.26 L21.7677 1262.02 M16.4842 1268.45 L16.4842 1255.24 Q16.4842 1241.43 22.2451 1234.97 Q27.9743 1228.51 40.1964 1228.51 Q52.4822 1228.51 58.2432 1235 Q64.0042 1241.49 64.0042 1255.24 L64.0042 1268.45 L16.4842 1268.45 Z" fill="#000000" fill-rule="evenodd" fill-opacity="1" /><path clip-path="url(#clip100)" d="M 0 0 M28.3562 1218.51 L28.3562 1212.66 L64.0042 1212.66 L64.0042 1218.51 L28.3562 1218.51 M14.479 1218.51 L14.479 1212.66 L21.895 1212.66 L21.895 1218.51 L14.479 1218.51 Z" fill="#000000" fill-rule="evenodd" fill-opacity="1" /><path clip-path="url(#clip100)" d="M 0 0 M14.479 1200.4 L14.479 1194.54 L64.0042 1194.54 L64.0042 1200.4 L14.479 1200.4 Z" fill="#000000" fill-rule="evenodd" fill-opacity="1" /><path clip-path="url(#clip100)" d="M 0 0 M49.9359 1182.9 L28.3562 1182.9 L28.3562 1177.04 L49.7131 1177.04 Q54.7739 1177.04 57.3202 1175.07 Q59.8346 1173.09 59.8346 1169.15 Q59.8346 1164.4 56.8109 1161.67 Q53.7872 1158.9 48.5673 1158.9 L28.3562 1158.9 L28.3562 1153.04 L64.0042 1153.04 L64.0042 1158.9 L58.5296 1158.9 Q61.7762 1161.03 63.3676 1163.86 Q64.9272 1166.66 64.9272 1170.39 Q64.9272 1176.53 61.1078 1179.71 Q57.2883 1182.9 49.9359 1182.9 M27.4968 1168.16 L27.4968 1168.16 Z" fill="#000000" fill-rule="evenodd" fill-opacity="1" /><path clip-path="url(#clip100)" d="M 0 0 M18.2347 1135.18 L28.3562 1135.18 L28.3562 1123.12 L32.9077 1123.12 L32.9077 1135.18 L52.2594 1135.18 Q56.6199 1135.18 57.8613 1134.01 Q59.1026 1132.8 59.1026 1129.14 L59.1026 1123.12 L64.0042 1123.12 L64.0042 1129.14 Q64.0042 1135.92 61.4897 1138.49 Q58.9434 1141.07 52.2594 1141.07 L32.9077 1141.07 L32.9077 1145.37 L28.3562 1145.37 L28.3562 1141.07 L18.2347 1141.07 L18.2347 1135.18 Z" fill="#000000" fill-rule="evenodd" fill-opacity="1" /><path clip-path="url(#clip100)" d="M 0 0 M28.3562 1115.42 L28.3562 1109.56 L64.0042 1109.56 L64.0042 1115.42 L28.3562 1115.42 M14.479 1115.42 L14.479 1109.56 L21.895 1109.56 L21.895 1115.42 L14.479 1115.42 Z" fill="#000000" fill-rule="evenodd" fill-opacity="1" /><path clip-path="url(#clip100)" d="M 0 0 M32.4621 1083.5 Q32.4621 1088.21 36.1542 1090.94 Q39.8145 1093.68 46.212 1093.68 Q52.6095 1093.68 56.3017 1090.97 Q59.9619 1088.24 59.9619 1083.5 Q59.9619 1078.82 56.2698 1076.08 Q52.5777 1073.34 46.212 1073.34 Q39.8781 1073.34 36.186 1076.08 Q32.4621 1078.82 32.4621 1083.5 M27.4968 1083.5 Q27.4968 1075.86 32.4621 1071.5 Q37.4273 1067.14 46.212 1067.14 Q54.9649 1067.14 59.9619 1071.5 Q64.9272 1075.86 64.9272 1083.5 Q64.9272 1091.17 59.9619 1095.53 Q54.9649 1099.85 46.212 1099.85 Q37.4273 1099.85 32.4621 1095.53 Q27.4968 1091.17 27.4968 1083.5 Z" fill="#000000" fill-rule="evenodd" fill-opacity="1" /><path clip-path="url(#clip100)" d="M 0 0 M42.4881 1027.8 L64.0042 1027.8 L64.0042 1033.65 L42.679 1033.65 Q37.6183 1033.65 35.1038 1035.62 Q32.5894 1037.6 32.5894 1041.55 Q32.5894 1046.29 35.6131 1049.02 Q38.6368 1051.76 43.8567 1051.76 L64.0042 1051.76 L64.0042 1057.65 L28.3562 1057.65 L28.3562 1051.76 L33.8944 1051.76 Q30.6797 1049.66 29.0883 1046.83 Q27.4968 1043.96 27.4968 1040.24 Q27.4968 1034.1 31.3163 1030.95 Q35.1038 1027.8 42.4881 1027.8 Z" fill="#000000" fill-rule="evenodd" fill-opacity="1" /><path clip-path="url(#clip100)" d="M 0 0 M33.8307 974.737 Q33.2578 975.724 33.0032 976.901 Q32.7167 978.047 32.7167 979.448 Q32.7167 984.413 35.9632 987.086 Q39.1779 989.728 45.2253 989.728 L64.0042 989.728 L64.0042 995.616 L28.3562 995.616 L28.3562 989.728 L33.8944 989.728 Q30.6479 987.882 29.0883 984.922 Q27.4968 981.962 27.4968 977.729 Q27.4968 977.124 27.5923 976.392 Q27.656 975.66 27.8151 974.769 L33.8307 974.737 Z" fill="#000000" fill-rule="evenodd" fill-opacity="1" /><path clip-path="url(#clip100)" d="M 0 0 M46.0847 952.393 Q46.0847 959.491 47.7079 962.228 Q49.3312 964.966 53.2461 964.966 Q56.3653 964.966 58.2114 962.929 Q60.0256 960.86 60.0256 957.327 Q60.0256 952.457 56.5881 949.529 Q53.1188 946.569 47.3897 946.569 L46.0847 946.569 L46.0847 952.393 M43.6657 940.712 L64.0042 940.712 L64.0042 946.569 L58.5933 946.569 Q61.8398 948.574 63.3994 951.566 Q64.9272 954.558 64.9272 958.886 Q64.9272 964.361 61.8716 967.607 Q58.7843 970.822 53.6281 970.822 Q47.6125 970.822 44.5569 966.812 Q41.5014 962.769 41.5014 954.78 L41.5014 946.569 L40.9285 946.569 Q36.8862 946.569 34.6901 949.242 Q32.4621 951.884 32.4621 956.69 Q32.4621 959.746 33.1941 962.642 Q33.9262 965.538 35.3903 968.212 L29.9795 968.212 Q28.7381 964.997 28.1334 961.974 Q27.4968 958.95 27.4968 956.085 Q27.4968 948.351 31.5072 944.532 Q35.5176 940.712 43.6657 940.712 Z" fill="#000000" fill-rule="evenodd" fill-opacity="1" /><path clip-path="url(#clip100)" d="M 0 0 M18.2347 922.856 L28.3562 922.856 L28.3562 910.793 L32.9077 910.793 L32.9077 922.856 L52.2594 922.856 Q56.6199 922.856 57.8613 921.679 Q59.1026 920.469 59.1026 916.809 L59.1026 910.793 L64.0042 910.793 L64.0042 916.809 Q64.0042 923.588 61.4897 926.167 Q58.9434 928.745 52.2594 928.745 L32.9077 928.745 L32.9077 933.042 L28.3562 933.042 L28.3562 928.745 L18.2347 928.745 L18.2347 922.856 Z" fill="#000000" fill-rule="evenodd" fill-opacity="1" /><path clip-path="url(#clip100)" d="M 0 0 M28.3562 903.091 L28.3562 897.234 L64.0042 897.234 L64.0042 903.091 L28.3562 903.091 M14.479 903.091 L14.479 897.234 L21.895 897.234 L21.895 903.091 L14.479 903.091 Z" fill="#000000" fill-rule="evenodd" fill-opacity="1" /><path clip-path="url(#clip100)" d="M 0 0 M32.4621 871.167 Q32.4621 875.878 36.1542 878.615 Q39.8145 881.352 46.212 881.352 Q52.6095 881.352 56.3017 878.647 Q59.9619 875.909 59.9619 871.167 Q59.9619 866.488 56.2698 863.751 Q52.5777 861.014 46.212 861.014 Q39.8781 861.014 36.186 863.751 Q32.4621 866.488 32.4621 871.167 M27.4968 871.167 Q27.4968 863.528 32.4621 859.168 Q37.4273 854.807 46.212 854.807 Q54.9649 854.807 59.9619 859.168 Q64.9272 863.528 64.9272 871.167 Q64.9272 878.838 59.9619 883.198 Q54.9649 887.527 46.212 887.527 Q37.4273 887.527 32.4621 883.198 Q27.4968 878.838 27.4968 871.167 Z" fill="#000000" fill-rule="evenodd" fill-opacity="1" /><path clip-path="url(#clip100)" d="M 0 0 M33.8307 803.722 Q33.2578 804.709 33.0032 805.887 Q32.7167 807.032 32.7167 808.433 Q32.7167 813.398 35.9632 816.072 Q39.1779 818.713 45.2253 818.713 L64.0042 818.713 L64.0042 824.602 L28.3562 824.602 L28.3562 818.713 L33.8944 818.713 Q30.6479 816.867 29.0883 813.907 Q27.4968 810.947 27.4968 806.714 Q27.4968 806.109 27.5923 805.377 Q27.656 804.645 27.8151 803.754 L33.8307 803.722 Z" fill="#000000" fill-rule="evenodd" fill-opacity="1" /><path clip-path="url(#clip100)" d="M 0 0 M44.7161 768.52 L47.5806 768.52 L47.5806 795.447 Q53.6281 795.065 56.8109 791.818 Q59.9619 788.54 59.9619 782.715 Q59.9619 779.342 59.1344 776.191 Q58.3069 773.008 56.6518 769.889 L62.1899 769.889 Q63.5267 773.04 64.227 776.35 Q64.9272 779.66 64.9272 783.066 Q64.9272 791.596 59.9619 796.593 Q54.9967 801.558 46.5303 801.558 Q37.7774 801.558 32.6531 796.847 Q27.4968 792.105 27.4968 784.084 Q27.4968 776.891 32.1438 772.721 Q36.7589 768.52 44.7161 768.52 M42.9973 774.376 Q38.1912 774.44 35.3266 777.082 Q32.4621 779.692 32.4621 784.02 Q32.4621 788.922 35.2312 791.882 Q38.0002 794.81 43.0292 795.256 L42.9973 774.376 Z" fill="#000000" fill-rule="evenodd" fill-opacity="1" /><path clip-path="url(#clip100)" d="M 0 0 M14.479 758.908 L14.479 753.051 L64.0042 753.051 L64.0042 758.908 L14.479 758.908 Z" fill="#000000" fill-rule="evenodd" fill-opacity="1" /><path clip-path="url(#clip100)" d="M 0 0 M46.0847 724.596 Q46.0847 731.694 47.7079 734.432 Q49.3312 737.169 53.2461 737.169 Q56.3653 737.169 58.2114 735.132 Q60.0256 733.063 60.0256 729.53 Q60.0256 724.66 56.5881 721.732 Q53.1188 718.772 47.3897 718.772 L46.0847 718.772 L46.0847 724.596 M43.6657 712.915 L64.0042 712.915 L64.0042 718.772 L58.5933 718.772 Q61.8398 720.777 63.3994 723.769 Q64.9272 726.761 64.9272 731.09 Q64.9272 736.564 61.8716 739.811 Q58.7843 743.025 53.6281 743.025 Q47.6125 743.025 44.5569 739.015 Q41.5014 734.973 41.5014 726.984 L41.5014 718.772 L40.9285 718.772 Q36.8862 718.772 34.6901 721.445 Q32.4621 724.087 32.4621 728.893 Q32.4621 731.949 33.1941 734.845 Q33.9262 737.742 35.3903 740.415 L29.9795 740.415 Q28.7381 737.201 28.1334 734.177 Q27.4968 731.153 27.4968 728.289 Q27.4968 720.554 31.5072 716.735 Q35.5176 712.915 43.6657 712.915 Z" fill="#000000" fill-rule="evenodd" fill-opacity="1" /><path clip-path="url(#clip100)" d="M 0 0 M18.2347 695.06 L28.3562 695.06 L28.3562 682.997 L32.9077 682.997 L32.9077 695.06 L52.2594 695.06 Q56.6199 695.06 57.8613 693.882 Q59.1026 692.672 59.1026 689.012 L59.1026 682.997 L64.0042 682.997 L64.0042 689.012 Q64.0042 695.792 61.4897 698.37 Q58.9434 700.948 52.2594 700.948 L32.9077 700.948 L32.9077 705.245 L28.3562 705.245 L28.3562 700.948 L18.2347 700.948 L18.2347 695.06 Z" fill="#000000" fill-rule="evenodd" fill-opacity="1" /><path clip-path="url(#clip100)" d="M 0 0 M28.3562 675.294 L28.3562 669.438 L64.0042 669.438 L64.0042 675.294 L28.3562 675.294 M14.479 675.294 L14.479 669.438 L21.895 669.438 L21.895 675.294 L14.479 675.294 Z" fill="#000000" fill-rule="evenodd" fill-opacity="1" /><path clip-path="url(#clip100)" d="M 0 0 M28.3562 661.385 L28.3562 655.178 L58.275 644.038 L28.3562 632.898 L28.3562 626.692 L64.0042 640.06 L64.0042 648.017 L28.3562 661.385 Z" fill="#000000" fill-rule="evenodd" fill-opacity="1" /><path clip-path="url(#clip100)" d="M 0 0 M44.7161 588.116 L47.5806 588.116 L47.5806 615.043 Q53.6281 614.661 56.8109 611.414 Q59.9619 608.136 59.9619 602.311 Q59.9619 598.937 59.1344 595.786 Q58.3069 592.604 56.6518 589.484 L62.1899 589.484 Q63.5267 592.635 64.227 595.946 Q64.9272 599.256 64.9272 602.661 Q64.9272 611.191 59.9619 616.189 Q54.9967 621.154 46.5303 621.154 Q37.7774 621.154 32.6531 616.443 Q27.4968 611.701 27.4968 603.68 Q27.4968 596.487 32.1438 592.317 Q36.7589 588.116 44.7161 588.116 M42.9973 593.972 Q38.1912 594.036 35.3266 596.678 Q32.4621 599.288 32.4621 603.616 Q32.4621 608.518 35.2312 611.478 Q38.0002 614.406 43.0292 614.852 L42.9973 593.972 Z" fill="#000000" fill-rule="evenodd" fill-opacity="1" /><path clip-path="url(#clip100)" d="M 0 0 M44.7161 527.291 L47.5806 527.291 L47.5806 554.218 Q53.6281 553.836 56.8109 550.59 Q59.9619 547.312 59.9619 541.487 Q59.9619 538.113 59.1344 534.962 Q58.3069 531.779 56.6518 528.66 L62.1899 528.66 Q63.5267 531.811 64.227 535.121 Q64.9272 538.431 64.9272 541.837 Q64.9272 550.367 59.9619 555.364 Q54.9967 560.329 46.5303 560.329 Q37.7774 560.329 32.6531 555.619 Q27.4968 550.876 27.4968 542.856 Q27.4968 535.662 32.1438 531.493 Q36.7589 527.291 44.7161 527.291 M42.9973 533.148 Q38.1912 533.212 35.3266 535.853 Q32.4621 538.463 32.4621 542.792 Q32.4621 547.694 35.2312 550.654 Q38.0002 553.582 43.0292 554.027 L42.9973 533.148 Z" fill="#000000" fill-rule="evenodd" fill-opacity="1" /><path clip-path="url(#clip100)" d="M 0 0 M33.8307 497.022 Q33.2578 498.009 33.0032 499.187 Q32.7167 500.333 32.7167 501.733 Q32.7167 506.698 35.9632 509.372 Q39.1779 512.014 45.2253 512.014 L64.0042 512.014 L64.0042 517.902 L28.3562 517.902 L28.3562 512.014 L33.8944 512.014 Q30.6479 510.168 29.0883 507.208 Q27.4968 504.248 27.4968 500.014 Q27.4968 499.41 27.5923 498.678 Q27.656 497.946 27.8151 497.054 L33.8307 497.022 Z" fill="#000000" fill-rule="evenodd" fill-opacity="1" /><path clip-path="url(#clip100)" d="M 0 0 M33.8307 471.369 Q33.2578 472.355 33.0032 473.533 Q32.7167 474.679 32.7167 476.079 Q32.7167 481.045 35.9632 483.718 Q39.1779 486.36 45.2253 486.36 L64.0042 486.36 L64.0042 492.248 L28.3562 492.248 L28.3562 486.36 L33.8944 486.36 Q30.6479 484.514 29.0883 481.554 Q27.4968 478.594 27.4968 474.361 Q27.4968 473.756 27.5923 473.024 Q27.656 472.292 27.8151 471.401 L33.8307 471.369 Z" fill="#000000" fill-rule="evenodd" fill-opacity="1" /><path clip-path="url(#clip100)" d="M 0 0 M32.4621 452.844 Q32.4621 457.555 36.1542 460.292 Q39.8145 463.03 46.212 463.03 Q52.6095 463.03 56.3017 460.324 Q59.9619 457.587 59.9619 452.844 Q59.9619 448.166 56.2698 445.428 Q52.5777 442.691 46.212 442.691 Q39.8781 442.691 36.186 445.428 Q32.4621 448.166 32.4621 452.844 M27.4968 452.844 Q27.4968 445.206 32.4621 440.845 Q37.4273 436.485 46.212 436.485 Q54.9649 436.485 59.9619 440.845 Q64.9272 445.206 64.9272 452.844 Q64.9272 460.515 59.9619 464.876 Q54.9649 469.204 46.212 469.204 Q37.4273 469.204 32.4621 464.876 Q27.4968 460.515 27.4968 452.844 Z" fill="#000000" fill-rule="evenodd" fill-opacity="1" /><path clip-path="url(#clip100)" d="M 0 0 M33.8307 406.12 Q33.2578 407.107 33.0032 408.285 Q32.7167 409.43 32.7167 410.831 Q32.7167 415.796 35.9632 418.47 Q39.1779 421.111 45.2253 421.111 L64.0042 421.111 L64.0042 427 L28.3562 427 L28.3562 421.111 L33.8944 421.111 Q30.6479 419.265 29.0883 416.305 Q27.4968 413.345 27.4968 409.112 Q27.4968 408.507 27.5923 407.775 Q27.656 407.043 27.8151 406.152 L33.8307 406.12 Z" fill="#000000" fill-rule="evenodd" fill-opacity="1" /><path clip-path="url(#clip100)" d="M 0 0 M14.5426 365.189 Q21.8632 369.454 29.0246 371.523 Q36.186 373.591 43.5384 373.591 Q50.8908 373.591 58.1159 371.523 Q65.3091 369.422 72.5979 365.189 L72.5979 370.281 Q65.1182 375.056 57.8931 377.443 Q50.668 379.798 43.5384 379.798 Q36.4406 379.798 29.2474 377.443 Q22.0542 375.087 14.5426 370.281 L14.5426 365.189 Z" fill="#000000" fill-rule="evenodd" fill-opacity="1" /><path clip-path="url(#clip100)" d="M 0 0 M43.0928 312.576 Q43.0928 315.345 45.4481 316.937 Q47.8034 318.496 52.0048 318.496 Q56.1425 318.496 58.5296 316.937 Q60.885 315.345 60.885 312.576 Q60.885 309.871 58.5296 308.311 Q56.1425 306.72 52.0048 306.72 Q47.8353 306.72 45.48 308.311 Q43.0928 309.871 43.0928 312.576 M39.0506 312.576 Q39.0506 307.547 42.5517 304.587 Q46.0529 301.627 52.0048 301.627 Q57.9567 301.627 61.4579 304.619 Q64.9272 307.579 64.9272 312.576 Q64.9272 317.669 61.4579 320.629 Q57.9567 323.589 52.0048 323.589 Q46.021 323.589 42.5517 320.629 Q39.0506 317.637 39.0506 312.576 M19.667 345.423 Q19.667 348.16 22.0542 349.752 Q24.4095 351.311 28.5472 351.311 Q32.7485 351.311 35.1038 349.752 Q37.4592 348.192 37.4592 345.423 Q37.4592 342.654 35.1038 341.095 Q32.7485 339.503 28.5472 339.503 Q24.4413 339.503 22.0542 341.095 Q19.667 342.686 19.667 345.423 M15.6248 316.682 L15.6248 311.589 L64.9272 341.317 L64.9272 346.41 L15.6248 316.682 M15.6248 345.423 Q15.6248 340.394 19.1259 337.402 Q22.5952 334.411 28.5472 334.411 Q34.5628 334.411 38.0321 337.402 Q41.5014 340.362 41.5014 345.423 Q41.5014 350.484 38.0321 353.444 Q34.5309 356.372 28.5472 356.372 Q22.6271 356.372 19.1259 353.412 Q15.6248 350.452 15.6248 345.423 Z" fill="#000000" fill-rule="evenodd" fill-opacity="1" /><path clip-path="url(#clip100)" d="M 0 0 M14.5426 292.811 L14.5426 287.718 Q22.0542 282.944 29.2474 280.588 Q36.4406 278.201 43.5384 278.201 Q50.668 278.201 57.8931 280.588 Q65.1182 282.944 72.5979 287.718 L72.5979 292.811 Q65.3091 288.577 58.1159 286.509 Q50.8908 284.408 43.5384 284.408 Q36.186 284.408 29.0246 286.509 Q21.8632 288.577 14.5426 292.811 Z" fill="#000000" fill-rule="evenodd" fill-opacity="1" /><path clip-path="url(#clip100)" d="M 0 0 M895.448 12.096 L927.572 12.096 L927.572 18.9825 L902.942 18.9825 L902.942 33.8088 Q904.725 33.2012 906.507 32.9176 Q908.289 32.5936 910.072 32.5936 Q920.199 32.5936 926.113 38.1433 Q932.028 43.6931 932.028 53.1722 Q932.028 62.9348 925.951 68.3631 Q919.875 73.7508 908.816 73.7508 Q905.008 73.7508 901.038 73.1026 Q897.109 72.4545 892.896 71.1582 L892.896 62.9348 Q896.542 64.9198 900.431 65.892 Q904.319 66.8642 908.654 66.8642 Q915.662 66.8642 919.753 63.1779 Q923.845 59.4916 923.845 53.1722 Q923.845 46.8528 919.753 43.1664 Q915.662 39.4801 908.654 39.4801 Q905.373 39.4801 902.092 40.2093 Q898.851 40.9384 895.448 42.4778 L895.448 12.096 Z" fill="#000000" fill-rule="evenodd" fill-opacity="1" /><path clip-path="url(#clip100)" d="M 0 0 M1025.97 45.9616 Q1022.44 45.9616 1020.42 48.9592 Q1018.43 51.9569 1018.43 57.3041 Q1018.43 62.5703 1020.42 65.6084 Q1022.44 68.6061 1025.97 68.6061 Q1029.41 68.6061 1031.4 65.6084 Q1033.42 62.5703 1033.42 57.3041 Q1033.42 51.9974 1031.4 48.9997 Q1029.41 45.9616 1025.97 45.9616 M1025.97 40.8169 Q1032.37 40.8169 1036.14 45.2729 Q1039.9 49.7289 1039.9 57.3041 Q1039.9 64.8793 1036.1 69.3353 Q1032.33 73.7508 1025.97 73.7508 Q1019.49 73.7508 1015.72 69.3353 Q1011.95 64.8793 1011.95 57.3041 Q1011.95 49.6884 1015.72 45.2729 Q1019.53 40.8169 1025.97 40.8169 M984.163 16.1469 Q980.679 16.1469 978.654 19.1851 Q976.669 22.1828 976.669 27.4489 Q976.669 32.7961 978.654 35.7938 Q980.639 38.7915 984.163 38.7915 Q987.687 38.7915 989.672 35.7938 Q991.698 32.7961 991.698 27.4489 Q991.698 22.2233 989.672 19.1851 Q987.647 16.1469 984.163 16.1469 M1020.74 11.0023 L1027.22 11.0023 L989.388 73.7508 L982.907 73.7508 L1020.74 11.0023 M984.163 11.0023 Q990.563 11.0023 994.371 15.4583 Q998.179 19.8737 998.179 27.4489 Q998.179 35.1051 994.371 39.5206 Q990.604 43.9361 984.163 43.9361 Q977.722 43.9361 973.955 39.5206 Q970.228 35.0646 970.228 27.4489 Q970.228 19.9142 973.995 15.4583 Q977.762 11.0023 984.163 11.0023 Z" fill="#000000" fill-rule="evenodd" fill-opacity="1" /><path clip-path="url(#clip100)" d="M 0 0 M1101.64 9.54393 L1101.64 15.7418 L1094.51 15.7418 Q1090.5 15.7418 1088.92 17.3622 Q1087.38 18.9825 1087.38 23.1955 L1087.38 27.2059 L1099.65 27.2059 L1099.65 32.9987 L1087.38 32.9987 L1087.38 72.576 L1079.89 72.576 L1079.89 32.9987 L1072.76 32.9987 L1072.76 27.2059 L1079.89 27.2059 L1079.89 24.0462 Q1079.89 16.471 1083.41 13.0277 Q1086.93 9.54393 1094.59 9.54393 L1101.64 9.54393 Z" fill="#000000" fill-rule="evenodd" fill-opacity="1" /><path clip-path="url(#clip100)" d="M 0 0 M1107.88 9.54393 L1115.33 9.54393 L1115.33 72.576 L1107.88 72.576 L1107.88 9.54393 Z" fill="#000000" fill-rule="evenodd" fill-opacity="1" /><path clip-path="url(#clip100)" d="M 0 0 M1148.51 32.4315 Q1142.51 32.4315 1139.03 37.1306 Q1135.55 41.7891 1135.55 49.9314 Q1135.55 58.0738 1138.99 62.7728 Q1142.47 67.4314 1148.51 67.4314 Q1154.46 67.4314 1157.95 62.7323 Q1161.43 58.0333 1161.43 49.9314 Q1161.43 41.8701 1157.95 37.1711 Q1154.46 32.4315 1148.51 32.4315 M1148.51 26.1121 Q1158.23 26.1121 1163.78 32.4315 Q1169.33 38.7509 1169.33 49.9314 Q1169.33 61.0714 1163.78 67.4314 Q1158.23 73.7508 1148.51 73.7508 Q1138.75 73.7508 1133.2 67.4314 Q1127.69 61.0714 1127.69 49.9314 Q1127.69 38.7509 1133.2 32.4315 Q1138.75 26.1121 1148.51 26.1121 Z" fill="#000000" fill-rule="evenodd" fill-opacity="1" /><path clip-path="url(#clip100)" d="M 0 0 M1177.35 27.2059 L1184.8 27.2059 L1194.12 62.6108 L1203.4 27.2059 L1212.19 27.2059 L1221.51 62.6108 L1230.78 27.2059 L1238.24 27.2059 L1226.37 72.576 L1217.58 72.576 L1207.81 35.3887 L1198.01 72.576 L1189.22 72.576 L1177.35 27.2059 Z" fill="#000000" fill-rule="evenodd" fill-opacity="1" /><path clip-path="url(#clip100)" d="M 0 0 M1302.2 34.1734 Q1300.94 33.4443 1299.44 33.1202 Q1297.99 32.7556 1296.2 32.7556 Q1289.88 32.7556 1286.48 36.8875 Q1283.12 40.9789 1283.12 48.6757 L1283.12 72.576 L1275.63 72.576 L1275.63 27.2059 L1283.12 27.2059 L1283.12 34.2544 Q1285.47 30.1225 1289.24 28.1376 Q1293 26.1121 1298.39 26.1121 Q1299.16 26.1121 1300.09 26.2337 Q1301.02 26.3147 1302.16 26.5172 L1302.2 34.1734 Z" fill="#000000" fill-rule="evenodd" fill-opacity="1" /><path clip-path="url(#clip100)" d="M 0 0 M1330.64 49.7694 Q1321.6 49.7694 1318.12 51.8354 Q1314.64 53.9013 1314.64 58.8839 Q1314.64 62.8538 1317.23 65.2034 Q1319.86 67.5124 1324.36 67.5124 Q1330.56 67.5124 1334.28 63.1374 Q1338.05 58.7219 1338.05 51.4303 L1338.05 49.7694 L1330.64 49.7694 M1345.5 46.6907 L1345.5 72.576 L1338.05 72.576 L1338.05 65.6895 Q1335.5 69.8214 1331.69 71.8063 Q1327.88 73.7508 1322.37 73.7508 Q1315.41 73.7508 1311.27 69.8619 Q1307.18 65.9325 1307.18 59.3701 Q1307.18 51.7138 1312.29 47.825 Q1317.43 43.9361 1327.6 43.9361 L1338.05 43.9361 L1338.05 43.2069 Q1338.05 38.0623 1334.65 35.2672 Q1331.28 32.4315 1325.17 32.4315 Q1321.28 32.4315 1317.59 33.3632 Q1313.91 34.295 1310.5 36.1584 L1310.5 29.2718 Q1314.6 27.692 1318.44 26.9223 Q1322.29 26.1121 1325.94 26.1121 Q1335.78 26.1121 1340.64 31.2163 Q1345.5 36.3204 1345.5 46.6907 Z" fill="#000000" fill-rule="evenodd" fill-opacity="1" /><path clip-path="url(#clip100)" d="M 0 0 M1368.23 14.324 L1368.23 27.2059 L1383.58 27.2059 L1383.58 32.9987 L1368.23 32.9987 L1368.23 57.6282 Q1368.23 63.1779 1369.73 64.7578 Q1371.27 66.3376 1375.93 66.3376 L1383.58 66.3376 L1383.58 72.576 L1375.93 72.576 Q1367.3 72.576 1364.02 69.3758 Q1360.73 66.1351 1360.73 57.6282 L1360.73 32.9987 L1355.27 32.9987 L1355.27 27.2059 L1360.73 27.2059 L1360.73 14.324 L1368.23 14.324 Z" fill="#000000" fill-rule="evenodd" fill-opacity="1" /><path clip-path="url(#clip100)" d="M 0 0 M1432.19 48.0275 L1432.19 51.6733 L1397.92 51.6733 Q1398.41 59.3701 1402.54 63.421 Q1406.71 67.4314 1414.13 67.4314 Q1418.42 67.4314 1422.43 66.3781 Q1426.48 65.3249 1430.45 63.2184 L1430.45 70.267 Q1426.44 71.9684 1422.23 72.8596 Q1418.01 73.7508 1413.68 73.7508 Q1402.82 73.7508 1396.46 67.4314 Q1390.14 61.1119 1390.14 50.3365 Q1390.14 39.1965 1396.14 32.6746 Q1402.18 26.1121 1412.38 26.1121 Q1421.54 26.1121 1426.85 32.0264 Q1432.19 37.9003 1432.19 48.0275 M1424.74 45.84 Q1424.66 39.7232 1421.3 36.0774 Q1417.97 32.4315 1412.46 32.4315 Q1406.23 32.4315 1402.46 35.9558 Q1398.73 39.4801 1398.17 45.8805 L1424.74 45.84 Z" fill="#000000" fill-rule="evenodd" fill-opacity="1" /><path clip-path="url(#clip100)" d="M 0 0 M1509.61 48.0275 L1509.61 51.6733 L1475.33 51.6733 Q1475.82 59.3701 1479.95 63.421 Q1484.13 67.4314 1491.54 67.4314 Q1495.83 67.4314 1499.84 66.3781 Q1503.89 65.3249 1507.86 63.2184 L1507.86 70.267 Q1503.85 71.9684 1499.64 72.8596 Q1495.43 73.7508 1491.09 73.7508 Q1480.24 73.7508 1473.88 67.4314 Q1467.56 61.1119 1467.56 50.3365 Q1467.56 39.1965 1473.55 32.6746 Q1479.59 26.1121 1489.8 26.1121 Q1498.95 26.1121 1504.26 32.0264 Q1509.61 37.9003 1509.61 48.0275 M1502.15 45.84 Q1502.07 39.7232 1498.71 36.0774 Q1495.39 32.4315 1489.88 32.4315 Q1483.64 32.4315 1479.87 35.9558 Q1476.15 39.4801 1475.58 45.8805 L1502.15 45.84 Z" fill="#000000" fill-rule="evenodd" fill-opacity="1" /><path clip-path="url(#clip100)" d="M 0 0 M1548.13 34.1734 Q1546.87 33.4443 1545.38 33.1202 Q1543.92 32.7556 1542.13 32.7556 Q1535.81 32.7556 1532.41 36.8875 Q1529.05 40.9789 1529.05 48.6757 L1529.05 72.576 L1521.56 72.576 L1521.56 27.2059 L1529.05 27.2059 L1529.05 34.2544 Q1531.4 30.1225 1535.17 28.1376 Q1538.93 26.1121 1544.32 26.1121 Q1545.09 26.1121 1546.02 26.2337 Q1546.95 26.3147 1548.09 26.5172 L1548.13 34.1734 Z" fill="#000000" fill-rule="evenodd" fill-opacity="1" /><path clip-path="url(#clip100)" d="M 0 0 M1580.78 34.1734 Q1579.52 33.4443 1578.03 33.1202 Q1576.57 32.7556 1574.78 32.7556 Q1568.47 32.7556 1565.06 36.8875 Q1561.7 40.9789 1561.7 48.6757 L1561.7 72.576 L1554.21 72.576 L1554.21 27.2059 L1561.7 27.2059 L1561.7 34.2544 Q1564.05 30.1225 1567.82 28.1376 Q1571.58 26.1121 1576.97 26.1121 Q1577.74 26.1121 1578.67 26.2337 Q1579.61 26.3147 1580.74 26.5172 L1580.78 34.1734 Z" fill="#000000" fill-rule="evenodd" fill-opacity="1" /><path clip-path="url(#clip100)" d="M 0 0 M1604.36 32.4315 Q1598.36 32.4315 1594.88 37.1306 Q1591.39 41.7891 1591.39 49.9314 Q1591.39 58.0738 1594.84 62.7728 Q1598.32 67.4314 1604.36 67.4314 Q1610.31 67.4314 1613.79 62.7323 Q1617.28 58.0333 1617.28 49.9314 Q1617.28 41.8701 1613.79 37.1711 Q1610.31 32.4315 1604.36 32.4315 M1604.36 26.1121 Q1614.08 26.1121 1619.63 32.4315 Q1625.18 38.7509 1625.18 49.9314 Q1625.18 61.0714 1619.63 67.4314 Q1614.08 73.7508 1604.36 73.7508 Q1594.59 73.7508 1589.04 67.4314 Q1583.53 61.0714 1583.53 49.9314 Q1583.53 38.7509 1589.04 32.4315 Q1594.59 26.1121 1604.36 26.1121 Z" fill="#000000" fill-rule="evenodd" fill-opacity="1" /><path clip-path="url(#clip100)" d="M 0 0 M1663.82 34.1734 Q1662.57 33.4443 1661.07 33.1202 Q1659.61 32.7556 1657.83 32.7556 Q1651.51 32.7556 1648.11 36.8875 Q1644.74 40.9789 1644.74 48.6757 L1644.74 72.576 L1637.25 72.576 L1637.25 27.2059 L1644.74 27.2059 L1644.74 34.2544 Q1647.09 30.1225 1650.86 28.1376 Q1654.63 26.1121 1660.02 26.1121 Q1660.79 26.1121 1661.72 26.2337 Q1662.65 26.3147 1663.78 26.5172 L1663.82 34.1734 Z" fill="#000000" fill-rule="evenodd" fill-opacity="1" /><polyline clip-path="url(#clip102)" style="stroke:#009af9; stroke-width:8; stroke-opacity:1; fill:none" points="
  264.778,1079.86 269.846,1079.86 274.914,1079.86 279.982,1079.86 285.05,1079.86 290.118,1079.86 295.186,1079.86 300.254,1079.86 305.322,1079.86 310.39,1079.86 
  315.458,1079.86 320.525,1079.86 325.593,1079.86 330.661,1079.86 335.729,1079.86 340.797,1079.86 345.865,1079.86 350.933,1079.86 356.001,1079.86 361.069,1079.86 
  366.137,1079.86 371.204,1079.86 376.272,1079.86 381.34,1079.86 386.408,1079.86 391.476,1079.86 396.544,1079.86 401.612,1079.86 406.68,1079.86 411.748,1079.86 
  416.816,1079.86 421.884,1079.86 426.951,1079.86 432.019,1079.86 437.087,1079.86 442.155,1079.86 447.223,1079.86 452.291,1079.86 457.359,1079.86 462.427,1079.86 
  467.495,1079.86 472.563,1079.86 477.631,1079.86 482.698,1079.86 487.766,1079.86 492.834,1079.86 497.902,1079.86 502.97,1079.86 508.038,1079.86 513.106,1079.86 
  518.174,1079.86 523.242,1079.86 528.31,1079.86 533.377,1079.86 538.445,1079.86 543.513,1079.86 548.581,1079.86 553.649,1079.86 558.717,1079.86 563.785,1079.86 
  568.853,1079.86 573.921,1079.86 578.989,1079.86 584.057,1079.86 589.124,1079.86 594.192,1079.86 599.26,1079.86 604.328,1079.86 609.396,1079.86 614.464,1079.86 
  619.532,1079.86 624.6,1079.86 629.668,1079.86 634.736,1079.86 639.804,1079.86 644.871,1079.86 649.939,1079.86 655.007,1079.86 660.075,1079.86 665.143,1079.86 
  670.211,1079.86 675.279,1079.86 680.347,1079.86 685.415,1079.86 690.483,1079.86 695.55,1079.86 700.618,1079.86 705.686,1079.86 710.754,1079.86 715.822,1079.86 
  720.89,1079.86 725.958,1079.86 731.026,1079.86 736.094,1079.86 741.162,1079.86 746.23,1079.86 751.297,1079.86 756.365,1079.86 761.433,1079.86 766.501,1079.86 
  771.569,1079.86 776.637,1079.86 781.705,1079.86 786.773,1079.86 791.841,1079.86 796.909,1079.86 801.977,1079.86 807.044,1079.86 812.112,1079.86 817.18,1079.86 
  822.248,1079.86 827.316,1079.86 832.384,1079.86 837.452,1079.86 842.52,1079.86 847.588,1079.86 852.656,1079.86 857.724,1079.86 862.791,1079.86 867.859,1079.86 
  872.927,1079.86 877.995,1079.86 883.063,1079.86 888.131,1079.86 893.199,1079.86 898.267,1079.86 903.335,1079.86 908.403,1079.86 913.47,1079.86 918.538,1079.86 
  923.606,1079.86 928.674,1079.86 933.742,1079.86 938.81,1079.86 943.878,1079.86 948.946,1079.86 954.014,1079.86 959.082,1079.86 964.15,1079.86 969.217,1079.86 
  974.285,1079.86 979.353,1079.86 984.421,1079.86 989.489,1079.86 994.557,1079.86 999.625,1079.86 1004.69,1079.86 1009.76,1079.86 1014.83,1079.86 1019.9,1079.86 
  1024.96,1079.86 1030.03,1079.86 1035.1,1079.86 1040.17,1079.86 1045.24,1079.86 1050.3,1079.86 1055.37,1079.86 1060.44,1079.86 1065.51,1079.86 1070.58,1079.86 
  1075.64,1079.86 1080.71,1079.86 1085.78,1079.86 1090.85,1079.86 1095.92,1079.86 1100.98,1079.86 1106.05,1079.86 1111.12,1079.86 1116.19,1079.86 1121.25,1079.86 
  1126.32,1079.86 1131.39,1079.86 1136.46,1079.86 1141.53,1079.86 1146.59,1079.86 1151.66,1079.86 1156.73,1079.86 1161.8,1079.86 1166.87,1079.86 1171.93,1079.86 
  1177,1079.86 1182.07,1079.86 1187.14,1079.86 1192.21,1079.86 1197.27,1079.86 1202.34,1079.86 1207.41,1079.86 1212.48,1079.86 1217.54,1079.86 1222.61,1079.86 
  1227.68,1079.86 1232.75,1079.86 1237.82,1079.86 1242.88,1079.86 1247.95,1079.86 1253.02,1079.86 1258.09,1079.86 1263.16,1079.86 1268.22,1079.86 1273.29,1079.86 
  1278.36,1079.86 1283.43,1079.86 1288.5,1079.86 1293.56,1079.86 1298.63,1079.86 1303.7,1079.86 1308.77,1079.86 1313.84,1079.86 1318.9,1079.86 1323.97,1079.86 
  1329.04,1079.86 1334.11,1079.86 1339.17,1079.86 1344.24,1079.86 1349.31,1079.86 1354.38,1079.86 1359.45,1079.86 1364.51,1079.86 1369.58,1079.86 1374.65,1079.86 
  1379.72,1079.86 1384.79,1079.86 1389.85,1079.86 1394.92,1079.86 1399.99,1079.86 1405.06,1079.86 1410.13,1079.86 1415.19,1079.86 1420.26,1079.86 1425.33,1079.86 
  1430.4,1079.86 1435.46,1079.86 1440.53,1079.86 1445.6,1079.86 1450.67,1079.86 1455.74,1079.86 1460.8,1079.86 1465.87,1079.86 1470.94,1079.86 1476.01,1079.86 
  1481.08,1079.86 1486.14,1079.86 1491.21,1079.86 1496.28,1079.86 1501.35,1079.86 1506.42,1079.86 1511.48,1079.86 1516.55,1079.86 1521.62,1079.86 1526.69,1079.86 
  1531.76,1079.86 1536.82,1079.86 1541.89,1079.86 1546.96,1079.86 1552.03,1079.86 1557.09,1079.86 1562.16,1079.86 1567.23,1079.86 1572.3,1079.86 1577.37,1079.86 
  1582.43,1079.86 1587.5,1079.86 1592.57,1079.86 1597.64,1079.86 1602.71,1079.86 1607.77,1079.86 1612.84,1079.86 1617.91,1079.86 1622.98,1079.86 1628.05,1079.86 
  1633.11,1079.86 1638.18,1079.86 1643.25,1079.86 1648.32,1079.86 1653.38,1079.86 1658.45,1079.86 1663.52,1079.86 1668.59,1079.86 1673.66,1079.86 1678.72,1079.86 
  1683.79,1079.86 1688.86,1079.86 1693.93,1079.86 1699,1079.86 1704.06,1079.86 1709.13,1079.86 1714.2,1079.86 1719.27,1079.86 1724.34,1079.86 1729.4,1079.86 
  1734.47,1079.86 1739.54,1079.86 1744.61,1079.86 1749.68,1079.86 1754.74,1079.86 1759.81,1079.86 1764.88,1079.86 1769.95,1079.86 1775.01,1079.86 1780.08,1079.86 
  1785.15,1079.86 1790.22,1079.86 1795.29,1079.86 1800.35,1079.86 1805.42,1079.86 1810.49,1079.86 1815.56,1079.86 1820.63,1079.86 1825.69,1079.86 1830.76,1079.86 
  1835.83,1079.86 1840.9,1079.86 1845.97,1079.86 1851.03,1079.86 1856.1,1079.86 1861.17,1079.86 1866.24,1079.86 1871.3,1079.86 1876.37,1079.86 1881.44,1079.86 
  1886.51,1079.86 1891.58,1079.86 1896.64,1079.86 1901.71,1079.86 1906.78,1079.86 1911.85,1079.86 1916.92,1079.86 1921.98,1079.86 1927.05,1079.86 1932.12,1079.86 
  1937.19,1079.86 1942.26,1079.86 1947.32,1079.86 1952.39,1079.86 1957.46,1079.86 1962.53,1079.86 1967.6,1079.86 1972.66,1079.86 1977.73,1079.86 1982.8,1079.86 
  1987.87,1079.86 1992.93,1079.86 1998,1079.86 2003.07,1079.86 2008.14,1079.86 2013.21,1079.86 2018.27,1079.86 2023.34,1079.86 2028.41,1079.86 2033.48,1079.86 
  2038.55,1079.86 2043.61,1079.86 2048.68,1079.86 2053.75,1079.86 2058.82,1079.86 2063.89,1079.86 2068.95,1079.86 2074.02,1079.86 2079.09,1079.86 2084.16,1079.86 
  2089.22,1079.86 2094.29,1079.86 2099.36,1079.86 2104.43,1079.86 2109.5,1079.86 2114.56,1079.86 2119.63,1079.86 2124.7,1079.86 2129.77,1079.86 2134.84,1079.86 
  2139.9,1079.86 2144.97,1079.86 2150.04,1079.86 2155.11,1079.86 2160.18,1079.86 2165.24,1079.86 2170.31,1079.86 2175.38,1079.86 2180.45,1079.86 2185.51,1079.86 
  2190.58,1079.86 2195.65,1079.86 2200.72,1079.86 2205.79,1079.86 2210.85,1079.86 2215.92,1079.86 2220.99,1079.86 2226.06,1079.86 2231.13,1079.86 2236.19,1079.86 
  2241.26,1079.86 2246.33,1079.86 2251.4,1079.86 2256.47,1079.86 2261.53,1079.86 2266.6,1079.86 2271.67,1079.86 2276.74,1079.86 2281.81,1079.86 2286.87,1079.86 
  2291.94,1079.86 
  "/>
<polyline clip-path="url(#clip102)" style="stroke:#e26f46; stroke-width:8; stroke-opacity:1; fill:none" points="
  264.778,1386.4 269.846,1383.36 274.914,1380.39 279.982,1377.47 285.05,1374.61 290.118,1371.8 295.186,1369.04 300.254,1366.34 305.322,1363.69 310.39,1361.09 
  315.458,1358.53 320.525,1356.02 325.593,1353.55 330.661,1351.13 335.729,1348.75 340.797,1346.41 345.865,1344.11 350.933,1341.86 356.001,1339.64 361.069,1337.45 
  366.137,1335.31 371.204,1333.2 376.272,1331.12 381.34,1329.08 386.408,1327.07 391.476,1325.09 396.544,1323.14 401.612,1321.23 406.68,1319.34 411.748,1317.48 
  416.816,1315.66 421.884,1313.86 426.951,1312.08 432.019,1310.34 437.087,1308.62 442.155,1306.92 447.223,1305.25 452.291,1303.61 457.359,1301.99 462.427,1300.39 
  467.495,1298.81 472.563,1297.26 477.631,1295.73 482.698,1294.22 487.766,1292.73 492.834,1291.26 497.902,1289.82 502.97,1288.39 508.038,1286.98 513.106,1285.59 
  518.174,1284.22 523.242,1282.86 528.31,1281.53 533.377,1280.21 538.445,1278.91 543.513,1277.63 548.581,1276.36 553.649,1275.11 558.717,1273.87 563.785,1272.65 
  568.853,1271.45 573.921,1270.26 578.989,1269.08 584.057,1267.92 589.124,1266.77 594.192,1265.64 599.26,1264.52 604.328,1263.41 609.396,1262.32 614.464,1261.24 
  619.532,1260.18 624.6,1259.12 629.668,1258.08 634.736,1257.05 639.804,1256.03 644.871,1255.02 649.939,1254.03 655.007,1253.04 660.075,1252.07 665.143,1251.11 
  670.211,1250.16 675.279,1249.22 680.347,1248.29 685.415,1247.37 690.483,1246.46 695.55,1245.56 700.618,1244.66 705.686,1243.78 710.754,1242.91 715.822,1242.05 
  720.89,1241.19 725.958,1240.35 731.026,1239.51 736.094,1238.69 741.162,1237.87 746.23,1237.06 751.297,1236.26 756.365,1235.46 761.433,1234.68 766.501,1233.9 
  771.569,1233.13 776.637,1232.37 781.705,1231.61 786.773,1230.86 791.841,1230.12 796.909,1229.39 801.977,1228.66 807.044,1227.95 812.112,1227.23 817.18,1226.53 
  822.248,1225.83 827.316,1225.14 832.384,1224.45 837.452,1223.77 842.52,1223.1 847.588,1222.44 852.656,1221.78 857.724,1221.12 862.791,1220.47 867.859,1219.83 
  872.927,1219.19 877.995,1218.56 883.063,1217.94 888.131,1217.32 893.199,1216.71 898.267,1216.1 903.335,1215.5 908.403,1214.9 913.47,1214.31 918.538,1213.72 
  923.606,1213.14 928.674,1212.56 933.742,1211.99 938.81,1211.42 943.878,1210.86 948.946,1210.3 954.014,1209.75 959.082,1209.2 964.15,1208.66 969.217,1208.12 
  974.285,1207.58 979.353,1207.05 984.421,1206.53 989.489,1206.01 994.557,1205.49 999.625,1204.98 1004.69,1204.47 1009.76,1203.96 1014.83,1203.46 1019.9,1202.97 
  1024.96,1202.47 1030.03,1201.99 1035.1,1201.5 1040.17,1201.02 1045.24,1200.54 1050.3,1200.07 1055.37,1199.6 1060.44,1199.14 1065.51,1198.67 1070.58,1198.21 
  1075.64,1197.76 1080.71,1197.31 1085.78,1196.86 1090.85,1196.41 1095.92,1195.97 1100.98,1195.53 1106.05,1195.1 1111.12,1194.67 1116.19,1194.24 1121.25,1193.81 
  1126.32,1193.39 1131.39,1192.97 1136.46,1192.56 1141.53,1192.14 1146.59,1191.73 1151.66,1191.33 1156.73,1190.92 1161.8,1190.52 1166.87,1190.13 1171.93,1189.73 
  1177,1189.34 1182.07,1188.95 1187.14,1188.56 1192.21,1188.18 1197.27,1187.8 1202.34,1187.42 1207.41,1187.04 1212.48,1186.67 1217.54,1186.3 1222.61,1185.93 
  1227.68,1185.56 1232.75,1185.2 1237.82,1184.84 1242.88,1184.48 1247.95,1184.12 1253.02,1183.77 1258.09,1183.42 1263.16,1183.07 1268.22,1182.72 1273.29,1182.38 
  1278.36,1182.04 1283.43,1181.7 1288.5,1181.36 1293.56,1181.03 1298.63,1180.69 1303.7,1180.36 1308.77,1180.04 1313.84,1179.71 1318.9,1179.39 1323.97,1179.06 
  1329.04,1178.74 1334.11,1178.43 1339.17,1178.11 1344.24,1177.8 1349.31,1177.48 1354.38,1177.17 1359.45,1176.87 1364.51,1176.56 1369.58,1176.26 1374.65,1175.95 
  1379.72,1175.65 1384.79,1175.35 1389.85,1175.06 1394.92,1174.76 1399.99,1174.47 1405.06,1174.18 1410.13,1173.89 1415.19,1173.6 1420.26,1173.32 1425.33,1173.03 
  1430.4,1172.75 1435.46,1172.47 1440.53,1172.19 1445.6,1171.91 1450.67,1171.64 1455.74,1171.36 1460.8,1171.09 1465.87,1170.82 1470.94,1170.55 1476.01,1170.28 
  1481.08,1170.02 1486.14,1169.75 1491.21,1169.49 1496.28,1169.23 1501.35,1168.97 1506.42,1168.71 1511.48,1168.45 1516.55,1168.2 1521.62,1167.95 1526.69,1167.69 
  1531.76,1167.44 1536.82,1167.19 1541.89,1166.94 1546.96,1166.7 1552.03,1166.45 1557.09,1166.21 1562.16,1165.97 1567.23,1165.72 1572.3,1165.49 1577.37,1165.25 
  1582.43,1165.01 1587.5,1164.77 1592.57,1164.54 1597.64,1164.31 1602.71,1164.07 1607.77,1163.84 1612.84,1163.61 1617.91,1163.39 1622.98,1163.16 1628.05,1162.93 
  1633.11,1162.71 1638.18,1162.48 1643.25,1162.26 1648.32,1162.04 1653.38,1161.82 1658.45,1161.6 1663.52,1161.39 1668.59,1161.17 1673.66,1160.95 1678.72,1160.74 
  1683.79,1160.53 1688.86,1160.32 1693.93,1160.11 1699,1159.9 1704.06,1159.69 1709.13,1159.48 1714.2,1159.27 1719.27,1159.07 1724.34,1158.86 1729.4,1158.66 
  1734.47,1158.46 1739.54,1158.26 1744.61,1158.06 1749.68,1157.86 1754.74,1157.66 1759.81,1157.46 1764.88,1157.27 1769.95,1157.07 1775.01,1156.88 1780.08,1156.69 
  1785.15,1156.49 1790.22,1156.3 1795.29,1156.11 1800.35,1155.92 1805.42,1155.74 1810.49,1155.55 1815.56,1155.36 1820.63,1155.18 1825.69,1154.99 1830.76,1154.81 
  1835.83,1154.63 1840.9,1154.44 1845.97,1154.26 1851.03,1154.08 1856.1,1153.9 1861.17,1153.72 1866.24,1153.55 1871.3,1153.37 1876.37,1153.19 1881.44,1153.02 
  1886.51,1152.85 1891.58,1152.67 1896.64,1152.5 1901.71,1152.33 1906.78,1152.16 1911.85,1151.99 1916.92,1151.82 1921.98,1151.65 1927.05,1151.48 1932.12,1151.31 
  1937.19,1151.15 1942.26,1150.98 1947.32,1150.82 1952.39,1150.65 1957.46,1150.49 1962.53,1150.33 1967.6,1150.17 1972.66,1150.01 1977.73,1149.85 1982.8,1149.69 
  1987.87,1149.53 1992.93,1149.37 1998,1149.21 2003.07,1149.06 2008.14,1148.9 2013.21,1148.75 2018.27,1148.59 2023.34,1148.44 2028.41,1148.28 2033.48,1148.13 
  2038.55,1147.98 2043.61,1147.83 2048.68,1147.68 2053.75,1147.53 2058.82,1147.38 2063.89,1147.23 2068.95,1147.08 2074.02,1146.94 2079.09,1146.79 2084.16,1146.64 
  2089.22,1146.5 2094.29,1146.35 2099.36,1146.21 2104.43,1146.07 2109.5,1145.92 2114.56,1145.78 2119.63,1145.64 2124.7,1145.5 2129.77,1145.36 2134.84,1145.22 
  2139.9,1145.08 2144.97,1144.94 2150.04,1144.8 2155.11,1144.67 2160.18,1144.53 2165.24,1144.39 2170.31,1144.26 2175.38,1144.12 2180.45,1143.99 2185.51,1143.86 
  2190.58,1143.72 2195.65,1143.59 2200.72,1143.46 2205.79,1143.33 2210.85,1143.19 2215.92,1143.06 2220.99,1142.93 2226.06,1142.8 2231.13,1142.68 2236.19,1142.55 
  2241.26,1142.42 2246.33,1142.29 2251.4,1142.16 2256.47,1142.04 2261.53,1141.91 2266.6,1141.79 2271.67,1141.66 2276.74,1141.54 2281.81,1141.41 2286.87,1141.29 
  2291.94,1141.17 
  "/>
<polyline clip-path="url(#clip102)" style="stroke:#3da44d; stroke-width:8; stroke-opacity:1; fill:none" points="
  264.778,1386.4 269.846,1383.33 274.914,1380.26 279.982,1377.2 285.05,1374.13 290.118,1371.07 295.186,1368 300.254,1364.94 305.322,1361.87 310.39,1358.81 
  315.458,1355.74 320.525,1352.68 325.593,1349.61 330.661,1346.55 335.729,1343.48 340.797,1340.42 345.865,1337.35 350.933,1334.28 356.001,1331.22 361.069,1328.15 
  366.137,1325.09 371.204,1322.02 376.272,1318.96 381.34,1315.89 386.408,1312.83 391.476,1309.76 396.544,1306.7 401.612,1303.63 406.68,1300.57 411.748,1297.5 
  416.816,1294.44 421.884,1291.37 426.951,1288.3 432.019,1285.24 437.087,1282.17 442.155,1279.11 447.223,1276.04 452.291,1272.98 457.359,1269.91 462.427,1266.85 
  467.495,1263.78 472.563,1260.72 477.631,1257.65 482.698,1254.59 487.766,1251.52 492.834,1248.45 497.902,1245.39 502.97,1242.32 508.038,1239.26 513.106,1236.19 
  518.174,1233.13 523.242,1230.06 528.31,1227 533.377,1223.93 538.445,1220.87 543.513,1217.8 548.581,1214.74 553.649,1211.67 558.717,1208.61 563.785,1205.54 
  568.853,1202.47 573.921,1199.41 578.989,1196.34 584.057,1193.28 589.124,1190.21 594.192,1187.15 599.26,1184.08 604.328,1181.02 609.396,1177.95 614.464,1174.89 
  619.532,1171.82 624.6,1168.76 629.668,1165.69 634.736,1162.63 639.804,1159.56 644.871,1156.49 649.939,1153.43 655.007,1150.36 660.075,1147.3 665.143,1144.23 
  670.211,1141.17 675.279,1138.1 680.347,1135.04 685.415,1131.97 690.483,1128.91 695.55,1125.84 700.618,1122.78 705.686,1119.71 710.754,1116.65 715.822,1113.58 
  720.89,1110.51 725.958,1107.45 731.026,1104.38 736.094,1101.32 741.162,1098.25 746.23,1095.19 751.297,1092.12 756.365,1089.06 761.433,1085.99 766.501,1082.93 
  771.569,1079.86 776.637,1076.8 781.705,1073.73 786.773,1070.66 791.841,1067.6 796.909,1064.53 801.977,1061.47 807.044,1058.4 812.112,1055.34 817.18,1052.27 
  822.248,1049.21 827.316,1046.14 832.384,1043.08 837.452,1040.01 842.52,1036.95 847.588,1033.88 852.656,1030.82 857.724,1027.75 862.791,1024.68 867.859,1021.62 
  872.927,1018.55 877.995,1015.49 883.063,1012.42 888.131,1009.36 893.199,1006.29 898.267,1003.23 903.335,1000.16 908.403,997.096 913.47,994.031 918.538,990.966 
  923.606,987.9 928.674,984.835 933.742,981.77 938.81,978.704 943.878,975.639 948.946,972.574 954.014,969.508 959.082,966.443 964.15,963.378 969.217,960.312 
  974.285,957.247 979.353,954.182 984.421,951.116 989.489,948.051 994.557,944.985 999.625,941.92 1004.69,938.855 1009.76,935.789 1014.83,932.724 1019.9,929.659 
  1024.96,926.593 1030.03,923.528 1035.1,920.463 1040.17,917.397 1045.24,914.332 1050.3,911.267 1055.37,908.201 1060.44,905.136 1065.51,902.071 1070.58,899.005 
  1075.64,895.94 1080.71,892.875 1085.78,889.809 1090.85,886.744 1095.92,883.679 1100.98,880.613 1106.05,877.548 1111.12,874.482 1116.19,871.417 1121.25,868.352 
  1126.32,865.286 1131.39,862.221 1136.46,859.156 1141.53,856.09 1146.59,853.025 1151.66,849.96 1156.73,846.894 1161.8,843.829 1166.87,840.764 1171.93,837.698 
  1177,834.633 1182.07,831.568 1187.14,828.502 1192.21,825.437 1197.27,822.372 1202.34,819.306 1207.41,816.241 1212.48,813.176 1217.54,810.11 1222.61,807.045 
  1227.68,803.979 1232.75,800.914 1237.82,797.849 1242.88,794.783 1247.95,791.718 1253.02,788.653 1258.09,785.587 1263.16,782.522 1268.22,779.457 1273.29,776.391 
  1278.36,773.326 1283.43,770.261 1288.5,767.195 1293.56,764.13 1298.63,761.065 1303.7,757.999 1308.77,754.934 1313.84,751.869 1318.9,748.803 1323.97,745.738 
  1329.04,742.673 1334.11,739.607 1339.17,736.542 1344.24,733.476 1349.31,730.411 1354.38,727.346 1359.45,724.28 1364.51,721.215 1369.58,718.15 1374.65,715.084 
  1379.72,712.019 1384.79,708.954 1389.85,705.888 1394.92,702.823 1399.99,699.758 1405.06,696.692 1410.13,693.627 1415.19,690.562 1420.26,687.496 1425.33,684.431 
  1430.4,681.366 1435.46,678.3 1440.53,675.235 1445.6,672.169 1450.67,669.104 1455.74,666.039 1460.8,662.973 1465.87,659.908 1470.94,656.843 1476.01,653.777 
  1481.08,650.712 1486.14,647.647 1491.21,644.581 1496.28,641.516 1501.35,638.451 1506.42,635.385 1511.48,632.32 1516.55,629.255 1521.62,626.189 1526.69,623.124 
  1531.76,620.059 1536.82,616.993 1541.89,613.928 1546.96,610.863 1552.03,607.797 1557.09,604.732 1562.16,601.666 1567.23,598.601 1572.3,595.536 1577.37,592.47 
  1582.43,589.405 1587.5,586.34 1592.57,583.274 1597.64,580.209 1602.71,577.144 1607.77,574.078 1612.84,571.013 1617.91,567.948 1622.98,564.882 1628.05,561.817 
  1633.11,558.752 1638.18,555.686 1643.25,552.621 1648.32,549.556 1653.38,546.49 1658.45,543.425 1663.52,540.36 1668.59,537.294 1673.66,534.229 1678.72,531.163 
  1683.79,528.098 1688.86,525.033 1693.93,521.967 1699,518.902 1704.06,515.837 1709.13,512.771 1714.2,509.706 1719.27,506.641 1724.34,503.575 1729.4,500.51 
  1734.47,497.445 1739.54,494.379 1744.61,491.314 1749.68,488.249 1754.74,485.183 1759.81,482.118 1764.88,479.053 1769.95,475.987 1775.01,472.922 1780.08,469.856 
  1785.15,466.791 1790.22,463.726 1795.29,460.66 1800.35,457.595 1805.42,454.53 1810.49,451.464 1815.56,448.399 1820.63,445.334 1825.69,442.268 1830.76,439.203 
  1835.83,436.138 1840.9,433.072 1845.97,430.007 1851.03,426.942 1856.1,423.876 1861.17,420.811 1866.24,417.746 1871.3,414.68 1876.37,411.615 1881.44,408.55 
  1886.51,405.484 1891.58,402.419 1896.64,399.353 1901.71,396.288 1906.78,393.223 1911.85,390.157 1916.92,387.092 1921.98,384.027 1927.05,380.961 1932.12,377.896 
  1937.19,374.831 1942.26,371.765 1947.32,368.7 1952.39,365.635 1957.46,362.569 1962.53,359.504 1967.6,356.439 1972.66,353.373 1977.73,350.308 1982.8,347.243 
  1987.87,344.177 1992.93,341.112 1998,338.047 2003.07,334.981 2008.14,331.916 2013.21,328.85 2018.27,325.785 2023.34,322.72 2028.41,319.654 2033.48,316.589 
  2038.55,313.524 2043.61,310.458 2048.68,307.393 2053.75,304.328 2058.82,301.262 2063.89,298.197 2068.95,295.132 2074.02,292.066 2079.09,289.001 2084.16,285.936 
  2089.22,282.87 2094.29,279.805 2099.36,276.74 2104.43,273.674 2109.5,270.609 2114.56,267.544 2119.63,264.478 2124.7,261.413 2129.77,258.347 2134.84,255.282 
  2139.9,252.217 2144.97,249.151 2150.04,246.086 2155.11,243.021 2160.18,239.955 2165.24,236.89 2170.31,233.825 2175.38,230.759 2180.45,227.694 2185.51,224.629 
  2190.58,221.563 2195.65,218.498 2200.72,215.433 2205.79,212.367 2210.85,209.302 2215.92,206.237 2220.99,203.171 2226.06,200.106 2231.13,197.04 2236.19,193.975 
  2241.26,190.91 2246.33,187.844 2251.4,184.779 2256.47,181.714 2261.53,178.648 2266.6,175.583 2271.67,172.518 2276.74,169.452 2281.81,166.387 2286.87,163.322 
  2291.94,160.256 
  "/>
<path clip-path="url(#clip100)" d="
M275.59 408.716 L758.117 408.716 L758.117 166.796 L275.59 166.796  Z
  " fill="#ffffff" fill-rule="evenodd" fill-opacity="1"/>
<polyline clip-path="url(#clip100)" style="stroke:#000000; stroke-width:4; stroke-opacity:1; fill:none" points="
  275.59,408.716 758.117,408.716 758.117,166.796 275.59,166.796 275.59,408.716 
  "/>
<polyline clip-path="url(#clip100)" style="stroke:#009af9; stroke-width:4; stroke-opacity:1; fill:none" points="
  299.465,227.276 442.718,227.276 
  "/>
<path clip-path="url(#clip100)" d="M 0 0 M482.612 213.167 Q477.52 213.167 474.51 216.963 Q471.524 220.76 471.524 227.31 Q471.524 233.838 474.51 237.634 Q477.52 241.431 482.612 241.431 Q487.705 241.431 490.668 237.634 Q493.654 233.838 493.654 227.31 Q493.654 220.76 490.668 216.963 Q487.705 213.167 482.612 213.167 M489.163 243.931 L495.32 250.667 L489.672 250.667 L484.557 245.134 Q483.793 245.181 483.376 245.204 Q482.983 245.227 482.612 245.227 Q475.321 245.227 470.946 240.366 Q466.594 235.482 466.594 227.31 Q466.594 219.116 470.946 214.255 Q475.321 209.371 482.612 209.371 Q489.881 209.371 494.232 214.255 Q498.584 219.116 498.584 227.31 Q498.584 233.329 496.154 237.611 Q493.746 241.894 489.163 243.931 Z" fill="#000000" fill-rule="evenodd" fill-opacity="1" /><path clip-path="url(#clip100)" d="M 0 0 M509.927 211.269 L509.927 218.63 L518.7 218.63 L518.7 221.94 L509.927 221.94 L509.927 236.014 Q509.927 239.185 510.783 240.088 Q511.663 240.991 514.325 240.991 L518.7 240.991 L518.7 244.556 L514.325 244.556 Q509.394 244.556 507.519 242.727 Q505.644 240.875 505.644 236.014 L505.644 221.94 L502.519 221.94 L502.519 218.63 L505.644 218.63 L505.644 211.269 L509.927 211.269 Z" fill="#000000" fill-rule="evenodd" fill-opacity="1" /><path clip-path="url(#clip100)" d="M 0 0 M551.153 231.523 Q545.991 231.523 544.001 232.704 Q542.01 233.884 542.01 236.732 Q542.01 239 543.491 240.343 Q544.996 241.662 547.566 241.662 Q551.107 241.662 553.237 239.162 Q555.39 236.639 555.39 232.472 L555.39 231.523 L551.153 231.523 M559.649 229.764 L559.649 244.556 L555.39 244.556 L555.39 240.621 Q553.931 242.982 551.755 244.116 Q549.579 245.227 546.431 245.227 Q542.45 245.227 540.089 243.005 Q537.751 240.759 537.751 237.009 Q537.751 232.634 540.667 230.412 Q543.607 228.19 549.417 228.19 L555.39 228.19 L555.39 227.773 Q555.39 224.834 553.445 223.236 Q551.524 221.616 548.028 221.616 Q545.806 221.616 543.7 222.148 Q541.593 222.681 539.649 223.746 L539.649 219.81 Q541.987 218.908 544.186 218.468 Q546.385 218.005 548.468 218.005 Q554.093 218.005 556.871 220.922 Q559.649 223.838 559.649 229.764 Z" fill="#000000" fill-rule="evenodd" fill-opacity="1" /><path clip-path="url(#clip100)" d="M 0 0 M589.973 228.908 L589.973 244.556 L585.713 244.556 L585.713 229.047 Q585.713 225.366 584.278 223.537 Q582.843 221.709 579.973 221.709 Q576.524 221.709 574.533 223.908 Q572.542 226.107 572.542 229.903 L572.542 244.556 L568.26 244.556 L568.26 218.63 L572.542 218.63 L572.542 222.658 Q574.07 220.32 576.13 219.162 Q578.214 218.005 580.922 218.005 Q585.389 218.005 587.681 220.783 Q589.973 223.537 589.973 228.908 Z" fill="#000000" fill-rule="evenodd" fill-opacity="1" /><path clip-path="url(#clip100)" d="M 0 0 M615.528 222.565 L615.528 208.537 L619.787 208.537 L619.787 244.556 L615.528 244.556 L615.528 240.667 Q614.186 242.982 612.125 244.116 Q610.088 245.227 607.218 245.227 Q602.519 245.227 599.556 241.477 Q596.616 237.727 596.616 231.616 Q596.616 225.505 599.556 221.755 Q602.519 218.005 607.218 218.005 Q610.088 218.005 612.125 219.139 Q614.186 220.25 615.528 222.565 M601.014 231.616 Q601.014 236.315 602.936 239 Q604.88 241.662 608.26 241.662 Q611.639 241.662 613.584 239 Q615.528 236.315 615.528 231.616 Q615.528 226.917 613.584 224.255 Q611.639 221.57 608.26 221.57 Q604.88 221.57 602.936 224.255 Q601.014 226.917 601.014 231.616 Z" fill="#000000" fill-rule="evenodd" fill-opacity="1" /><path clip-path="url(#clip100)" d="M 0 0 M657.843 213.167 Q652.75 213.167 649.741 216.963 Q646.755 220.76 646.755 227.31 Q646.755 233.838 649.741 237.634 Q652.75 241.431 657.843 241.431 Q662.935 241.431 665.898 237.634 Q668.884 233.838 668.884 227.31 Q668.884 220.76 665.898 216.963 Q662.935 213.167 657.843 213.167 M664.394 243.931 L670.551 250.667 L664.903 250.667 L659.787 245.134 Q659.023 245.181 658.607 245.204 Q658.213 245.227 657.843 245.227 Q650.551 245.227 646.176 240.366 Q641.824 235.482 641.824 227.31 Q641.824 219.116 646.176 214.255 Q650.551 209.371 657.843 209.371 Q665.111 209.371 669.463 214.255 Q673.815 219.116 673.815 227.31 Q673.815 233.329 671.384 237.611 Q668.977 241.894 664.394 243.931 Z" fill="#000000" fill-rule="evenodd" fill-opacity="1" /><path clip-path="url(#clip100)" d="M 0 0 M697.472 219.394 L697.472 223.422 Q695.667 222.496 693.722 222.033 Q691.778 221.57 689.694 221.57 Q686.523 221.57 684.926 222.542 Q683.352 223.514 683.352 225.459 Q683.352 226.94 684.486 227.797 Q685.62 228.63 689.046 229.394 L690.505 229.718 Q695.042 230.69 696.94 232.472 Q698.861 234.232 698.861 237.403 Q698.861 241.014 695.991 243.121 Q693.143 245.227 688.143 245.227 Q686.06 245.227 683.792 244.81 Q681.546 244.417 679.046 243.607 L679.046 239.209 Q681.407 240.435 683.699 241.06 Q685.991 241.662 688.236 241.662 Q691.245 241.662 692.866 240.644 Q694.486 239.602 694.486 237.727 Q694.486 235.991 693.305 235.065 Q692.148 234.139 688.19 233.283 L686.708 232.935 Q682.75 232.102 680.991 230.389 Q679.231 228.653 679.231 225.644 Q679.231 221.986 681.824 219.996 Q684.417 218.005 689.185 218.005 Q691.546 218.005 693.63 218.352 Q695.713 218.699 697.472 219.394 Z" fill="#000000" fill-rule="evenodd" fill-opacity="1" /><polyline clip-path="url(#clip100)" style="stroke:#e26f46; stroke-width:4; stroke-opacity:1; fill:none" points="
  299.465,287.756 442.718,287.756 
  "/>
<path clip-path="url(#clip100)" d="M 0 0 M482.612 273.647 Q477.52 273.647 474.51 277.443 Q471.524 281.24 471.524 287.79 Q471.524 294.318 474.51 298.114 Q477.52 301.911 482.612 301.911 Q487.705 301.911 490.668 298.114 Q493.654 294.318 493.654 287.79 Q493.654 281.24 490.668 277.443 Q487.705 273.647 482.612 273.647 M489.163 304.411 L495.32 311.147 L489.672 311.147 L484.557 305.614 Q483.793 305.661 483.376 305.684 Q482.983 305.707 482.612 305.707 Q475.321 305.707 470.946 300.846 Q466.594 295.962 466.594 287.79 Q466.594 279.596 470.946 274.735 Q475.321 269.851 482.612 269.851 Q489.881 269.851 494.232 274.735 Q498.584 279.596 498.584 287.79 Q498.584 293.809 496.154 298.091 Q493.746 302.374 489.163 304.411 Z" fill="#000000" fill-rule="evenodd" fill-opacity="1" /><path clip-path="url(#clip100)" d="M 0 0 M522.774 283.045 L522.774 269.017 L527.033 269.017 L527.033 305.036 L522.774 305.036 L522.774 301.147 Q521.431 303.462 519.371 304.596 Q517.334 305.707 514.464 305.707 Q509.765 305.707 506.802 301.957 Q503.862 298.207 503.862 292.096 Q503.862 285.985 506.802 282.235 Q509.765 278.485 514.464 278.485 Q517.334 278.485 519.371 279.619 Q521.431 280.73 522.774 283.045 M508.26 292.096 Q508.26 296.795 510.181 299.48 Q512.126 302.142 515.506 302.142 Q518.885 302.142 520.83 299.48 Q522.774 296.795 522.774 292.096 Q522.774 287.397 520.83 284.735 Q518.885 282.05 515.506 282.05 Q512.126 282.05 510.181 284.735 Q508.26 287.397 508.26 292.096 Z" fill="#000000" fill-rule="evenodd" fill-opacity="1" /><path clip-path="url(#clip100)" d="M 0 0 M562.658 292.003 Q557.496 292.003 555.505 293.184 Q553.515 294.364 553.515 297.212 Q553.515 299.48 554.996 300.823 Q556.501 302.142 559.07 302.142 Q562.612 302.142 564.741 299.642 Q566.894 297.119 566.894 292.952 L566.894 292.003 L562.658 292.003 M571.153 290.244 L571.153 305.036 L566.894 305.036 L566.894 301.101 Q565.436 303.462 563.26 304.596 Q561.084 305.707 557.936 305.707 Q553.954 305.707 551.593 303.485 Q549.255 301.239 549.255 297.489 Q549.255 293.114 552.172 290.892 Q555.112 288.67 560.922 288.67 L566.894 288.67 L566.894 288.253 Q566.894 285.314 564.95 283.716 Q563.028 282.096 559.533 282.096 Q557.311 282.096 555.204 282.628 Q553.098 283.161 551.153 284.226 L551.153 280.29 Q553.491 279.388 555.69 278.948 Q557.89 278.485 559.973 278.485 Q565.598 278.485 568.376 281.402 Q571.153 284.318 571.153 290.244 Z" fill="#000000" fill-rule="evenodd" fill-opacity="1" /><path clip-path="url(#clip100)" d="M 0 0 M601.477 289.388 L601.477 305.036 L597.218 305.036 L597.218 289.527 Q597.218 285.846 595.783 284.017 Q594.348 282.189 591.477 282.189 Q588.028 282.189 586.038 284.388 Q584.047 286.587 584.047 290.383 L584.047 305.036 L579.764 305.036 L579.764 279.11 L584.047 279.11 L584.047 283.138 Q585.575 280.8 587.635 279.642 Q589.718 278.485 592.426 278.485 Q596.894 278.485 599.186 281.263 Q601.477 284.017 601.477 289.388 Z" fill="#000000" fill-rule="evenodd" fill-opacity="1" /><path clip-path="url(#clip100)" d="M 0 0 M627.033 283.045 L627.033 269.017 L631.292 269.017 L631.292 305.036 L627.033 305.036 L627.033 301.147 Q625.69 303.462 623.63 304.596 Q621.593 305.707 618.723 305.707 Q614.024 305.707 611.061 301.957 Q608.121 298.207 608.121 292.096 Q608.121 285.985 611.061 282.235 Q614.024 278.485 618.723 278.485 Q621.593 278.485 623.63 279.619 Q625.69 280.73 627.033 283.045 M612.519 292.096 Q612.519 296.795 614.44 299.48 Q616.385 302.142 619.764 302.142 Q623.144 302.142 625.088 299.48 Q627.033 296.795 627.033 292.096 Q627.033 287.397 625.088 284.735 Q623.144 282.05 619.764 282.05 Q616.385 282.05 614.44 284.735 Q612.519 287.397 612.519 292.096 Z" fill="#000000" fill-rule="evenodd" fill-opacity="1" /><path clip-path="url(#clip100)" d="M 0 0 M669.347 273.647 Q664.255 273.647 661.245 277.443 Q658.259 281.24 658.259 287.79 Q658.259 294.318 661.245 298.114 Q664.255 301.911 669.347 301.911 Q674.44 301.911 677.403 298.114 Q680.389 294.318 680.389 287.79 Q680.389 281.24 677.403 277.443 Q674.44 273.647 669.347 273.647 M675.898 304.411 L682.056 311.147 L676.407 311.147 L671.292 305.614 Q670.528 305.661 670.111 305.684 Q669.718 305.707 669.347 305.707 Q662.056 305.707 657.681 300.846 Q653.329 295.962 653.329 287.79 Q653.329 279.596 657.681 274.735 Q662.056 269.851 669.347 269.851 Q676.616 269.851 680.968 274.735 Q685.319 279.596 685.319 287.79 Q685.319 293.809 682.889 298.091 Q680.481 302.374 675.898 304.411 Z" fill="#000000" fill-rule="evenodd" fill-opacity="1" /><path clip-path="url(#clip100)" d="M 0 0 M708.977 279.874 L708.977 283.902 Q707.171 282.976 705.227 282.513 Q703.282 282.05 701.199 282.05 Q698.028 282.05 696.43 283.022 Q694.856 283.994 694.856 285.939 Q694.856 287.42 695.991 288.277 Q697.125 289.11 700.551 289.874 L702.009 290.198 Q706.546 291.17 708.444 292.952 Q710.366 294.712 710.366 297.883 Q710.366 301.494 707.495 303.601 Q704.648 305.707 699.648 305.707 Q697.565 305.707 695.296 305.29 Q693.051 304.897 690.551 304.087 L690.551 299.689 Q692.912 300.915 695.204 301.54 Q697.495 302.142 699.741 302.142 Q702.75 302.142 704.37 301.124 Q705.991 300.082 705.991 298.207 Q705.991 296.471 704.81 295.545 Q703.653 294.619 699.694 293.763 L698.213 293.415 Q694.255 292.582 692.495 290.869 Q690.736 289.133 690.736 286.124 Q690.736 282.466 693.329 280.476 Q695.921 278.485 700.69 278.485 Q703.051 278.485 705.134 278.832 Q707.217 279.179 708.977 279.874 Z" fill="#000000" fill-rule="evenodd" fill-opacity="1" /><polyline clip-path="url(#clip100)" style="stroke:#3da44d; stroke-width:4; stroke-opacity:1; fill:none" points="
  299.465,348.236 442.718,348.236 
  "/>
<path clip-path="url(#clip100)" d="M 0 0 M482.612 334.127 Q477.52 334.127 474.51 337.923 Q471.524 341.72 471.524 348.27 Q471.524 354.798 474.51 358.594 Q477.52 362.391 482.612 362.391 Q487.705 362.391 490.668 358.594 Q493.654 354.798 493.654 348.27 Q493.654 341.72 490.668 337.923 Q487.705 334.127 482.612 334.127 M489.163 364.891 L495.32 371.627 L489.672 371.627 L484.557 366.094 Q483.793 366.141 483.376 366.164 Q482.983 366.187 482.612 366.187 Q475.321 366.187 470.946 361.326 Q466.594 356.442 466.594 348.27 Q466.594 340.076 470.946 335.215 Q475.321 330.331 482.612 330.331 Q489.881 330.331 494.232 335.215 Q498.584 340.076 498.584 348.27 Q498.584 354.289 496.154 358.571 Q493.746 362.854 489.163 364.891 Z" fill="#000000" fill-rule="evenodd" fill-opacity="1" /><path clip-path="url(#clip100)" d="M 0 0 M509.927 332.229 L509.927 339.59 L518.7 339.59 L518.7 342.9 L509.927 342.9 L509.927 356.974 Q509.927 360.145 510.783 361.048 Q511.663 361.951 514.325 361.951 L518.7 361.951 L518.7 365.516 L514.325 365.516 Q509.394 365.516 507.519 363.687 Q505.644 361.835 505.644 356.974 L505.644 342.9 L502.519 342.9 L502.519 339.59 L505.644 339.59 L505.644 332.229 L509.927 332.229 Z" fill="#000000" fill-rule="evenodd" fill-opacity="1" /><path clip-path="url(#clip100)" d="M 0 0 M551.153 352.483 Q545.991 352.483 544.001 353.664 Q542.01 354.844 542.01 357.692 Q542.01 359.96 543.491 361.303 Q544.996 362.622 547.566 362.622 Q551.107 362.622 553.237 360.122 Q555.39 357.599 555.39 353.432 L555.39 352.483 L551.153 352.483 M559.649 350.724 L559.649 365.516 L555.39 365.516 L555.39 361.581 Q553.931 363.942 551.755 365.076 Q549.579 366.187 546.431 366.187 Q542.45 366.187 540.089 363.965 Q537.751 361.719 537.751 357.969 Q537.751 353.594 540.667 351.372 Q543.607 349.15 549.417 349.15 L555.39 349.15 L555.39 348.733 Q555.39 345.794 553.445 344.196 Q551.524 342.576 548.028 342.576 Q545.806 342.576 543.7 343.108 Q541.593 343.641 539.649 344.706 L539.649 340.77 Q541.987 339.868 544.186 339.428 Q546.385 338.965 548.468 338.965 Q554.093 338.965 556.871 341.882 Q559.649 344.798 559.649 350.724 Z" fill="#000000" fill-rule="evenodd" fill-opacity="1" /><path clip-path="url(#clip100)" d="M 0 0 M589.973 349.868 L589.973 365.516 L585.713 365.516 L585.713 350.007 Q585.713 346.326 584.278 344.497 Q582.843 342.669 579.973 342.669 Q576.524 342.669 574.533 344.868 Q572.542 347.067 572.542 350.863 L572.542 365.516 L568.26 365.516 L568.26 339.59 L572.542 339.59 L572.542 343.618 Q574.07 341.28 576.13 340.122 Q578.214 338.965 580.922 338.965 Q585.389 338.965 587.681 341.743 Q589.973 344.497 589.973 349.868 Z" fill="#000000" fill-rule="evenodd" fill-opacity="1" /><path clip-path="url(#clip100)" d="M 0 0 M615.528 343.525 L615.528 329.497 L619.787 329.497 L619.787 365.516 L615.528 365.516 L615.528 361.627 Q614.186 363.942 612.125 365.076 Q610.088 366.187 607.218 366.187 Q602.519 366.187 599.556 362.437 Q596.616 358.687 596.616 352.576 Q596.616 346.465 599.556 342.715 Q602.519 338.965 607.218 338.965 Q610.088 338.965 612.125 340.099 Q614.186 341.21 615.528 343.525 M601.014 352.576 Q601.014 357.275 602.936 359.96 Q604.88 362.622 608.26 362.622 Q611.639 362.622 613.584 359.96 Q615.528 357.275 615.528 352.576 Q615.528 347.877 613.584 345.215 Q611.639 342.53 608.26 342.53 Q604.88 342.53 602.936 345.215 Q601.014 347.877 601.014 352.576 Z" fill="#000000" fill-rule="evenodd" fill-opacity="1" /><path clip-path="url(#clip100)" d="M 0 0 M657.843 334.127 Q652.75 334.127 649.741 337.923 Q646.755 341.72 646.755 348.27 Q646.755 354.798 649.741 358.594 Q652.75 362.391 657.843 362.391 Q662.935 362.391 665.898 358.594 Q668.884 354.798 668.884 348.27 Q668.884 341.72 665.898 337.923 Q662.935 334.127 657.843 334.127 M664.394 364.891 L670.551 371.627 L664.903 371.627 L659.787 366.094 Q659.023 366.141 658.607 366.164 Q658.213 366.187 657.843 366.187 Q650.551 366.187 646.176 361.326 Q641.824 356.442 641.824 348.27 Q641.824 340.076 646.176 335.215 Q650.551 330.331 657.843 330.331 Q665.111 330.331 669.463 335.215 Q673.815 340.076 673.815 348.27 Q673.815 354.289 671.384 358.571 Q668.977 362.854 664.394 364.891 Z" fill="#000000" fill-rule="evenodd" fill-opacity="1" /><path clip-path="url(#clip100)" d="M 0 0 M698.005 343.525 L698.005 329.497 L702.264 329.497 L702.264 365.516 L698.005 365.516 L698.005 361.627 Q696.662 363.942 694.602 365.076 Q692.565 366.187 689.694 366.187 Q684.995 366.187 682.032 362.437 Q679.093 358.687 679.093 352.576 Q679.093 346.465 682.032 342.715 Q684.995 338.965 689.694 338.965 Q692.565 338.965 694.602 340.099 Q696.662 341.21 698.005 343.525 M683.491 352.576 Q683.491 357.275 685.412 359.96 Q687.356 362.622 690.736 362.622 Q694.116 362.622 696.06 359.96 Q698.005 357.275 698.005 352.576 Q698.005 347.877 696.06 345.215 Q694.116 342.53 690.736 342.53 Q687.356 342.53 685.412 345.215 Q683.491 347.877 683.491 352.576 Z" fill="#000000" fill-rule="evenodd" fill-opacity="1" /></svg>
