<?xml version="1.0" encoding="UTF-8" standalone="no"?>
<svg
   xmlns:dc="http://purl.org/dc/elements/1.1/"
   xmlns:cc="http://creativecommons.org/ns#"
   xmlns:rdf="http://www.w3.org/1999/02/22-rdf-syntax-ns#"
   xmlns:svg="http://www.w3.org/2000/svg"
   xmlns="http://www.w3.org/2000/svg"
   version="1.1"
   id="svg10"
   xml:space="preserve"
   width="341.96268"
   height="108.30025"
   viewBox="0 0 341.96268 108.30025"><metadata
     id="metadata16"><rdf:RDF><cc:Work
         rdf:about=""><dc:format>image/svg+xml</dc:format><dc:type
           rdf:resource="http://purl.org/dc/dcmitype/StillImage" /><dc:title></dc:title></cc:Work></rdf:RDF></metadata><defs
     id="defs14" /><g
     id="g18"
     transform="matrix(1.3333333,0,0,-1.3333333,0,108.30025)"><g
       id="g20"><path
         d="M 0,81.225 H 256.473 V -0.002 H 0 Z"
         style="fill:#ffffff;fill-opacity:1;fill-rule:nonzero;stroke:none"
         id="path22" /><text
         transform="matrix(1,0,0,-1,15.070175,21.78989)"
         style="font-variant:normal;font-weight:normal;font-size:72px;font-family:'Plantagenet Cherokee';-inkscape-font-specification:PlantagenetCherokee;writing-mode:lr-tb;fill:#000080;fill-opacity:1;fill-rule:nonzero;stroke:none"
         id="text26"><tspan
           x="0 43.200001 108.144"
           y="0"
           id="tspan24">EMM</tspan></text><text
         transform="matrix(0.93969262,-0.34202015,-0.34202015,-0.93969262,190.09168,21.830962)"
         style="font-variant:normal;font-weight:normal;font-size:72px;font-family:'Plantagenet Cherokee';-inkscape-font-specification:PlantagenetCherokee;writing-mode:lr-tb;fill:#aa0000;fill-opacity:1;fill-rule:nonzero;stroke:none"
         id="text30"><tspan
           x="0"
           y="0"
           id="tspan28">A</tspan></text><g
         id="g32"
         transform="matrix(1,0,0,-1,0,81.225189)"><path
           d="m 191.598,23.121 34.187,-0.086"
           style="fill:none;stroke:#000000;stroke-width:0.8;stroke-linecap:butt;stroke-linejoin:miter;stroke-miterlimit:4;stroke-dasharray:none;stroke-opacity:1"
           id="path34" /></g><g
         id="g36"
         transform="matrix(-1,-0.00256406,-0.00256406,1,0,81.225189)"><path
           d="m -217.171,-20.065 -9.616,-3.532 9.618,-3.538 c -1.536,2.09 -1.528,4.945 -0.002,7.07 z"
           style="fill:#000000;fill-opacity:1;fill-rule:evenodd;stroke:#000000;stroke-width:0.549998;stroke-linecap:butt;stroke-linejoin:round;stroke-miterlimit:4;stroke-dasharray:none;stroke-opacity:1"
           id="path38" /></g><text
         transform="matrix(1,0,0,-1,200.53811,60.557908)"
         style="font-variant:normal;font-weight:normal;font-size:24px;font-family:'Times New Roman';-inkscape-font-specification:TimesNewRomanPSMT;writing-mode:lr-tb;fill:#000000;fill-opacity:1;fill-rule:nonzero;stroke:none"
         id="text42"><tspan
           x="0"
           y="0"
           id="tspan40">F</tspan></text><g
         id="g44"
         transform="matrix(1,0,0,-1,0,81.225189)"><path
           d="m 201.063,3.313 h 11.398"
           style="fill:none;stroke:#000000;stroke-width:0.8;stroke-linecap:round;stroke-linejoin:miter;stroke-miterlimit:4;stroke-dasharray:none;stroke-opacity:1"
           id="path46" /></g><g
         id="g48"
         transform="matrix(1,0,0,-1,0,81.225189)"><path
           d="m 144.707,62.117 43.481,-0.176 39.972,14.903"
           style="fill:none;stroke:#000000;stroke-width:0.8;stroke-linecap:round;stroke-linejoin:round;stroke-miterlimit:4;stroke-dasharray:none;stroke-opacity:1"
           id="path50" /></g><path
         d="m 153.887,18.725 34.316,0.18 32.942,-12.332 c 0,0 -26.032,-1.227 -38.129,0.09 -9.934,1.078 -29.129,12.062 -29.129,12.062 z"
         style="fill:#b3b3b3;fill-opacity:1;fill-rule:evenodd;stroke:none"
         id="path52" /></g></g></svg>
