<?xml version="1.0" encoding="UTF-8" standalone="no"?>
<svg
   xmlns:dc="http://purl.org/dc/elements/1.1/"
   xmlns:cc="http://creativecommons.org/ns#"
   xmlns:rdf="http://www.w3.org/1999/02/22-rdf-syntax-ns#"
   xmlns:svg="http://www.w3.org/2000/svg"
   xmlns="http://www.w3.org/2000/svg"
   version="1.1"
   id="svg10"
   xml:space="preserve"
   width="755.90533"
   height="377.95334"
   viewBox="0 0 755.90533 377.95334"><metadata
     id="metadata16"><rdf:RDF><cc:Work
         rdf:about=""><dc:format>image/svg+xml</dc:format><dc:type
           rdf:resource="http://purl.org/dc/dcmitype/StillImage" /><dc:title></dc:title></cc:Work></rdf:RDF></metadata><defs
     id="defs14"><clipPath
       clipPathUnits="userSpaceOnUse"
       id="clipPath26"><path
         d="M 0.5,0.5 H 566.429 V 282.964 H 0.5 Z"
         id="path24" /></clipPath><clipPath
       clipPathUnits="userSpaceOnUse"
       id="clipPath64"><path
         d="m 4.502,2.497 h 557.924 v 278.47 H 4.502 Z"
         id="path62" /></clipPath><clipPath
       clipPathUnits="userSpaceOnUse"
       id="clipPath78"><path
         d="M 0.5,0.5 H 566.429 V 282.964 H 0.5 Z"
         id="path76" /></clipPath><clipPath
       clipPathUnits="userSpaceOnUse"
       id="clipPath92"><path
         d="m 4.502,2.497 h 557.924 v 278.47 H 4.502 Z"
         id="path90" /></clipPath><clipPath
       clipPathUnits="userSpaceOnUse"
       id="clipPath106"><path
         d="M 0.5,0.5 H 566.429 V 282.964 H 0.5 Z"
         id="path104" /></clipPath><clipPath
       clipPathUnits="userSpaceOnUse"
       id="clipPath132"><path
         d="m 4.502,2.497 h 557.924 v 278.47 H 4.502 Z"
         id="path130" /></clipPath><clipPath
       clipPathUnits="userSpaceOnUse"
       id="clipPath146"><path
         d="M 0.5,0.5 H 566.429 V 282.964 H 0.5 Z"
         id="path144" /></clipPath><clipPath
       clipPathUnits="userSpaceOnUse"
       id="clipPath244"><path
         d="m 4.502,2.497 h 557.924 v 278.47 H 4.502 Z"
         id="path242" /></clipPath><clipPath
       clipPathUnits="userSpaceOnUse"
       id="clipPath258"><path
         d="M 0.5,0.5 H 566.429 V 282.964 H 0.5 Z"
         id="path256" /></clipPath><clipPath
       clipPathUnits="userSpaceOnUse"
       id="clipPath344"><path
         d="m 4.502,2.497 h 557.924 v 278.47 H 4.502 Z"
         id="path342" /></clipPath><clipPath
       clipPathUnits="userSpaceOnUse"
       id="clipPath364"><path
         d="M 0.5,0.5 H 566.429 V 282.964 H 0.5 Z"
         id="path362" /></clipPath></defs><g
     id="g18"
     transform="matrix(1.3333333,0,0,-1.3333333,0,377.95333)"><g
       id="g20"><g
         id="g22"
         clip-path="url(#clipPath26)"><g
           id="g28"
           transform="matrix(2.178838,0,0,-1.9033153,0,141.73228)"><g
             id="g30"
             transform="translate(23.7986,1.4933)"><path
               d="m 0,0 c 0.689,0 1.287,0.013 1.792,0.039 0.503,0.028 0.915,0.04 1.233,0.04 3.45,0 6.474,-0.397 9.075,-1.193 2.599,-0.796 4.775,-1.911 6.526,-3.344 1.752,-1.432 3.066,-3.117 3.941,-5.055 0.876,-1.936 1.313,-4.046 1.313,-6.328 0,-2.229 -0.371,-4.284 -1.114,-6.169 -0.744,-1.883 -1.805,-3.502 -3.184,-4.856 -1.381,-1.353 -3.025,-2.4 -4.936,-3.144 -1.91,-0.742 -4.007,-1.114 -6.288,-1.114 -2.176,0 -4.962,0.346 -8.358,1.035 z M 51.342,37.172 H 32.079 L 7.562,3.343 C 6.659,3.396 5.852,3.436 5.135,3.462 4.418,3.49 3.768,3.502 3.184,3.502 2.707,3.502 2.202,3.49 1.672,3.462 1.141,3.436 0.584,3.396 0,3.343 v 21.014 c 0,2.548 0.172,4.553 0.518,6.01 0.344,1.46 0.848,2.547 1.513,3.263 0.662,0.717 1.458,1.155 2.387,1.313 0.928,0.159 1.977,0.241 3.144,0.241 h 2.866 v 1.988 h -31.044 v -1.988 h 2.786 c 2.972,0 5.146,-0.982 6.527,-2.947 0.743,-1.164 1.114,-3.792 1.114,-7.88 v -46.725 c 0,-4.458 -0.505,-7.27 -1.512,-8.438 -1.381,-1.592 -3.423,-2.388 -6.129,-2.388 h -2.786 v -1.99 H 5.731 c 3.873,0 7.216,0.147 10.03,0.438 2.813,0.292 5.121,0.73 6.925,1.313 1.804,0.585 3.503,1.393 5.095,2.428 1.592,1.035 2.985,2.283 4.18,3.741 1.193,1.461 2.135,3.093 2.825,4.896 0.689,1.804 1.034,3.741 1.034,5.811 0,4.511 -1.432,8.386 -4.298,11.622 -2.866,3.237 -7.351,5.545 -13.453,6.924 l 14.886,20.697 c 1.751,2.387 3.304,4.352 4.657,5.89 1.353,1.54 2.706,2.76 4.059,3.661 1.354,0.905 2.787,1.566 4.299,1.992 1.512,0.425 3.303,0.742 5.372,0.955 z"
               style="fill:#202459;fill-opacity:1;fill-rule:nonzero;stroke:none"
               id="path32" /></g></g><g
           id="g34"
           transform="matrix(2.178838,0,0,-1.9033153,0,141.73228)"><g
             id="g36"
             transform="translate(224.1222,10.2823)"><path
               d="M 0,0 -12.258,-29.212 -24.835,0 Z m 1.512,3.98 h -28.019 l -4.935,11.384 c -1.168,2.812 -1.752,4.909 -1.752,6.288 0,0.585 0.093,1.114 0.279,1.591 0.185,0.478 0.584,0.917 1.195,1.314 0.609,0.399 1.458,0.745 2.547,1.035 1.087,0.291 2.533,0.491 4.338,0.598 v 1.988 H -47.601 V 26.19 c 1.803,-0.267 3.264,-0.663 4.378,-1.196 1.114,-0.529 2.069,-1.259 2.865,-2.189 0.796,-0.926 1.526,-2.134 2.189,-3.62 0.664,-1.486 1.473,-3.316 2.428,-5.494 l 25.472,-59.46 h 1.831 l 25.154,60.097 c 1.007,2.496 1.95,4.499 2.827,6.012 0.874,1.51 1.776,2.694 2.706,3.54 0.927,0.851 1.935,1.432 3.024,1.75 1.087,0.321 2.4,0.507 3.941,0.56 v 1.988 H 0.636 V 26.19 C 3.503,26.083 5.452,25.621 6.488,24.797 7.521,23.973 8.04,22.98 8.04,21.81 7.987,20.273 7.27,17.78 5.89,14.328 Z"
               style="fill:#202459;fill-opacity:1;fill-rule:nonzero;stroke:none"
               id="path38" /></g></g><g
           id="g40"
           transform="matrix(2.178838,0,0,-1.9033153,0,141.73228)"><g
             id="g42"
             transform="translate(73.7835,47.8008)"><path
               d="M 0,0 H 69.728"
               style="fill:none;stroke:#f6f013;stroke-width:5;stroke-linecap:butt;stroke-linejoin:miter;stroke-miterlimit:10;stroke-dasharray:none;stroke-opacity:1"
               id="path44" /></g></g><g
           id="g46"
           transform="matrix(2.178838,0,0,-1.9033153,0,141.73228)"><g
             id="g48"
             transform="translate(145.2012,47.8008)"><path
               d="M 0,0 H 69.726"
               style="fill:none;stroke:#eb1d27;stroke-width:5;stroke-linecap:butt;stroke-linejoin:miter;stroke-miterlimit:10;stroke-dasharray:none;stroke-opacity:1"
               id="path50" /></g></g><g
           id="g52"
           transform="matrix(2.178838,0,0,-1.9033153,0,141.73228)"><g
             id="g54"
             transform="translate(2.3675,47.8008)"><path
               d="M 0,0 H 69.728"
               style="fill:#100f0d;fill-opacity:1;fill-rule:nonzero;stroke:none"
               id="path56" /></g></g></g></g><g
       id="g58"><g
         id="g60"
         clip-path="url(#clipPath64)"><g
           id="g66"
           transform="matrix(2.178838,0,0,-1.9033153,0,141.73228)"><g
             id="g68"
             transform="translate(2.3675,47.8008)"><path
               d="M 0,0 H 69.728"
               style="fill:none;stroke:#100f0d;stroke-width:5;stroke-linecap:butt;stroke-linejoin:miter;stroke-miterlimit:10;stroke-dasharray:none;stroke-opacity:1"
               id="path70" /></g></g></g></g><g
       id="g72"><g
         id="g74"
         clip-path="url(#clipPath78)"><g
           id="g80"
           transform="matrix(2.178838,0,0,-1.9033153,0,141.73228)"><g
             id="g82"
             transform="translate(3.4456,57.6798)"><path
               d="M 0,0 V 4.814 H 2.021 C 2.428,4.814 2.802,4.755 3.142,4.636 3.481,4.517 3.771,4.347 4.012,4.126 4.253,3.905 4.439,3.639 4.572,3.328 4.705,3.018 4.772,2.666 4.772,2.275 4.772,1.567 4.543,1.012 4.088,0.606 3.633,0.202 2.975,0 2.114,0 Z M 5.502,11.14 3.668,7.65 C 3.486,7.305 3.312,7.017 3.142,6.784 2.972,6.552 2.796,6.367 2.615,6.228 2.434,6.089 2.24,5.99 2.034,5.931 1.827,5.871 1.596,5.842 1.341,5.842 H 0 V 11.14 H -1.129 V -1.036 h 3.506 c 0.459,0 0.901,0.068 1.329,0.204 0.428,0.136 0.808,0.336 1.142,0.602 C 5.183,0.037 5.45,0.37 5.65,0.772 5.851,1.175 5.952,1.642 5.952,2.174 5.952,2.604 5.887,3 5.757,3.362 5.626,3.724 5.441,4.046 5.201,4.326 4.96,4.606 4.669,4.844 4.326,5.039 3.983,5.234 3.597,5.38 3.167,5.477 V 5.511 C 3.332,5.578 3.481,5.666 3.617,5.773 3.753,5.881 3.884,6.011 4.012,6.164 4.139,6.316 4.266,6.492 4.39,6.69 4.514,6.889 4.645,7.115 4.78,7.37 l 2.047,3.77 z"
               style="fill:#202459;fill-opacity:1;fill-rule:nonzero;stroke:none"
               id="path84" /></g></g></g></g><g
       id="g86"><g
         id="g88"
         clip-path="url(#clipPath92)"><g
           id="g94"
           transform="matrix(2.178838,0,0,-1.9033153,0,141.73228)"><g
             id="g96"
             transform="translate(3.4456,57.6798)"><path
               d="M 0,0 V 4.814 H 2.021 C 2.428,4.814 2.802,4.755 3.142,4.636 3.481,4.517 3.771,4.347 4.012,4.126 4.253,3.905 4.439,3.639 4.572,3.328 4.705,3.018 4.772,2.666 4.772,2.275 4.772,1.567 4.543,1.012 4.088,0.606 3.633,0.202 2.975,0 2.114,0 Z M 5.502,11.14 3.668,7.65 C 3.486,7.305 3.312,7.017 3.142,6.784 2.972,6.552 2.796,6.367 2.615,6.228 2.434,6.089 2.24,5.99 2.034,5.931 1.827,5.871 1.596,5.842 1.341,5.842 H 0 V 11.14 H -1.129 V -1.036 h 3.506 c 0.459,0 0.901,0.068 1.329,0.204 0.428,0.136 0.808,0.336 1.142,0.602 C 5.183,0.037 5.45,0.37 5.65,0.772 5.851,1.175 5.952,1.642 5.952,2.174 5.952,2.604 5.887,3 5.757,3.362 5.626,3.724 5.441,4.046 5.201,4.326 4.96,4.606 4.669,4.844 4.326,5.039 3.983,5.234 3.597,5.38 3.167,5.477 V 5.511 C 3.332,5.578 3.481,5.666 3.617,5.773 3.753,5.881 3.884,6.011 4.012,6.164 4.139,6.316 4.266,6.492 4.39,6.69 4.514,6.889 4.645,7.115 4.78,7.37 l 2.047,3.77 z"
               style="fill:none;stroke:#202459;stroke-width:0.5;stroke-linecap:butt;stroke-linejoin:miter;stroke-miterlimit:10;stroke-dasharray:none;stroke-opacity:1"
               id="path98" /></g></g></g></g><g
       id="g100"><g
         id="g102"
         clip-path="url(#clipPath106)"><g
           id="g108"
           transform="matrix(2.178838,0,0,-1.9033153,0,141.73228)"><g
             id="g110"
             transform="translate(18.785,60.8638)"><path
               d="m 0,0 c -0.476,0 -0.905,0.082 -1.291,0.246 -0.385,0.165 -0.714,0.403 -0.989,0.717 -0.275,0.315 -0.485,0.7 -0.632,1.155 -0.148,0.456 -0.221,0.972 -0.221,1.55 0,0.543 0.073,1.033 0.221,1.468 0.147,0.437 0.355,0.811 0.624,1.121 0.268,0.312 0.595,0.551 0.98,0.718 0.386,0.166 0.816,0.25 1.291,0.25 C 0.47,7.225 0.9,7.145 1.274,6.983 1.647,6.822 1.965,6.587 2.225,6.279 2.485,5.97 2.682,5.592 2.815,5.145 2.947,4.699 3.014,4.189 3.014,3.617 3.014,2.445 2.754,1.549 2.233,0.929 1.712,0.31 0.968,0 0,0 M -0.085,8.16 C -0.73,8.16 -1.309,8.052 -1.821,7.836 -2.334,7.622 -2.771,7.318 -3.133,6.924 -3.495,6.53 -3.773,6.059 -3.965,5.51 -4.157,4.961 -4.254,4.352 -4.254,3.685 c 0,-0.725 0.102,-1.373 0.306,-1.944 0.204,-0.572 0.493,-1.058 0.87,-1.457 0.377,-0.399 0.831,-0.703 1.363,-0.912 0.532,-0.209 1.126,-0.315 1.783,-0.315 0.628,0 1.194,0.104 1.698,0.31 0.505,0.207 0.931,0.506 1.282,0.896 0.351,0.391 0.62,0.866 0.807,1.426 0.187,0.561 0.28,1.197 0.28,1.911 0,0.679 -0.097,1.298 -0.293,1.855 C 3.647,6.012 3.368,6.492 3.006,6.894 2.644,7.296 2.203,7.607 1.681,7.829 1.16,8.049 0.572,8.16 -0.085,8.16"
               style="fill:#202459;fill-opacity:1;fill-rule:nonzero;stroke:none"
               id="path112" /></g></g><g
           id="g114"
           transform="matrix(2.178838,0,0,-1.9033153,0,141.73228)"><g
             id="g116"
             transform="translate(18.785,60.8638)"><path
               d="m 0,0 c -0.476,0 -0.905,0.082 -1.291,0.246 -0.385,0.165 -0.714,0.403 -0.989,0.717 -0.275,0.315 -0.485,0.7 -0.632,1.155 -0.148,0.456 -0.221,0.972 -0.221,1.55 0,0.543 0.073,1.033 0.221,1.468 0.147,0.437 0.355,0.811 0.624,1.121 0.268,0.312 0.595,0.551 0.98,0.718 0.386,0.166 0.816,0.25 1.291,0.25 C 0.47,7.225 0.9,7.145 1.274,6.983 1.647,6.822 1.965,6.587 2.225,6.279 2.485,5.97 2.682,5.592 2.815,5.145 2.947,4.699 3.014,4.189 3.014,3.617 3.014,2.445 2.754,1.549 2.233,0.929 1.712,0.31 0.968,0 0,0 Z M -0.085,8.16 C -0.73,8.16 -1.309,8.052 -1.821,7.836 -2.334,7.622 -2.771,7.318 -3.133,6.924 -3.495,6.53 -3.773,6.059 -3.965,5.51 -4.157,4.961 -4.254,4.352 -4.254,3.685 c 0,-0.725 0.102,-1.373 0.306,-1.944 0.204,-0.572 0.493,-1.058 0.87,-1.457 0.377,-0.399 0.831,-0.703 1.363,-0.912 0.532,-0.209 1.126,-0.315 1.783,-0.315 0.628,0 1.194,0.104 1.698,0.31 0.505,0.207 0.931,0.506 1.282,0.896 0.351,0.391 0.62,0.866 0.807,1.426 0.187,0.561 0.28,1.197 0.28,1.911 0,0.679 -0.097,1.298 -0.293,1.855 C 3.647,6.012 3.368,6.492 3.006,6.894 2.644,7.296 2.203,7.607 1.681,7.829 1.16,8.049 0.572,8.16 -0.085,8.16 Z"
               style="fill:none;stroke:#202459;stroke-width:0.5;stroke-linecap:butt;stroke-linejoin:miter;stroke-miterlimit:10;stroke-dasharray:none;stroke-opacity:1"
               id="path118" /></g></g><g
           id="g120"
           transform="matrix(2.178838,0,0,-1.9033153,0,141.73228)"><g
             id="g122"
             transform="translate(31.1106,70.3988)"><path
               d="M 0,0 C -0.34,0.849 -0.73,1.478 -1.172,1.889 -1.613,2.3 -2.148,2.505 -2.777,2.505 -3.089,2.505 -3.352,2.468 -3.566,2.394 V 1.376 c 0.124,0.045 0.25,0.079 0.378,0.101 0.127,0.023 0.255,0.034 0.386,0.034 0.356,0 0.666,-0.111 0.93,-0.335 0.263,-0.224 0.49,-0.562 0.683,-1.015 l 0.756,-1.783 -3.346,-8.652 h 1.206 l 2.488,6.886 c 0.034,0.09 0.066,0.194 0.098,0.31 0.031,0.116 0.06,0.23 0.089,0.344 H 0.144 C 0.172,-2.83 0.199,-2.928 0.225,-3.027 0.25,-3.126 0.285,-3.235 0.331,-3.354 l 2.641,-6.92 h 1.146 z"
               style="fill:#202459;fill-opacity:1;fill-rule:nonzero;stroke:none"
               id="path124" /></g></g></g></g><g
       id="g126"><g
         id="g128"
         clip-path="url(#clipPath132)"><g
           id="g134"
           transform="matrix(2.178838,0,0,-1.9033153,0,141.73228)"><g
             id="g136"
             transform="translate(31.1106,70.3988)"><path
               d="M 0,0 C -0.34,0.849 -0.73,1.478 -1.172,1.889 -1.613,2.3 -2.148,2.505 -2.777,2.505 -3.089,2.505 -3.352,2.468 -3.566,2.394 V 1.376 c 0.124,0.045 0.25,0.079 0.378,0.101 0.127,0.023 0.255,0.034 0.386,0.034 0.356,0 0.666,-0.111 0.93,-0.335 0.263,-0.224 0.49,-0.562 0.683,-1.015 l 0.756,-1.783 -3.346,-8.652 h 1.206 l 2.488,6.886 c 0.034,0.09 0.066,0.194 0.098,0.31 0.031,0.116 0.06,0.23 0.089,0.344 H 0.144 C 0.172,-2.83 0.199,-2.928 0.225,-3.027 0.25,-3.126 0.285,-3.235 0.331,-3.354 l 2.641,-6.92 h 1.146 z"
               style="fill:none;stroke:#202459;stroke-width:0.5;stroke-linecap:butt;stroke-linejoin:miter;stroke-miterlimit:10;stroke-dasharray:none;stroke-opacity:1"
               id="path138" /></g></g></g></g><g
       id="g140"><g
         id="g142"
         clip-path="url(#clipPath146)"><g
           id="g148"
           transform="matrix(2.178838,0,0,-1.9033153,0,141.73228)"><g
             id="g150"
             transform="translate(42.9773,64.5998)"><path
               d="M 0,0 C -0.391,0.056 -0.725,0.127 -1.002,0.212 -1.28,0.297 -1.509,0.411 -1.69,0.556 -1.871,0.7 -2.004,0.879 -2.089,1.091 c -0.085,0.212 -0.127,0.474 -0.127,0.785 0,0.232 0.04,0.447 0.123,0.645 0.082,0.199 0.201,0.37 0.357,0.514 0.155,0.145 0.344,0.256 0.569,0.336 0.222,0.079 0.476,0.118 0.759,0.118 0.385,0 0.739,-0.073 1.062,-0.221 C 0.976,3.121 1.254,2.917 1.49,2.657 1.725,2.397 1.908,2.085 2.042,1.724 2.175,1.361 2.241,0.968 2.241,0.543 V -0.315 Z M 2.241,4.22 V 2.675 H 2.208 C 1.924,3.229 1.538,3.659 1.048,3.965 0.558,4.27 0.005,4.424 -0.611,4.424 -1.031,4.424 -1.409,4.364 -1.745,4.245 -2.082,4.126 -2.368,3.958 -2.602,3.74 -2.838,3.522 -3.018,3.26 -3.146,2.954 -3.273,2.648 -3.337,2.312 -3.337,1.944 c 0,-0.786 0.243,-1.414 0.73,-1.881 0.486,-0.466 1.223,-0.771 2.208,-0.913 l 2.64,-0.382 c 0,-1.668 -0.648,-2.504 -1.944,-2.504 -1.013,0 -1.953,0.371 -2.819,1.112 v -1.189 c 0.181,-0.13 0.386,-0.247 0.616,-0.352 0.229,-0.105 0.471,-0.195 0.726,-0.272 0.254,-0.076 0.516,-0.135 0.785,-0.178 0.269,-0.042 0.531,-0.064 0.786,-0.064 0.967,0 1.699,0.272 2.195,0.816 0.494,0.543 0.742,1.352 0.742,2.427 V 4.22 Z"
               style="fill:#202459;fill-opacity:1;fill-rule:nonzero;stroke:none"
               id="path152" /></g></g><g
           id="g154"
           transform="matrix(2.178838,0,0,-1.9033153,0,141.73228)"><g
             id="g156"
             transform="translate(42.9773,64.5998)"><path
               d="M 0,0 C -0.391,0.056 -0.725,0.127 -1.002,0.212 -1.28,0.297 -1.509,0.411 -1.69,0.556 -1.871,0.7 -2.004,0.879 -2.089,1.091 c -0.085,0.212 -0.127,0.474 -0.127,0.785 0,0.232 0.04,0.447 0.123,0.645 0.082,0.199 0.201,0.37 0.357,0.514 0.155,0.145 0.344,0.256 0.569,0.336 0.222,0.079 0.476,0.118 0.759,0.118 0.385,0 0.739,-0.073 1.062,-0.221 C 0.976,3.121 1.254,2.917 1.49,2.657 1.725,2.397 1.908,2.085 2.042,1.724 2.175,1.361 2.241,0.968 2.241,0.543 V -0.315 Z M 2.241,4.22 V 2.675 H 2.208 C 1.924,3.229 1.538,3.659 1.048,3.965 0.558,4.27 0.005,4.424 -0.611,4.424 -1.031,4.424 -1.409,4.364 -1.745,4.245 -2.082,4.126 -2.368,3.958 -2.602,3.74 -2.838,3.522 -3.018,3.26 -3.146,2.954 -3.273,2.648 -3.337,2.312 -3.337,1.944 c 0,-0.786 0.243,-1.414 0.73,-1.881 0.486,-0.466 1.223,-0.771 2.208,-0.913 l 2.64,-0.382 c 0,-1.668 -0.648,-2.504 -1.944,-2.504 -1.013,0 -1.953,0.371 -2.819,1.112 v -1.189 c 0.181,-0.13 0.386,-0.247 0.616,-0.352 0.229,-0.105 0.471,-0.195 0.726,-0.272 0.254,-0.076 0.516,-0.135 0.785,-0.178 0.269,-0.042 0.531,-0.064 0.786,-0.064 0.967,0 1.699,0.272 2.195,0.816 0.494,0.543 0.742,1.352 0.742,2.427 V 4.22 Z"
               style="fill:none;stroke:#202459;stroke-width:0.5;stroke-linecap:butt;stroke-linejoin:miter;stroke-miterlimit:10;stroke-dasharray:none;stroke-opacity:1"
               id="path158" /></g></g><g
           id="g160"
           transform="matrix(2.178838,0,0,-1.9033153,0,141.73228)"><path
             d="m 52.398,55.948 h 1.087 V 68.82 h -1.087 z"
             style="fill:#202459;fill-opacity:1;fill-rule:nonzero;stroke:#202459;stroke-width:0.5;stroke-linecap:butt;stroke-linejoin:miter;stroke-miterlimit:10;stroke-dasharray:none;stroke-opacity:1"
             id="path162" /></g><g
           id="g164"
           transform="matrix(2.178838,0,0,-1.9033153,0,141.73228)"><g
             id="g166"
             transform="translate(81.3509,68.8198)"><path
               d="m 0,0 v -8.407 c 0,-0.429 0.034,-1.124 0.102,-2.08 H 0.068 c -0.08,0.255 -0.152,0.476 -0.216,0.662 -0.066,0.188 -0.127,0.34 -0.183,0.459 L -4.576,0 h -0.485 l -4.253,-9.306 c -0.125,-0.283 -0.253,-0.683 -0.382,-1.197 H -9.73 c 0.022,0.259 0.038,0.556 0.046,0.891 0.009,0.334 0.013,0.704 0.013,1.113 V 0 h -1.103 v -12.176 h 1.333 l 4.134,9.153 c 0.085,0.192 0.168,0.39 0.251,0.59 0.081,0.2 0.157,0.415 0.225,0.641 h 0.051 c 0.078,-0.226 0.151,-0.433 0.217,-0.619 0.064,-0.188 0.145,-0.388 0.241,-0.604 l 4.169,-9.161 H 1.112 L 1.112,0 Z"
               style="fill:#202459;fill-opacity:1;fill-rule:nonzero;stroke:none"
               id="path168" /></g></g><g
           id="g170"
           transform="matrix(2.178838,0,0,-1.9033153,0,141.73228)"><g
             id="g172"
             transform="translate(81.3509,68.8198)"><path
               d="m 0,0 v -8.407 c 0,-0.429 0.034,-1.124 0.102,-2.08 H 0.068 c -0.08,0.255 -0.152,0.476 -0.216,0.662 -0.066,0.188 -0.127,0.34 -0.183,0.459 L -4.576,0 h -0.485 l -4.253,-9.306 c -0.125,-0.283 -0.253,-0.683 -0.382,-1.197 H -9.73 c 0.022,0.259 0.038,0.556 0.046,0.891 0.009,0.334 0.013,0.704 0.013,1.113 V 0 h -1.103 v -12.176 h 1.333 l 4.134,9.153 c 0.085,0.192 0.168,0.39 0.251,0.59 0.081,0.2 0.157,0.415 0.225,0.641 h 0.051 c 0.078,-0.226 0.151,-0.433 0.217,-0.619 0.064,-0.188 0.145,-0.388 0.241,-0.604 l 4.169,-9.161 H 1.112 L 1.112,0 Z"
               style="fill:none;stroke:#202459;stroke-width:0.5;stroke-linecap:butt;stroke-linejoin:miter;stroke-miterlimit:10;stroke-dasharray:none;stroke-opacity:1"
               id="path174" /></g></g><g
           id="g176"
           transform="matrix(2.178838,0,0,-1.9033153,0,141.73228)"><path
             d="m 88.92,60.125 h 1.087 V 68.82 H 88.92 Z m 0.535,-2.199 c -0.209,0 -0.39,-0.073 -0.543,-0.221 -0.153,-0.147 -0.229,-0.334 -0.229,-0.56 0,-0.221 0.076,-0.403 0.229,-0.548 0.153,-0.145 0.334,-0.216 0.543,-0.216 0.107,0 0.209,0.018 0.306,0.055 0.097,0.037 0.179,0.089 0.251,0.157 0.071,0.067 0.127,0.149 0.169,0.242 0.043,0.093 0.064,0.197 0.064,0.31 0,0.107 -0.02,0.209 -0.06,0.305 -0.039,0.097 -0.096,0.18 -0.169,0.251 -0.073,0.071 -0.157,0.126 -0.251,0.166 -0.093,0.039 -0.196,0.059 -0.31,0.059"
             style="fill:#202459;fill-opacity:1;fill-rule:nonzero;stroke:none"
             id="path178" /></g><g
           id="g180"
           transform="matrix(2.178838,0,0,-1.9033153,0,141.73228)"><path
             d="m 88.92,60.125 h 1.087 V 68.82 H 88.92 Z m 0.535,-2.199 c -0.209,0 -0.39,-0.073 -0.543,-0.221 -0.153,-0.147 -0.229,-0.334 -0.229,-0.56 0,-0.221 0.076,-0.403 0.229,-0.548 0.153,-0.145 0.334,-0.216 0.543,-0.216 0.107,0 0.209,0.018 0.306,0.055 0.097,0.037 0.179,0.089 0.251,0.157 0.071,0.067 0.127,0.149 0.169,0.242 0.043,0.093 0.064,0.197 0.064,0.31 0,0.107 -0.02,0.209 -0.06,0.305 -0.039,0.097 -0.096,0.18 -0.169,0.251 -0.073,0.071 -0.157,0.126 -0.251,0.166 -0.093,0.039 -0.196,0.059 -0.31,0.059 z"
             style="fill:none;stroke:#202459;stroke-width:0.5;stroke-linecap:butt;stroke-linejoin:miter;stroke-miterlimit:10;stroke-dasharray:none;stroke-opacity:1"
             id="path182" /></g><g
           id="g184"
           transform="matrix(2.178838,0,0,-1.9033153,0,141.73228)"><path
             d="m 96.287,55.948 h 1.087 V 68.82 h -1.087 z"
             style="fill:#202459;fill-opacity:1;fill-rule:nonzero;stroke:#202459;stroke-width:0.5;stroke-linecap:butt;stroke-linejoin:miter;stroke-miterlimit:10;stroke-dasharray:none;stroke-opacity:1"
             id="path186" /></g><g
           id="g188"
           transform="matrix(2.178838,0,0,-1.9033153,0,141.73228)"><path
             d="m 103.654,60.125 h 1.086 v 8.695 h -1.086 z m 0.535,-2.199 c -0.209,0 -0.391,-0.073 -0.544,-0.221 -0.153,-0.147 -0.229,-0.334 -0.229,-0.56 0,-0.221 0.076,-0.403 0.229,-0.548 0.153,-0.145 0.335,-0.216 0.544,-0.216 0.107,0 0.209,0.018 0.305,0.055 0.097,0.037 0.179,0.089 0.251,0.157 0.071,0.067 0.127,0.149 0.17,0.242 0.042,0.093 0.063,0.197 0.063,0.31 0,0.107 -0.02,0.209 -0.059,0.305 -0.04,0.097 -0.097,0.18 -0.17,0.251 -0.073,0.071 -0.157,0.126 -0.25,0.166 -0.094,0.039 -0.197,0.059 -0.31,0.059"
             style="fill:#202459;fill-opacity:1;fill-rule:nonzero;stroke:none"
             id="path190" /></g><g
           id="g192"
           transform="matrix(2.178838,0,0,-1.9033153,0,141.73228)"><path
             d="m 103.654,60.125 h 1.086 v 8.695 h -1.086 z m 0.535,-2.199 c -0.209,0 -0.391,-0.073 -0.544,-0.221 -0.153,-0.147 -0.229,-0.334 -0.229,-0.56 0,-0.221 0.076,-0.403 0.229,-0.548 0.153,-0.145 0.335,-0.216 0.544,-0.216 0.107,0 0.209,0.018 0.305,0.055 0.097,0.037 0.179,0.089 0.251,0.157 0.071,0.067 0.127,0.149 0.17,0.242 0.042,0.093 0.063,0.197 0.063,0.31 0,0.107 -0.02,0.209 -0.059,0.305 -0.04,0.097 -0.097,0.18 -0.17,0.251 -0.073,0.071 -0.157,0.126 -0.25,0.166 -0.094,0.039 -0.197,0.059 -0.31,0.059 z"
             style="fill:none;stroke:#202459;stroke-width:0.5;stroke-linecap:butt;stroke-linejoin:miter;stroke-miterlimit:10;stroke-dasharray:none;stroke-opacity:1"
             id="path194" /></g><g
           id="g196"
           transform="matrix(2.178838,0,0,-1.9033153,0,141.73228)"><g
             id="g198"
             transform="translate(114.7562,68.7178)"><path
               d="m 0,0 c -0.373,0.187 -0.781,0.28 -1.222,0.28 -1.405,0 -2.106,-0.81 -2.106,-2.428 v -5.494 h -1.529 v -0.951 h 1.529 v -2.19 l 1.087,-0.358 v 2.548 H 0 v 0.951 h -2.241 v 5.324 c 0,0.589 0.095,1.013 0.288,1.273 0.193,0.26 0.518,0.391 0.977,0.391 0.34,0 0.664,-0.102 0.976,-0.306 z"
               style="fill:#202459;fill-opacity:1;fill-rule:nonzero;stroke:none"
               id="path200" /></g></g><g
           id="g202"
           transform="matrix(2.178838,0,0,-1.9033153,0,141.73228)"><g
             id="g204"
             transform="translate(114.7562,68.7178)"><path
               d="m 0,0 c -0.373,0.187 -0.781,0.28 -1.222,0.28 -1.405,0 -2.106,-0.81 -2.106,-2.428 v -5.494 h -1.529 v -0.951 h 1.529 v -2.19 l 1.087,-0.358 v 2.548 H 0 v 0.951 h -2.241 v 5.324 c 0,0.589 0.095,1.013 0.288,1.273 0.193,0.26 0.518,0.391 0.977,0.391 0.34,0 0.664,-0.102 0.976,-0.306 z"
               style="fill:none;stroke:#202459;stroke-width:0.5;stroke-linecap:butt;stroke-linejoin:miter;stroke-miterlimit:10;stroke-dasharray:none;stroke-opacity:1"
               id="path206" /></g></g><g
           id="g208"
           transform="matrix(2.178838,0,0,-1.9033153,0,141.73228)"><g
             id="g210"
             transform="translate(122.7932,64.5998)"><path
               d="M 0,0 C -0.391,0.056 -0.725,0.127 -1.002,0.212 -1.279,0.297 -1.508,0.411 -1.69,0.556 -1.872,0.7 -2.004,0.879 -2.089,1.091 c -0.085,0.212 -0.127,0.474 -0.127,0.785 0,0.232 0.041,0.447 0.123,0.645 0.082,0.199 0.2,0.37 0.356,0.514 0.156,0.145 0.345,0.256 0.57,0.336 0.223,0.079 0.476,0.118 0.759,0.118 0.385,0 0.739,-0.073 1.062,-0.221 C 0.976,3.121 1.255,2.917 1.49,2.657 1.724,2.397 1.909,2.085 2.042,1.724 2.174,1.361 2.242,0.968 2.242,0.543 V -0.315 Z M 2.242,4.22 V 2.675 H 2.208 C 1.924,3.229 1.538,3.659 1.048,3.965 0.559,4.27 0.005,4.424 -0.612,4.424 -1.031,4.424 -1.409,4.364 -1.745,4.245 -2.081,4.126 -2.368,3.958 -2.602,3.74 -2.837,3.522 -3.019,3.26 -3.146,2.954 -3.273,2.648 -3.337,2.312 -3.337,1.944 c 0,-0.786 0.243,-1.414 0.73,-1.881 0.487,-0.466 1.223,-0.771 2.208,-0.913 l 2.641,-0.382 c 0,-1.668 -0.649,-2.504 -1.945,-2.504 -1.013,0 -1.953,0.371 -2.819,1.112 v -1.189 c 0.182,-0.13 0.386,-0.247 0.615,-0.352 0.23,-0.105 0.472,-0.195 0.727,-0.272 0.255,-0.076 0.516,-0.135 0.785,-0.178 0.269,-0.042 0.53,-0.064 0.785,-0.064 0.968,0 1.699,0.272 2.196,0.816 0.495,0.543 0.742,1.352 0.742,2.427 V 4.22 Z"
               style="fill:#202459;fill-opacity:1;fill-rule:nonzero;stroke:none"
               id="path212" /></g></g><g
           id="g214"
           transform="matrix(2.178838,0,0,-1.9033153,0,141.73228)"><g
             id="g216"
             transform="translate(122.7932,64.5998)"><path
               d="M 0,0 C -0.391,0.056 -0.725,0.127 -1.002,0.212 -1.279,0.297 -1.508,0.411 -1.69,0.556 -1.872,0.7 -2.004,0.879 -2.089,1.091 c -0.085,0.212 -0.127,0.474 -0.127,0.785 0,0.232 0.041,0.447 0.123,0.645 0.082,0.199 0.2,0.37 0.356,0.514 0.156,0.145 0.345,0.256 0.57,0.336 0.223,0.079 0.476,0.118 0.759,0.118 0.385,0 0.739,-0.073 1.062,-0.221 C 0.976,3.121 1.255,2.917 1.49,2.657 1.724,2.397 1.909,2.085 2.042,1.724 2.174,1.361 2.242,0.968 2.242,0.543 V -0.315 Z M 2.242,4.22 V 2.675 H 2.208 C 1.924,3.229 1.538,3.659 1.048,3.965 0.559,4.27 0.005,4.424 -0.612,4.424 -1.031,4.424 -1.409,4.364 -1.745,4.245 -2.081,4.126 -2.368,3.958 -2.602,3.74 -2.837,3.522 -3.019,3.26 -3.146,2.954 -3.273,2.648 -3.337,2.312 -3.337,1.944 c 0,-0.786 0.243,-1.414 0.73,-1.881 0.487,-0.466 1.223,-0.771 2.208,-0.913 l 2.641,-0.382 c 0,-1.668 -0.649,-2.504 -1.945,-2.504 -1.013,0 -1.953,0.371 -2.819,1.112 v -1.189 c 0.182,-0.13 0.386,-0.247 0.615,-0.352 0.23,-0.105 0.472,-0.195 0.727,-0.272 0.255,-0.076 0.516,-0.135 0.785,-0.178 0.269,-0.042 0.53,-0.064 0.785,-0.064 0.968,0 1.699,0.272 2.196,0.816 0.495,0.543 0.742,1.352 0.742,2.427 V 4.22 Z"
               style="fill:none;stroke:#202459;stroke-width:0.5;stroke-linecap:butt;stroke-linejoin:miter;stroke-miterlimit:10;stroke-dasharray:none;stroke-opacity:1"
               id="path218" /></g></g><g
           id="g220"
           transform="matrix(2.178838,0,0,-1.9033153,0,141.73228)"><g
             id="g222"
             transform="translate(136.5282,61.2378)"><path
               d="m 0,0 c -0.255,-0.188 -0.583,-0.281 -0.985,-0.281 -0.289,0 -0.543,0.055 -0.764,0.165 -0.221,0.111 -0.415,0.26 -0.582,0.447 -0.167,0.186 -0.309,0.403 -0.425,0.649 -0.115,0.246 -0.209,0.502 -0.28,0.769 -0.071,0.266 -0.122,0.535 -0.153,0.806 -0.031,0.272 -0.046,0.53 -0.046,0.773 v 4.254 h -1.079 v -8.695 h 1.079 v 1.86 h 0.034 c 0.101,-0.318 0.23,-0.602 0.385,-0.854 0.157,-0.251 0.336,-0.464 0.541,-0.637 0.203,-0.172 0.424,-0.304 0.666,-0.394 0.241,-0.091 0.493,-0.136 0.759,-0.136 0.176,0 0.332,0.012 0.472,0.033 0.139,0.023 0.264,0.057 0.378,0.103 z"
               style="fill:#202459;fill-opacity:1;fill-rule:nonzero;stroke:none"
               id="path224" /></g></g><g
           id="g226"
           transform="matrix(2.178838,0,0,-1.9033153,0,141.73228)"><g
             id="g228"
             transform="translate(136.5282,61.2378)"><path
               d="m 0,0 c -0.255,-0.188 -0.583,-0.281 -0.985,-0.281 -0.289,0 -0.543,0.055 -0.764,0.165 -0.221,0.111 -0.415,0.26 -0.582,0.447 -0.167,0.186 -0.309,0.403 -0.425,0.649 -0.115,0.246 -0.209,0.502 -0.28,0.769 -0.071,0.266 -0.122,0.535 -0.153,0.806 -0.031,0.272 -0.046,0.53 -0.046,0.773 v 4.254 h -1.079 v -8.695 h 1.079 v 1.86 h 0.034 c 0.101,-0.318 0.23,-0.602 0.385,-0.854 0.157,-0.251 0.336,-0.464 0.541,-0.637 0.203,-0.172 0.424,-0.304 0.666,-0.394 0.241,-0.091 0.493,-0.136 0.759,-0.136 0.176,0 0.332,0.012 0.472,0.033 0.139,0.023 0.264,0.057 0.378,0.103 z"
               style="fill:none;stroke:#202459;stroke-width:0.5;stroke-linecap:butt;stroke-linejoin:miter;stroke-miterlimit:10;stroke-dasharray:none;stroke-opacity:1"
               id="path230" /></g></g><g
           id="g232"
           transform="matrix(2.178838,0,0,-1.9033153,0,141.73228)"><g
             id="g234"
             transform="translate(144.8032,70.3988)"><path
               d="M 0,0 C -0.34,0.849 -0.73,1.478 -1.172,1.889 -1.613,2.3 -2.148,2.505 -2.777,2.505 -3.088,2.505 -3.351,2.468 -3.566,2.394 V 1.376 c 0.124,0.045 0.25,0.079 0.378,0.101 0.127,0.023 0.256,0.034 0.386,0.034 0.356,0 0.667,-0.111 0.929,-0.335 0.264,-0.224 0.492,-0.562 0.684,-1.015 l 0.756,-1.783 -3.346,-8.652 h 1.206 l 2.488,6.886 c 0.034,0.09 0.067,0.194 0.098,0.31 0.03,0.116 0.061,0.23 0.089,0.344 H 0.144 C 0.173,-2.83 0.2,-2.928 0.225,-3.027 0.25,-3.126 0.285,-3.235 0.331,-3.354 l 2.641,-6.92 h 1.145 z"
               style="fill:#202459;fill-opacity:1;fill-rule:nonzero;stroke:none"
               id="path236" /></g></g></g></g><g
       id="g238"><g
         id="g240"
         clip-path="url(#clipPath244)"><g
           id="g246"
           transform="matrix(2.178838,0,0,-1.9033153,0,141.73228)"><g
             id="g248"
             transform="translate(144.8032,70.3988)"><path
               d="M 0,0 C -0.34,0.849 -0.73,1.478 -1.172,1.889 -1.613,2.3 -2.148,2.505 -2.777,2.505 -3.088,2.505 -3.351,2.468 -3.566,2.394 V 1.376 c 0.124,0.045 0.25,0.079 0.378,0.101 0.127,0.023 0.256,0.034 0.386,0.034 0.356,0 0.667,-0.111 0.929,-0.335 0.264,-0.224 0.492,-0.562 0.684,-1.015 l 0.756,-1.783 -3.346,-8.652 h 1.206 l 2.488,6.886 c 0.034,0.09 0.067,0.194 0.098,0.31 0.03,0.116 0.061,0.23 0.089,0.344 H 0.144 C 0.173,-2.83 0.2,-2.928 0.225,-3.027 0.25,-3.126 0.285,-3.235 0.331,-3.354 l 2.641,-6.92 h 1.145 z"
               style="fill:none;stroke:#202459;stroke-width:0.5;stroke-linecap:butt;stroke-linejoin:miter;stroke-miterlimit:10;stroke-dasharray:none;stroke-opacity:1"
               id="path250" /></g></g></g></g><g
       id="g252"><g
         id="g254"
         clip-path="url(#clipPath258)"><g
           id="g260"
           transform="matrix(2.178838,0,0,-1.9033153,0,141.73228)"><g
             id="g262"
             transform="translate(168.8902,58.7748)"><path
               d="m 0,0 c -0.04,-0.107 -0.081,-0.233 -0.123,-0.373 -0.043,-0.142 -0.078,-0.303 -0.106,-0.485 h -0.034 c -0.035,0.182 -0.073,0.343 -0.115,0.485 -0.043,0.14 -0.084,0.266 -0.123,0.373 L -2.47,5.417 h 4.457 z m 3.71,10.045 -1.342,-3.6 h -5.221 l -1.308,3.6 h -1.256 l 4.636,-12.176 h 1.138 l 4.61,12.176 z"
               style="fill:#202459;fill-opacity:1;fill-rule:nonzero;stroke:none"
               id="path264" /></g></g><g
           id="g266"
           transform="matrix(2.178838,0,0,-1.9033153,0,141.73228)"><g
             id="g268"
             transform="translate(168.8902,58.7748)"><path
               d="m 0,0 c -0.04,-0.107 -0.081,-0.233 -0.123,-0.373 -0.043,-0.142 -0.078,-0.303 -0.106,-0.485 h -0.034 c -0.035,0.182 -0.073,0.343 -0.115,0.485 -0.043,0.14 -0.084,0.266 -0.123,0.373 L -2.47,5.417 h 4.457 z m 3.71,10.045 -1.342,-3.6 h -5.221 l -1.308,3.6 h -1.256 l 4.636,-12.176 h 1.138 l 4.61,12.176 z"
               style="fill:none;stroke:#202459;stroke-width:0.5;stroke-linecap:butt;stroke-linejoin:miter;stroke-miterlimit:10;stroke-dasharray:none;stroke-opacity:1"
               id="path270" /></g></g><g
           id="g272"
           transform="matrix(2.178838,0,0,-1.9033153,0,141.73228)"><g
             id="g274"
             transform="translate(184.8582,68.4288)"><path
               d="M 0,0 C -0.646,0.391 -1.427,0.591 -2.344,0.603 -2.967,0.608 -3.527,0.501 -4.024,0.28 -4.522,0.06 -4.947,-0.247 -5.299,-0.641 c -0.35,-0.394 -0.619,-0.858 -0.806,-1.392 -0.187,-0.535 -0.281,-1.117 -0.281,-1.745 0,-0.651 0.1,-1.264 0.298,-1.838 0.198,-0.574 0.487,-1.075 0.866,-1.503 0.379,-0.428 0.844,-0.766 1.393,-1.015 0.548,-0.25 1.177,-0.374 1.885,-0.374 0.717,0 1.375,0.14 1.969,0.416 v 1.155 c -0.633,-0.419 -1.319,-0.628 -2.054,-0.628 -0.515,0 -0.974,0.097 -1.376,0.293 -0.403,0.195 -0.74,0.461 -1.015,0.797 -0.274,0.337 -0.483,0.731 -0.628,1.181 -0.144,0.45 -0.217,0.927 -0.217,1.431 0,0.464 0.061,0.908 0.183,1.333 0.122,0.425 0.309,0.799 0.561,1.125 0.25,0.326 0.57,0.585 0.955,0.777 0.385,0.191 0.837,0.288 1.358,0.288 0.815,0 1.551,-0.243 2.208,-0.73 z"
               style="fill:#202459;fill-opacity:1;fill-rule:nonzero;stroke:none"
               id="path276" /></g></g><g
           id="g278"
           transform="matrix(2.178838,0,0,-1.9033153,0,141.73228)"><g
             id="g280"
             transform="translate(184.8582,68.4288)"><path
               d="M 0,0 C -0.646,0.391 -1.427,0.591 -2.344,0.603 -2.967,0.608 -3.527,0.501 -4.024,0.28 -4.522,0.06 -4.947,-0.247 -5.299,-0.641 c -0.35,-0.394 -0.619,-0.858 -0.806,-1.392 -0.187,-0.535 -0.281,-1.117 -0.281,-1.745 0,-0.651 0.1,-1.264 0.298,-1.838 0.198,-0.574 0.487,-1.075 0.866,-1.503 0.379,-0.428 0.844,-0.766 1.393,-1.015 0.548,-0.25 1.177,-0.374 1.885,-0.374 0.717,0 1.375,0.14 1.969,0.416 v 1.155 c -0.633,-0.419 -1.319,-0.628 -2.054,-0.628 -0.515,0 -0.974,0.097 -1.376,0.293 -0.403,0.195 -0.74,0.461 -1.015,0.797 -0.274,0.337 -0.483,0.731 -0.628,1.181 -0.144,0.45 -0.217,0.927 -0.217,1.431 0,0.464 0.061,0.908 0.183,1.333 0.122,0.425 0.309,0.799 0.561,1.125 0.25,0.326 0.57,0.585 0.955,0.777 0.385,0.191 0.837,0.288 1.358,0.288 0.815,0 1.551,-0.243 2.208,-0.73 z"
               style="fill:none;stroke:#202459;stroke-width:0.5;stroke-linecap:butt;stroke-linejoin:miter;stroke-miterlimit:10;stroke-dasharray:none;stroke-opacity:1"
               id="path282" /></g></g><g
           id="g284"
           transform="matrix(2.178838,0,0,-1.9033153,0,141.73228)"><g
             id="g286"
             transform="translate(193.1922,64.5998)"><path
               d="m 0,0 c -0.39,0.056 -0.725,0.127 -1.001,0.212 -0.277,0.085 -0.507,0.199 -0.688,0.344 -0.182,0.144 -0.314,0.323 -0.399,0.535 -0.085,0.212 -0.128,0.474 -0.128,0.785 0,0.232 0.042,0.447 0.123,0.645 0.082,0.199 0.201,0.37 0.357,0.514 0.156,0.145 0.345,0.256 0.569,0.336 0.224,0.079 0.477,0.118 0.76,0.118 0.385,0 0.739,-0.073 1.061,-0.221 C 0.977,3.121 1.256,2.917 1.49,2.657 1.726,2.397 1.91,2.085 2.042,1.724 2.175,1.361 2.242,0.968 2.242,0.543 V -0.315 Z M 2.242,4.22 V 2.675 H 2.208 C 1.925,3.229 1.538,3.659 1.049,3.965 0.56,4.27 0.006,4.424 -0.611,4.424 -1.03,4.424 -1.408,4.364 -1.744,4.245 -2.081,4.126 -2.367,3.958 -2.602,3.74 -2.837,3.522 -3.018,3.26 -3.146,2.954 c -0.126,-0.306 -0.19,-0.642 -0.19,-1.01 0,-0.786 0.242,-1.414 0.73,-1.881 0.487,-0.466 1.222,-0.771 2.208,-0.913 l 2.64,-0.382 c 0,-1.668 -0.648,-2.504 -1.944,-2.504 -1.014,0 -1.953,0.371 -2.82,1.112 v -1.189 c 0.182,-0.13 0.387,-0.247 0.617,-0.352 0.228,-0.105 0.47,-0.195 0.725,-0.272 0.255,-0.076 0.517,-0.135 0.785,-0.178 0.269,-0.042 0.532,-0.064 0.786,-0.064 0.968,0 1.699,0.272 2.195,0.816 0.495,0.543 0.743,1.352 0.743,2.427 V 4.22 Z"
               style="fill:#202459;fill-opacity:1;fill-rule:nonzero;stroke:none"
               id="path288" /></g></g><g
           id="g290"
           transform="matrix(2.178838,0,0,-1.9033153,0,141.73228)"><g
             id="g292"
             transform="translate(193.1922,64.5998)"><path
               d="m 0,0 c -0.39,0.056 -0.725,0.127 -1.001,0.212 -0.277,0.085 -0.507,0.199 -0.688,0.344 -0.182,0.144 -0.314,0.323 -0.399,0.535 -0.085,0.212 -0.128,0.474 -0.128,0.785 0,0.232 0.042,0.447 0.123,0.645 0.082,0.199 0.201,0.37 0.357,0.514 0.156,0.145 0.345,0.256 0.569,0.336 0.224,0.079 0.477,0.118 0.76,0.118 0.385,0 0.739,-0.073 1.061,-0.221 C 0.977,3.121 1.256,2.917 1.49,2.657 1.726,2.397 1.91,2.085 2.042,1.724 2.175,1.361 2.242,0.968 2.242,0.543 V -0.315 Z M 2.242,4.22 V 2.675 H 2.208 C 1.925,3.229 1.538,3.659 1.049,3.965 0.56,4.27 0.006,4.424 -0.611,4.424 -1.03,4.424 -1.408,4.364 -1.744,4.245 -2.081,4.126 -2.367,3.958 -2.602,3.74 -2.837,3.522 -3.018,3.26 -3.146,2.954 c -0.126,-0.306 -0.19,-0.642 -0.19,-1.01 0,-0.786 0.242,-1.414 0.73,-1.881 0.487,-0.466 1.222,-0.771 2.208,-0.913 l 2.64,-0.382 c 0,-1.668 -0.648,-2.504 -1.944,-2.504 -1.014,0 -1.953,0.371 -2.82,1.112 v -1.189 c 0.182,-0.13 0.387,-0.247 0.617,-0.352 0.228,-0.105 0.47,-0.195 0.725,-0.272 0.255,-0.076 0.517,-0.135 0.785,-0.178 0.269,-0.042 0.532,-0.064 0.786,-0.064 0.968,0 1.699,0.272 2.195,0.816 0.495,0.543 0.743,1.352 0.743,2.427 V 4.22 Z"
               style="fill:none;stroke:#202459;stroke-width:0.5;stroke-linecap:butt;stroke-linejoin:miter;stroke-miterlimit:10;stroke-dasharray:none;stroke-opacity:1"
               id="path294" /></g></g><g
           id="g296"
           transform="matrix(2.178838,0,0,-1.9033153,0,141.73228)"><g
             id="g298"
             transform="translate(208.7112,63.5728)"><path
               d="M 0,0 C 0,-0.379 -0.066,-0.734 -0.196,-1.062 -0.327,-1.39 -0.507,-1.676 -0.74,-1.919 -0.972,-2.163 -1.249,-2.356 -1.576,-2.497 -1.902,-2.638 -2.259,-2.709 -2.65,-2.709 c -0.43,0 -0.827,0.085 -1.188,0.254 -0.363,0.17 -0.672,0.416 -0.93,0.735 -0.258,0.319 -0.459,0.709 -0.604,1.168 -0.143,0.458 -0.215,0.979 -0.215,1.561 0,0.549 0.064,1.042 0.195,1.478 0.13,0.436 0.314,0.804 0.556,1.104 0.241,0.3 0.527,0.53 0.862,0.688 0.334,0.158 0.704,0.237 1.112,0.237 0.442,0 0.839,-0.079 1.193,-0.237 0.353,-0.158 0.654,-0.377 0.9,-0.654 C -0.523,3.348 -0.332,3.022 -0.201,2.648 -0.068,2.275 0,1.876 0,1.452 Z M 0,5.247 V 3.718 h -0.035 c -0.289,0.549 -0.7,0.976 -1.235,1.278 -0.535,0.302 -1.143,0.455 -1.821,0.455 -0.544,0 -1.037,-0.102 -1.482,-0.302 C -5.018,4.949 -5.398,4.658 -5.715,4.279 -6.033,3.9 -6.277,3.441 -6.45,2.903 -6.623,2.365 -6.708,1.757 -6.708,1.078 c 0,-0.701 0.094,-1.343 0.284,-1.923 0.19,-0.581 0.459,-1.079 0.806,-1.495 0.349,-0.416 0.768,-0.739 1.257,-0.968 0.489,-0.229 1.035,-0.344 1.635,-0.344 1.251,0 2.147,0.501 2.691,1.503 H 0 V -7.625 H 1.086 V 5.247 Z"
               style="fill:#202459;fill-opacity:1;fill-rule:nonzero;stroke:none"
               id="path300" /></g></g><g
           id="g302"
           transform="matrix(2.178838,0,0,-1.9033153,0,141.73228)"><g
             id="g304"
             transform="translate(208.7112,63.5728)"><path
               d="M 0,0 C 0,-0.379 -0.066,-0.734 -0.196,-1.062 -0.327,-1.39 -0.507,-1.676 -0.74,-1.919 -0.972,-2.163 -1.249,-2.356 -1.576,-2.497 -1.902,-2.638 -2.259,-2.709 -2.65,-2.709 c -0.43,0 -0.827,0.085 -1.188,0.254 -0.363,0.17 -0.672,0.416 -0.93,0.735 -0.258,0.319 -0.459,0.709 -0.604,1.168 -0.143,0.458 -0.215,0.979 -0.215,1.561 0,0.549 0.064,1.042 0.195,1.478 0.13,0.436 0.314,0.804 0.556,1.104 0.241,0.3 0.527,0.53 0.862,0.688 0.334,0.158 0.704,0.237 1.112,0.237 0.442,0 0.839,-0.079 1.193,-0.237 0.353,-0.158 0.654,-0.377 0.9,-0.654 C -0.523,3.348 -0.332,3.022 -0.201,2.648 -0.068,2.275 0,1.876 0,1.452 Z M 0,5.247 V 3.718 h -0.035 c -0.289,0.549 -0.7,0.976 -1.235,1.278 -0.535,0.302 -1.143,0.455 -1.821,0.455 -0.544,0 -1.037,-0.102 -1.482,-0.302 C -5.018,4.949 -5.398,4.658 -5.715,4.279 -6.033,3.9 -6.277,3.441 -6.45,2.903 -6.623,2.365 -6.708,1.757 -6.708,1.078 c 0,-0.701 0.094,-1.343 0.284,-1.923 0.19,-0.581 0.459,-1.079 0.806,-1.495 0.349,-0.416 0.768,-0.739 1.257,-0.968 0.489,-0.229 1.035,-0.344 1.635,-0.344 1.251,0 2.147,0.501 2.691,1.503 H 0 V -7.625 H 1.086 V 5.247 Z"
               style="fill:none;stroke:#202459;stroke-width:0.5;stroke-linecap:butt;stroke-linejoin:miter;stroke-miterlimit:10;stroke-dasharray:none;stroke-opacity:1"
               id="path306" /></g></g><g
           id="g308"
           transform="matrix(2.178838,0,0,-1.9033153,0,141.73228)"><g
             id="g310"
             transform="translate(221.7562,63.7168)"><path
               d="m 0,0 c -0.017,-0.905 -0.232,-1.608 -0.645,-2.106 -0.413,-0.497 -0.988,-0.747 -1.724,-0.747 -0.368,0 -0.709,0.065 -1.023,0.195 -0.314,0.131 -0.59,0.318 -0.827,0.564 -0.239,0.247 -0.435,0.547 -0.591,0.901 C -4.965,-0.84 -5.074,-0.442 -5.136,0 Z m -5.162,0.95 c 0.005,0.533 0.076,1.011 0.212,1.436 0.136,0.424 0.331,0.784 0.586,1.078 0.255,0.294 0.565,0.519 0.93,0.675 0.365,0.156 0.776,0.233 1.235,0.233 0.98,0 1.905,-0.343 2.777,-1.027 v 1.07 C -0.254,5.009 -1.261,5.307 -2.445,5.307 -3.028,5.307 -3.557,5.204 -4.033,5.001 -4.508,4.797 -4.913,4.501 -5.247,4.113 -5.582,3.726 -5.838,3.248 -6.02,2.683 -6.201,2.117 -6.292,1.472 -6.292,0.747 c 0,-0.651 0.099,-1.254 0.297,-1.808 0.2,-0.556 0.473,-1.036 0.825,-1.44 0.351,-0.404 0.767,-0.722 1.248,-0.951 0.48,-0.229 1.006,-0.344 1.579,-0.344 0.56,0 1.055,0.098 1.486,0.293 0.43,0.195 0.79,0.475 1.082,0.836 0.292,0.362 0.514,0.804 0.667,1.325 0.152,0.521 0.229,1.104 0.229,1.749 V 0.95 Z"
               style="fill:#202459;fill-opacity:1;fill-rule:nonzero;stroke:none"
               id="path312" /></g></g><g
           id="g314"
           transform="matrix(2.178838,0,0,-1.9033153,0,141.73228)"><g
             id="g316"
             transform="translate(221.7562,63.7168)"><path
               d="m 0,0 c -0.017,-0.905 -0.232,-1.608 -0.645,-2.106 -0.413,-0.497 -0.988,-0.747 -1.724,-0.747 -0.368,0 -0.709,0.065 -1.023,0.195 -0.314,0.131 -0.59,0.318 -0.827,0.564 -0.239,0.247 -0.435,0.547 -0.591,0.901 C -4.965,-0.84 -5.074,-0.442 -5.136,0 Z m -5.162,0.95 c 0.005,0.533 0.076,1.011 0.212,1.436 0.136,0.424 0.331,0.784 0.586,1.078 0.255,0.294 0.565,0.519 0.93,0.675 0.365,0.156 0.776,0.233 1.235,0.233 0.98,0 1.905,-0.343 2.777,-1.027 v 1.07 C -0.254,5.009 -1.261,5.307 -2.445,5.307 -3.028,5.307 -3.557,5.204 -4.033,5.001 -4.508,4.797 -4.913,4.501 -5.247,4.113 -5.582,3.726 -5.838,3.248 -6.02,2.683 -6.201,2.117 -6.292,1.472 -6.292,0.747 c 0,-0.651 0.099,-1.254 0.297,-1.808 0.2,-0.556 0.473,-1.036 0.825,-1.44 0.351,-0.404 0.767,-0.722 1.248,-0.951 0.48,-0.229 1.006,-0.344 1.579,-0.344 0.56,0 1.055,0.098 1.486,0.293 0.43,0.195 0.79,0.475 1.082,0.836 0.292,0.362 0.514,0.804 0.667,1.325 0.152,0.521 0.229,1.104 0.229,1.749 V 0.95 Z"
               style="fill:none;stroke:#202459;stroke-width:0.5;stroke-linecap:butt;stroke-linejoin:miter;stroke-miterlimit:10;stroke-dasharray:none;stroke-opacity:1"
               id="path318" /></g></g><g
           id="g320"
           transform="matrix(2.178838,0,0,-1.9033153,0,141.73228)"><g
             id="g322"
             transform="translate(239.4142,68.8198)"><path
               d="m 0,0 v -5.112 c 0,-0.521 -0.039,-0.961 -0.119,-1.32 -0.08,-0.36 -0.203,-0.652 -0.37,-0.879 -0.167,-0.225 -0.379,-0.391 -0.636,-0.492 -0.258,-0.103 -0.565,-0.153 -0.921,-0.153 -0.318,0 -0.617,0.075 -0.901,0.225 -0.283,0.15 -0.53,0.357 -0.743,0.619 -0.212,0.264 -0.379,0.574 -0.501,0.93 -0.122,0.357 -0.182,0.742 -0.182,1.155 V 0 H -5.46 v -5.222 c 0,-1.822 -0.7,-2.734 -2.097,-2.734 -0.322,0 -0.623,0.072 -0.9,0.216 -0.277,0.145 -0.519,0.347 -0.726,0.608 -0.207,0.26 -0.368,0.572 -0.484,0.937 -0.116,0.366 -0.174,0.769 -0.174,1.21 V 0 h -1.087 v -8.695 h 1.087 v 1.409 h 0.034 c 0.611,-1.075 1.503,-1.613 2.675,-1.613 0.305,0 0.594,0.047 0.866,0.141 0.272,0.093 0.515,0.223 0.73,0.39 0.215,0.166 0.4,0.366 0.556,0.598 0.155,0.234 0.273,0.487 0.353,0.765 0.305,-0.616 0.703,-1.087 1.192,-1.409 0.489,-0.324 1.043,-0.485 1.66,-0.485 1.907,0 2.862,1.177 2.862,3.532 l 0,5.367 z"
               style="fill:#202459;fill-opacity:1;fill-rule:nonzero;stroke:none"
               id="path324" /></g></g><g
           id="g326"
           transform="matrix(2.178838,0,0,-1.9033153,0,141.73228)"><g
             id="g328"
             transform="translate(239.4142,68.8198)"><path
               d="m 0,0 v -5.112 c 0,-0.521 -0.039,-0.961 -0.119,-1.32 -0.08,-0.36 -0.203,-0.652 -0.37,-0.879 -0.167,-0.225 -0.379,-0.391 -0.636,-0.492 -0.258,-0.103 -0.565,-0.153 -0.921,-0.153 -0.318,0 -0.617,0.075 -0.901,0.225 -0.283,0.15 -0.53,0.357 -0.743,0.619 -0.212,0.264 -0.379,0.574 -0.501,0.93 -0.122,0.357 -0.182,0.742 -0.182,1.155 V 0 H -5.46 v -5.222 c 0,-1.822 -0.7,-2.734 -2.097,-2.734 -0.322,0 -0.623,0.072 -0.9,0.216 -0.277,0.145 -0.519,0.347 -0.726,0.608 -0.207,0.26 -0.368,0.572 -0.484,0.937 -0.116,0.366 -0.174,0.769 -0.174,1.21 V 0 h -1.087 v -8.695 h 1.087 v 1.409 h 0.034 c 0.611,-1.075 1.503,-1.613 2.675,-1.613 0.305,0 0.594,0.047 0.866,0.141 0.272,0.093 0.515,0.223 0.73,0.39 0.215,0.166 0.4,0.366 0.556,0.598 0.155,0.234 0.273,0.487 0.353,0.765 0.305,-0.616 0.703,-1.087 1.192,-1.409 0.489,-0.324 1.043,-0.485 1.66,-0.485 1.907,0 2.862,1.177 2.862,3.532 l 0,5.367 z"
               style="fill:none;stroke:#202459;stroke-width:0.5;stroke-linecap:butt;stroke-linejoin:miter;stroke-miterlimit:10;stroke-dasharray:none;stroke-opacity:1"
               id="path330" /></g></g><g
           id="g332"
           transform="matrix(2.178838,0,0,-1.9033153,0,141.73228)"><g
             id="g334"
             transform="translate(249.1162,70.3988)"><path
               d="m 0,0 c -0.34,0.849 -0.731,1.478 -1.172,1.889 -0.441,0.411 -0.977,0.616 -1.606,0.616 -0.31,0 -0.573,-0.037 -0.789,-0.111 V 1.376 c 0.124,0.045 0.25,0.079 0.378,0.101 0.127,0.023 0.256,0.034 0.386,0.034 0.357,0 0.667,-0.111 0.93,-0.335 0.263,-0.224 0.492,-0.562 0.683,-1.015 l 0.756,-1.783 -3.345,-8.652 h 1.206 l 2.488,6.886 c 0.033,0.09 0.066,0.194 0.098,0.31 0.03,0.116 0.06,0.23 0.088,0.344 H 0.143 C 0.173,-2.83 0.199,-2.928 0.224,-3.027 0.25,-3.126 0.285,-3.235 0.331,-3.354 l 2.64,-6.92 h 1.146 z"
               style="fill:#202459;fill-opacity:1;fill-rule:nonzero;stroke:none"
               id="path336" /></g></g></g></g><g
       id="g338"><g
         id="g340"
         clip-path="url(#clipPath344)"><g
           id="g346"
           transform="matrix(2.178838,0,0,-1.9033153,0,141.73228)"><g
             id="g348"
             transform="translate(249.1162,70.3988)"><path
               d="m 0,0 c -0.34,0.849 -0.731,1.478 -1.172,1.889 -0.441,0.411 -0.977,0.616 -1.606,0.616 -0.31,0 -0.573,-0.037 -0.789,-0.111 V 1.376 c 0.124,0.045 0.25,0.079 0.378,0.101 0.127,0.023 0.256,0.034 0.386,0.034 0.357,0 0.667,-0.111 0.93,-0.335 0.263,-0.224 0.492,-0.562 0.683,-1.015 l 0.756,-1.783 -3.345,-8.652 h 1.206 l 2.488,6.886 c 0.033,0.09 0.066,0.194 0.098,0.31 0.03,0.116 0.06,0.23 0.088,0.344 H 0.143 C 0.173,-2.83 0.199,-2.928 0.224,-3.027 0.25,-3.126 0.285,-3.235 0.331,-3.354 l 2.64,-6.92 h 1.146 z"
               style="fill:none;stroke:#202459;stroke-width:0.5;stroke-linecap:butt;stroke-linejoin:miter;stroke-miterlimit:10;stroke-dasharray:none;stroke-opacity:1"
               id="path350" /></g></g><g
           id="g352"
           transform="matrix(2.178838,0,0,-1.9033153,0,141.73228)"><g
             id="g354"
             transform="translate(113.2742,-4.2353)"><path
               d="m 0,0 c 3.716,-4.281 12.805,-15.181 13.147,-14.975 0.806,0.474 1.457,4.412 1.631,5.376 0.272,1.452 0.676,2.979 0.921,4.357 0.185,1.004 -1.848,3.944 -2.261,5.064 -0.808,2.227 -1.5,4.493 -2.182,6.753 -0.622,2.095 -1.223,4.185 -1.804,6.29 -0.413,1.475 -0.009,1.592 1.467,2.327 1.725,0.863 3.96,2.306 5.098,4.445 l -3.42,7.505 z m -11.195,3.409 c -0.435,0.415 -1.515,1.592 -0.607,2.139 0.164,0.096 -0.458,1.817 -0.554,1.997 -0.574,1.012 -0.946,0.706 -1.04,1.69 -0.106,1.166 -2.309,0.737 -1.879,2.391 0.222,0.885 -1.544,1.492 -2.268,1.95 -0.291,0.184 -0.885,0.568 -1.701,1.095 v -32.584 l 9.211,20.046 c -0.366,0.45 -0.746,0.882 -1.162,1.276 m 48.784,-33.943 c -1.001,-0.157 -1.749,-0.715 -2.691,-0.881 -1.293,-0.241 -4.239,0.203 -4.194,-1.889 0.019,-0.486 0.949,-0.984 1.146,-1.481 0.222,-0.6 0.286,-1.295 0.386,-1.925 0.193,-1.164 0.121,-2.152 -0.049,-3.316 -0.079,-0.537 -0.625,-2.51 -0.045,-2.918 0.772,-0.527 1.657,-1.062 2.316,-1.744 0.43,-0.451 -1.147,-0.561 -1.288,-0.578 -0.619,-0.059 -0.33,-0.424 -0.619,-0.818 -0.563,-0.785 -1.022,-0.516 -1.394,-1.579 -0.251,-0.739 -0.927,-1.998 -0.817,-2.802 -0.011,0.091 0.986,-1.783 0.97,-2.26 0.15,0.306 0.336,1.113 0.678,0.687 0.48,-0.576 0.794,-1.429 0.754,-2.183 -2.961,-12.386 -10.245,-17.887 -12.537,-12.824 -0.592,1.299 -4.641,12.54 -1.288,12.54 -0.909,0 0.514,3.66 0.725,4.033 0.037,0.053 0.772,0.973 0.721,1.022 -0.064,0.066 -0.695,4.744 -0.824,5.837 -1.468,0.517 0.613,4.592 0.971,5.106 1.068,1.535 2.806,2.574 1.345,4.493 -0.999,1.308 -2.213,1.911 -3.886,2.16 -1.106,0.165 -1.981,-0.265 -2.797,0.686 -0.353,0.411 -1.384,0.764 -1.883,0.777 -1.305,0.064 -1.433,-0.165 -2.601,0.467 -0.85,0.474 -0.927,0.868 -1.139,1.838 -0.409,1.915 -1.301,3.191 -2.048,4.96 -1.322,3.119 -3.053,6.308 -5.043,9.058 -0.705,0.969 -3.475,4.309 -5.721,7.037 l -10.408,-22.424 h -20.458 v 1.99 c 2.44,0 4.338,0.239 5.692,0.716 1.352,0.478 2.361,1.168 3.025,2.07 0.663,0.903 1.074,2.004 1.233,3.303 0.159,1.301 0.239,2.8 0.239,4.498 v 34.603 c -9.505,6.194 -26.8,17.503 -35.036,22.914 2.644,-1.629 5.36,-2.921 7.951,-4.496 6.654,-4.035 13.209,-8.233 19.865,-12.26 2.437,-1.469 4.825,-3.014 7.22,-4.549 v 11.069 c 0,2.389 -0.159,4.287 -0.477,5.693 -0.319,1.406 -0.796,2.467 -1.433,3.183 -0.637,0.717 -1.433,1.169 -2.388,1.354 -0.955,0.186 -2.07,0.278 -3.343,0.278 h -2.548 v 1.991 h 25.154 v -1.991 h -2.548 c -1.221,0 -2.308,-0.079 -3.263,-0.238 -0.955,-0.159 -1.765,-0.583 -2.428,-1.274 -0.663,-0.689 -1.168,-1.738 -1.512,-3.144 -0.345,-1.405 -0.518,-3.355 -0.518,-5.852 V 16.167 c 1.978,-1.446 4.351,-3.009 6.018,-2.206 0.387,0.187 2.418,0.762 2.415,1.206 -0.022,1.007 -0.581,1.725 0.722,1.715 0.533,0 2.446,0.057 2.765,-0.505 0.744,-1.309 -0.51,-1.654 0.84,-2.657 0.532,-0.397 0.872,-0.903 1.105,-1.456 L 8.696,42.902 h 0.128 l 32.712,-72.357 c -1.251,-0.859 -2.528,-0.862 -3.947,-1.079"
               style="fill:#202459;fill-opacity:1;fill-rule:nonzero;stroke:none"
               id="path356" /></g></g></g></g><g
       id="g358"><g
         id="g360"
         clip-path="url(#clipPath364)"><g
           id="g366"
           transform="matrix(2.178838,0,0,-1.9033153,0,141.73228)"><g
             id="g368"
             transform="translate(162.4072,-26.8051)"><path
               d="M 0,0 C 0.318,-1.405 0.797,-2.468 1.433,-3.184 2.07,-3.9 2.866,-4.364 3.821,-4.577 4.776,-4.788 5.917,-4.895 7.244,-4.895 h 2.468 v -1.99 h -9.934 l -10.524,23.279 v 36.579 c 0,2.389 -0.159,4.274 -0.478,5.654 -0.318,1.379 -0.809,2.426 -1.472,3.143 -0.664,0.716 -1.472,1.183 -2.428,1.393 -0.955,0.213 -2.07,0.318 -3.343,0.318 h -2.547 v 1.991 H 9.712 V 63.481 H 7.244 C 6.022,63.481 4.935,63.402 3.98,63.243 3.025,63.084 2.216,62.66 1.553,61.969 0.888,61.28 0.385,60.231 0.04,58.825 -0.306,57.42 -0.478,55.47 -0.478,52.973 V 5.691 C -0.478,3.303 -0.319,1.407 0,0"
               style="fill:#202459;fill-opacity:1;fill-rule:nonzero;stroke:none"
               id="path370" /></g></g><text
           transform="matrix(1,0,0,-0.87354623,471.6557,45.2935)"
           style="font-variant:normal;font-weight:300;font-stretch:normal;font-size:23.6798px;font-family:'Segoe UI';-inkscape-font-specification:SegoeUI-Semilight;writing-mode:lr-tb;fill:#202459;fill-opacity:1;fill-rule:nonzero;stroke:none"
           id="text374"><tspan
             x="0 14.255239 23.300922 37.366726 47.998955 58.631184 71.820831 78.143341"
             y="0"
             id="tspan372">Brussels</tspan></text><g
           id="g376"
           transform="matrix(2.178838,0,0,-1.9033153,0,141.73228)"><g
             id="g378"
             transform="translate(242.3102,34.2068)"><path
               d="m 0,0 c -0.031,-0.397 -0.139,-0.752 -0.492,-0.966 -0.32,-0.196 -0.659,-0.186 -0.973,0.017 -0.337,0.218 -0.467,0.554 -0.487,0.949 z m -6.158,0.615 c 0,0.452 0.002,0.906 -10e-4,1.358 0,0.062 0.016,0.095 0.079,0.104 0.16,0.022 0.32,0.056 0.481,0.065 0.491,0.024 0.892,-0.165 1.187,-0.555 0.321,-0.425 0.415,-0.91 0.318,-1.428 -0.079,-0.422 -0.294,-0.762 -0.677,-0.97 -0.425,-0.232 -0.863,-0.214 -1.304,-0.046 -0.061,0.023 -0.084,0.052 -0.084,0.121 0.003,0.449 10e-4,0.9 10e-4,1.351 M -6.16,-4.436 c 0.001,0.643 0.002,1.286 0.002,1.929 0.001,0.195 0,0.389 0,0.586 0.181,-0.036 0.352,-0.082 0.527,-0.104 0.798,-0.105 1.527,0.041 2.14,0.597 0.223,0.202 0.384,0.448 0.511,0.736 0.017,-0.032 0.03,-0.053 0.04,-0.074 0.299,-0.619 0.757,-1.063 1.437,-1.221 0.75,-0.175 1.45,-0.057 2.042,0.471 0.397,0.354 0.606,0.817 0.712,1.33 0.077,0.359 0.074,0.722 0.068,1.094 h -3.24 c 0.014,0.093 0.016,0.179 0.037,0.257 0.147,0.557 0.525,0.87 1.074,0.973 C -0.303,2.234 0.183,2.119 0.644,1.897 0.694,1.871 0.744,1.847 0.801,1.82 0.904,2.093 1.006,2.364 1.11,2.638 0.891,2.796 0.653,2.914 0.402,3.001 -0.197,3.211 -0.807,3.259 -1.426,3.115 -2.193,2.935 -2.716,2.461 -3.01,1.735 -3.02,1.706 -3.032,1.681 -3.045,1.645 -3.058,1.662 -3.066,1.669 -3.071,1.68 -3.467,2.443 -4.105,2.894 -4.925,3.09 -5.683,3.271 -6.44,3.231 -7.176,2.957 -7.439,2.859 -7.437,2.853 -7.437,2.576 v -6.915 c 0,-0.033 -0.002,-0.064 -0.003,-0.097 z"
               style="fill:#fcfcfc;fill-opacity:1;fill-rule:evenodd;stroke:none"
               id="path380" /></g></g><g
           id="g382"
           transform="matrix(2.178838,0,0,-1.9033153,0,141.73228)"><g
             id="g384"
             transform="translate(233.3052,36.5078)"><path
               d="m 0,0 c 0.043,-0.142 0.095,-0.28 0.208,-0.384 0.198,-0.178 0.424,-0.231 0.675,-0.151 0.253,0.081 0.403,0.267 0.448,0.524 C 1.412,0.446 1.095,0.825 0.652,0.816 0.374,0.809 0.125,0.624 0.035,0.357 0.024,0.321 0.012,0.284 0,0.25 Z"
               style="fill:#fcfcfc;fill-opacity:1;fill-rule:evenodd;stroke:none"
               id="path386" /></g></g></g></g></g></svg>
