<?xml version="1.0" encoding="utf-8"?>
<svg xmlns="http://www.w3.org/2000/svg" xmlns:xlink="http://www.w3.org/1999/xlink" width="600" height="400" viewBox="0 0 2400 1600">
<defs>
  <clipPath id="clip200">
    <rect x="0" y="0" width="2400" height="1600"/>
  </clipPath>
</defs>
<path clip-path="url(#clip200)" d="
M0 1600 L2400 1600 L2400 0 L0 0  Z
  " fill="#ffffff" fill-rule="evenodd" fill-opacity="1"/>
<defs>
  <clipPath id="clip201">
    <rect x="480" y="0" width="1681" height="1600"/>
  </clipPath>
</defs>
<path clip-path="url(#clip200)" d="
M277.27 1423.18 L2352.76 1423.18 L2352.76 47.2441 L277.27 47.2441  Z
  " fill="#ffffff" fill-rule="evenodd" fill-opacity="1"/>
<defs>
  <clipPath id="clip202">
    <rect x="277" y="47" width="2076" height="1377"/>
  </clipPath>
</defs>
<polyline clip-path="url(#clip202)" style="stroke:#000000; stroke-width:2; stroke-opacity:0.1; fill:none" points="
  336.011,1423.18 336.011,47.2441 
  "/>
<polyline clip-path="url(#clip202)" style="stroke:#000000; stroke-width:2; stroke-opacity:0.1; fill:none" points="
  998.518,1423.18 998.518,47.2441 
  "/>
<polyline clip-path="url(#clip202)" style="stroke:#000000; stroke-width:2; stroke-opacity:0.1; fill:none" points="
  1499.68,1423.18 1499.68,47.2441 
  "/>
<polyline clip-path="url(#clip202)" style="stroke:#000000; stroke-width:2; stroke-opacity:0.1; fill:none" points="
  2000.85,1423.18 2000.85,47.2441 
  "/>
<polyline clip-path="url(#clip202)" style="stroke:#000000; stroke-width:2; stroke-opacity:0.1; fill:none" points="
  2294.02,1423.18 2294.02,47.2441 
  "/>
<polyline clip-path="url(#clip200)" style="stroke:#000000; stroke-width:4; stroke-opacity:1; fill:none" points="
  277.27,1423.18 2352.76,1423.18 
  "/>
<polyline clip-path="url(#clip200)" style="stroke:#000000; stroke-width:4; stroke-opacity:1; fill:none" points="
  336.011,1423.18 336.011,1406.67 
  "/>
<polyline clip-path="url(#clip200)" style="stroke:#000000; stroke-width:4; stroke-opacity:1; fill:none" points="
  998.518,1423.18 998.518,1406.67 
  "/>
<polyline clip-path="url(#clip200)" style="stroke:#000000; stroke-width:4; stroke-opacity:1; fill:none" points="
  1499.68,1423.18 1499.68,1406.67 
  "/>
<polyline clip-path="url(#clip200)" style="stroke:#000000; stroke-width:4; stroke-opacity:1; fill:none" points="
  2000.85,1423.18 2000.85,1406.67 
  "/>
<polyline clip-path="url(#clip200)" style="stroke:#000000; stroke-width:4; stroke-opacity:1; fill:none" points="
  2294.02,1423.18 2294.02,1406.67 
  "/>
<path clip-path="url(#clip200)" d="M 0 0 M314.194 1452.37 Q310.583 1452.37 308.754 1455.94 Q306.948 1459.48 306.948 1466.61 Q306.948 1473.71 308.754 1477.28 Q310.583 1480.82 314.194 1480.82 Q317.828 1480.82 319.633 1477.28 Q321.462 1473.71 321.462 1466.61 Q321.462 1459.48 319.633 1455.94 Q317.828 1452.37 314.194 1452.37 M314.194 1448.67 Q320.004 1448.67 323.059 1453.27 Q326.138 1457.86 326.138 1466.61 Q326.138 1475.33 323.059 1479.94 Q320.004 1484.52 314.194 1484.52 Q308.383 1484.52 305.305 1479.94 Q302.249 1475.33 302.249 1466.61 Q302.249 1457.86 305.305 1453.27 Q308.383 1448.67 314.194 1448.67 Z" fill="#000000" fill-rule="evenodd" fill-opacity="1" /><path clip-path="url(#clip200)" d="M 0 0 M334.356 1477.97 L339.24 1477.97 L339.24 1483.85 L334.356 1483.85 L334.356 1477.97 Z" fill="#000000" fill-rule="evenodd" fill-opacity="1" /><path clip-path="url(#clip200)" d="M 0 0 M353.453 1479.92 L369.772 1479.92 L369.772 1483.85 L347.828 1483.85 L347.828 1479.92 Q350.49 1477.16 355.073 1472.53 Q359.679 1467.88 360.86 1466.54 Q363.105 1464.01 363.985 1462.28 Q364.888 1460.52 364.888 1458.83 Q364.888 1456.07 362.943 1454.34 Q361.022 1452.6 357.92 1452.6 Q355.721 1452.6 353.267 1453.37 Q350.837 1454.13 348.059 1455.68 L348.059 1450.96 Q350.883 1449.82 353.337 1449.25 Q355.791 1448.67 357.828 1448.67 Q363.198 1448.67 366.392 1451.35 Q369.587 1454.04 369.587 1458.53 Q369.587 1460.66 368.777 1462.58 Q367.99 1464.48 365.883 1467.07 Q365.304 1467.74 362.203 1470.96 Q359.101 1474.15 353.453 1479.92 Z" fill="#000000" fill-rule="evenodd" fill-opacity="1" /><path clip-path="url(#clip200)" d="M 0 0 M976.4 1452.37 Q972.788 1452.37 970.96 1455.94 Q969.154 1459.48 969.154 1466.61 Q969.154 1473.71 970.96 1477.28 Q972.788 1480.82 976.4 1480.82 Q980.034 1480.82 981.839 1477.28 Q983.668 1473.71 983.668 1466.61 Q983.668 1459.48 981.839 1455.94 Q980.034 1452.37 976.4 1452.37 M976.4 1448.67 Q982.21 1448.67 985.265 1453.27 Q988.344 1457.86 988.344 1466.61 Q988.344 1475.33 985.265 1479.94 Q982.21 1484.52 976.4 1484.52 Q970.589 1484.52 967.511 1479.94 Q964.455 1475.33 964.455 1466.61 Q964.455 1457.86 967.511 1453.27 Q970.589 1448.67 976.4 1448.67 Z" fill="#000000" fill-rule="evenodd" fill-opacity="1" /><path clip-path="url(#clip200)" d="M 0 0 M996.562 1477.97 L1001.45 1477.97 L1001.45 1483.85 L996.562 1483.85 L996.562 1477.97 Z" fill="#000000" fill-rule="evenodd" fill-opacity="1" /><path clip-path="url(#clip200)" d="M 0 0 M1011.68 1449.29 L1030.03 1449.29 L1030.03 1453.23 L1015.96 1453.23 L1015.96 1461.7 Q1016.98 1461.35 1018 1461.19 Q1019.02 1461 1020.03 1461 Q1025.82 1461 1029.2 1464.18 Q1032.58 1467.35 1032.58 1472.76 Q1032.58 1478.34 1029.11 1481.44 Q1025.64 1484.52 1019.32 1484.52 Q1017.14 1484.52 1014.87 1484.15 Q1012.63 1483.78 1010.22 1483.04 L1010.22 1478.34 Q1012.3 1479.48 1014.52 1480.03 Q1016.75 1480.59 1019.22 1480.59 Q1023.23 1480.59 1025.57 1478.48 Q1027.9 1476.38 1027.9 1472.76 Q1027.9 1469.15 1025.57 1467.05 Q1023.23 1464.94 1019.22 1464.94 Q1017.35 1464.94 1015.47 1465.36 Q1013.62 1465.77 1011.68 1466.65 L1011.68 1449.29 Z" fill="#000000" fill-rule="evenodd" fill-opacity="1" /><path clip-path="url(#clip200)" d="M 0 0 M1466.84 1479.92 L1474.48 1479.92 L1474.48 1453.55 L1466.17 1455.22 L1466.17 1450.96 L1474.43 1449.29 L1479.11 1449.29 L1479.11 1479.92 L1486.74 1479.92 L1486.74 1483.85 L1466.84 1483.85 L1466.84 1479.92 Z" fill="#000000" fill-rule="evenodd" fill-opacity="1" /><path clip-path="url(#clip200)" d="M 0 0 M1496.19 1477.97 L1501.07 1477.97 L1501.07 1483.85 L1496.19 1483.85 L1496.19 1477.97 Z" fill="#000000" fill-rule="evenodd" fill-opacity="1" /><path clip-path="url(#clip200)" d="M 0 0 M1521.26 1452.37 Q1517.65 1452.37 1515.82 1455.94 Q1514.01 1459.48 1514.01 1466.61 Q1514.01 1473.71 1515.82 1477.28 Q1517.65 1480.82 1521.26 1480.82 Q1524.89 1480.82 1526.7 1477.28 Q1528.53 1473.71 1528.53 1466.61 Q1528.53 1459.48 1526.7 1455.94 Q1524.89 1452.37 1521.26 1452.37 M1521.26 1448.67 Q1527.07 1448.67 1530.12 1453.27 Q1533.2 1457.86 1533.2 1466.61 Q1533.2 1475.33 1530.12 1479.94 Q1527.07 1484.52 1521.26 1484.52 Q1515.45 1484.52 1512.37 1479.94 Q1509.31 1475.33 1509.31 1466.61 Q1509.31 1457.86 1512.37 1453.27 Q1515.45 1448.67 1521.26 1448.67 Z" fill="#000000" fill-rule="evenodd" fill-opacity="1" /><path clip-path="url(#clip200)" d="M 0 0 M1972.09 1479.92 L1988.41 1479.92 L1988.41 1483.85 L1966.47 1483.85 L1966.47 1479.92 Q1969.13 1477.16 1973.71 1472.53 Q1978.32 1467.88 1979.5 1466.54 Q1981.74 1464.01 1982.62 1462.28 Q1983.53 1460.52 1983.53 1458.83 Q1983.53 1456.07 1981.58 1454.34 Q1979.66 1452.6 1976.56 1452.6 Q1974.36 1452.6 1971.91 1453.37 Q1969.47 1454.13 1966.7 1455.68 L1966.7 1450.96 Q1969.52 1449.82 1971.97 1449.25 Q1974.43 1448.67 1976.47 1448.67 Q1981.84 1448.67 1985.03 1451.35 Q1988.22 1454.04 1988.22 1458.53 Q1988.22 1460.66 1987.41 1462.58 Q1986.63 1464.48 1984.52 1467.07 Q1983.94 1467.74 1980.84 1470.96 Q1977.74 1474.15 1972.09 1479.92 Z" fill="#000000" fill-rule="evenodd" fill-opacity="1" /><path clip-path="url(#clip200)" d="M 0 0 M1998.22 1477.97 L2003.11 1477.97 L2003.11 1483.85 L1998.22 1483.85 L1998.22 1477.97 Z" fill="#000000" fill-rule="evenodd" fill-opacity="1" /><path clip-path="url(#clip200)" d="M 0 0 M2023.29 1452.37 Q2019.68 1452.37 2017.85 1455.94 Q2016.05 1459.48 2016.05 1466.61 Q2016.05 1473.71 2017.85 1477.28 Q2019.68 1480.82 2023.29 1480.82 Q2026.93 1480.82 2028.73 1477.28 Q2030.56 1473.71 2030.56 1466.61 Q2030.56 1459.48 2028.73 1455.94 Q2026.93 1452.37 2023.29 1452.37 M2023.29 1448.67 Q2029.1 1448.67 2032.16 1453.27 Q2035.24 1457.86 2035.24 1466.61 Q2035.24 1475.33 2032.16 1479.94 Q2029.1 1484.52 2023.29 1484.52 Q2017.48 1484.52 2014.4 1479.94 Q2011.35 1475.33 2011.35 1466.61 Q2011.35 1457.86 2014.4 1453.27 Q2017.48 1448.67 2023.29 1448.67 Z" fill="#000000" fill-rule="evenodd" fill-opacity="1" /><path clip-path="url(#clip200)" d="M 0 0 M2275.32 1465.22 Q2278.68 1465.94 2280.56 1468.2 Q2282.45 1470.47 2282.45 1473.81 Q2282.45 1478.92 2278.93 1481.72 Q2275.42 1484.52 2268.93 1484.52 Q2266.76 1484.52 2264.44 1484.08 Q2262.15 1483.67 2259.7 1482.81 L2259.7 1478.3 Q2261.64 1479.43 2263.96 1480.01 Q2266.27 1480.59 2268.8 1480.59 Q2273.19 1480.59 2275.49 1478.85 Q2277.8 1477.12 2277.8 1473.81 Q2277.8 1470.75 2275.65 1469.04 Q2273.52 1467.3 2269.7 1467.3 L2265.67 1467.3 L2265.67 1463.46 L2269.88 1463.46 Q2273.33 1463.46 2275.16 1462.09 Q2276.99 1460.7 2276.99 1458.11 Q2276.99 1455.45 2275.09 1454.04 Q2273.22 1452.6 2269.7 1452.6 Q2267.78 1452.6 2265.58 1453.02 Q2263.38 1453.44 2260.74 1454.31 L2260.74 1450.15 Q2263.4 1449.41 2265.72 1449.04 Q2268.06 1448.67 2270.12 1448.67 Q2275.44 1448.67 2278.54 1451.1 Q2281.64 1453.5 2281.64 1457.63 Q2281.64 1460.5 2280 1462.49 Q2278.36 1464.45 2275.32 1465.22 Z" fill="#000000" fill-rule="evenodd" fill-opacity="1" /><path clip-path="url(#clip200)" d="M 0 0 M2291.32 1477.97 L2296.2 1477.97 L2296.2 1483.85 L2291.32 1483.85 L2291.32 1477.97 Z" fill="#000000" fill-rule="evenodd" fill-opacity="1" /><path clip-path="url(#clip200)" d="M 0 0 M2316.39 1452.37 Q2312.78 1452.37 2310.95 1455.94 Q2309.14 1459.48 2309.14 1466.61 Q2309.14 1473.71 2310.95 1477.28 Q2312.78 1480.82 2316.39 1480.82 Q2320.02 1480.82 2321.83 1477.28 Q2323.66 1473.71 2323.66 1466.61 Q2323.66 1459.48 2321.83 1455.94 Q2320.02 1452.37 2316.39 1452.37 M2316.39 1448.67 Q2322.2 1448.67 2325.25 1453.27 Q2328.33 1457.86 2328.33 1466.61 Q2328.33 1475.33 2325.25 1479.94 Q2322.2 1484.52 2316.39 1484.52 Q2310.58 1484.52 2307.5 1479.94 Q2304.44 1475.33 2304.44 1466.61 Q2304.44 1457.86 2307.5 1453.27 Q2310.58 1448.67 2316.39 1448.67 Z" fill="#000000" fill-rule="evenodd" fill-opacity="1" /><path clip-path="url(#clip200)" d="M 0 0 M960.634 1525.81 L960.634 1543.66 L968.719 1543.66 Q973.207 1543.66 975.657 1541.34 Q978.108 1539.02 978.108 1534.72 Q978.108 1530.45 975.657 1528.13 Q973.207 1525.81 968.719 1525.81 L960.634 1525.81 M954.205 1520.52 L968.719 1520.52 Q976.708 1520.52 980.782 1524.15 Q984.888 1527.75 984.888 1534.72 Q984.888 1541.75 980.782 1545.35 Q976.708 1548.95 968.719 1548.95 L960.634 1548.95 L960.634 1568.04 L954.205 1568.04 L954.205 1520.52 Z" fill="#000000" fill-rule="evenodd" fill-opacity="1" /><path clip-path="url(#clip200)" d="M 0 0 M1006.53 1550.12 Q999.433 1550.12 996.696 1551.75 Q993.959 1553.37 993.959 1557.29 Q993.959 1560.4 995.996 1562.25 Q998.065 1564.07 1001.6 1564.07 Q1006.47 1564.07 1009.4 1560.63 Q1012.36 1557.16 1012.36 1551.43 L1012.36 1550.12 L1006.53 1550.12 M1018.21 1547.71 L1018.21 1568.04 L1012.36 1568.04 L1012.36 1562.63 Q1010.35 1565.88 1007.36 1567.44 Q1004.37 1568.97 1000.04 1568.97 Q994.564 1568.97 991.317 1565.91 Q988.102 1562.82 988.102 1557.67 Q988.102 1551.65 992.113 1548.6 Q996.155 1545.54 1004.14 1545.54 L1012.36 1545.54 L1012.36 1544.97 Q1012.36 1540.93 1009.68 1538.73 Q1007.04 1536.5 1002.23 1536.5 Q999.179 1536.5 996.282 1537.23 Q993.386 1537.97 990.712 1539.43 L990.712 1534.02 Q993.927 1532.78 996.951 1532.17 Q999.974 1531.54 1002.84 1531.54 Q1010.57 1531.54 1014.39 1535.55 Q1018.21 1539.56 1018.21 1547.71 Z" fill="#000000" fill-rule="evenodd" fill-opacity="1" /><path clip-path="url(#clip200)" d="M 0 0 M1050.93 1537.87 Q1049.95 1537.3 1048.77 1537.04 Q1047.62 1536.76 1046.22 1536.76 Q1041.26 1536.76 1038.58 1540 Q1035.94 1543.22 1035.94 1549.27 L1035.94 1568.04 L1030.05 1568.04 L1030.05 1532.4 L1035.94 1532.4 L1035.94 1537.93 Q1037.79 1534.69 1040.75 1533.13 Q1043.71 1531.54 1047.94 1531.54 Q1048.54 1531.54 1049.28 1531.63 Q1050.01 1531.7 1050.9 1531.85 L1050.93 1537.87 Z" fill="#000000" fill-rule="evenodd" fill-opacity="1" /><path clip-path="url(#clip200)" d="M 0 0 M1062.87 1522.27 L1062.87 1532.4 L1074.93 1532.4 L1074.93 1536.95 L1062.87 1536.95 L1062.87 1556.3 Q1062.87 1560.66 1064.05 1561.9 Q1065.25 1563.14 1068.91 1563.14 L1074.93 1563.14 L1074.93 1568.04 L1068.91 1568.04 Q1062.14 1568.04 1059.56 1565.53 Q1056.98 1562.98 1056.98 1556.3 L1056.98 1536.95 L1052.68 1536.95 L1052.68 1532.4 L1056.98 1532.4 L1056.98 1522.27 L1062.87 1522.27 Z" fill="#000000" fill-rule="evenodd" fill-opacity="1" /><path clip-path="url(#clip200)" d="M 0 0 M1082.63 1532.4 L1088.49 1532.4 L1088.49 1568.04 L1082.63 1568.04 L1082.63 1532.4 M1082.63 1518.52 L1088.49 1518.52 L1088.49 1525.93 L1082.63 1525.93 L1082.63 1518.52 Z" fill="#000000" fill-rule="evenodd" fill-opacity="1" /><path clip-path="url(#clip200)" d="M 0 0 M1126.4 1533.76 L1126.4 1539.24 Q1123.91 1537.87 1121.4 1537.2 Q1118.92 1536.5 1116.37 1536.5 Q1110.67 1536.5 1107.52 1540.13 Q1104.37 1543.73 1104.37 1550.25 Q1104.37 1556.78 1107.52 1560.4 Q1110.67 1564 1116.37 1564 Q1118.92 1564 1121.4 1563.33 Q1123.91 1562.63 1126.4 1561.26 L1126.4 1566.68 Q1123.95 1567.82 1121.3 1568.39 Q1118.69 1568.97 1115.73 1568.97 Q1107.68 1568.97 1102.94 1563.91 Q1098.2 1558.85 1098.2 1550.25 Q1098.2 1541.53 1102.97 1536.53 Q1107.78 1531.54 1116.12 1531.54 Q1118.82 1531.54 1121.4 1532.11 Q1123.98 1532.65 1126.4 1533.76 Z" fill="#000000" fill-rule="evenodd" fill-opacity="1" /><path clip-path="url(#clip200)" d="M 0 0 M1136.58 1518.52 L1142.44 1518.52 L1142.44 1568.04 L1136.58 1568.04 L1136.58 1518.52 Z" fill="#000000" fill-rule="evenodd" fill-opacity="1" /><path clip-path="url(#clip200)" d="M 0 0 M1185.18 1548.76 L1185.18 1551.62 L1158.26 1551.62 Q1158.64 1557.67 1161.89 1560.85 Q1165.16 1564 1170.99 1564 Q1174.36 1564 1177.51 1563.17 Q1180.7 1562.35 1183.82 1560.69 L1183.82 1566.23 Q1180.66 1567.57 1177.35 1568.27 Q1174.04 1568.97 1170.64 1568.97 Q1162.11 1568.97 1157.11 1564 Q1152.15 1559.04 1152.15 1550.57 Q1152.15 1541.82 1156.86 1536.69 Q1161.6 1531.54 1169.62 1531.54 Q1176.81 1531.54 1180.98 1536.18 Q1185.18 1540.8 1185.18 1548.76 M1179.33 1547.04 Q1179.26 1542.23 1176.62 1539.37 Q1174.01 1536.5 1169.68 1536.5 Q1164.78 1536.5 1161.82 1539.27 Q1158.89 1542.04 1158.45 1547.07 L1179.33 1547.04 Z" fill="#000000" fill-rule="evenodd" fill-opacity="1" /><path clip-path="url(#clip200)" d="M 0 0 M1238.97 1537.81 L1238.97 1518.52 L1244.83 1518.52 L1244.83 1568.04 L1238.97 1568.04 L1238.97 1562.7 Q1237.13 1565.88 1234.3 1567.44 Q1231.5 1568.97 1227.55 1568.97 Q1221.09 1568.97 1217.01 1563.81 Q1212.97 1558.65 1212.97 1550.25 Q1212.97 1541.85 1217.01 1536.69 Q1221.09 1531.54 1227.55 1531.54 Q1231.5 1531.54 1234.3 1533.1 Q1237.13 1534.62 1238.97 1537.81 M1219.02 1550.25 Q1219.02 1556.71 1221.66 1560.4 Q1224.33 1564.07 1228.98 1564.07 Q1233.63 1564.07 1236.3 1560.4 Q1238.97 1556.71 1238.97 1550.25 Q1238.97 1543.79 1236.3 1540.13 Q1233.63 1536.44 1228.98 1536.44 Q1224.33 1536.44 1221.66 1540.13 Q1219.02 1543.79 1219.02 1550.25 Z" fill="#000000" fill-rule="evenodd" fill-opacity="1" /><path clip-path="url(#clip200)" d="M 0 0 M1256.89 1532.4 L1262.75 1532.4 L1262.75 1568.04 L1256.89 1568.04 L1256.89 1532.4 M1256.89 1518.52 L1262.75 1518.52 L1262.75 1525.93 L1256.89 1525.93 L1256.89 1518.52 Z" fill="#000000" fill-rule="evenodd" fill-opacity="1" /><path clip-path="url(#clip200)" d="M 0 0 M1291.21 1550.12 Q1284.11 1550.12 1281.37 1551.75 Q1278.63 1553.37 1278.63 1557.29 Q1278.63 1560.4 1280.67 1562.25 Q1282.74 1564.07 1286.27 1564.07 Q1291.14 1564.07 1294.07 1560.63 Q1297.03 1557.16 1297.03 1551.43 L1297.03 1550.12 L1291.21 1550.12 M1302.89 1547.71 L1302.89 1568.04 L1297.03 1568.04 L1297.03 1562.63 Q1295.02 1565.88 1292.03 1567.44 Q1289.04 1568.97 1284.71 1568.97 Q1279.24 1568.97 1275.99 1565.91 Q1272.78 1562.82 1272.78 1557.67 Q1272.78 1551.65 1276.79 1548.6 Q1280.83 1545.54 1288.82 1545.54 L1297.03 1545.54 L1297.03 1544.97 Q1297.03 1540.93 1294.36 1538.73 Q1291.71 1536.5 1286.91 1536.5 Q1283.85 1536.5 1280.96 1537.23 Q1278.06 1537.97 1275.39 1539.43 L1275.39 1534.02 Q1278.6 1532.78 1281.63 1532.17 Q1284.65 1531.54 1287.51 1531.54 Q1295.25 1531.54 1299.07 1535.55 Q1302.89 1539.56 1302.89 1547.71 Z" fill="#000000" fill-rule="evenodd" fill-opacity="1" /><path clip-path="url(#clip200)" d="M 0 0 M1342.7 1539.24 Q1344.9 1535.29 1347.96 1533.41 Q1351.01 1531.54 1355.15 1531.54 Q1360.72 1531.54 1363.74 1535.45 Q1366.77 1539.33 1366.77 1546.53 L1366.77 1568.04 L1360.88 1568.04 L1360.88 1546.72 Q1360.88 1541.59 1359.06 1539.11 Q1357.25 1536.63 1353.53 1536.63 Q1348.97 1536.63 1346.33 1539.65 Q1343.69 1542.68 1343.69 1547.9 L1343.69 1568.04 L1337.8 1568.04 L1337.8 1546.72 Q1337.8 1541.56 1335.99 1539.11 Q1334.17 1536.63 1330.39 1536.63 Q1325.9 1536.63 1323.26 1539.68 Q1320.62 1542.71 1320.62 1547.9 L1320.62 1568.04 L1314.73 1568.04 L1314.73 1532.4 L1320.62 1532.4 L1320.62 1537.93 Q1322.62 1534.66 1325.42 1533.1 Q1328.22 1531.54 1332.07 1531.54 Q1335.96 1531.54 1338.66 1533.51 Q1341.4 1535.48 1342.7 1539.24 Z" fill="#000000" fill-rule="evenodd" fill-opacity="1" /><path clip-path="url(#clip200)" d="M 0 0 M1408.94 1548.76 L1408.94 1551.62 L1382.01 1551.62 Q1382.39 1557.67 1385.64 1560.85 Q1388.92 1564 1394.74 1564 Q1398.12 1564 1401.27 1563.17 Q1404.45 1562.35 1407.57 1560.69 L1407.57 1566.23 Q1404.42 1567.57 1401.11 1568.27 Q1397.8 1568.97 1394.39 1568.97 Q1385.86 1568.97 1380.87 1564 Q1375.9 1559.04 1375.9 1550.57 Q1375.9 1541.82 1380.61 1536.69 Q1385.35 1531.54 1393.38 1531.54 Q1400.57 1531.54 1404.74 1536.18 Q1408.94 1540.8 1408.94 1548.76 M1403.08 1547.04 Q1403.02 1542.23 1400.38 1539.37 Q1397.77 1536.5 1393.44 1536.5 Q1388.54 1536.5 1385.58 1539.27 Q1382.65 1542.04 1382.2 1547.07 L1403.08 1547.04 Z" fill="#000000" fill-rule="evenodd" fill-opacity="1" /><path clip-path="url(#clip200)" d="M 0 0 M1424.34 1522.27 L1424.34 1532.4 L1436.41 1532.4 L1436.41 1536.95 L1424.34 1536.95 L1424.34 1556.3 Q1424.34 1560.66 1425.52 1561.9 Q1426.73 1563.14 1430.39 1563.14 L1436.41 1563.14 L1436.41 1568.04 L1430.39 1568.04 Q1423.61 1568.04 1421.03 1565.53 Q1418.46 1562.98 1418.46 1556.3 L1418.46 1536.95 L1414.16 1536.95 L1414.16 1532.4 L1418.46 1532.4 L1418.46 1522.27 L1424.34 1522.27 Z" fill="#000000" fill-rule="evenodd" fill-opacity="1" /><path clip-path="url(#clip200)" d="M 0 0 M1474.6 1548.76 L1474.6 1551.62 L1447.67 1551.62 Q1448.06 1557.67 1451.3 1560.85 Q1454.58 1564 1460.41 1564 Q1463.78 1564 1466.93 1563.17 Q1470.11 1562.35 1473.23 1560.69 L1473.23 1566.23 Q1470.08 1567.57 1466.77 1568.27 Q1463.46 1568.97 1460.06 1568.97 Q1451.53 1568.97 1446.53 1564 Q1441.56 1559.04 1441.56 1550.57 Q1441.56 1541.82 1446.27 1536.69 Q1451.02 1531.54 1459.04 1531.54 Q1466.23 1531.54 1470.4 1536.18 Q1474.6 1540.8 1474.6 1548.76 M1468.75 1547.04 Q1468.68 1542.23 1466.04 1539.37 Q1463.43 1536.5 1459.1 1536.5 Q1454.2 1536.5 1451.24 1539.27 Q1448.31 1542.04 1447.87 1547.07 L1468.75 1547.04 Z" fill="#000000" fill-rule="evenodd" fill-opacity="1" /><path clip-path="url(#clip200)" d="M 0 0 M1504.87 1537.87 Q1503.88 1537.3 1502.71 1537.04 Q1501.56 1536.76 1500.16 1536.76 Q1495.19 1536.76 1492.52 1540 Q1489.88 1543.22 1489.88 1549.27 L1489.88 1568.04 L1483.99 1568.04 L1483.99 1532.4 L1489.88 1532.4 L1489.88 1537.93 Q1491.73 1534.69 1494.69 1533.13 Q1497.65 1531.54 1501.88 1531.54 Q1502.48 1531.54 1503.22 1531.63 Q1503.95 1531.7 1504.84 1531.85 L1504.87 1537.87 Z" fill="#000000" fill-rule="evenodd" fill-opacity="1" /><path clip-path="url(#clip200)" d="M 0 0 M1545.8 1518.58 Q1541.54 1525.9 1539.47 1533.06 Q1537.4 1540.23 1537.4 1547.58 Q1537.4 1554.93 1539.47 1562.16 Q1541.57 1569.35 1545.8 1576.64 L1540.71 1576.64 Q1535.94 1569.16 1533.55 1561.93 Q1531.19 1554.71 1531.19 1547.58 Q1531.19 1540.48 1533.55 1533.29 Q1535.9 1526.09 1540.71 1518.58 L1545.8 1518.58 Z" fill="#000000" fill-rule="evenodd" fill-opacity="1" /><path clip-path="url(#clip200)" d="M 0 0 M1556.56 1581.6 L1556.56 1532.4 L1562.42 1532.4 L1562.42 1554.55 Q1562.42 1559.16 1564.61 1561.52 Q1566.81 1563.87 1571.11 1563.87 Q1575.82 1563.87 1578.17 1561.2 Q1580.56 1558.53 1580.56 1553.18 L1580.56 1532.4 L1586.42 1532.4 L1586.42 1559.83 Q1586.42 1561.74 1586.96 1562.66 Q1587.53 1563.56 1588.71 1563.56 Q1588.99 1563.56 1589.5 1563.4 Q1590.01 1563.21 1590.9 1562.82 L1590.9 1567.53 Q1589.6 1568.27 1588.42 1568.62 Q1587.27 1568.97 1586.16 1568.97 Q1583.96 1568.97 1582.66 1567.73 Q1581.35 1566.48 1580.88 1563.94 Q1579.29 1566.45 1576.96 1567.73 Q1574.67 1568.97 1571.55 1568.97 Q1568.3 1568.97 1566.01 1567.73 Q1563.75 1566.48 1562.42 1564 L1562.42 1581.6 L1556.56 1581.6 Z" fill="#000000" fill-rule="evenodd" fill-opacity="1" /><path clip-path="url(#clip200)" d="M 0 0 M1626.39 1539.24 Q1628.59 1535.29 1631.64 1533.41 Q1634.7 1531.54 1638.84 1531.54 Q1644.41 1531.54 1647.43 1535.45 Q1650.45 1539.33 1650.45 1546.53 L1650.45 1568.04 L1644.57 1568.04 L1644.57 1546.72 Q1644.57 1541.59 1642.75 1539.11 Q1640.94 1536.63 1637.21 1536.63 Q1632.66 1536.63 1630.02 1539.65 Q1627.38 1542.68 1627.38 1547.9 L1627.38 1568.04 L1621.49 1568.04 L1621.49 1546.72 Q1621.49 1541.56 1619.68 1539.11 Q1617.86 1536.63 1614.07 1536.63 Q1609.59 1536.63 1606.94 1539.68 Q1604.3 1542.71 1604.3 1547.9 L1604.3 1568.04 L1598.41 1568.04 L1598.41 1532.4 L1604.3 1532.4 L1604.3 1537.93 Q1606.31 1534.66 1609.11 1533.1 Q1611.91 1531.54 1615.76 1531.54 Q1619.64 1531.54 1622.35 1533.51 Q1625.09 1535.48 1626.39 1539.24 Z" fill="#000000" fill-rule="evenodd" fill-opacity="1" /><path clip-path="url(#clip200)" d="M 0 0 M1661.21 1518.58 L1666.3 1518.58 Q1671.08 1526.09 1673.43 1533.29 Q1675.82 1540.48 1675.82 1547.58 Q1675.82 1554.71 1673.43 1561.93 Q1671.08 1569.16 1666.3 1576.64 L1661.21 1576.64 Q1665.45 1569.35 1667.51 1562.16 Q1669.61 1554.93 1669.61 1547.58 Q1669.61 1540.23 1667.51 1533.06 Q1665.45 1525.9 1661.21 1518.58 Z" fill="#000000" fill-rule="evenodd" fill-opacity="1" /><polyline clip-path="url(#clip202)" style="stroke:#000000; stroke-width:2; stroke-opacity:0.1; fill:none" points="
  277.27,1366.86 2352.76,1366.86 
  "/>
<polyline clip-path="url(#clip202)" style="stroke:#000000; stroke-width:2; stroke-opacity:0.1; fill:none" points="
  277.27,1116.82 2352.76,1116.82 
  "/>
<polyline clip-path="url(#clip202)" style="stroke:#000000; stroke-width:2; stroke-opacity:0.1; fill:none" points="
  277.27,866.774 2352.76,866.774 
  "/>
<polyline clip-path="url(#clip202)" style="stroke:#000000; stroke-width:2; stroke-opacity:0.1; fill:none" points="
  277.27,616.73 2352.76,616.73 
  "/>
<polyline clip-path="url(#clip202)" style="stroke:#000000; stroke-width:2; stroke-opacity:0.1; fill:none" points="
  277.27,366.686 2352.76,366.686 
  "/>
<polyline clip-path="url(#clip202)" style="stroke:#000000; stroke-width:2; stroke-opacity:0.1; fill:none" points="
  277.27,116.642 2352.76,116.642 
  "/>
<polyline clip-path="url(#clip200)" style="stroke:#000000; stroke-width:4; stroke-opacity:1; fill:none" points="
  277.27,1423.18 277.27,47.2441 
  "/>
<polyline clip-path="url(#clip200)" style="stroke:#000000; stroke-width:4; stroke-opacity:1; fill:none" points="
  277.27,1366.86 302.176,1366.86 
  "/>
<polyline clip-path="url(#clip200)" style="stroke:#000000; stroke-width:4; stroke-opacity:1; fill:none" points="
  277.27,1116.82 302.176,1116.82 
  "/>
<polyline clip-path="url(#clip200)" style="stroke:#000000; stroke-width:4; stroke-opacity:1; fill:none" points="
  277.27,866.774 302.176,866.774 
  "/>
<polyline clip-path="url(#clip200)" style="stroke:#000000; stroke-width:4; stroke-opacity:1; fill:none" points="
  277.27,616.73 302.176,616.73 
  "/>
<polyline clip-path="url(#clip200)" style="stroke:#000000; stroke-width:4; stroke-opacity:1; fill:none" points="
  277.27,366.686 302.176,366.686 
  "/>
<polyline clip-path="url(#clip200)" style="stroke:#000000; stroke-width:4; stroke-opacity:1; fill:none" points="
  277.27,116.642 302.176,116.642 
  "/>
<path clip-path="url(#clip200)" d="M 0 0 M116.135 1386.65 L123.774 1386.65 L123.774 1360.29 L115.464 1361.96 L115.464 1357.7 L123.728 1356.03 L128.404 1356.03 L128.404 1386.65 L136.042 1386.65 L136.042 1390.59 L116.135 1390.59 L116.135 1386.65 Z" fill="#000000" fill-rule="evenodd" fill-opacity="1" /><path clip-path="url(#clip200)" d="M 0 0 M155.487 1359.11 Q151.876 1359.11 150.047 1362.67 Q148.241 1366.21 148.241 1373.34 Q148.241 1380.45 150.047 1384.02 Q151.876 1387.56 155.487 1387.56 Q159.121 1387.56 160.927 1384.02 Q162.755 1380.45 162.755 1373.34 Q162.755 1366.21 160.927 1362.67 Q159.121 1359.11 155.487 1359.11 M155.487 1355.4 Q161.297 1355.4 164.352 1360.01 Q167.431 1364.59 167.431 1373.34 Q167.431 1382.07 164.352 1386.68 Q161.297 1391.26 155.487 1391.26 Q149.677 1391.26 146.598 1386.68 Q143.542 1382.07 143.542 1373.34 Q143.542 1364.59 146.598 1360.01 Q149.677 1355.4 155.487 1355.4 Z" fill="#000000" fill-rule="evenodd" fill-opacity="1" /><path clip-path="url(#clip200)" d="M 0 0 M167.431 1349.51 L191.543 1349.51 L191.543 1352.7 L167.431 1352.7 L167.431 1349.51 Z" fill="#000000" fill-rule="evenodd" fill-opacity="1" /><path clip-path="url(#clip200)" d="M 0 0 M200.401 1359.98 L206.608 1359.98 L206.608 1338.56 L199.856 1339.91 L199.856 1336.45 L206.57 1335.1 L210.369 1335.1 L210.369 1359.98 L216.576 1359.98 L216.576 1363.18 L200.401 1363.18 L200.401 1359.98 Z" fill="#000000" fill-rule="evenodd" fill-opacity="1" /><path clip-path="url(#clip200)" d="M 0 0 M224.287 1335.1 L239.202 1335.1 L239.202 1338.3 L227.766 1338.3 L227.766 1345.18 Q228.594 1344.9 229.422 1344.77 Q230.249 1344.62 231.077 1344.62 Q235.779 1344.62 238.525 1347.19 Q241.27 1349.77 241.27 1354.17 Q241.27 1358.7 238.449 1361.22 Q235.628 1363.72 230.494 1363.72 Q228.726 1363.72 226.883 1363.42 Q225.058 1363.12 223.102 1362.52 L223.102 1358.7 Q224.795 1359.62 226.6 1360.08 Q228.406 1360.53 230.418 1360.53 Q233.672 1360.53 235.572 1358.82 Q237.471 1357.1 237.471 1354.17 Q237.471 1351.24 235.572 1349.52 Q233.672 1347.81 230.418 1347.81 Q228.895 1347.81 227.372 1348.15 Q225.867 1348.49 224.287 1349.2 L224.287 1335.1 Z" fill="#000000" fill-rule="evenodd" fill-opacity="1" /><path clip-path="url(#clip200)" d="M 0 0 M114.931 1136.61 L122.57 1136.61 L122.57 1110.24 L114.26 1111.91 L114.26 1107.65 L122.524 1105.99 L127.2 1105.99 L127.2 1136.61 L134.839 1136.61 L134.839 1140.55 L114.931 1140.55 L114.931 1136.61 Z" fill="#000000" fill-rule="evenodd" fill-opacity="1" /><path clip-path="url(#clip200)" d="M 0 0 M154.283 1109.06 Q150.672 1109.06 148.843 1112.63 Q147.038 1116.17 147.038 1123.3 Q147.038 1130.41 148.843 1133.97 Q150.672 1137.51 154.283 1137.51 Q157.917 1137.51 159.723 1133.97 Q161.552 1130.41 161.552 1123.3 Q161.552 1116.17 159.723 1112.63 Q157.917 1109.06 154.283 1109.06 M154.283 1105.36 Q160.093 1105.36 163.149 1109.97 Q166.227 1114.55 166.227 1123.3 Q166.227 1132.03 163.149 1136.63 Q160.093 1141.22 154.283 1141.22 Q148.473 1141.22 145.394 1136.63 Q142.339 1132.03 142.339 1123.3 Q142.339 1114.55 145.394 1109.97 Q148.473 1105.36 154.283 1105.36 Z" fill="#000000" fill-rule="evenodd" fill-opacity="1" /><path clip-path="url(#clip200)" d="M 0 0 M166.227 1099.46 L190.339 1099.46 L190.339 1102.66 L166.227 1102.66 L166.227 1099.46 Z" fill="#000000" fill-rule="evenodd" fill-opacity="1" /><path clip-path="url(#clip200)" d="M 0 0 M199.197 1109.94 L205.404 1109.94 L205.404 1088.52 L198.652 1089.87 L198.652 1086.41 L205.366 1085.06 L209.166 1085.06 L209.166 1109.94 L215.372 1109.94 L215.372 1113.14 L199.197 1113.14 L199.197 1109.94 Z" fill="#000000" fill-rule="evenodd" fill-opacity="1" /><path clip-path="url(#clip200)" d="M 0 0 M233.484 1088.37 L223.892 1103.36 L233.484 1103.36 L233.484 1088.37 M232.487 1085.06 L237.264 1085.06 L237.264 1103.36 L241.27 1103.36 L241.27 1106.51 L237.264 1106.51 L237.264 1113.14 L233.484 1113.14 L233.484 1106.51 L220.808 1106.51 L220.808 1102.85 L232.487 1085.06 Z" fill="#000000" fill-rule="evenodd" fill-opacity="1" /><path clip-path="url(#clip200)" d="M 0 0 M115.853 886.567 L123.492 886.567 L123.492 860.201 L115.182 861.868 L115.182 857.608 L123.446 855.942 L128.121 855.942 L128.121 886.567 L135.76 886.567 L135.76 890.502 L115.853 890.502 L115.853 886.567 Z" fill="#000000" fill-rule="evenodd" fill-opacity="1" /><path clip-path="url(#clip200)" d="M 0 0 M155.205 859.02 Q151.594 859.02 149.765 862.585 Q147.959 866.127 147.959 873.256 Q147.959 880.363 149.765 883.928 Q151.594 887.469 155.205 887.469 Q158.839 887.469 160.644 883.928 Q162.473 880.363 162.473 873.256 Q162.473 866.127 160.644 862.585 Q158.839 859.02 155.205 859.02 M155.205 855.317 Q161.015 855.317 164.07 859.923 Q167.149 864.506 167.149 873.256 Q167.149 881.983 164.07 886.59 Q161.015 891.173 155.205 891.173 Q149.395 891.173 146.316 886.59 Q143.26 881.983 143.26 873.256 Q143.26 864.506 146.316 859.923 Q149.395 855.317 155.205 855.317 Z" fill="#000000" fill-rule="evenodd" fill-opacity="1" /><path clip-path="url(#clip200)" d="M 0 0 M167.149 849.418 L191.261 849.418 L191.261 852.615 L167.149 852.615 L167.149 849.418 Z" fill="#000000" fill-rule="evenodd" fill-opacity="1" /><path clip-path="url(#clip200)" d="M 0 0 M200.119 859.894 L206.326 859.894 L206.326 838.472 L199.574 839.826 L199.574 836.365 L206.288 835.011 L210.087 835.011 L210.087 859.894 L216.294 859.894 L216.294 863.091 L200.119 863.091 L200.119 859.894 Z" fill="#000000" fill-rule="evenodd" fill-opacity="1" /><path clip-path="url(#clip200)" d="M 0 0 M235.478 847.951 Q238.205 848.534 239.728 850.377 Q241.27 852.22 241.27 854.929 Q241.27 859.085 238.412 861.361 Q235.553 863.637 230.287 863.637 Q228.519 863.637 226.638 863.279 Q224.776 862.941 222.782 862.245 L222.782 858.577 Q224.362 859.499 226.243 859.969 Q228.124 860.439 230.174 860.439 Q233.747 860.439 235.609 859.029 Q237.49 857.618 237.49 854.929 Q237.49 852.446 235.741 851.054 Q234.011 849.644 230.907 849.644 L227.635 849.644 L227.635 846.522 L231.058 846.522 Q233.86 846.522 235.346 845.412 Q236.832 844.284 236.832 842.177 Q236.832 840.014 235.29 838.867 Q233.766 837.701 230.907 837.701 Q229.346 837.701 227.56 838.039 Q225.773 838.378 223.629 839.093 L223.629 835.707 Q225.792 835.105 227.672 834.804 Q229.572 834.503 231.246 834.503 Q235.572 834.503 238.092 836.478 Q240.612 838.434 240.612 841.782 Q240.612 844.114 239.277 845.732 Q237.941 847.33 235.478 847.951 Z" fill="#000000" fill-rule="evenodd" fill-opacity="1" /><path clip-path="url(#clip200)" d="M 0 0 M116.624 636.523 L124.263 636.523 L124.263 610.157 L115.953 611.824 L115.953 607.564 L124.217 605.898 L128.893 605.898 L128.893 636.523 L136.531 636.523 L136.531 640.458 L116.624 640.458 L116.624 636.523 Z" fill="#000000" fill-rule="evenodd" fill-opacity="1" /><path clip-path="url(#clip200)" d="M 0 0 M155.976 608.977 Q152.365 608.977 150.536 612.541 Q148.73 616.083 148.73 623.213 Q148.73 630.319 150.536 633.884 Q152.365 637.425 155.976 637.425 Q159.61 637.425 161.416 633.884 Q163.244 630.319 163.244 623.213 Q163.244 616.083 161.416 612.541 Q159.61 608.977 155.976 608.977 M155.976 605.273 Q161.786 605.273 164.841 609.879 Q167.92 614.463 167.92 623.213 Q167.92 631.939 164.841 636.546 Q161.786 641.129 155.976 641.129 Q150.166 641.129 147.087 636.546 Q144.031 631.939 144.031 623.213 Q144.031 614.463 147.087 609.879 Q150.166 605.273 155.976 605.273 Z" fill="#000000" fill-rule="evenodd" fill-opacity="1" /><path clip-path="url(#clip200)" d="M 0 0 M167.92 599.374 L192.032 599.374 L192.032 602.572 L167.92 602.572 L167.92 599.374 Z" fill="#000000" fill-rule="evenodd" fill-opacity="1" /><path clip-path="url(#clip200)" d="M 0 0 M200.89 609.85 L207.097 609.85 L207.097 588.428 L200.345 589.782 L200.345 586.322 L207.059 584.967 L210.858 584.967 L210.858 609.85 L217.065 609.85 L217.065 613.047 L200.89 613.047 L200.89 609.85 Z" fill="#000000" fill-rule="evenodd" fill-opacity="1" /><path clip-path="url(#clip200)" d="M 0 0 M228.011 609.85 L241.27 609.85 L241.27 613.047 L223.441 613.047 L223.441 609.85 Q225.604 607.612 229.328 603.85 Q233.07 600.07 234.029 598.979 Q235.854 596.929 236.569 595.519 Q237.302 594.089 237.302 592.716 Q237.302 590.478 235.722 589.068 Q234.161 587.657 231.641 587.657 Q229.854 587.657 227.861 588.278 Q225.886 588.898 223.629 590.158 L223.629 586.322 Q225.923 585.4 227.917 584.93 Q229.911 584.46 231.566 584.46 Q235.929 584.46 238.525 586.641 Q241.12 588.823 241.12 592.472 Q241.12 594.202 240.462 595.763 Q239.822 597.305 238.111 599.412 Q237.641 599.957 235.12 602.572 Q232.6 605.167 228.011 609.85 Z" fill="#000000" fill-rule="evenodd" fill-opacity="1" /><path clip-path="url(#clip200)" d="M 0 0 M116.323 386.479 L123.962 386.479 L123.962 360.113 L115.652 361.78 L115.652 357.521 L123.916 355.854 L128.592 355.854 L128.592 386.479 L136.231 386.479 L136.231 390.414 L116.323 390.414 L116.323 386.479 Z" fill="#000000" fill-rule="evenodd" fill-opacity="1" /><path clip-path="url(#clip200)" d="M 0 0 M155.675 358.933 Q152.064 358.933 150.235 362.497 Q148.43 366.039 148.43 373.169 Q148.43 380.275 150.235 383.84 Q152.064 387.382 155.675 387.382 Q159.309 387.382 161.115 383.84 Q162.943 380.275 162.943 373.169 Q162.943 366.039 161.115 362.497 Q159.309 358.933 155.675 358.933 M155.675 355.229 Q161.485 355.229 164.541 359.835 Q167.619 364.419 167.619 373.169 Q167.619 381.895 164.541 386.502 Q161.485 391.085 155.675 391.085 Q149.865 391.085 146.786 386.502 Q143.73 381.895 143.73 373.169 Q143.73 364.419 146.786 359.835 Q149.865 355.229 155.675 355.229 Z" fill="#000000" fill-rule="evenodd" fill-opacity="1" /><path clip-path="url(#clip200)" d="M 0 0 M167.619 349.33 L191.731 349.33 L191.731 352.528 L167.619 352.528 L167.619 349.33 Z" fill="#000000" fill-rule="evenodd" fill-opacity="1" /><path clip-path="url(#clip200)" d="M 0 0 M200.589 359.806 L206.796 359.806 L206.796 338.384 L200.044 339.738 L200.044 336.278 L206.758 334.924 L210.557 334.924 L210.557 359.806 L216.764 359.806 L216.764 363.004 L200.589 363.004 L200.589 359.806 Z" fill="#000000" fill-rule="evenodd" fill-opacity="1" /><path clip-path="url(#clip200)" d="M 0 0 M225.096 359.806 L231.302 359.806 L231.302 338.384 L224.55 339.738 L224.55 336.278 L231.265 334.924 L235.064 334.924 L235.064 359.806 L241.27 359.806 L241.27 363.004 L225.096 363.004 L225.096 359.806 Z" fill="#000000" fill-rule="evenodd" fill-opacity="1" /><path clip-path="url(#clip200)" d="M 0 0 M115.326 136.435 L122.965 136.435 L122.965 110.069 L114.655 111.736 L114.655 107.477 L122.919 105.81 L127.595 105.81 L127.595 136.435 L135.234 136.435 L135.234 140.37 L115.326 140.37 L115.326 136.435 Z" fill="#000000" fill-rule="evenodd" fill-opacity="1" /><path clip-path="url(#clip200)" d="M 0 0 M154.678 108.889 Q151.067 108.889 149.238 112.454 Q147.433 115.995 147.433 123.125 Q147.433 130.231 149.238 133.796 Q151.067 137.338 154.678 137.338 Q158.312 137.338 160.118 133.796 Q161.947 130.231 161.947 123.125 Q161.947 115.995 160.118 112.454 Q158.312 108.889 154.678 108.889 M154.678 105.185 Q160.488 105.185 163.544 109.792 Q166.622 114.375 166.622 123.125 Q166.622 131.852 163.544 136.458 Q160.488 141.041 154.678 141.041 Q148.868 141.041 145.789 136.458 Q142.734 131.852 142.734 123.125 Q142.734 114.375 145.789 109.792 Q148.868 105.185 154.678 105.185 Z" fill="#000000" fill-rule="evenodd" fill-opacity="1" /><path clip-path="url(#clip200)" d="M 0 0 M166.622 99.2864 L190.734 99.2864 L190.734 102.484 L166.622 102.484 L166.622 99.2864 Z" fill="#000000" fill-rule="evenodd" fill-opacity="1" /><path clip-path="url(#clip200)" d="M 0 0 M199.592 109.762 L205.799 109.762 L205.799 88.3403 L199.047 89.6945 L199.047 86.2338 L205.761 84.8797 L209.561 84.8797 L209.561 109.762 L215.767 109.762 L215.767 112.96 L199.592 112.96 L199.592 109.762 Z" fill="#000000" fill-rule="evenodd" fill-opacity="1" /><path clip-path="url(#clip200)" d="M 0 0 M231.566 87.3811 Q228.632 87.3811 227.146 90.2775 Q225.679 93.1551 225.679 98.9479 Q225.679 104.722 227.146 107.618 Q228.632 110.496 231.566 110.496 Q234.518 110.496 235.985 107.618 Q237.471 104.722 237.471 98.9479 Q237.471 93.1551 235.985 90.2775 Q234.518 87.3811 231.566 87.3811 M231.566 84.3719 Q236.286 84.3719 238.769 88.1146 Q241.27 91.8386 241.27 98.9479 Q241.27 106.038 238.769 109.781 Q236.286 113.505 231.566 113.505 Q226.845 113.505 224.343 109.781 Q221.861 106.038 221.861 98.9479 Q221.861 91.8386 224.343 88.1146 Q226.845 84.3719 231.566 84.3719 Z" fill="#000000" fill-rule="evenodd" fill-opacity="1" /><path clip-path="url(#clip200)" d="M 0 0 M18.0438 1021.16 L24.314 1021.16 Q22.5634 1024.82 21.704 1028.07 Q20.8447 1031.31 20.8447 1034.34 Q20.8447 1039.59 22.8817 1042.45 Q24.9187 1045.29 28.6745 1045.29 Q31.8255 1045.29 33.4488 1043.41 Q35.0402 1041.5 36.0269 1036.21 L36.8226 1032.33 Q38.1912 1025.14 41.6605 1021.73 Q45.098 1018.29 50.8908 1018.29 Q57.7976 1018.29 61.3624 1022.94 Q64.9272 1027.56 64.9272 1036.5 Q64.9272 1039.87 64.1633 1043.69 Q63.3994 1047.48 61.9035 1051.56 L55.2831 1051.56 Q57.4793 1047.64 58.5933 1043.89 Q59.7073 1040.13 59.7073 1036.5 Q59.7073 1030.99 57.543 1028 Q55.3786 1025.01 51.3682 1025.01 Q47.8671 1025.01 45.8937 1027.18 Q43.9204 1029.31 42.9337 1034.21 L42.1698 1038.12 Q40.7375 1045.32 37.682 1048.53 Q34.6264 1051.75 29.1837 1051.75 Q22.8817 1051.75 19.2532 1047.32 Q15.6248 1042.87 15.6248 1035.07 Q15.6248 1031.73 16.2295 1028.26 Q16.8343 1024.79 18.0438 1021.16 Z" fill="#000000" fill-rule="evenodd" fill-opacity="1" /><path clip-path="url(#clip200)" d="M 0 0 M29.7248 982.87 L35.1993 982.87 Q33.8307 985.352 33.1623 987.867 Q32.4621 990.349 32.4621 992.896 Q32.4621 998.593 36.0905 1001.74 Q39.6872 1004.9 46.212 1004.9 Q52.7369 1004.9 56.3653 1001.74 Q59.9619 998.593 59.9619 992.896 Q59.9619 990.349 59.2935 987.867 Q58.5933 985.352 57.2247 982.87 L62.6355 982.87 Q63.7814 985.321 64.3543 987.962 Q64.9272 990.572 64.9272 993.532 Q64.9272 1001.58 59.8664 1006.33 Q54.8057 1011.07 46.212 1011.07 Q37.491 1011.07 32.4939 1006.3 Q27.4968 1001.49 27.4968 993.15 Q27.4968 990.445 28.0697 987.867 Q28.6108 985.289 29.7248 982.87 Z" fill="#000000" fill-rule="evenodd" fill-opacity="1" /><path clip-path="url(#clip200)" d="M 0 0 M46.0847 956.484 Q46.0847 963.582 47.7079 966.319 Q49.3312 969.056 53.2461 969.056 Q56.3653 969.056 58.2114 967.019 Q60.0256 964.95 60.0256 961.417 Q60.0256 956.548 56.5881 953.619 Q53.1188 950.659 47.3897 950.659 L46.0847 950.659 L46.0847 956.484 M43.6657 944.803 L64.0042 944.803 L64.0042 950.659 L58.5933 950.659 Q61.8398 952.665 63.3994 955.656 Q64.9272 958.648 64.9272 962.977 Q64.9272 968.451 61.8716 971.698 Q58.7843 974.913 53.6281 974.913 Q47.6125 974.913 44.5569 970.902 Q41.5014 966.86 41.5014 958.871 L41.5014 950.659 L40.9285 950.659 Q36.8862 950.659 34.6901 953.333 Q32.4621 955.975 32.4621 960.781 Q32.4621 963.836 33.1941 966.733 Q33.9262 969.629 35.3903 972.303 L29.9795 972.303 Q28.7381 969.088 28.1334 966.064 Q27.4968 963.041 27.4968 960.176 Q27.4968 952.442 31.5072 948.622 Q35.5176 944.803 43.6657 944.803 Z" fill="#000000" fill-rule="evenodd" fill-opacity="1" /><path clip-path="url(#clip200)" d="M 0 0 M18.2347 926.947 L28.3562 926.947 L28.3562 914.884 L32.9077 914.884 L32.9077 926.947 L52.2594 926.947 Q56.6199 926.947 57.8613 925.769 Q59.1026 924.56 59.1026 920.9 L59.1026 914.884 L64.0042 914.884 L64.0042 920.9 Q64.0042 927.679 61.4897 930.257 Q58.9434 932.835 52.2594 932.835 L32.9077 932.835 L32.9077 937.132 L28.3562 937.132 L28.3562 932.835 L18.2347 932.835 L18.2347 926.947 Z" fill="#000000" fill-rule="evenodd" fill-opacity="1" /><path clip-path="url(#clip200)" d="M 0 0 M18.2347 901.389 L28.3562 901.389 L28.3562 889.326 L32.9077 889.326 L32.9077 901.389 L52.2594 901.389 Q56.6199 901.389 57.8613 900.211 Q59.1026 899.002 59.1026 895.341 L59.1026 889.326 L64.0042 889.326 L64.0042 895.341 Q64.0042 902.121 61.4897 904.699 Q58.9434 907.277 52.2594 907.277 L32.9077 907.277 L32.9077 911.574 L28.3562 911.574 L28.3562 907.277 L18.2347 907.277 L18.2347 901.389 Z" fill="#000000" fill-rule="evenodd" fill-opacity="1" /><path clip-path="url(#clip200)" d="M 0 0 M44.7161 851.131 L47.5806 851.131 L47.5806 878.058 Q53.6281 877.676 56.8109 874.43 Q59.9619 871.152 59.9619 865.327 Q59.9619 861.953 59.1344 858.802 Q58.3069 855.619 56.6518 852.5 L62.1899 852.5 Q63.5267 855.651 64.227 858.961 Q64.9272 862.271 64.9272 865.677 Q64.9272 874.207 59.9619 879.204 Q54.9967 884.17 46.5303 884.17 Q37.7774 884.17 32.6531 879.459 Q27.4968 874.716 27.4968 866.696 Q27.4968 859.502 32.1438 855.333 Q36.7589 851.131 44.7161 851.131 M42.9973 856.988 Q38.1912 857.052 35.3266 859.693 Q32.4621 862.303 32.4621 866.632 Q32.4621 871.534 35.2312 874.494 Q38.0002 877.422 43.0292 877.867 L42.9973 856.988 Z" fill="#000000" fill-rule="evenodd" fill-opacity="1" /><path clip-path="url(#clip200)" d="M 0 0 M33.8307 820.863 Q33.2578 821.849 33.0032 823.027 Q32.7167 824.173 32.7167 825.573 Q32.7167 830.538 35.9632 833.212 Q39.1779 835.854 45.2253 835.854 L64.0042 835.854 L64.0042 841.742 L28.3562 841.742 L28.3562 835.854 L33.8944 835.854 Q30.6479 834.008 29.0883 831.048 Q27.4968 828.088 27.4968 823.854 Q27.4968 823.25 27.5923 822.518 Q27.656 821.786 27.8151 820.894 L33.8307 820.863 Z" fill="#000000" fill-rule="evenodd" fill-opacity="1" /><path clip-path="url(#clip200)" d="M 0 0 M28.3562 814.72 L28.3562 808.863 L64.0042 808.863 L64.0042 814.72 L28.3562 814.72 M14.479 814.72 L14.479 808.863 L21.895 808.863 L21.895 814.72 L14.479 814.72 Z" fill="#000000" fill-rule="evenodd" fill-opacity="1" /><path clip-path="url(#clip200)" d="M 0 0 M42.4881 766.977 L64.0042 766.977 L64.0042 772.833 L42.679 772.833 Q37.6183 772.833 35.1038 774.807 Q32.5894 776.78 32.5894 780.727 Q32.5894 785.469 35.6131 788.206 Q38.6368 790.944 43.8567 790.944 L64.0042 790.944 L64.0042 796.832 L28.3562 796.832 L28.3562 790.944 L33.8944 790.944 Q30.6797 788.843 29.0883 786.01 Q27.4968 783.146 27.4968 779.422 Q27.4968 773.279 31.3163 770.128 Q35.1038 766.977 42.4881 766.977 Z" fill="#000000" fill-rule="evenodd" fill-opacity="1" /><path clip-path="url(#clip200)" d="M 0 0 M45.7664 731.838 Q39.4007 731.838 35.8996 734.48 Q32.3984 737.09 32.3984 741.832 Q32.3984 746.543 35.8996 749.185 Q39.4007 751.795 45.7664 751.795 Q52.1003 751.795 55.6014 749.185 Q59.1026 746.543 59.1026 741.832 Q59.1026 737.09 55.6014 734.48 Q52.1003 731.838 45.7664 731.838 M59.58 725.982 Q68.683 725.982 73.1071 730.024 Q77.5631 734.066 77.5631 742.405 Q77.5631 745.493 77.0857 748.23 Q76.6401 750.967 75.6852 753.545 L69.9879 753.545 Q71.3884 750.967 72.0568 748.453 Q72.7252 745.938 72.7252 743.328 Q72.7252 737.567 69.7015 734.703 Q66.7096 731.838 60.6303 731.838 L57.7339 731.838 Q60.885 733.652 62.4446 736.485 Q64.0042 739.318 64.0042 743.265 Q64.0042 749.821 59.0071 753.832 Q54.01 757.842 45.7664 757.842 Q37.491 757.842 32.4939 753.832 Q27.4968 749.821 27.4968 743.265 Q27.4968 739.318 29.0564 736.485 Q30.616 733.652 33.7671 731.838 L28.3562 731.838 L28.3562 725.982 L59.58 725.982 Z" fill="#000000" fill-rule="evenodd" fill-opacity="1" /><path clip-path="url(#clip200)" d="M 0 0 M28.3562 693.198 L28.3562 687.342 L64.0042 687.342 L64.0042 693.198 L28.3562 693.198 M14.479 693.198 L14.479 687.342 L21.895 687.342 L21.895 693.198 L14.479 693.198 Z" fill="#000000" fill-rule="evenodd" fill-opacity="1" /><path clip-path="url(#clip200)" d="M 0 0 M42.4881 645.456 L64.0042 645.456 L64.0042 651.312 L42.679 651.312 Q37.6183 651.312 35.1038 653.285 Q32.5894 655.259 32.5894 659.205 Q32.5894 663.948 35.6131 666.685 Q38.6368 669.422 43.8567 669.422 L64.0042 669.422 L64.0042 675.311 L28.3562 675.311 L28.3562 669.422 L33.8944 669.422 Q30.6797 667.322 29.0883 664.489 Q27.4968 661.624 27.4968 657.9 Q27.4968 651.758 31.3163 648.607 Q35.1038 645.456 42.4881 645.456 Z" fill="#000000" fill-rule="evenodd" fill-opacity="1" /><path clip-path="url(#clip200)" d="M 0 0 M18.2347 627.982 L28.3562 627.982 L28.3562 615.919 L32.9077 615.919 L32.9077 627.982 L52.2594 627.982 Q56.6199 627.982 57.8613 626.804 Q59.1026 625.595 59.1026 621.934 L59.1026 615.919 L64.0042 615.919 L64.0042 621.934 Q64.0042 628.714 61.4897 631.292 Q58.9434 633.87 52.2594 633.87 L32.9077 633.87 L32.9077 638.167 L28.3562 638.167 L28.3562 633.87 L18.2347 633.87 L18.2347 627.982 Z" fill="#000000" fill-rule="evenodd" fill-opacity="1" /><path clip-path="url(#clip200)" d="M 0 0 M44.7161 577.724 L47.5806 577.724 L47.5806 604.651 Q53.6281 604.269 56.8109 601.023 Q59.9619 597.745 59.9619 591.92 Q59.9619 588.546 59.1344 585.395 Q58.3069 582.212 56.6518 579.093 L62.1899 579.093 Q63.5267 582.244 64.227 585.554 Q64.9272 588.864 64.9272 592.27 Q64.9272 600.8 59.9619 605.797 Q54.9967 610.762 46.5303 610.762 Q37.7774 610.762 32.6531 606.052 Q27.4968 601.309 27.4968 593.289 Q27.4968 586.095 32.1438 581.926 Q36.7589 577.724 44.7161 577.724 M42.9973 583.581 Q38.1912 583.644 35.3266 586.286 Q32.4621 588.896 32.4621 593.225 Q32.4621 598.126 35.2312 601.087 Q38.0002 604.015 43.0292 604.46 L42.9973 583.581 Z" fill="#000000" fill-rule="evenodd" fill-opacity="1" /><path clip-path="url(#clip200)" d="M 0 0 M42.4881 538.48 L64.0042 538.48 L64.0042 544.336 L42.679 544.336 Q37.6183 544.336 35.1038 546.31 Q32.5894 548.283 32.5894 552.23 Q32.5894 556.972 35.6131 559.709 Q38.6368 562.447 43.8567 562.447 L64.0042 562.447 L64.0042 568.335 L28.3562 568.335 L28.3562 562.447 L33.8944 562.447 Q30.6797 560.346 29.0883 557.513 Q27.4968 554.649 27.4968 550.925 Q27.4968 544.782 31.3163 541.631 Q35.1038 538.48 42.4881 538.48 Z" fill="#000000" fill-rule="evenodd" fill-opacity="1" /><path clip-path="url(#clip200)" d="M 0 0 M29.4065 504.073 L34.9447 504.073 Q33.6716 506.556 33.035 509.229 Q32.3984 511.903 32.3984 514.768 Q32.3984 519.128 33.7352 521.324 Q35.072 523.489 37.7456 523.489 Q39.7826 523.489 40.9603 521.929 Q42.1061 520.369 43.1565 515.659 L43.6021 513.654 Q44.9389 507.415 47.3897 504.805 Q49.8086 502.163 54.1691 502.163 Q59.1344 502.163 62.0308 506.11 Q64.9272 510.025 64.9272 516.9 Q64.9272 519.765 64.3543 522.884 Q63.8132 525.971 62.6992 529.409 L56.6518 529.409 Q58.3387 526.162 59.198 523.011 Q60.0256 519.86 60.0256 516.773 Q60.0256 512.635 58.6251 510.407 Q57.1929 508.179 54.6147 508.179 Q52.2276 508.179 50.9545 509.802 Q49.6813 511.394 48.5037 516.836 L48.0262 518.873 Q46.8804 524.316 44.5251 526.735 Q42.138 529.154 38.0002 529.154 Q32.9713 529.154 30.2341 525.589 Q27.4968 522.024 27.4968 515.468 Q27.4968 512.221 27.9743 509.357 Q28.4517 506.492 29.4065 504.073 Z" fill="#000000" fill-rule="evenodd" fill-opacity="1" /><path clip-path="url(#clip200)" d="M 0 0 M28.3562 492.838 L28.3562 486.981 L64.0042 486.981 L64.0042 492.838 L28.3562 492.838 M14.479 492.838 L14.479 486.981 L21.895 486.981 L21.895 492.838 L14.479 492.838 Z" fill="#000000" fill-rule="evenodd" fill-opacity="1" /><path clip-path="url(#clip200)" d="M 0 0 M18.2347 468.934 L28.3562 468.934 L28.3562 456.871 L32.9077 456.871 L32.9077 468.934 L52.2594 468.934 Q56.6199 468.934 57.8613 467.757 Q59.1026 466.547 59.1026 462.887 L59.1026 456.871 L64.0042 456.871 L64.0042 462.887 Q64.0042 469.667 61.4897 472.245 Q58.9434 474.823 52.2594 474.823 L32.9077 474.823 L32.9077 479.12 L28.3562 479.12 L28.3562 474.823 L18.2347 474.823 L18.2347 468.934 Z" fill="#000000" fill-rule="evenodd" fill-opacity="1" /><path clip-path="url(#clip200)" d="M 0 0 M67.3143 434.337 Q73.68 436.819 75.6216 439.175 Q77.5631 441.53 77.5631 445.477 L77.5631 450.156 L72.6615 450.156 L72.6615 446.718 Q72.6615 444.299 71.5157 442.962 Q70.3699 441.626 66.1048 440.002 L63.4312 438.952 L28.3562 453.37 L28.3562 447.164 L56.238 436.024 L28.3562 424.884 L28.3562 418.677 L67.3143 434.337 Z" fill="#000000" fill-rule="evenodd" fill-opacity="1" /><polyline clip-path="url(#clip202)" style="stroke:#009af9; stroke-width:8; stroke-opacity:1; fill:none" points="
  336.011,1384.24 400.942,1322.13 460.519,1265.41 515.559,1213.32 566.704,1165.1 614.468,1119.98 659.272,1077.23 701.461,1036.29 741.323,996.966 779.102,959.632 
  815.005,925.129 849.208,894.368 881.867,867.652 913.114,844.279 943.066,822.787 971.827,801.594 999.487,779.542 1026.13,756.139 1051.82,731.687 1076.63,707.339 
  1100.62,684.854 1123.84,665.758 1146.34,650.381 1168.16,637.732 1189.33,626.194 1209.91,614.185 1229.92,600.475 1249.38,584.449 1268.34,566.602 1286.81,548.881 
  1304.82,533.865 1322.4,522.884 1339.56,515.249 1356.32,509.288 1372.7,503.391 1388.71,496.176 1404.38,486.425 1419.72,473.605 1434.74,459.21 1449.45,446.841 
  1463.87,439.06 1478.01,435.308 1491.88,433.657 1505.48,432.483 1518.84,430.428 1531.95,425.85 1544.83,417.054 1557.48,404.734 1569.92,394 1582.14,389.121 
  1594.17,389.097 1605.99,391.404 1617.63,394.552 1629.08,397.405 1640.35,397.896 1651.45,392.577 1662.38,380.699 1673.15,370.502 1683.76,368.736 1694.22,372.516 
  1704.53,378.531 1714.69,385.918 1724.71,393.87 1734.6,399.417 1744.35,395.953 1753.97,380.995 1763.47,370.809 1772.84,373.365 1782.09,379.982 1791.23,387.561 
  1800.25,397.455 1809.16,408.908 1817.96,416.02 1826.66,406.497 1835.25,381.659 1843.75,374.214 1852.14,380.246 1860.44,382.372 1868.64,383.827 1876.75,389.577 
  1884.77,395.907 1892.7,392.44 1900.55,367.033 1908.31,337.79 1915.99,339.283 1923.59,338.801 1931.11,327.607 1938.56,320.675 1945.92,321.133 1953.22,320.454 
  1960.44,309.253 1967.59,280.062 1974.66,262.355 1981.67,269.309 1988.62,260.072 1995.49,243.183 2002.31,236.17 2009.05,237.192 2015.74,235.757 2022.37,225.152 
  2028.93,198.418 2035.44,196.718 2041.88,202.481 2048.27,190.093 2054.61,172.746 2060.89,169.213 2067.11,172.453 2073.28,171.972 2079.4,162.758 2085.47,138.461 
  2091.49,151.294 2097.46,153.957 2103.38,141.502 2109.25,124.598 2115.08,126.217 2120.85,131.316 2126.58,131.937 2132.27,121.976 2137.91,107.176 2143.51,124.496 
  2149.07,125.766 2154.58,113.37 2160.05,97.6048 2165.48,105.646 2170.87,111.638 2176.22,113.288 2181.53,95.5494 2186.81,103.532 2192.04,115.524 2197.24,116.667 
  2202.4,101.383 2207.52,91.1006 2212.61,103.606 2217.66,109.54 2222.67,111.196 2227.65,86.1857 2232.6,113.424 2237.52,121.336 2242.4,121.062 2247.24,95.8676 
  2252.06,101.622 2256.84,111.471 2261.6,115.915 2266.32,108.479 2271.01,111.908 2275.67,124.978 2280.3,128.625 2284.9,121.37 2289.47,89.5217 2294.02,108.249 
  
  "/>
</svg>
