<?xml version="1.0" encoding="utf-8"?>
<svg xmlns="http://www.w3.org/2000/svg" xmlns:xlink="http://www.w3.org/1999/xlink" width="600" height="400" viewBox="0 0 2400 1600">
<defs>
  <clipPath id="clip240">
    <rect x="0" y="0" width="2400" height="1600"/>
  </clipPath>
</defs>
<path clip-path="url(#clip240)" d="
M0 1600 L2400 1600 L2400 0 L0 0  Z
  " fill="#ffffff" fill-rule="evenodd" fill-opacity="1"/>
<defs>
  <clipPath id="clip241">
    <rect x="480" y="0" width="1681" height="1600"/>
  </clipPath>
</defs>
<path clip-path="url(#clip240)" d="
M313.626 1423.18 L2352.76 1423.18 L2352.76 47.2441 L313.626 47.2441  Z
  " fill="#ffffff" fill-rule="evenodd" fill-opacity="1"/>
<defs>
  <clipPath id="clip242">
    <rect x="313" y="47" width="2040" height="1377"/>
  </clipPath>
</defs>
<polyline clip-path="url(#clip242)" style="stroke:#000000; stroke-width:2; stroke-opacity:0.1; fill:none" points="
  371.337,1423.18 371.337,47.2441 
  "/>
<polyline clip-path="url(#clip242)" style="stroke:#000000; stroke-width:2; stroke-opacity:0.1; fill:none" points="
  690.588,1423.18 690.588,47.2441 
  "/>
<polyline clip-path="url(#clip242)" style="stroke:#000000; stroke-width:2; stroke-opacity:0.1; fill:none" points="
  960.511,1423.18 960.511,47.2441 
  "/>
<polyline clip-path="url(#clip242)" style="stroke:#000000; stroke-width:2; stroke-opacity:0.1; fill:none" points="
  1194.33,1423.18 1194.33,47.2441 
  "/>
<polyline clip-path="url(#clip242)" style="stroke:#000000; stroke-width:2; stroke-opacity:0.1; fill:none" points="
  1400.57,1423.18 1400.57,47.2441 
  "/>
<polyline clip-path="url(#clip242)" style="stroke:#000000; stroke-width:2; stroke-opacity:0.1; fill:none" points="
  1585.06,1423.18 1585.06,47.2441 
  "/>
<polyline clip-path="url(#clip242)" style="stroke:#000000; stroke-width:2; stroke-opacity:0.1; fill:none" points="
  1751.95,1423.18 1751.95,47.2441 
  "/>
<polyline clip-path="url(#clip242)" style="stroke:#000000; stroke-width:2; stroke-opacity:0.1; fill:none" points="
  1904.31,1423.18 1904.31,47.2441 
  "/>
<polyline clip-path="url(#clip242)" style="stroke:#000000; stroke-width:2; stroke-opacity:0.1; fill:none" points="
  2044.47,1423.18 2044.47,47.2441 
  "/>
<polyline clip-path="url(#clip242)" style="stroke:#000000; stroke-width:2; stroke-opacity:0.1; fill:none" points="
  2174.24,1423.18 2174.24,47.2441 
  "/>
<polyline clip-path="url(#clip242)" style="stroke:#000000; stroke-width:2; stroke-opacity:0.1; fill:none" points="
  2295.04,1423.18 2295.04,47.2441 
  "/>
<polyline clip-path="url(#clip240)" style="stroke:#000000; stroke-width:4; stroke-opacity:1; fill:none" points="
  313.626,1423.18 2352.76,1423.18 
  "/>
<polyline clip-path="url(#clip240)" style="stroke:#000000; stroke-width:4; stroke-opacity:1; fill:none" points="
  371.337,1423.18 371.337,1406.67 
  "/>
<polyline clip-path="url(#clip240)" style="stroke:#000000; stroke-width:4; stroke-opacity:1; fill:none" points="
  690.588,1423.18 690.588,1406.67 
  "/>
<polyline clip-path="url(#clip240)" style="stroke:#000000; stroke-width:4; stroke-opacity:1; fill:none" points="
  960.511,1423.18 960.511,1406.67 
  "/>
<polyline clip-path="url(#clip240)" style="stroke:#000000; stroke-width:4; stroke-opacity:1; fill:none" points="
  1194.33,1423.18 1194.33,1406.67 
  "/>
<polyline clip-path="url(#clip240)" style="stroke:#000000; stroke-width:4; stroke-opacity:1; fill:none" points="
  1400.57,1423.18 1400.57,1406.67 
  "/>
<polyline clip-path="url(#clip240)" style="stroke:#000000; stroke-width:4; stroke-opacity:1; fill:none" points="
  1585.06,1423.18 1585.06,1406.67 
  "/>
<polyline clip-path="url(#clip240)" style="stroke:#000000; stroke-width:4; stroke-opacity:1; fill:none" points="
  1751.95,1423.18 1751.95,1406.67 
  "/>
<polyline clip-path="url(#clip240)" style="stroke:#000000; stroke-width:4; stroke-opacity:1; fill:none" points="
  1904.31,1423.18 1904.31,1406.67 
  "/>
<polyline clip-path="url(#clip240)" style="stroke:#000000; stroke-width:4; stroke-opacity:1; fill:none" points="
  2044.47,1423.18 2044.47,1406.67 
  "/>
<polyline clip-path="url(#clip240)" style="stroke:#000000; stroke-width:4; stroke-opacity:1; fill:none" points="
  2174.24,1423.18 2174.24,1406.67 
  "/>
<polyline clip-path="url(#clip240)" style="stroke:#000000; stroke-width:4; stroke-opacity:1; fill:none" points="
  2295.04,1423.18 2295.04,1406.67 
  "/>
<path clip-path="url(#clip240)" d="M 0 0 M349.219 1452.37 Q345.608 1452.37 343.779 1455.94 Q341.974 1459.48 341.974 1466.61 Q341.974 1473.71 343.779 1477.28 Q345.608 1480.82 349.219 1480.82 Q352.853 1480.82 354.659 1477.28 Q356.488 1473.71 356.488 1466.61 Q356.488 1459.48 354.659 1455.94 Q352.853 1452.37 349.219 1452.37 M349.219 1448.67 Q355.029 1448.67 358.085 1453.27 Q361.164 1457.86 361.164 1466.61 Q361.164 1475.33 358.085 1479.94 Q355.029 1484.52 349.219 1484.52 Q343.409 1484.52 340.33 1479.94 Q337.275 1475.33 337.275 1466.61 Q337.275 1457.86 340.33 1453.27 Q343.409 1448.67 349.219 1448.67 Z" fill="#000000" fill-rule="evenodd" fill-opacity="1" /><path clip-path="url(#clip240)" d="M 0 0 M369.381 1477.97 L374.265 1477.97 L374.265 1483.85 L369.381 1483.85 L369.381 1477.97 Z" fill="#000000" fill-rule="evenodd" fill-opacity="1" /><path clip-path="url(#clip240)" d="M 0 0 M384.497 1449.29 L402.853 1449.29 L402.853 1453.23 L388.779 1453.23 L388.779 1461.7 Q389.798 1461.35 390.816 1461.19 Q391.835 1461 392.853 1461 Q398.64 1461 402.02 1464.18 Q405.399 1467.35 405.399 1472.76 Q405.399 1478.34 401.927 1481.44 Q398.455 1484.52 392.136 1484.52 Q389.96 1484.52 387.691 1484.15 Q385.446 1483.78 383.038 1483.04 L383.038 1478.34 Q385.122 1479.48 387.344 1480.03 Q389.566 1480.59 392.043 1480.59 Q396.048 1480.59 398.386 1478.48 Q400.724 1476.38 400.724 1472.76 Q400.724 1469.15 398.386 1467.05 Q396.048 1464.94 392.043 1464.94 Q390.168 1464.94 388.293 1465.36 Q386.441 1465.77 384.497 1466.65 L384.497 1449.29 Z" fill="#000000" fill-rule="evenodd" fill-opacity="1" /><path clip-path="url(#clip240)" d="M 0 0 M667.892 1452.37 Q664.281 1452.37 662.452 1455.94 Q660.646 1459.48 660.646 1466.61 Q660.646 1473.71 662.452 1477.28 Q664.281 1480.82 667.892 1480.82 Q671.526 1480.82 673.332 1477.28 Q675.16 1473.71 675.16 1466.61 Q675.16 1459.48 673.332 1455.94 Q671.526 1452.37 667.892 1452.37 M667.892 1448.67 Q673.702 1448.67 676.757 1453.27 Q679.836 1457.86 679.836 1466.61 Q679.836 1475.33 676.757 1479.94 Q673.702 1484.52 667.892 1484.52 Q662.082 1484.52 659.003 1479.94 Q655.947 1475.33 655.947 1466.61 Q655.947 1457.86 659.003 1453.27 Q662.082 1448.67 667.892 1448.67 Z" fill="#000000" fill-rule="evenodd" fill-opacity="1" /><path clip-path="url(#clip240)" d="M 0 0 M688.054 1477.97 L692.938 1477.97 L692.938 1483.85 L688.054 1483.85 L688.054 1477.97 Z" fill="#000000" fill-rule="evenodd" fill-opacity="1" /><path clip-path="url(#clip240)" d="M 0 0 M713.702 1464.71 Q710.554 1464.71 708.702 1466.86 Q706.873 1469.01 706.873 1472.76 Q706.873 1476.49 708.702 1478.67 Q710.554 1480.82 713.702 1480.82 Q716.85 1480.82 718.679 1478.67 Q720.53 1476.49 720.53 1472.76 Q720.53 1469.01 718.679 1466.86 Q716.85 1464.71 713.702 1464.71 M722.984 1450.06 L722.984 1454.31 Q721.225 1453.48 719.419 1453.04 Q717.637 1452.6 715.878 1452.6 Q711.248 1452.6 708.794 1455.73 Q706.364 1458.85 706.017 1465.17 Q707.382 1463.16 709.442 1462.09 Q711.503 1461 713.979 1461 Q719.188 1461 722.197 1464.18 Q725.229 1467.32 725.229 1472.76 Q725.229 1478.09 722.081 1481.31 Q718.933 1484.52 713.702 1484.52 Q707.706 1484.52 704.535 1479.94 Q701.364 1475.33 701.364 1466.61 Q701.364 1458.41 705.253 1453.55 Q709.142 1448.67 715.692 1448.67 Q717.452 1448.67 719.234 1449.01 Q721.04 1449.36 722.984 1450.06 Z" fill="#000000" fill-rule="evenodd" fill-opacity="1" /><path clip-path="url(#clip240)" d="M 0 0 M938.347 1452.37 Q934.736 1452.37 932.907 1455.94 Q931.102 1459.48 931.102 1466.61 Q931.102 1473.71 932.907 1477.28 Q934.736 1480.82 938.347 1480.82 Q941.981 1480.82 943.787 1477.28 Q945.616 1473.71 945.616 1466.61 Q945.616 1459.48 943.787 1455.94 Q941.981 1452.37 938.347 1452.37 M938.347 1448.67 Q944.157 1448.67 947.213 1453.27 Q950.292 1457.86 950.292 1466.61 Q950.292 1475.33 947.213 1479.94 Q944.157 1484.52 938.347 1484.52 Q932.537 1484.52 929.458 1479.94 Q926.403 1475.33 926.403 1466.61 Q926.403 1457.86 929.458 1453.27 Q932.537 1448.67 938.347 1448.67 Z" fill="#000000" fill-rule="evenodd" fill-opacity="1" /><path clip-path="url(#clip240)" d="M 0 0 M958.509 1477.97 L963.393 1477.97 L963.393 1483.85 L958.509 1483.85 L958.509 1477.97 Z" fill="#000000" fill-rule="evenodd" fill-opacity="1" /><path clip-path="url(#clip240)" d="M 0 0 M972.398 1449.29 L994.62 1449.29 L994.62 1451.28 L982.074 1483.85 L977.19 1483.85 L988.995 1453.23 L972.398 1453.23 L972.398 1449.29 Z" fill="#000000" fill-rule="evenodd" fill-opacity="1" /><path clip-path="url(#clip240)" d="M 0 0 M1171.76 1452.37 Q1168.15 1452.37 1166.32 1455.94 Q1164.51 1459.48 1164.51 1466.61 Q1164.51 1473.71 1166.32 1477.28 Q1168.15 1480.82 1171.76 1480.82 Q1175.39 1480.82 1177.2 1477.28 Q1179.03 1473.71 1179.03 1466.61 Q1179.03 1459.48 1177.2 1455.94 Q1175.39 1452.37 1171.76 1452.37 M1171.76 1448.67 Q1177.57 1448.67 1180.63 1453.27 Q1183.7 1457.86 1183.7 1466.61 Q1183.7 1475.33 1180.63 1479.94 Q1177.57 1484.52 1171.76 1484.52 Q1165.95 1484.52 1162.87 1479.94 Q1159.82 1475.33 1159.82 1466.61 Q1159.82 1457.86 1162.87 1453.27 Q1165.95 1448.67 1171.76 1448.67 Z" fill="#000000" fill-rule="evenodd" fill-opacity="1" /><path clip-path="url(#clip240)" d="M 0 0 M1191.92 1477.97 L1196.81 1477.97 L1196.81 1483.85 L1191.92 1483.85 L1191.92 1477.97 Z" fill="#000000" fill-rule="evenodd" fill-opacity="1" /><path clip-path="url(#clip240)" d="M 0 0 M1216.99 1467.44 Q1213.66 1467.44 1211.74 1469.22 Q1209.84 1471 1209.84 1474.13 Q1209.84 1477.25 1211.74 1479.04 Q1213.66 1480.82 1216.99 1480.82 Q1220.32 1480.82 1222.25 1479.04 Q1224.17 1477.23 1224.17 1474.13 Q1224.17 1471 1222.25 1469.22 Q1220.35 1467.44 1216.99 1467.44 M1212.32 1465.45 Q1209.31 1464.71 1207.62 1462.65 Q1205.95 1460.59 1205.95 1457.63 Q1205.95 1453.48 1208.89 1451.07 Q1211.85 1448.67 1216.99 1448.67 Q1222.15 1448.67 1225.09 1451.07 Q1228.03 1453.48 1228.03 1457.63 Q1228.03 1460.59 1226.34 1462.65 Q1224.68 1464.71 1221.69 1465.45 Q1225.07 1466.24 1226.95 1468.53 Q1228.84 1470.82 1228.84 1474.13 Q1228.84 1479.15 1225.76 1481.84 Q1222.71 1484.52 1216.99 1484.52 Q1211.27 1484.52 1208.2 1481.84 Q1205.14 1479.15 1205.14 1474.13 Q1205.14 1470.82 1207.04 1468.53 Q1208.94 1466.24 1212.32 1465.45 M1210.6 1458.06 Q1210.6 1460.75 1212.27 1462.25 Q1213.96 1463.76 1216.99 1463.76 Q1220 1463.76 1221.69 1462.25 Q1223.4 1460.75 1223.4 1458.06 Q1223.4 1455.38 1221.69 1453.88 Q1220 1452.37 1216.99 1452.37 Q1213.96 1452.37 1212.27 1453.88 Q1210.6 1455.38 1210.6 1458.06 Z" fill="#000000" fill-rule="evenodd" fill-opacity="1" /><path clip-path="url(#clip240)" d="M 0 0 M1378.05 1452.37 Q1374.44 1452.37 1372.61 1455.94 Q1370.8 1459.48 1370.8 1466.61 Q1370.8 1473.71 1372.61 1477.28 Q1374.44 1480.82 1378.05 1480.82 Q1381.68 1480.82 1383.49 1477.28 Q1385.32 1473.71 1385.32 1466.61 Q1385.32 1459.48 1383.49 1455.94 Q1381.68 1452.37 1378.05 1452.37 M1378.05 1448.67 Q1383.86 1448.67 1386.91 1453.27 Q1389.99 1457.86 1389.99 1466.61 Q1389.99 1475.33 1386.91 1479.94 Q1383.86 1484.52 1378.05 1484.52 Q1372.24 1484.52 1369.16 1479.94 Q1366.1 1475.33 1366.1 1466.61 Q1366.1 1457.86 1369.16 1453.27 Q1372.24 1448.67 1378.05 1448.67 Z" fill="#000000" fill-rule="evenodd" fill-opacity="1" /><path clip-path="url(#clip240)" d="M 0 0 M1398.21 1477.97 L1403.09 1477.97 L1403.09 1483.85 L1398.21 1483.85 L1398.21 1477.97 Z" fill="#000000" fill-rule="evenodd" fill-opacity="1" /><path clip-path="url(#clip240)" d="M 0 0 M1413.42 1483.13 L1413.42 1478.88 Q1415.18 1479.71 1416.98 1480.15 Q1418.79 1480.59 1420.53 1480.59 Q1425.15 1480.59 1427.59 1477.49 Q1430.04 1474.36 1430.39 1468.02 Q1429.04 1470.01 1426.98 1471.07 Q1424.92 1472.14 1422.42 1472.14 Q1417.24 1472.14 1414.21 1469.01 Q1411.2 1465.87 1411.2 1460.43 Q1411.2 1455.1 1414.34 1451.88 Q1417.49 1448.67 1422.72 1448.67 Q1428.72 1448.67 1431.87 1453.27 Q1435.04 1457.86 1435.04 1466.61 Q1435.04 1474.78 1431.15 1479.66 Q1427.28 1484.52 1420.73 1484.52 Q1418.97 1484.52 1417.17 1484.18 Q1415.36 1483.83 1413.42 1483.13 M1422.72 1468.48 Q1425.87 1468.48 1427.7 1466.33 Q1429.55 1464.18 1429.55 1460.43 Q1429.55 1456.7 1427.7 1454.55 Q1425.87 1452.37 1422.72 1452.37 Q1419.58 1452.37 1417.72 1454.55 Q1415.9 1456.7 1415.9 1460.43 Q1415.9 1464.18 1417.72 1466.33 Q1419.58 1468.48 1422.72 1468.48 Z" fill="#000000" fill-rule="evenodd" fill-opacity="1" /><path clip-path="url(#clip240)" d="M 0 0 M1552.21 1479.92 L1559.85 1479.92 L1559.85 1453.55 L1551.54 1455.22 L1551.54 1450.96 L1559.81 1449.29 L1564.48 1449.29 L1564.48 1479.92 L1572.12 1479.92 L1572.12 1483.85 L1552.21 1483.85 L1552.21 1479.92 Z" fill="#000000" fill-rule="evenodd" fill-opacity="1" /><path clip-path="url(#clip240)" d="M 0 0 M1581.57 1477.97 L1586.45 1477.97 L1586.45 1483.85 L1581.57 1483.85 L1581.57 1477.97 Z" fill="#000000" fill-rule="evenodd" fill-opacity="1" /><path clip-path="url(#clip240)" d="M 0 0 M1606.64 1452.37 Q1603.02 1452.37 1601.2 1455.94 Q1599.39 1459.48 1599.39 1466.61 Q1599.39 1473.71 1601.2 1477.28 Q1603.02 1480.82 1606.64 1480.82 Q1610.27 1480.82 1612.08 1477.28 Q1613.9 1473.71 1613.9 1466.61 Q1613.9 1459.48 1612.08 1455.94 Q1610.27 1452.37 1606.64 1452.37 M1606.64 1448.67 Q1612.45 1448.67 1615.5 1453.27 Q1618.58 1457.86 1618.58 1466.61 Q1618.58 1475.33 1615.5 1479.94 Q1612.45 1484.52 1606.64 1484.52 Q1600.83 1484.52 1597.75 1479.94 Q1594.69 1475.33 1594.69 1466.61 Q1594.69 1457.86 1597.75 1453.27 Q1600.83 1448.67 1606.64 1448.67 Z" fill="#000000" fill-rule="evenodd" fill-opacity="1" /><path clip-path="url(#clip240)" d="M 0 0 M1719.72 1479.92 L1727.36 1479.92 L1727.36 1453.55 L1719.05 1455.22 L1719.05 1450.96 L1727.31 1449.29 L1731.99 1449.29 L1731.99 1479.92 L1739.63 1479.92 L1739.63 1483.85 L1719.72 1483.85 L1719.72 1479.92 Z" fill="#000000" fill-rule="evenodd" fill-opacity="1" /><path clip-path="url(#clip240)" d="M 0 0 M1749.07 1477.97 L1753.96 1477.97 L1753.96 1483.85 L1749.07 1483.85 L1749.07 1477.97 Z" fill="#000000" fill-rule="evenodd" fill-opacity="1" /><path clip-path="url(#clip240)" d="M 0 0 M1764.95 1479.92 L1772.59 1479.92 L1772.59 1453.55 L1764.28 1455.22 L1764.28 1450.96 L1772.54 1449.29 L1777.22 1449.29 L1777.22 1479.92 L1784.86 1479.92 L1784.86 1483.85 L1764.95 1483.85 L1764.95 1479.92 Z" fill="#000000" fill-rule="evenodd" fill-opacity="1" /><path clip-path="url(#clip240)" d="M 0 0 M1872.26 1479.92 L1879.9 1479.92 L1879.9 1453.55 L1871.59 1455.22 L1871.59 1450.96 L1879.86 1449.29 L1884.53 1449.29 L1884.53 1479.92 L1892.17 1479.92 L1892.17 1483.85 L1872.26 1483.85 L1872.26 1479.92 Z" fill="#000000" fill-rule="evenodd" fill-opacity="1" /><path clip-path="url(#clip240)" d="M 0 0 M1901.62 1477.97 L1906.5 1477.97 L1906.5 1483.85 L1901.62 1483.85 L1901.62 1477.97 Z" fill="#000000" fill-rule="evenodd" fill-opacity="1" /><path clip-path="url(#clip240)" d="M 0 0 M1920.71 1479.92 L1937.03 1479.92 L1937.03 1483.85 L1915.09 1483.85 L1915.09 1479.92 Q1917.75 1477.16 1922.33 1472.53 Q1926.94 1467.88 1928.12 1466.54 Q1930.37 1464.01 1931.25 1462.28 Q1932.15 1460.52 1932.15 1458.83 Q1932.15 1456.07 1930.2 1454.34 Q1928.28 1452.6 1925.18 1452.6 Q1922.98 1452.6 1920.53 1453.37 Q1918.1 1454.13 1915.32 1455.68 L1915.32 1450.96 Q1918.14 1449.82 1920.6 1449.25 Q1923.05 1448.67 1925.09 1448.67 Q1930.46 1448.67 1933.65 1451.35 Q1936.85 1454.04 1936.85 1458.53 Q1936.85 1460.66 1936.04 1462.58 Q1935.25 1464.48 1933.14 1467.07 Q1932.56 1467.74 1929.46 1470.96 Q1926.36 1474.15 1920.71 1479.92 Z" fill="#000000" fill-rule="evenodd" fill-opacity="1" /><path clip-path="url(#clip240)" d="M 0 0 M2011.95 1479.92 L2019.59 1479.92 L2019.59 1453.55 L2011.28 1455.22 L2011.28 1450.96 L2019.54 1449.29 L2024.22 1449.29 L2024.22 1479.92 L2031.85 1479.92 L2031.85 1483.85 L2011.95 1483.85 L2011.95 1479.92 Z" fill="#000000" fill-rule="evenodd" fill-opacity="1" /><path clip-path="url(#clip240)" d="M 0 0 M2041.3 1477.97 L2046.18 1477.97 L2046.18 1483.85 L2041.3 1483.85 L2041.3 1477.97 Z" fill="#000000" fill-rule="evenodd" fill-opacity="1" /><path clip-path="url(#clip240)" d="M 0 0 M2070.53 1465.22 Q2073.89 1465.94 2075.77 1468.2 Q2077.66 1470.47 2077.66 1473.81 Q2077.66 1478.92 2074.15 1481.72 Q2070.63 1484.52 2064.15 1484.52 Q2061.97 1484.52 2059.66 1484.08 Q2057.36 1483.67 2054.91 1482.81 L2054.91 1478.3 Q2056.85 1479.43 2059.17 1480.01 Q2061.48 1480.59 2064.01 1480.59 Q2068.41 1480.59 2070.7 1478.85 Q2073.01 1477.12 2073.01 1473.81 Q2073.01 1470.75 2070.86 1469.04 Q2068.73 1467.3 2064.91 1467.3 L2060.88 1467.3 L2060.88 1463.46 L2065.1 1463.46 Q2068.54 1463.46 2070.37 1462.09 Q2072.2 1460.7 2072.2 1458.11 Q2072.2 1455.45 2070.3 1454.04 Q2068.43 1452.6 2064.91 1452.6 Q2062.99 1452.6 2060.79 1453.02 Q2058.59 1453.44 2055.95 1454.31 L2055.95 1450.15 Q2058.61 1449.41 2060.93 1449.04 Q2063.27 1448.67 2065.33 1448.67 Q2070.65 1448.67 2073.75 1451.1 Q2076.85 1453.5 2076.85 1457.63 Q2076.85 1460.5 2075.21 1462.49 Q2073.57 1464.45 2070.53 1465.22 Z" fill="#000000" fill-rule="evenodd" fill-opacity="1" /><path clip-path="url(#clip240)" d="M 0 0 M2141.15 1479.92 L2148.78 1479.92 L2148.78 1453.55 L2140.47 1455.22 L2140.47 1450.96 L2148.74 1449.29 L2153.41 1449.29 L2153.41 1479.92 L2161.05 1479.92 L2161.05 1483.85 L2141.15 1483.85 L2141.15 1479.92 Z" fill="#000000" fill-rule="evenodd" fill-opacity="1" /><path clip-path="url(#clip240)" d="M 0 0 M2170.5 1477.97 L2175.38 1477.97 L2175.38 1483.85 L2170.5 1483.85 L2170.5 1477.97 Z" fill="#000000" fill-rule="evenodd" fill-opacity="1" /><path clip-path="url(#clip240)" d="M 0 0 M2198.41 1453.37 L2186.61 1471.81 L2198.41 1471.81 L2198.41 1453.37 M2197.19 1449.29 L2203.07 1449.29 L2203.07 1471.81 L2208 1471.81 L2208 1475.7 L2203.07 1475.7 L2203.07 1483.85 L2198.41 1483.85 L2198.41 1475.7 L2182.81 1475.7 L2182.81 1471.19 L2197.19 1449.29 Z" fill="#000000" fill-rule="evenodd" fill-opacity="1" /><path clip-path="url(#clip240)" d="M 0 0 M2262.7 1479.92 L2270.33 1479.92 L2270.33 1453.55 L2262.02 1455.22 L2262.02 1450.96 L2270.29 1449.29 L2274.96 1449.29 L2274.96 1479.92 L2282.6 1479.92 L2282.6 1483.85 L2262.7 1483.85 L2262.7 1479.92 Z" fill="#000000" fill-rule="evenodd" fill-opacity="1" /><path clip-path="url(#clip240)" d="M 0 0 M2292.05 1477.97 L2296.93 1477.97 L2296.93 1483.85 L2292.05 1483.85 L2292.05 1477.97 Z" fill="#000000" fill-rule="evenodd" fill-opacity="1" /><path clip-path="url(#clip240)" d="M 0 0 M2307.16 1449.29 L2325.52 1449.29 L2325.52 1453.23 L2311.45 1453.23 L2311.45 1461.7 Q2312.46 1461.35 2313.48 1461.19 Q2314.5 1461 2315.52 1461 Q2321.31 1461 2324.69 1464.18 Q2328.07 1467.35 2328.07 1472.76 Q2328.07 1478.34 2324.59 1481.44 Q2321.12 1484.52 2314.8 1484.52 Q2312.63 1484.52 2310.36 1484.15 Q2308.11 1483.78 2305.7 1483.04 L2305.7 1478.34 Q2307.79 1479.48 2310.01 1480.03 Q2312.23 1480.59 2314.71 1480.59 Q2318.71 1480.59 2321.05 1478.48 Q2323.39 1476.38 2323.39 1472.76 Q2323.39 1469.15 2321.05 1467.05 Q2318.71 1464.94 2314.71 1464.94 Q2312.83 1464.94 2310.96 1465.36 Q2309.11 1465.77 2307.16 1466.65 L2307.16 1449.29 Z" fill="#000000" fill-rule="evenodd" fill-opacity="1" /><path clip-path="url(#clip240)" d="M 0 0 M978.812 1525.81 L978.812 1543.66 L986.896 1543.66 Q991.384 1543.66 993.835 1541.34 Q996.286 1539.02 996.286 1534.72 Q996.286 1530.45 993.835 1528.13 Q991.384 1525.81 986.896 1525.81 L978.812 1525.81 M972.383 1520.52 L986.896 1520.52 Q994.885 1520.52 998.959 1524.15 Q1003.07 1527.75 1003.07 1534.72 Q1003.07 1541.75 998.959 1545.35 Q994.885 1548.95 986.896 1548.95 L978.812 1548.95 L978.812 1568.04 L972.383 1568.04 L972.383 1520.52 Z" fill="#000000" fill-rule="evenodd" fill-opacity="1" /><path clip-path="url(#clip240)" d="M 0 0 M1024.71 1550.12 Q1017.61 1550.12 1014.87 1551.75 Q1012.14 1553.37 1012.14 1557.29 Q1012.14 1560.4 1014.17 1562.25 Q1016.24 1564.07 1019.78 1564.07 Q1024.65 1564.07 1027.57 1560.63 Q1030.53 1557.16 1030.53 1551.43 L1030.53 1550.12 L1024.71 1550.12 M1036.39 1547.71 L1036.39 1568.04 L1030.53 1568.04 L1030.53 1562.63 Q1028.53 1565.88 1025.54 1567.44 Q1022.54 1568.97 1018.22 1568.97 Q1012.74 1568.97 1009.49 1565.91 Q1006.28 1562.82 1006.28 1557.67 Q1006.28 1551.65 1010.29 1548.6 Q1014.33 1545.54 1022.32 1545.54 L1030.53 1545.54 L1030.53 1544.97 Q1030.53 1540.93 1027.86 1538.73 Q1025.22 1536.5 1020.41 1536.5 Q1017.36 1536.5 1014.46 1537.23 Q1011.56 1537.97 1008.89 1539.43 L1008.89 1534.02 Q1012.1 1532.78 1015.13 1532.17 Q1018.15 1531.54 1021.02 1531.54 Q1028.75 1531.54 1032.57 1535.55 Q1036.39 1539.56 1036.39 1547.71 Z" fill="#000000" fill-rule="evenodd" fill-opacity="1" /><path clip-path="url(#clip240)" d="M 0 0 M1069.11 1537.87 Q1068.12 1537.3 1066.95 1537.04 Q1065.8 1536.76 1064.4 1536.76 Q1059.43 1536.76 1056.76 1540 Q1054.12 1543.22 1054.12 1549.27 L1054.12 1568.04 L1048.23 1568.04 L1048.23 1532.4 L1054.12 1532.4 L1054.12 1537.93 Q1055.96 1534.69 1058.92 1533.13 Q1061.88 1531.54 1066.12 1531.54 Q1066.72 1531.54 1067.45 1531.63 Q1068.19 1531.7 1069.08 1531.85 L1069.11 1537.87 Z" fill="#000000" fill-rule="evenodd" fill-opacity="1" /><path clip-path="url(#clip240)" d="M 0 0 M1081.05 1522.27 L1081.05 1532.4 L1093.11 1532.4 L1093.11 1536.95 L1081.05 1536.95 L1081.05 1556.3 Q1081.05 1560.66 1082.22 1561.9 Q1083.43 1563.14 1087.09 1563.14 L1093.11 1563.14 L1093.11 1568.04 L1087.09 1568.04 Q1080.31 1568.04 1077.74 1565.53 Q1075.16 1562.98 1075.16 1556.3 L1075.16 1536.95 L1070.86 1536.95 L1070.86 1532.4 L1075.16 1532.4 L1075.16 1522.27 L1081.05 1522.27 Z" fill="#000000" fill-rule="evenodd" fill-opacity="1" /><path clip-path="url(#clip240)" d="M 0 0 M1100.81 1532.4 L1106.67 1532.4 L1106.67 1568.04 L1100.81 1568.04 L1100.81 1532.4 M1100.81 1518.52 L1106.67 1518.52 L1106.67 1525.93 L1100.81 1525.93 L1100.81 1518.52 Z" fill="#000000" fill-rule="evenodd" fill-opacity="1" /><path clip-path="url(#clip240)" d="M 0 0 M1144.58 1533.76 L1144.58 1539.24 Q1142.09 1537.87 1139.58 1537.2 Q1137.1 1536.5 1134.55 1536.5 Q1128.85 1536.5 1125.7 1540.13 Q1122.55 1543.73 1122.55 1550.25 Q1122.55 1556.78 1125.7 1560.4 Q1128.85 1564 1134.55 1564 Q1137.1 1564 1139.58 1563.33 Q1142.09 1562.63 1144.58 1561.26 L1144.58 1566.68 Q1142.12 1567.82 1139.48 1568.39 Q1136.87 1568.97 1133.91 1568.97 Q1125.86 1568.97 1121.12 1563.91 Q1116.37 1558.85 1116.37 1550.25 Q1116.37 1541.53 1121.15 1536.53 Q1125.96 1531.54 1134.29 1531.54 Q1137 1531.54 1139.58 1532.11 Q1142.16 1532.65 1144.58 1533.76 Z" fill="#000000" fill-rule="evenodd" fill-opacity="1" /><path clip-path="url(#clip240)" d="M 0 0 M1154.76 1518.52 L1160.62 1518.52 L1160.62 1568.04 L1154.76 1568.04 L1154.76 1518.52 Z" fill="#000000" fill-rule="evenodd" fill-opacity="1" /><path clip-path="url(#clip240)" d="M 0 0 M1203.36 1548.76 L1203.36 1551.62 L1176.44 1551.62 Q1176.82 1557.67 1180.06 1560.85 Q1183.34 1564 1189.17 1564 Q1192.54 1564 1195.69 1563.17 Q1198.87 1562.35 1201.99 1560.69 L1201.99 1566.23 Q1198.84 1567.57 1195.53 1568.27 Q1192.22 1568.97 1188.82 1568.97 Q1180.29 1568.97 1175.29 1564 Q1170.32 1559.04 1170.32 1550.57 Q1170.32 1541.82 1175.03 1536.69 Q1179.78 1531.54 1187.8 1531.54 Q1194.99 1531.54 1199.16 1536.18 Q1203.36 1540.8 1203.36 1548.76 M1197.51 1547.04 Q1197.44 1542.23 1194.8 1539.37 Q1192.19 1536.5 1187.86 1536.5 Q1182.96 1536.5 1180 1539.27 Q1177.07 1542.04 1176.63 1547.07 L1197.51 1547.04 Z" fill="#000000" fill-rule="evenodd" fill-opacity="1" /><path clip-path="url(#clip240)" d="M 0 0 M1257.15 1537.81 L1257.15 1518.52 L1263.01 1518.52 L1263.01 1568.04 L1257.15 1568.04 L1257.15 1562.7 Q1255.31 1565.88 1252.47 1567.44 Q1249.67 1568.97 1245.73 1568.97 Q1239.26 1568.97 1235.19 1563.81 Q1231.15 1558.65 1231.15 1550.25 Q1231.15 1541.85 1235.19 1536.69 Q1239.26 1531.54 1245.73 1531.54 Q1249.67 1531.54 1252.47 1533.1 Q1255.31 1534.62 1257.15 1537.81 M1237.2 1550.25 Q1237.2 1556.71 1239.84 1560.4 Q1242.51 1564.07 1247.16 1564.07 Q1251.81 1564.07 1254.48 1560.4 Q1257.15 1556.71 1257.15 1550.25 Q1257.15 1543.79 1254.48 1540.13 Q1251.81 1536.44 1247.16 1536.44 Q1242.51 1536.44 1239.84 1540.13 Q1237.2 1543.79 1237.2 1550.25 Z" fill="#000000" fill-rule="evenodd" fill-opacity="1" /><path clip-path="url(#clip240)" d="M 0 0 M1275.07 1532.4 L1280.93 1532.4 L1280.93 1568.04 L1275.07 1568.04 L1275.07 1532.4 M1275.07 1518.52 L1280.93 1518.52 L1280.93 1525.93 L1275.07 1525.93 L1275.07 1518.52 Z" fill="#000000" fill-rule="evenodd" fill-opacity="1" /><path clip-path="url(#clip240)" d="M 0 0 M1309.38 1550.12 Q1302.29 1550.12 1299.55 1551.75 Q1296.81 1553.37 1296.81 1557.29 Q1296.81 1560.4 1298.85 1562.25 Q1300.92 1564.07 1304.45 1564.07 Q1309.32 1564.07 1312.25 1560.63 Q1315.21 1557.16 1315.21 1551.43 L1315.21 1550.12 L1309.38 1550.12 M1321.06 1547.71 L1321.06 1568.04 L1315.21 1568.04 L1315.21 1562.63 Q1313.2 1565.88 1310.21 1567.44 Q1307.22 1568.97 1302.89 1568.97 Q1297.42 1568.97 1294.17 1565.91 Q1290.95 1562.82 1290.95 1557.67 Q1290.95 1551.65 1294.96 1548.6 Q1299.01 1545.54 1307 1545.54 L1315.21 1545.54 L1315.21 1544.97 Q1315.21 1540.93 1312.53 1538.73 Q1309.89 1536.5 1305.09 1536.5 Q1302.03 1536.5 1299.13 1537.23 Q1296.24 1537.97 1293.56 1539.43 L1293.56 1534.02 Q1296.78 1532.78 1299.8 1532.17 Q1302.83 1531.54 1305.69 1531.54 Q1313.43 1531.54 1317.24 1535.55 Q1321.06 1539.56 1321.06 1547.71 Z" fill="#000000" fill-rule="evenodd" fill-opacity="1" /><path clip-path="url(#clip240)" d="M 0 0 M1360.88 1539.24 Q1363.08 1535.29 1366.13 1533.41 Q1369.19 1531.54 1373.33 1531.54 Q1378.9 1531.54 1381.92 1535.45 Q1384.94 1539.33 1384.94 1546.53 L1384.94 1568.04 L1379.06 1568.04 L1379.06 1546.72 Q1379.06 1541.59 1377.24 1539.11 Q1375.43 1536.63 1371.7 1536.63 Q1367.15 1536.63 1364.51 1539.65 Q1361.87 1542.68 1361.87 1547.9 L1361.87 1568.04 L1355.98 1568.04 L1355.98 1546.72 Q1355.98 1541.56 1354.17 1539.11 Q1352.35 1536.63 1348.56 1536.63 Q1344.08 1536.63 1341.43 1539.68 Q1338.79 1542.71 1338.79 1547.9 L1338.79 1568.04 L1332.9 1568.04 L1332.9 1532.4 L1338.79 1532.4 L1338.79 1537.93 Q1340.8 1534.66 1343.6 1533.1 Q1346.4 1531.54 1350.25 1531.54 Q1354.13 1531.54 1356.84 1533.51 Q1359.58 1535.48 1360.88 1539.24 Z" fill="#000000" fill-rule="evenodd" fill-opacity="1" /><path clip-path="url(#clip240)" d="M 0 0 M1427.12 1548.76 L1427.12 1551.62 L1400.19 1551.62 Q1400.57 1557.67 1403.82 1560.85 Q1407.1 1564 1412.92 1564 Q1416.3 1564 1419.45 1563.17 Q1422.63 1562.35 1425.75 1560.69 L1425.75 1566.23 Q1422.6 1567.57 1419.29 1568.27 Q1415.98 1568.97 1412.57 1568.97 Q1404.04 1568.97 1399.04 1564 Q1394.08 1559.04 1394.08 1550.57 Q1394.08 1541.82 1398.79 1536.69 Q1403.53 1531.54 1411.55 1531.54 Q1418.75 1531.54 1422.92 1536.18 Q1427.12 1540.8 1427.12 1548.76 M1421.26 1547.04 Q1421.2 1542.23 1418.56 1539.37 Q1415.95 1536.5 1411.62 1536.5 Q1406.71 1536.5 1403.75 1539.27 Q1400.83 1542.04 1400.38 1547.07 L1421.26 1547.04 Z" fill="#000000" fill-rule="evenodd" fill-opacity="1" /><path clip-path="url(#clip240)" d="M 0 0 M1442.52 1522.27 L1442.52 1532.4 L1454.58 1532.4 L1454.58 1536.95 L1442.52 1536.95 L1442.52 1556.3 Q1442.52 1560.66 1443.7 1561.9 Q1444.91 1563.14 1448.57 1563.14 L1454.58 1563.14 L1454.58 1568.04 L1448.57 1568.04 Q1441.79 1568.04 1439.21 1565.53 Q1436.63 1562.98 1436.63 1556.3 L1436.63 1536.95 L1432.34 1536.95 L1432.34 1532.4 L1436.63 1532.4 L1436.63 1522.27 L1442.52 1522.27 Z" fill="#000000" fill-rule="evenodd" fill-opacity="1" /><path clip-path="url(#clip240)" d="M 0 0 M1492.78 1548.76 L1492.78 1551.62 L1465.85 1551.62 Q1466.23 1557.67 1469.48 1560.85 Q1472.76 1564 1478.58 1564 Q1481.96 1564 1485.11 1563.17 Q1488.29 1562.35 1491.41 1560.69 L1491.41 1566.23 Q1488.26 1567.57 1484.95 1568.27 Q1481.64 1568.97 1478.23 1568.97 Q1469.7 1568.97 1464.71 1564 Q1459.74 1559.04 1459.74 1550.57 Q1459.74 1541.82 1464.45 1536.69 Q1469.19 1531.54 1477.22 1531.54 Q1484.41 1531.54 1488.58 1536.18 Q1492.78 1540.8 1492.78 1548.76 M1486.92 1547.04 Q1486.86 1542.23 1484.22 1539.37 Q1481.61 1536.5 1477.28 1536.5 Q1472.38 1536.5 1469.42 1539.27 Q1466.49 1542.04 1466.04 1547.07 L1486.92 1547.04 Z" fill="#000000" fill-rule="evenodd" fill-opacity="1" /><path clip-path="url(#clip240)" d="M 0 0 M1523.05 1537.87 Q1522.06 1537.3 1520.88 1537.04 Q1519.74 1536.76 1518.34 1536.76 Q1513.37 1536.76 1510.7 1540 Q1508.06 1543.22 1508.06 1549.27 L1508.06 1568.04 L1502.17 1568.04 L1502.17 1532.4 L1508.06 1532.4 L1508.06 1537.93 Q1509.9 1534.69 1512.86 1533.13 Q1515.82 1531.54 1520.06 1531.54 Q1520.66 1531.54 1521.39 1531.63 Q1522.13 1531.7 1523.02 1531.85 L1523.05 1537.87 Z" fill="#000000" fill-rule="evenodd" fill-opacity="1" /><path clip-path="url(#clip240)" d="M 0 0 M1563.98 1518.58 Q1559.71 1525.9 1557.65 1533.06 Q1555.58 1540.23 1555.58 1547.58 Q1555.58 1554.93 1557.65 1562.16 Q1559.75 1569.35 1563.98 1576.64 L1558.89 1576.64 Q1554.11 1569.16 1551.73 1561.93 Q1549.37 1554.71 1549.37 1547.58 Q1549.37 1540.48 1551.73 1533.29 Q1554.08 1526.09 1558.89 1518.58 L1563.98 1518.58 Z" fill="#000000" fill-rule="evenodd" fill-opacity="1" /><path clip-path="url(#clip240)" d="M 0 0 M1574.74 1581.6 L1574.74 1532.4 L1580.59 1532.4 L1580.59 1554.55 Q1580.59 1559.16 1582.79 1561.52 Q1584.99 1563.87 1589.28 1563.87 Q1593.99 1563.87 1596.35 1561.2 Q1598.74 1558.53 1598.74 1553.18 L1598.74 1532.4 L1604.59 1532.4 L1604.59 1559.83 Q1604.59 1561.74 1605.13 1562.66 Q1605.71 1563.56 1606.88 1563.56 Q1607.17 1563.56 1607.68 1563.4 Q1608.19 1563.21 1609.08 1562.82 L1609.08 1567.53 Q1607.78 1568.27 1606.6 1568.62 Q1605.45 1568.97 1604.34 1568.97 Q1602.14 1568.97 1600.84 1567.73 Q1599.53 1566.48 1599.05 1563.94 Q1597.46 1566.45 1595.14 1567.73 Q1592.85 1568.97 1589.73 1568.97 Q1586.48 1568.97 1584.19 1567.73 Q1581.93 1566.48 1580.59 1564 L1580.59 1581.6 L1574.74 1581.6 Z" fill="#000000" fill-rule="evenodd" fill-opacity="1" /><path clip-path="url(#clip240)" d="M 0 0 M1644.57 1539.24 Q1646.77 1535.29 1649.82 1533.41 Q1652.88 1531.54 1657.01 1531.54 Q1662.58 1531.54 1665.61 1535.45 Q1668.63 1539.33 1668.63 1546.53 L1668.63 1568.04 L1662.74 1568.04 L1662.74 1546.72 Q1662.74 1541.59 1660.93 1539.11 Q1659.12 1536.63 1655.39 1536.63 Q1650.84 1536.63 1648.2 1539.65 Q1645.56 1542.68 1645.56 1547.9 L1645.56 1568.04 L1639.67 1568.04 L1639.67 1546.72 Q1639.67 1541.56 1637.85 1539.11 Q1636.04 1536.63 1632.25 1536.63 Q1627.76 1536.63 1625.12 1539.68 Q1622.48 1542.71 1622.48 1547.9 L1622.48 1568.04 L1616.59 1568.04 L1616.59 1532.4 L1622.48 1532.4 L1622.48 1537.93 Q1624.49 1534.66 1627.29 1533.1 Q1630.09 1531.54 1633.94 1531.54 Q1637.82 1531.54 1640.53 1533.51 Q1643.26 1535.48 1644.57 1539.24 Z" fill="#000000" fill-rule="evenodd" fill-opacity="1" /><path clip-path="url(#clip240)" d="M 0 0 M1679.39 1518.58 L1684.48 1518.58 Q1689.26 1526.09 1691.61 1533.29 Q1694 1540.48 1694 1547.58 Q1694 1554.71 1691.61 1561.93 Q1689.26 1569.16 1684.48 1576.64 L1679.39 1576.64 Q1683.62 1569.35 1685.69 1562.16 Q1687.79 1554.93 1687.79 1547.58 Q1687.79 1540.23 1685.69 1533.06 Q1683.62 1525.9 1679.39 1518.58 Z" fill="#000000" fill-rule="evenodd" fill-opacity="1" /><polyline clip-path="url(#clip242)" style="stroke:#000000; stroke-width:2; stroke-opacity:0.1; fill:none" points="
  313.626,1233.08 2352.76,1233.08 
  "/>
<polyline clip-path="url(#clip242)" style="stroke:#000000; stroke-width:2; stroke-opacity:0.1; fill:none" points="
  313.626,960.986 2352.76,960.986 
  "/>
<polyline clip-path="url(#clip242)" style="stroke:#000000; stroke-width:2; stroke-opacity:0.1; fill:none" points="
  313.626,688.896 2352.76,688.896 
  "/>
<polyline clip-path="url(#clip242)" style="stroke:#000000; stroke-width:2; stroke-opacity:0.1; fill:none" points="
  313.626,416.807 2352.76,416.807 
  "/>
<polyline clip-path="url(#clip242)" style="stroke:#000000; stroke-width:2; stroke-opacity:0.1; fill:none" points="
  313.626,144.717 2352.76,144.717 
  "/>
<polyline clip-path="url(#clip240)" style="stroke:#000000; stroke-width:4; stroke-opacity:1; fill:none" points="
  313.626,1423.18 313.626,47.2441 
  "/>
<polyline clip-path="url(#clip240)" style="stroke:#000000; stroke-width:4; stroke-opacity:1; fill:none" points="
  313.626,1233.08 338.095,1233.08 
  "/>
<polyline clip-path="url(#clip240)" style="stroke:#000000; stroke-width:4; stroke-opacity:1; fill:none" points="
  313.626,960.986 338.095,960.986 
  "/>
<polyline clip-path="url(#clip240)" style="stroke:#000000; stroke-width:4; stroke-opacity:1; fill:none" points="
  313.626,688.896 338.095,688.896 
  "/>
<polyline clip-path="url(#clip240)" style="stroke:#000000; stroke-width:4; stroke-opacity:1; fill:none" points="
  313.626,416.807 338.095,416.807 
  "/>
<polyline clip-path="url(#clip240)" style="stroke:#000000; stroke-width:4; stroke-opacity:1; fill:none" points="
  313.626,144.717 338.095,144.717 
  "/>
<path clip-path="url(#clip240)" d="M 0 0 M115.74 1252.87 L123.379 1252.87 L123.379 1226.5 L115.069 1228.17 L115.069 1223.91 L123.333 1222.24 L128.009 1222.24 L128.009 1252.87 L135.647 1252.87 L135.647 1256.8 L115.74 1256.8 L115.74 1252.87 Z" fill="#000000" fill-rule="evenodd" fill-opacity="1" /><path clip-path="url(#clip240)" d="M 0 0 M155.092 1225.32 Q151.481 1225.32 149.652 1228.89 Q147.846 1232.43 147.846 1239.56 Q147.846 1246.66 149.652 1250.23 Q151.481 1253.77 155.092 1253.77 Q158.726 1253.77 160.532 1250.23 Q162.36 1246.66 162.36 1239.56 Q162.36 1232.43 160.532 1228.89 Q158.726 1225.32 155.092 1225.32 M155.092 1221.62 Q160.902 1221.62 163.958 1226.22 Q167.036 1230.81 167.036 1239.56 Q167.036 1248.28 163.958 1252.89 Q160.902 1257.47 155.092 1257.47 Q149.282 1257.47 146.203 1252.89 Q143.147 1248.28 143.147 1239.56 Q143.147 1230.81 146.203 1226.22 Q149.282 1221.62 155.092 1221.62 Z" fill="#000000" fill-rule="evenodd" fill-opacity="1" /><path clip-path="url(#clip240)" d="M 0 0 M167.036 1215.72 L191.148 1215.72 L191.148 1218.92 L167.036 1218.92 L167.036 1215.72 Z" fill="#000000" fill-rule="evenodd" fill-opacity="1" /><path clip-path="url(#clip240)" d="M 0 0 M200.006 1226.2 L206.213 1226.2 L206.213 1204.77 L199.461 1206.13 L199.461 1202.67 L206.175 1201.31 L209.974 1201.31 L209.974 1226.2 L216.181 1226.2 L216.181 1229.39 L200.006 1229.39 L200.006 1226.2 Z" fill="#000000" fill-rule="evenodd" fill-opacity="1" /><path clip-path="url(#clip240)" d="M 0 0 M227.127 1226.2 L240.387 1226.2 L240.387 1229.39 L222.557 1229.39 L222.557 1226.2 Q224.72 1223.96 228.444 1220.2 Q232.186 1216.42 233.146 1215.32 Q234.97 1213.27 235.685 1211.86 Q236.418 1210.43 236.418 1209.06 Q236.418 1206.82 234.838 1205.41 Q233.277 1204 230.757 1204 Q228.97 1204 226.977 1204.62 Q225.002 1205.24 222.745 1206.5 L222.745 1202.67 Q225.039 1201.75 227.033 1201.28 Q229.027 1200.8 230.682 1200.8 Q235.045 1200.8 237.641 1202.99 Q240.236 1205.17 240.236 1208.82 Q240.236 1210.55 239.578 1212.11 Q238.938 1213.65 237.227 1215.76 Q236.757 1216.3 234.236 1218.92 Q231.716 1221.51 227.127 1226.2 Z" fill="#000000" fill-rule="evenodd" fill-opacity="1" /><path clip-path="url(#clip240)" d="M 0 0 M248.361 1224.62 L252.329 1224.62 L252.329 1229.39 L248.361 1229.39 L248.361 1224.62 Z" fill="#000000" fill-rule="evenodd" fill-opacity="1" /><path clip-path="url(#clip240)" d="M 0 0 M260.642 1201.31 L275.557 1201.31 L275.557 1204.51 L264.122 1204.51 L264.122 1211.39 Q264.949 1211.11 265.777 1210.98 Q266.605 1210.83 267.432 1210.83 Q272.134 1210.83 274.88 1213.41 Q277.626 1215.98 277.626 1220.38 Q277.626 1224.92 274.805 1227.44 Q271.984 1229.94 266.849 1229.94 Q265.081 1229.94 263.238 1229.64 Q261.414 1229.34 259.458 1228.73 L259.458 1224.92 Q261.15 1225.84 262.956 1226.29 Q264.761 1226.74 266.774 1226.74 Q270.028 1226.74 271.927 1225.03 Q273.827 1223.32 273.827 1220.38 Q273.827 1217.45 271.927 1215.74 Q270.028 1214.03 266.774 1214.03 Q265.25 1214.03 263.727 1214.37 Q262.222 1214.7 260.642 1215.42 L260.642 1201.31 Z" fill="#000000" fill-rule="evenodd" fill-opacity="1" /><path clip-path="url(#clip240)" d="M 0 0 M114.931 980.778 L122.57 980.778 L122.57 954.413 L114.26 956.079 L114.26 951.82 L122.524 950.154 L127.2 950.154 L127.2 980.778 L134.839 980.778 L134.839 984.714 L114.931 984.714 L114.931 980.778 Z" fill="#000000" fill-rule="evenodd" fill-opacity="1" /><path clip-path="url(#clip240)" d="M 0 0 M154.283 953.232 Q150.672 953.232 148.843 956.797 Q147.038 960.339 147.038 967.468 Q147.038 974.575 148.843 978.14 Q150.672 981.681 154.283 981.681 Q157.917 981.681 159.723 978.14 Q161.552 974.575 161.552 967.468 Q161.552 960.339 159.723 956.797 Q157.917 953.232 154.283 953.232 M154.283 949.529 Q160.093 949.529 163.149 954.135 Q166.227 958.718 166.227 967.468 Q166.227 976.195 163.149 980.802 Q160.093 985.385 154.283 985.385 Q148.473 985.385 145.394 980.802 Q142.339 976.195 142.339 967.468 Q142.339 958.718 145.394 954.135 Q148.473 949.529 154.283 949.529 Z" fill="#000000" fill-rule="evenodd" fill-opacity="1" /><path clip-path="url(#clip240)" d="M 0 0 M166.227 943.63 L190.339 943.63 L190.339 946.827 L166.227 946.827 L166.227 943.63 Z" fill="#000000" fill-rule="evenodd" fill-opacity="1" /><path clip-path="url(#clip240)" d="M 0 0 M199.197 954.106 L205.404 954.106 L205.404 932.684 L198.652 934.038 L198.652 930.577 L205.366 929.223 L209.166 929.223 L209.166 954.106 L215.372 954.106 L215.372 957.303 L199.197 957.303 L199.197 954.106 Z" fill="#000000" fill-rule="evenodd" fill-opacity="1" /><path clip-path="url(#clip240)" d="M 0 0 M226.318 954.106 L239.578 954.106 L239.578 957.303 L221.748 957.303 L221.748 954.106 Q223.911 951.868 227.635 948.106 Q231.378 944.326 232.337 943.235 Q234.161 941.185 234.876 939.774 Q235.609 938.345 235.609 936.972 Q235.609 934.734 234.029 933.323 Q232.468 931.913 229.948 931.913 Q228.161 931.913 226.168 932.533 Q224.193 933.154 221.936 934.414 L221.936 930.577 Q224.231 929.656 226.224 929.186 Q228.218 928.715 229.873 928.715 Q234.236 928.715 236.832 930.897 Q239.427 933.079 239.427 936.727 Q239.427 938.458 238.769 940.019 Q238.13 941.561 236.418 943.668 Q235.948 944.213 233.428 946.827 Q230.907 949.423 226.318 954.106 Z" fill="#000000" fill-rule="evenodd" fill-opacity="1" /><path clip-path="url(#clip240)" d="M 0 0 M247.552 952.526 L251.521 952.526 L251.521 957.303 L247.552 957.303 L247.552 952.526 Z" fill="#000000" fill-rule="evenodd" fill-opacity="1" /><path clip-path="url(#clip240)" d="M 0 0 M267.921 931.725 Q264.987 931.725 263.501 934.621 Q262.034 937.499 262.034 943.291 Q262.034 949.065 263.501 951.962 Q264.987 954.839 267.921 954.839 Q270.874 954.839 272.341 951.962 Q273.827 949.065 273.827 943.291 Q273.827 937.499 272.341 934.621 Q270.874 931.725 267.921 931.725 M267.921 928.715 Q272.642 928.715 275.124 932.458 Q277.626 936.182 277.626 943.291 Q277.626 950.382 275.124 954.125 Q272.642 957.849 267.921 957.849 Q263.2 957.849 260.699 954.125 Q258.216 950.382 258.216 943.291 Q258.216 936.182 260.699 932.458 Q263.2 928.715 267.921 928.715 Z" fill="#000000" fill-rule="evenodd" fill-opacity="1" /><path clip-path="url(#clip240)" d="M 0 0 M115.74 708.689 L123.379 708.689 L123.379 682.323 L115.069 683.99 L115.069 679.731 L123.333 678.064 L128.009 678.064 L128.009 708.689 L135.647 708.689 L135.647 712.624 L115.74 712.624 L115.74 708.689 Z" fill="#000000" fill-rule="evenodd" fill-opacity="1" /><path clip-path="url(#clip240)" d="M 0 0 M155.092 681.143 Q151.481 681.143 149.652 684.707 Q147.846 688.249 147.846 695.379 Q147.846 702.485 149.652 706.05 Q151.481 709.592 155.092 709.592 Q158.726 709.592 160.532 706.05 Q162.36 702.485 162.36 695.379 Q162.36 688.249 160.532 684.707 Q158.726 681.143 155.092 681.143 M155.092 677.439 Q160.902 677.439 163.958 682.045 Q167.036 686.629 167.036 695.379 Q167.036 704.105 163.958 708.712 Q160.902 713.295 155.092 713.295 Q149.282 713.295 146.203 708.712 Q143.147 704.105 143.147 695.379 Q143.147 686.629 146.203 682.045 Q149.282 677.439 155.092 677.439 Z" fill="#000000" fill-rule="evenodd" fill-opacity="1" /><path clip-path="url(#clip240)" d="M 0 0 M167.036 671.54 L191.148 671.54 L191.148 674.738 L167.036 674.738 L167.036 671.54 Z" fill="#000000" fill-rule="evenodd" fill-opacity="1" /><path clip-path="url(#clip240)" d="M 0 0 M200.006 682.016 L206.213 682.016 L206.213 660.594 L199.461 661.948 L199.461 658.488 L206.175 657.134 L209.974 657.134 L209.974 682.016 L216.181 682.016 L216.181 685.214 L200.006 685.214 L200.006 682.016 Z" fill="#000000" fill-rule="evenodd" fill-opacity="1" /><path clip-path="url(#clip240)" d="M 0 0 M224.513 682.016 L230.719 682.016 L230.719 660.594 L223.967 661.948 L223.967 658.488 L230.682 657.134 L234.481 657.134 L234.481 682.016 L240.687 682.016 L240.687 685.214 L224.513 685.214 L224.513 682.016 Z" fill="#000000" fill-rule="evenodd" fill-opacity="1" /><path clip-path="url(#clip240)" d="M 0 0 M248.361 680.436 L252.329 680.436 L252.329 685.214 L248.361 685.214 L248.361 680.436 Z" fill="#000000" fill-rule="evenodd" fill-opacity="1" /><path clip-path="url(#clip240)" d="M 0 0 M260.642 657.134 L275.557 657.134 L275.557 660.331 L264.122 660.331 L264.122 667.215 Q264.949 666.932 265.777 666.801 Q266.605 666.65 267.432 666.65 Q272.134 666.65 274.88 669.227 Q277.626 671.804 277.626 676.205 Q277.626 680.737 274.805 683.258 Q271.984 685.759 266.849 685.759 Q265.081 685.759 263.238 685.458 Q261.414 685.157 259.458 684.555 L259.458 680.737 Q261.15 681.659 262.956 682.11 Q264.761 682.562 266.774 682.562 Q270.028 682.562 271.927 680.85 Q273.827 679.139 273.827 676.205 Q273.827 673.271 271.927 671.559 Q270.028 669.848 266.774 669.848 Q265.25 669.848 263.727 670.186 Q262.222 670.525 260.642 671.239 L260.642 657.134 Z" fill="#000000" fill-rule="evenodd" fill-opacity="1" /><path clip-path="url(#clip240)" d="M 0 0 M114.931 436.599 L122.57 436.599 L122.57 410.234 L114.26 411.9 L114.26 407.641 L122.524 405.974 L127.2 405.974 L127.2 436.599 L134.839 436.599 L134.839 440.534 L114.931 440.534 L114.931 436.599 Z" fill="#000000" fill-rule="evenodd" fill-opacity="1" /><path clip-path="url(#clip240)" d="M 0 0 M154.283 409.053 Q150.672 409.053 148.843 412.618 Q147.038 416.16 147.038 423.289 Q147.038 430.396 148.843 433.96 Q150.672 437.502 154.283 437.502 Q157.917 437.502 159.723 433.96 Q161.552 430.396 161.552 423.289 Q161.552 416.16 159.723 412.618 Q157.917 409.053 154.283 409.053 M154.283 405.349 Q160.093 405.349 163.149 409.956 Q166.227 414.539 166.227 423.289 Q166.227 432.016 163.149 436.622 Q160.093 441.206 154.283 441.206 Q148.473 441.206 145.394 436.622 Q142.339 432.016 142.339 423.289 Q142.339 414.539 145.394 409.956 Q148.473 405.349 154.283 405.349 Z" fill="#000000" fill-rule="evenodd" fill-opacity="1" /><path clip-path="url(#clip240)" d="M 0 0 M166.227 399.451 L190.339 399.451 L190.339 402.648 L166.227 402.648 L166.227 399.451 Z" fill="#000000" fill-rule="evenodd" fill-opacity="1" /><path clip-path="url(#clip240)" d="M 0 0 M199.197 409.927 L205.404 409.927 L205.404 388.505 L198.652 389.859 L198.652 386.398 L205.366 385.044 L209.166 385.044 L209.166 409.927 L215.372 409.927 L215.372 413.124 L199.197 413.124 L199.197 409.927 Z" fill="#000000" fill-rule="evenodd" fill-opacity="1" /><path clip-path="url(#clip240)" d="M 0 0 M223.704 409.927 L229.911 409.927 L229.911 388.505 L223.159 389.859 L223.159 386.398 L229.873 385.044 L233.672 385.044 L233.672 409.927 L239.879 409.927 L239.879 413.124 L223.704 413.124 L223.704 409.927 Z" fill="#000000" fill-rule="evenodd" fill-opacity="1" /><path clip-path="url(#clip240)" d="M 0 0 M247.552 408.347 L251.521 408.347 L251.521 413.124 L247.552 413.124 L247.552 408.347 Z" fill="#000000" fill-rule="evenodd" fill-opacity="1" /><path clip-path="url(#clip240)" d="M 0 0 M267.921 387.545 Q264.987 387.545 263.501 390.442 Q262.034 393.319 262.034 399.112 Q262.034 404.886 263.501 407.783 Q264.987 410.66 267.921 410.66 Q270.874 410.66 272.341 407.783 Q273.827 404.886 273.827 399.112 Q273.827 393.319 272.341 390.442 Q270.874 387.545 267.921 387.545 M267.921 384.536 Q272.642 384.536 275.124 388.279 Q277.626 392.003 277.626 399.112 Q277.626 406.203 275.124 409.945 Q272.642 413.669 267.921 413.669 Q263.2 413.669 260.699 409.945 Q258.216 406.203 258.216 399.112 Q258.216 392.003 260.699 388.279 Q263.2 384.536 267.921 384.536 Z" fill="#000000" fill-rule="evenodd" fill-opacity="1" /><path clip-path="url(#clip240)" d="M 0 0 M115.74 164.51 L123.379 164.51 L123.379 138.144 L115.069 139.811 L115.069 135.551 L123.333 133.885 L128.009 133.885 L128.009 164.51 L135.647 164.51 L135.647 168.445 L115.74 168.445 L115.74 164.51 Z" fill="#000000" fill-rule="evenodd" fill-opacity="1" /><path clip-path="url(#clip240)" d="M 0 0 M155.092 136.963 Q151.481 136.963 149.652 140.528 Q147.846 144.07 147.846 151.199 Q147.846 158.306 149.652 161.871 Q151.481 165.412 155.092 165.412 Q158.726 165.412 160.532 161.871 Q162.36 158.306 162.36 151.199 Q162.36 144.07 160.532 140.528 Q158.726 136.963 155.092 136.963 M155.092 133.26 Q160.902 133.26 163.958 137.866 Q167.036 142.45 167.036 151.199 Q167.036 159.926 163.958 164.533 Q160.902 169.116 155.092 169.116 Q149.282 169.116 146.203 164.533 Q143.147 159.926 143.147 151.199 Q143.147 142.45 146.203 137.866 Q149.282 133.26 155.092 133.26 Z" fill="#000000" fill-rule="evenodd" fill-opacity="1" /><path clip-path="url(#clip240)" d="M 0 0 M167.036 127.361 L191.148 127.361 L191.148 130.558 L167.036 130.558 L167.036 127.361 Z" fill="#000000" fill-rule="evenodd" fill-opacity="1" /><path clip-path="url(#clip240)" d="M 0 0 M200.006 137.837 L206.213 137.837 L206.213 116.415 L199.461 117.769 L199.461 114.309 L206.175 112.954 L209.974 112.954 L209.974 137.837 L216.181 137.837 L216.181 141.034 L200.006 141.034 L200.006 137.837 Z" fill="#000000" fill-rule="evenodd" fill-opacity="1" /><path clip-path="url(#clip240)" d="M 0 0 M231.979 115.456 Q229.045 115.456 227.56 118.352 Q226.093 121.23 226.093 127.023 Q226.093 132.797 227.56 135.693 Q229.045 138.571 231.979 138.571 Q234.932 138.571 236.399 135.693 Q237.885 132.797 237.885 127.023 Q237.885 121.23 236.399 118.352 Q234.932 115.456 231.979 115.456 M231.979 112.447 Q236.7 112.447 239.183 116.189 Q241.684 119.913 241.684 127.023 Q241.684 134.113 239.183 137.856 Q236.7 141.58 231.979 141.58 Q227.259 141.58 224.757 137.856 Q222.275 134.113 222.275 127.023 Q222.275 119.913 224.757 116.189 Q227.259 112.447 231.979 112.447 Z" fill="#000000" fill-rule="evenodd" fill-opacity="1" /><path clip-path="url(#clip240)" d="M 0 0 M248.361 136.257 L252.329 136.257 L252.329 141.034 L248.361 141.034 L248.361 136.257 Z" fill="#000000" fill-rule="evenodd" fill-opacity="1" /><path clip-path="url(#clip240)" d="M 0 0 M260.642 112.954 L275.557 112.954 L275.557 116.152 L264.122 116.152 L264.122 123.035 Q264.949 122.753 265.777 122.622 Q266.605 122.471 267.432 122.471 Q272.134 122.471 274.88 125.048 Q277.626 127.624 277.626 132.025 Q277.626 136.558 274.805 139.078 Q271.984 141.58 266.849 141.58 Q265.081 141.58 263.238 141.279 Q261.414 140.978 259.458 140.376 L259.458 136.558 Q261.15 137.48 262.956 137.931 Q264.761 138.382 266.774 138.382 Q270.028 138.382 271.927 136.671 Q273.827 134.959 273.827 132.025 Q273.827 129.091 271.927 127.38 Q270.028 125.668 266.774 125.668 Q265.25 125.668 263.727 126.007 Q262.222 126.346 260.642 127.06 L260.642 112.954 Z" fill="#000000" fill-rule="evenodd" fill-opacity="1" /><path clip-path="url(#clip240)" d="M 0 0 M18.0438 1021.16 L24.314 1021.16 Q22.5634 1024.82 21.704 1028.07 Q20.8447 1031.31 20.8447 1034.34 Q20.8447 1039.59 22.8817 1042.45 Q24.9187 1045.29 28.6745 1045.29 Q31.8255 1045.29 33.4488 1043.41 Q35.0402 1041.5 36.0269 1036.21 L36.8226 1032.33 Q38.1912 1025.14 41.6605 1021.73 Q45.098 1018.29 50.8908 1018.29 Q57.7976 1018.29 61.3624 1022.94 Q64.9272 1027.56 64.9272 1036.5 Q64.9272 1039.87 64.1633 1043.69 Q63.3994 1047.48 61.9035 1051.56 L55.2831 1051.56 Q57.4793 1047.64 58.5933 1043.89 Q59.7073 1040.13 59.7073 1036.5 Q59.7073 1030.99 57.543 1028 Q55.3786 1025.01 51.3682 1025.01 Q47.8671 1025.01 45.8937 1027.18 Q43.9204 1029.31 42.9337 1034.21 L42.1698 1038.12 Q40.7375 1045.32 37.682 1048.53 Q34.6264 1051.75 29.1837 1051.75 Q22.8817 1051.75 19.2532 1047.32 Q15.6248 1042.87 15.6248 1035.07 Q15.6248 1031.73 16.2295 1028.26 Q16.8343 1024.79 18.0438 1021.16 Z" fill="#000000" fill-rule="evenodd" fill-opacity="1" /><path clip-path="url(#clip240)" d="M 0 0 M29.7248 982.87 L35.1993 982.87 Q33.8307 985.352 33.1623 987.867 Q32.4621 990.349 32.4621 992.896 Q32.4621 998.593 36.0905 1001.74 Q39.6872 1004.9 46.212 1004.9 Q52.7369 1004.9 56.3653 1001.74 Q59.9619 998.593 59.9619 992.896 Q59.9619 990.349 59.2935 987.867 Q58.5933 985.352 57.2247 982.87 L62.6355 982.87 Q63.7814 985.321 64.3543 987.962 Q64.9272 990.572 64.9272 993.532 Q64.9272 1001.58 59.8664 1006.33 Q54.8057 1011.07 46.212 1011.07 Q37.491 1011.07 32.4939 1006.3 Q27.4968 1001.49 27.4968 993.15 Q27.4968 990.445 28.0697 987.867 Q28.6108 985.289 29.7248 982.87 Z" fill="#000000" fill-rule="evenodd" fill-opacity="1" /><path clip-path="url(#clip240)" d="M 0 0 M46.0847 956.484 Q46.0847 963.582 47.7079 966.319 Q49.3312 969.056 53.2461 969.056 Q56.3653 969.056 58.2114 967.019 Q60.0256 964.95 60.0256 961.417 Q60.0256 956.548 56.5881 953.619 Q53.1188 950.659 47.3897 950.659 L46.0847 950.659 L46.0847 956.484 M43.6657 944.803 L64.0042 944.803 L64.0042 950.659 L58.5933 950.659 Q61.8398 952.665 63.3994 955.656 Q64.9272 958.648 64.9272 962.977 Q64.9272 968.451 61.8716 971.698 Q58.7843 974.913 53.6281 974.913 Q47.6125 974.913 44.5569 970.902 Q41.5014 966.86 41.5014 958.871 L41.5014 950.659 L40.9285 950.659 Q36.8862 950.659 34.6901 953.333 Q32.4621 955.975 32.4621 960.781 Q32.4621 963.836 33.1941 966.733 Q33.9262 969.629 35.3903 972.303 L29.9795 972.303 Q28.7381 969.088 28.1334 966.064 Q27.4968 963.041 27.4968 960.176 Q27.4968 952.442 31.5072 948.622 Q35.5176 944.803 43.6657 944.803 Z" fill="#000000" fill-rule="evenodd" fill-opacity="1" /><path clip-path="url(#clip240)" d="M 0 0 M18.2347 926.947 L28.3562 926.947 L28.3562 914.884 L32.9077 914.884 L32.9077 926.947 L52.2594 926.947 Q56.6199 926.947 57.8613 925.769 Q59.1026 924.56 59.1026 920.9 L59.1026 914.884 L64.0042 914.884 L64.0042 920.9 Q64.0042 927.679 61.4897 930.257 Q58.9434 932.835 52.2594 932.835 L32.9077 932.835 L32.9077 937.132 L28.3562 937.132 L28.3562 932.835 L18.2347 932.835 L18.2347 926.947 Z" fill="#000000" fill-rule="evenodd" fill-opacity="1" /><path clip-path="url(#clip240)" d="M 0 0 M18.2347 901.389 L28.3562 901.389 L28.3562 889.326 L32.9077 889.326 L32.9077 901.389 L52.2594 901.389 Q56.6199 901.389 57.8613 900.211 Q59.1026 899.002 59.1026 895.341 L59.1026 889.326 L64.0042 889.326 L64.0042 895.341 Q64.0042 902.121 61.4897 904.699 Q58.9434 907.277 52.2594 907.277 L32.9077 907.277 L32.9077 911.574 L28.3562 911.574 L28.3562 907.277 L18.2347 907.277 L18.2347 901.389 Z" fill="#000000" fill-rule="evenodd" fill-opacity="1" /><path clip-path="url(#clip240)" d="M 0 0 M44.7161 851.131 L47.5806 851.131 L47.5806 878.058 Q53.6281 877.676 56.8109 874.43 Q59.9619 871.152 59.9619 865.327 Q59.9619 861.953 59.1344 858.802 Q58.3069 855.619 56.6518 852.5 L62.1899 852.5 Q63.5267 855.651 64.227 858.961 Q64.9272 862.271 64.9272 865.677 Q64.9272 874.207 59.9619 879.204 Q54.9967 884.17 46.5303 884.17 Q37.7774 884.17 32.6531 879.459 Q27.4968 874.716 27.4968 866.696 Q27.4968 859.502 32.1438 855.333 Q36.7589 851.131 44.7161 851.131 M42.9973 856.988 Q38.1912 857.052 35.3266 859.693 Q32.4621 862.303 32.4621 866.632 Q32.4621 871.534 35.2312 874.494 Q38.0002 877.422 43.0292 877.867 L42.9973 856.988 Z" fill="#000000" fill-rule="evenodd" fill-opacity="1" /><path clip-path="url(#clip240)" d="M 0 0 M33.8307 820.863 Q33.2578 821.849 33.0032 823.027 Q32.7167 824.173 32.7167 825.573 Q32.7167 830.538 35.9632 833.212 Q39.1779 835.854 45.2253 835.854 L64.0042 835.854 L64.0042 841.742 L28.3562 841.742 L28.3562 835.854 L33.8944 835.854 Q30.6479 834.008 29.0883 831.048 Q27.4968 828.088 27.4968 823.854 Q27.4968 823.25 27.5923 822.518 Q27.656 821.786 27.8151 820.894 L33.8307 820.863 Z" fill="#000000" fill-rule="evenodd" fill-opacity="1" /><path clip-path="url(#clip240)" d="M 0 0 M28.3562 814.72 L28.3562 808.863 L64.0042 808.863 L64.0042 814.72 L28.3562 814.72 M14.479 814.72 L14.479 808.863 L21.895 808.863 L21.895 814.72 L14.479 814.72 Z" fill="#000000" fill-rule="evenodd" fill-opacity="1" /><path clip-path="url(#clip240)" d="M 0 0 M42.4881 766.977 L64.0042 766.977 L64.0042 772.833 L42.679 772.833 Q37.6183 772.833 35.1038 774.807 Q32.5894 776.78 32.5894 780.727 Q32.5894 785.469 35.6131 788.206 Q38.6368 790.944 43.8567 790.944 L64.0042 790.944 L64.0042 796.832 L28.3562 796.832 L28.3562 790.944 L33.8944 790.944 Q30.6797 788.843 29.0883 786.01 Q27.4968 783.146 27.4968 779.422 Q27.4968 773.279 31.3163 770.128 Q35.1038 766.977 42.4881 766.977 Z" fill="#000000" fill-rule="evenodd" fill-opacity="1" /><path clip-path="url(#clip240)" d="M 0 0 M45.7664 731.838 Q39.4007 731.838 35.8996 734.48 Q32.3984 737.09 32.3984 741.832 Q32.3984 746.543 35.8996 749.185 Q39.4007 751.795 45.7664 751.795 Q52.1003 751.795 55.6014 749.185 Q59.1026 746.543 59.1026 741.832 Q59.1026 737.09 55.6014 734.48 Q52.1003 731.838 45.7664 731.838 M59.58 725.982 Q68.683 725.982 73.1071 730.024 Q77.5631 734.066 77.5631 742.405 Q77.5631 745.493 77.0857 748.23 Q76.6401 750.967 75.6852 753.545 L69.9879 753.545 Q71.3884 750.967 72.0568 748.453 Q72.7252 745.938 72.7252 743.328 Q72.7252 737.567 69.7015 734.703 Q66.7096 731.838 60.6303 731.838 L57.7339 731.838 Q60.885 733.652 62.4446 736.485 Q64.0042 739.318 64.0042 743.265 Q64.0042 749.821 59.0071 753.832 Q54.01 757.842 45.7664 757.842 Q37.491 757.842 32.4939 753.832 Q27.4968 749.821 27.4968 743.265 Q27.4968 739.318 29.0564 736.485 Q30.616 733.652 33.7671 731.838 L28.3562 731.838 L28.3562 725.982 L59.58 725.982 Z" fill="#000000" fill-rule="evenodd" fill-opacity="1" /><path clip-path="url(#clip240)" d="M 0 0 M28.3562 693.198 L28.3562 687.342 L64.0042 687.342 L64.0042 693.198 L28.3562 693.198 M14.479 693.198 L14.479 687.342 L21.895 687.342 L21.895 693.198 L14.479 693.198 Z" fill="#000000" fill-rule="evenodd" fill-opacity="1" /><path clip-path="url(#clip240)" d="M 0 0 M42.4881 645.456 L64.0042 645.456 L64.0042 651.312 L42.679 651.312 Q37.6183 651.312 35.1038 653.285 Q32.5894 655.259 32.5894 659.205 Q32.5894 663.948 35.6131 666.685 Q38.6368 669.422 43.8567 669.422 L64.0042 669.422 L64.0042 675.311 L28.3562 675.311 L28.3562 669.422 L33.8944 669.422 Q30.6797 667.322 29.0883 664.489 Q27.4968 661.624 27.4968 657.9 Q27.4968 651.758 31.3163 648.607 Q35.1038 645.456 42.4881 645.456 Z" fill="#000000" fill-rule="evenodd" fill-opacity="1" /><path clip-path="url(#clip240)" d="M 0 0 M18.2347 627.982 L28.3562 627.982 L28.3562 615.919 L32.9077 615.919 L32.9077 627.982 L52.2594 627.982 Q56.6199 627.982 57.8613 626.804 Q59.1026 625.595 59.1026 621.934 L59.1026 615.919 L64.0042 615.919 L64.0042 621.934 Q64.0042 628.714 61.4897 631.292 Q58.9434 633.87 52.2594 633.87 L32.9077 633.87 L32.9077 638.167 L28.3562 638.167 L28.3562 633.87 L18.2347 633.87 L18.2347 627.982 Z" fill="#000000" fill-rule="evenodd" fill-opacity="1" /><path clip-path="url(#clip240)" d="M 0 0 M44.7161 577.724 L47.5806 577.724 L47.5806 604.651 Q53.6281 604.269 56.8109 601.023 Q59.9619 597.745 59.9619 591.92 Q59.9619 588.546 59.1344 585.395 Q58.3069 582.212 56.6518 579.093 L62.1899 579.093 Q63.5267 582.244 64.227 585.554 Q64.9272 588.864 64.9272 592.27 Q64.9272 600.8 59.9619 605.797 Q54.9967 610.762 46.5303 610.762 Q37.7774 610.762 32.6531 606.052 Q27.4968 601.309 27.4968 593.289 Q27.4968 586.095 32.1438 581.926 Q36.7589 577.724 44.7161 577.724 M42.9973 583.581 Q38.1912 583.644 35.3266 586.286 Q32.4621 588.896 32.4621 593.225 Q32.4621 598.126 35.2312 601.087 Q38.0002 604.015 43.0292 604.46 L42.9973 583.581 Z" fill="#000000" fill-rule="evenodd" fill-opacity="1" /><path clip-path="url(#clip240)" d="M 0 0 M42.4881 538.48 L64.0042 538.48 L64.0042 544.336 L42.679 544.336 Q37.6183 544.336 35.1038 546.31 Q32.5894 548.283 32.5894 552.23 Q32.5894 556.972 35.6131 559.709 Q38.6368 562.447 43.8567 562.447 L64.0042 562.447 L64.0042 568.335 L28.3562 568.335 L28.3562 562.447 L33.8944 562.447 Q30.6797 560.346 29.0883 557.513 Q27.4968 554.649 27.4968 550.925 Q27.4968 544.782 31.3163 541.631 Q35.1038 538.48 42.4881 538.48 Z" fill="#000000" fill-rule="evenodd" fill-opacity="1" /><path clip-path="url(#clip240)" d="M 0 0 M29.4065 504.073 L34.9447 504.073 Q33.6716 506.556 33.035 509.229 Q32.3984 511.903 32.3984 514.768 Q32.3984 519.128 33.7352 521.324 Q35.072 523.489 37.7456 523.489 Q39.7826 523.489 40.9603 521.929 Q42.1061 520.369 43.1565 515.659 L43.6021 513.654 Q44.9389 507.415 47.3897 504.805 Q49.8086 502.163 54.1691 502.163 Q59.1344 502.163 62.0308 506.11 Q64.9272 510.025 64.9272 516.9 Q64.9272 519.765 64.3543 522.884 Q63.8132 525.971 62.6992 529.409 L56.6518 529.409 Q58.3387 526.162 59.198 523.011 Q60.0256 519.86 60.0256 516.773 Q60.0256 512.635 58.6251 510.407 Q57.1929 508.179 54.6147 508.179 Q52.2276 508.179 50.9545 509.802 Q49.6813 511.394 48.5037 516.836 L48.0262 518.873 Q46.8804 524.316 44.5251 526.735 Q42.138 529.154 38.0002 529.154 Q32.9713 529.154 30.2341 525.589 Q27.4968 522.024 27.4968 515.468 Q27.4968 512.221 27.9743 509.357 Q28.4517 506.492 29.4065 504.073 Z" fill="#000000" fill-rule="evenodd" fill-opacity="1" /><path clip-path="url(#clip240)" d="M 0 0 M28.3562 492.838 L28.3562 486.981 L64.0042 486.981 L64.0042 492.838 L28.3562 492.838 M14.479 492.838 L14.479 486.981 L21.895 486.981 L21.895 492.838 L14.479 492.838 Z" fill="#000000" fill-rule="evenodd" fill-opacity="1" /><path clip-path="url(#clip240)" d="M 0 0 M18.2347 468.934 L28.3562 468.934 L28.3562 456.871 L32.9077 456.871 L32.9077 468.934 L52.2594 468.934 Q56.6199 468.934 57.8613 467.757 Q59.1026 466.547 59.1026 462.887 L59.1026 456.871 L64.0042 456.871 L64.0042 462.887 Q64.0042 469.667 61.4897 472.245 Q58.9434 474.823 52.2594 474.823 L32.9077 474.823 L32.9077 479.12 L28.3562 479.12 L28.3562 474.823 L18.2347 474.823 L18.2347 468.934 Z" fill="#000000" fill-rule="evenodd" fill-opacity="1" /><path clip-path="url(#clip240)" d="M 0 0 M67.3143 434.337 Q73.68 436.819 75.6216 439.175 Q77.5631 441.53 77.5631 445.477 L77.5631 450.156 L72.6615 450.156 L72.6615 446.718 Q72.6615 444.299 71.5157 442.962 Q70.3699 441.626 66.1048 440.002 L63.4312 438.952 L28.3562 453.37 L28.3562 447.164 L56.238 436.024 L28.3562 424.884 L28.3562 418.677 L67.3143 434.337 Z" fill="#000000" fill-rule="evenodd" fill-opacity="1" /><polyline clip-path="url(#clip242)" style="stroke:#009af9; stroke-width:8; stroke-opacity:1; fill:none" points="
  371.337,921.059 394.685,900.81 417.725,881.78 440.466,866.092 462.915,854.755 485.081,847.453 506.969,843.125 528.587,840.603 549.941,838.915 571.038,837.265 
  591.884,834.895 612.485,830.924 632.846,824.287 652.973,813.925 672.871,799.428 692.546,782.044 712.002,764.976 731.244,751.827 750.278,744.317 769.106,741.838 
  787.734,742.776 806.166,745.708 824.406,749.717 842.459,754.195 860.326,758.517 878.014,761.728 895.524,762.269 912.861,757.985 930.028,747.036 947.029,730.257 
  963.866,712.849 980.543,701.26 997.062,697.805 1013.43,700.525 1029.64,706.689 1045.7,714.721 1061.62,724.095 1077.4,734.612 1093.03,745.814 1108.53,756.506 
  1123.89,764.239 1139.12,764.929 1154.21,754.21 1169.18,732.961 1184.02,711.944 1198.73,702.585 1213.32,705.114 1227.79,713.272 1242.15,722.759 1256.38,732.908 
  1270.5,744.724 1284.51,758.925 1298.41,774.935 1312.2,790.397 1325.88,800.494 1339.45,797.478 1352.92,774.419 1366.29,738.136 1379.55,712.903 1392.72,710.806 
  1405.79,719.641 1418.76,726.247 1431.63,728.063 1444.41,729.141 1457.1,733.633 1469.7,742.258 1482.21,752.3 1494.63,758.625 1506.96,754.078 1519.2,730.45 
  1531.36,685.721 1543.44,640.664 1555.43,626.741 1567.34,634.848 1579.18,637.273 1590.93,626.374 1602.6,609.736 1614.2,597.283 1625.72,593.102 1637.16,594.431 
  1648.53,595.652 1659.83,591.287 1671.05,576.071 1682.21,544.444 1693.29,497.938 1704.3,467.247 1715.25,473.85 1726.12,482.02 1736.93,472.526 1747.67,450.147 
  1758.35,426.609 1768.96,412.63 1779.51,409.834 1790,411.79 1800.42,412.115 1810.78,407.039 1821.08,392.923 1831.32,363.663 1841.5,322.879 1851.62,316.006 
  1861.69,333.853 1871.69,336.438 1881.64,322.156 1891.53,297.404 1901.37,273.533 1911.15,263.364 1920.88,265.768 1930.56,270.545 1940.18,272.172 1949.75,268.866 
  1959.26,257.197 1968.73,227.713 1978.14,196.301 1987.51,215.699 1996.82,231.802 2006.08,230.968 2015.3,216.857 2024.47,191.85 2033.59,168.608 2042.66,165.148 
  2051.69,173.591 2060.67,180.65 2069.6,183.668 2078.49,182.26 2087.33,170.887 2096.13,133.277 2104.89,132.306 2113.6,160.316 2122.27,170.749 2130.89,169.746 
  2139.48,156.896 2148.02,129.842 2156.52,108.722 2164.98,116.287 2173.4,129.357 2181.77,137.476 2190.11,141.855 2198.41,141.842 2206.67,123.137 2214.89,86.1857 
  2223.07,123.509 2231.22,142.611 2239.33,150.376 2247.39,150.051 2255.43,135.877 2263.42,101.284 2271.38,91.5217 2279.3,111.032 2287.19,124.482 2295.04,132.566 
  
  "/>
<polyline clip-path="url(#clip242)" style="stroke:#e26f46; stroke-width:8; stroke-opacity:1; fill:none" points="
  371.337,1082.41 394.685,1066.79 417.725,1049.92 440.466,1031.9 462.915,1013 485.081,993.693 506.969,974.623 528.587,956.501 549.941,939.967 571.038,925.458 
  591.884,913.12 612.485,902.823 632.846,894.234 652.973,886.918 672.871,880.423 692.546,874.323 712.002,868.232 731.244,861.795 750.278,854.677 769.106,846.547 
  787.734,837.103 806.166,826.1 824.406,813.435 842.459,799.258 860.326,784.063 878.014,768.697 895.524,754.204 912.861,741.543 930.028,731.31 947.029,723.62 
  963.866,718.195 980.543,714.543 997.062,712.138 1013.43,710.509 1029.64,709.259 1045.7,708.048 1061.62,706.55 1077.4,704.408 1093.03,701.207 1108.53,696.467 
  1123.89,689.7 1139.12,680.55 1154.21,669.055 1169.18,655.902 1184.02,642.477 1198.73,630.49 1213.32,621.297 1227.79,615.427 1242.15,612.607 1256.38,612.149 
  1270.5,613.327 1284.51,615.567 1298.41,618.473 1312.2,621.765 1325.88,625.199 1339.45,628.479 1352.92,631.185 1366.29,632.694 1379.55,632.155 1392.72,628.559 
  1405.79,621.087 1418.76,609.771 1431.63,596.149 1444.41,583.131 1457.1,573.576 1469.7,568.795 1482.21,568.357 1494.63,571.003 1506.96,575.558 1519.2,581.289 
  1531.36,587.867 1543.44,595.18 1555.43,603.148 1567.34,611.588 1579.18,620.1 1590.93,627.938 1602.6,633.87 1614.2,636.084 1625.72,632.447 1637.16,621.635 
  1648.53,605.127 1659.83,588.056 1671.05,576.374 1682.21,572.6 1693.29,575.145 1704.3,581.028 1715.25,588.051 1726.12,595.389 1736.93,603.19 1747.67,611.963 
  1758.35,622.094 1768.96,633.572 1779.51,645.869 1790,657.819 1800.42,667.43 1810.78,671.667 1821.08,666.695 1831.32,649.728 1841.5,623.128 1851.62,596.795 
  1861.69,581.798 1871.69,580.418 1881.64,586.526 1891.53,593.208 1901.37,597.077 1911.15,598.297 1920.88,598.851 1930.56,600.846 1940.18,605.355 1949.75,612.141 
  1959.26,619.887 1968.73,626.477 1978.14,629.118 1987.51,624.36 1996.82,608.492 2006.08,579.512 2015.3,541.816 2024.47,509.676 2033.59,497.069 2042.66,500.937 
  2051.69,507.35 2060.67,507.132 2069.6,499.07 2078.49,486.655 2087.33,474.67 2096.13,466.629 2104.89,463.496 2113.6,463.94 2122.27,465.538 2130.89,465.744 
  2139.48,462.245 2148.02,452.75 2156.52,434.736 2164.98,406.192 2173.4,370.095 2181.77,341.939 2190.11,337.748 2198.41,347.316 2206.67,352.303 2214.89,346.624 
  2223.07,332.108 2231.22,313.402 2239.33,296.1 2247.39,284.701 2255.43,280.298 2263.42,280.59 2271.38,282.222 2279.3,282.629 2287.19,280.2 2295.04,273.541 
  
  "/>
<polyline clip-path="url(#clip242)" style="stroke:#3da44d; stroke-width:8; stroke-opacity:1; fill:none" points="
  371.337,1384.24 394.685,1369.22 417.725,1354.29 440.466,1339.35 462.915,1324.29 485.081,1309.05 506.969,1293.56 528.587,1277.78 549.941,1261.68 571.038,1245.25 
  591.884,1228.51 612.485,1211.49 632.846,1194.24 652.973,1176.84 672.871,1159.39 692.546,1142 712.002,1124.81 731.244,1107.97 750.278,1091.6 769.106,1075.85 
  787.734,1060.84 806.166,1046.66 824.406,1033.35 842.459,1020.94 860.326,1009.4 878.014,998.681 895.524,988.69 912.861,979.323 930.028,970.457 947.029,961.967 
  963.866,953.722 980.543,945.599 997.062,937.476 1013.43,929.241 1029.64,920.786 1045.7,912.022 1061.62,902.864 1077.4,893.241 1093.03,883.101 1108.53,872.411 
  1123.89,861.166 1139.12,849.391 1154.21,837.149 1169.18,824.541 1184.02,811.708 1198.73,798.829 1213.32,786.105 1227.79,773.75 1242.15,761.97 1256.38,750.94 
  1270.5,740.793 1284.51,731.601 1298.41,723.378 1312.2,716.083 1325.88,709.633 1339.45,703.914 1352.92,698.795 1366.29,694.14 1379.55,689.817 1392.72,685.699 
  1405.79,681.667 1418.76,677.612 1431.63,673.428 1444.41,669.015 1457.1,664.274 1469.7,659.108 1482.21,653.421 1494.63,647.129 1506.96,640.157 1519.2,632.454 
  1531.36,624.008 1543.44,614.863 1555.43,605.127 1567.34,594.984 1579.18,584.688 1590.93,574.542 1602.6,564.864 1614.2,555.946 1625.72,548.009 1637.16,541.185 
  1648.53,535.507 1659.83,530.92 1671.05,527.311 1682.21,524.53 1693.29,522.419 1704.3,520.823 1715.25,519.603 1726.12,518.633 1736.93,517.805 1747.67,517.019 
  1758.35,516.177 1768.96,515.184 1779.51,513.933 1790,512.31 1800.42,510.183 1810.78,507.41 1821.08,503.841 1831.32,499.336 1841.5,493.782 1851.62,487.137 
  1861.69,479.463 1871.69,470.963 1881.64,461.987 1891.53,453.01 1901.37,444.552 1911.15,437.087 1920.88,430.951 1930.56,426.298 1940.18,423.11 1949.75,421.242 
  1959.26,420.48 1968.73,420.6 1978.14,421.394 1987.51,422.693 1996.82,424.364 2006.08,426.305 2015.3,428.436 2024.47,430.684 2033.59,432.978 2042.66,435.23 
  2051.69,437.334 2060.67,439.147 2069.6,440.487 2078.49,441.123 2087.33,440.779 2096.13,439.151 2104.89,435.947 2113.6,430.966 2122.27,424.2 2130.89,415.943 
  2139.48,406.815 2148.02,397.713 2156.52,389.588 2164.98,383.197 2173.4,378.933 2181.77,376.8 2190.11,376.528 2198.41,377.726 2206.67,380.005 2214.89,383.052 
  2223.07,386.654 2231.22,390.681 2239.33,395.068 2247.39,399.785 2255.43,404.815 2263.42,410.13 2271.38,415.677 2279.3,421.367 2287.19,427.052 2295.04,432.516 
  
  "/>
<path clip-path="url(#clip240)" d="
M381.597 335.029 L882.425 335.029 L882.425 93.1086 L381.597 93.1086  Z
  " fill="#ffffff" fill-rule="evenodd" fill-opacity="1"/>
<polyline clip-path="url(#clip240)" style="stroke:#000000; stroke-width:4; stroke-opacity:1; fill:none" points="
  381.597,335.029 882.425,335.029 882.425,93.1086 381.597,93.1086 381.597,335.029 
  "/>
<polyline clip-path="url(#clip240)" style="stroke:#009af9; stroke-width:4; stroke-opacity:1; fill:none" points="
  404.254,153.589 540.196,153.589 
  "/>
<path clip-path="url(#clip240)" d="M 0 0 M576.117 138.901 L588.084 170.869 L583.57 170.869 L576.302 151.702 L567.367 170.869 L562.853 170.869 L574.219 146.008 L572.506 141.424 Q571.418 138.508 568.941 138.508 L566.719 138.508 L566.719 134.85 L569.427 134.897 Q574.658 134.966 576.117 138.901 Z" fill="#000000" fill-rule="evenodd" fill-opacity="1" /><path clip-path="url(#clip240)" d="M 0 0 M609.589 149.341 L639.265 149.341 L639.265 153.23 L609.589 153.23 L609.589 149.341 M609.589 158.785 L639.265 158.785 L639.265 162.721 L609.589 162.721 L609.589 158.785 Z" fill="#000000" fill-rule="evenodd" fill-opacity="1" /><path clip-path="url(#clip240)" d="M 0 0 M678.593 152.234 Q681.949 152.952 683.824 155.221 Q685.723 157.489 685.723 160.822 Q685.723 165.938 682.204 168.739 Q678.686 171.54 672.204 171.54 Q670.028 171.54 667.713 171.1 Q665.422 170.683 662.968 169.827 L662.968 165.313 Q664.913 166.447 667.227 167.026 Q669.542 167.605 672.065 167.605 Q676.463 167.605 678.755 165.869 Q681.07 164.133 681.07 160.822 Q681.07 157.767 678.917 156.054 Q676.787 154.318 672.968 154.318 L668.94 154.318 L668.94 150.475 L673.153 150.475 Q676.602 150.475 678.431 149.109 Q680.26 147.721 680.26 145.128 Q680.26 142.466 678.362 141.054 Q676.487 139.619 672.968 139.619 Q671.047 139.619 668.848 140.035 Q666.649 140.452 664.01 141.332 L664.01 137.165 Q666.672 136.424 668.987 136.054 Q671.325 135.684 673.385 135.684 Q678.709 135.684 681.811 138.114 Q684.912 140.522 684.912 144.642 Q684.912 147.512 683.269 149.503 Q681.625 151.471 678.593 152.234 Z" fill="#000000" fill-rule="evenodd" fill-opacity="1" /><path clip-path="url(#clip240)" d="M 0 0 M704.588 154.457 Q701.255 154.457 699.334 156.239 Q697.436 158.021 697.436 161.146 Q697.436 164.271 699.334 166.054 Q701.255 167.836 704.588 167.836 Q707.922 167.836 709.843 166.054 Q711.764 164.248 711.764 161.146 Q711.764 158.021 709.843 156.239 Q707.945 154.457 704.588 154.457 M699.912 152.466 Q696.903 151.725 695.213 149.665 Q693.547 147.605 693.547 144.642 Q693.547 140.498 696.486 138.091 Q699.449 135.684 704.588 135.684 Q709.75 135.684 712.69 138.091 Q715.63 140.498 715.63 144.642 Q715.63 147.605 713.94 149.665 Q712.273 151.725 709.287 152.466 Q712.667 153.253 714.542 155.545 Q716.44 157.836 716.44 161.146 Q716.44 166.17 713.361 168.855 Q710.306 171.54 704.588 171.54 Q698.871 171.54 695.792 168.855 Q692.736 166.17 692.736 161.146 Q692.736 157.836 694.635 155.545 Q696.533 153.253 699.912 152.466 M698.199 145.082 Q698.199 147.767 699.866 149.272 Q701.556 150.776 704.588 150.776 Q707.597 150.776 709.287 149.272 Q711 147.767 711 145.082 Q711 142.397 709.287 140.892 Q707.597 139.387 704.588 139.387 Q701.556 139.387 699.866 140.892 Q698.199 142.397 698.199 145.082 Z" fill="#000000" fill-rule="evenodd" fill-opacity="1" /><path clip-path="url(#clip240)" d="M 0 0 M734.75 139.387 Q731.139 139.387 729.31 142.952 Q727.505 146.494 727.505 153.623 Q727.505 160.73 729.31 164.295 Q731.139 167.836 734.75 167.836 Q738.384 167.836 740.19 164.295 Q742.019 160.73 742.019 153.623 Q742.019 146.494 740.19 142.952 Q738.384 139.387 734.75 139.387 M734.75 135.684 Q740.56 135.684 743.616 140.29 Q746.695 144.873 746.695 153.623 Q746.695 162.35 743.616 166.957 Q740.56 171.54 734.75 171.54 Q728.94 171.54 725.861 166.957 Q722.806 162.35 722.806 153.623 Q722.806 144.873 725.861 140.29 Q728.94 135.684 734.75 135.684 Z" fill="#000000" fill-rule="evenodd" fill-opacity="1" /><path clip-path="url(#clip240)" d="M 0 0 M790.93 155.221 L790.93 170.869 L786.671 170.869 L786.671 155.359 Q786.671 151.679 785.236 149.85 Q783.801 148.022 780.93 148.022 Q777.481 148.022 775.491 150.221 Q773.5 152.42 773.5 156.216 L773.5 170.869 L769.218 170.869 L769.218 144.943 L773.5 144.943 L773.5 148.971 Q775.028 146.633 777.088 145.475 Q779.171 144.318 781.879 144.318 Q786.347 144.318 788.639 147.096 Q790.93 149.85 790.93 155.221 Z" fill="#000000" fill-rule="evenodd" fill-opacity="1" /><path clip-path="url(#clip240)" d="M 0 0 M819.611 149.92 Q821.208 147.049 823.43 145.684 Q825.652 144.318 828.662 144.318 Q832.713 144.318 834.912 147.165 Q837.111 149.989 837.111 155.221 L837.111 170.869 L832.828 170.869 L832.828 155.359 Q832.828 151.633 831.509 149.827 Q830.189 148.022 827.481 148.022 Q824.171 148.022 822.25 150.221 Q820.328 152.42 820.328 156.216 L820.328 170.869 L816.046 170.869 L816.046 155.359 Q816.046 151.609 814.727 149.827 Q813.407 148.022 810.652 148.022 Q807.389 148.022 805.467 150.244 Q803.546 152.443 803.546 156.216 L803.546 170.869 L799.264 170.869 L799.264 144.943 L803.546 144.943 L803.546 148.971 Q805.004 146.586 807.041 145.452 Q809.078 144.318 811.879 144.318 Q814.703 144.318 816.671 145.753 Q818.662 147.188 819.611 149.92 Z" fill="#000000" fill-rule="evenodd" fill-opacity="1" /><polyline clip-path="url(#clip240)" style="stroke:#e26f46; stroke-width:4; stroke-opacity:1; fill:none" points="
  404.254,214.069 540.196,214.069 
  "/>
<path clip-path="url(#clip240)" d="M 0 0 M576.117 199.381 L588.084 231.349 L583.57 231.349 L576.302 212.182 L567.367 231.349 L562.853 231.349 L574.219 206.488 L572.506 201.904 Q571.418 198.988 568.941 198.988 L566.719 198.988 L566.719 195.33 L569.427 195.377 Q574.658 195.446 576.117 199.381 Z" fill="#000000" fill-rule="evenodd" fill-opacity="1" /><path clip-path="url(#clip240)" d="M 0 0 M609.589 209.821 L639.265 209.821 L639.265 213.71 L609.589 213.71 L609.589 209.821 M609.589 219.265 L639.265 219.265 L639.265 223.201 L609.589 223.201 L609.589 219.265 Z" fill="#000000" fill-rule="evenodd" fill-opacity="1" /><path clip-path="url(#clip240)" d="M 0 0 M664.473 196.789 L682.829 196.789 L682.829 200.724 L668.755 200.724 L668.755 209.196 Q669.774 208.849 670.792 208.687 Q671.811 208.502 672.829 208.502 Q678.616 208.502 681.996 211.673 Q685.375 214.844 685.375 220.261 Q685.375 225.839 681.903 228.941 Q678.431 232.02 672.112 232.02 Q669.936 232.02 667.667 231.65 Q665.422 231.279 663.014 230.538 L663.014 225.839 Q665.098 226.974 667.32 227.529 Q669.542 228.085 672.019 228.085 Q676.024 228.085 678.362 225.978 Q680.699 223.872 680.699 220.261 Q680.699 216.65 678.362 214.543 Q676.024 212.437 672.019 212.437 Q670.144 212.437 668.269 212.853 Q666.417 213.27 664.473 214.15 L664.473 196.789 Z" fill="#000000" fill-rule="evenodd" fill-opacity="1" /><path clip-path="url(#clip240)" d="M 0 0 M704.588 199.867 Q700.977 199.867 699.148 203.432 Q697.343 206.974 697.343 214.103 Q697.343 221.21 699.148 224.775 Q700.977 228.316 704.588 228.316 Q708.222 228.316 710.028 224.775 Q711.857 221.21 711.857 214.103 Q711.857 206.974 710.028 203.432 Q708.222 199.867 704.588 199.867 M704.588 196.164 Q710.398 196.164 713.454 200.77 Q716.533 205.353 716.533 214.103 Q716.533 222.83 713.454 227.437 Q710.398 232.02 704.588 232.02 Q698.778 232.02 695.699 227.437 Q692.644 222.83 692.644 214.103 Q692.644 205.353 695.699 200.77 Q698.778 196.164 704.588 196.164 Z" fill="#000000" fill-rule="evenodd" fill-opacity="1" /><path clip-path="url(#clip240)" d="M 0 0 M734.75 199.867 Q731.139 199.867 729.31 203.432 Q727.505 206.974 727.505 214.103 Q727.505 221.21 729.31 224.775 Q731.139 228.316 734.75 228.316 Q738.384 228.316 740.19 224.775 Q742.019 221.21 742.019 214.103 Q742.019 206.974 740.19 203.432 Q738.384 199.867 734.75 199.867 M734.75 196.164 Q740.56 196.164 743.616 200.77 Q746.695 205.353 746.695 214.103 Q746.695 222.83 743.616 227.437 Q740.56 232.02 734.75 232.02 Q728.94 232.02 725.861 227.437 Q722.806 222.83 722.806 214.103 Q722.806 205.353 725.861 200.77 Q728.94 196.164 734.75 196.164 Z" fill="#000000" fill-rule="evenodd" fill-opacity="1" /><path clip-path="url(#clip240)" d="M 0 0 M790.93 215.701 L790.93 231.349 L786.671 231.349 L786.671 215.839 Q786.671 212.159 785.236 210.33 Q783.801 208.502 780.93 208.502 Q777.481 208.502 775.491 210.701 Q773.5 212.9 773.5 216.696 L773.5 231.349 L769.218 231.349 L769.218 205.423 L773.5 205.423 L773.5 209.451 Q775.028 207.113 777.088 205.955 Q779.171 204.798 781.879 204.798 Q786.347 204.798 788.639 207.576 Q790.93 210.33 790.93 215.701 Z" fill="#000000" fill-rule="evenodd" fill-opacity="1" /><path clip-path="url(#clip240)" d="M 0 0 M819.611 210.4 Q821.208 207.529 823.43 206.164 Q825.652 204.798 828.662 204.798 Q832.713 204.798 834.912 207.645 Q837.111 210.469 837.111 215.701 L837.111 231.349 L832.828 231.349 L832.828 215.839 Q832.828 212.113 831.509 210.307 Q830.189 208.502 827.481 208.502 Q824.171 208.502 822.25 210.701 Q820.328 212.9 820.328 216.696 L820.328 231.349 L816.046 231.349 L816.046 215.839 Q816.046 212.089 814.727 210.307 Q813.407 208.502 810.652 208.502 Q807.389 208.502 805.467 210.724 Q803.546 212.923 803.546 216.696 L803.546 231.349 L799.264 231.349 L799.264 205.423 L803.546 205.423 L803.546 209.451 Q805.004 207.066 807.041 205.932 Q809.078 204.798 811.879 204.798 Q814.703 204.798 816.671 206.233 Q818.662 207.668 819.611 210.4 Z" fill="#000000" fill-rule="evenodd" fill-opacity="1" /><polyline clip-path="url(#clip240)" style="stroke:#3da44d; stroke-width:4; stroke-opacity:1; fill:none" points="
  404.254,274.549 540.196,274.549 
  "/>
<path clip-path="url(#clip240)" d="M 0 0 M576.117 259.861 L588.084 291.829 L583.57 291.829 L576.302 272.662 L567.367 291.829 L562.853 291.829 L574.219 266.968 L572.506 262.384 Q571.418 259.468 568.941 259.468 L566.719 259.468 L566.719 255.81 L569.427 255.857 Q574.658 255.926 576.117 259.861 Z" fill="#000000" fill-rule="evenodd" fill-opacity="1" /><path clip-path="url(#clip240)" d="M 0 0 M609.589 270.301 L639.265 270.301 L639.265 274.19 L609.589 274.19 L609.589 270.301 M609.589 279.745 L639.265 279.745 L639.265 283.681 L609.589 283.681 L609.589 279.745 Z" fill="#000000" fill-rule="evenodd" fill-opacity="1" /><path clip-path="url(#clip240)" d="M 0 0 M663.246 257.269 L685.468 257.269 L685.468 259.259 L672.922 291.829 L668.038 291.829 L679.843 261.204 L663.246 261.204 L663.246 257.269 Z" fill="#000000" fill-rule="evenodd" fill-opacity="1" /><path clip-path="url(#clip240)" d="M 0 0 M694.635 257.269 L712.991 257.269 L712.991 261.204 L698.917 261.204 L698.917 269.676 Q699.935 269.329 700.954 269.167 Q701.973 268.982 702.991 268.982 Q708.778 268.982 712.158 272.153 Q715.537 275.324 715.537 280.741 Q715.537 286.319 712.065 289.421 Q708.593 292.5 702.273 292.5 Q700.098 292.5 697.829 292.13 Q695.584 291.759 693.176 291.018 L693.176 286.319 Q695.26 287.454 697.482 288.009 Q699.704 288.565 702.181 288.565 Q706.185 288.565 708.523 286.458 Q710.861 284.352 710.861 280.741 Q710.861 277.13 708.523 275.023 Q706.185 272.917 702.181 272.917 Q700.306 272.917 698.431 273.333 Q696.579 273.75 694.635 274.63 L694.635 257.269 Z" fill="#000000" fill-rule="evenodd" fill-opacity="1" /><path clip-path="url(#clip240)" d="M 0 0 M734.75 260.347 Q731.139 260.347 729.31 263.912 Q727.505 267.454 727.505 274.583 Q727.505 281.69 729.31 285.255 Q731.139 288.796 734.75 288.796 Q738.384 288.796 740.19 285.255 Q742.019 281.69 742.019 274.583 Q742.019 267.454 740.19 263.912 Q738.384 260.347 734.75 260.347 M734.75 256.644 Q740.56 256.644 743.616 261.25 Q746.695 265.833 746.695 274.583 Q746.695 283.31 743.616 287.917 Q740.56 292.5 734.75 292.5 Q728.94 292.5 725.861 287.917 Q722.806 283.31 722.806 274.583 Q722.806 265.833 725.861 261.25 Q728.94 256.644 734.75 256.644 Z" fill="#000000" fill-rule="evenodd" fill-opacity="1" /><path clip-path="url(#clip240)" d="M 0 0 M790.93 276.181 L790.93 291.829 L786.671 291.829 L786.671 276.319 Q786.671 272.639 785.236 270.81 Q783.801 268.982 780.93 268.982 Q777.481 268.982 775.491 271.181 Q773.5 273.38 773.5 277.176 L773.5 291.829 L769.218 291.829 L769.218 265.903 L773.5 265.903 L773.5 269.931 Q775.028 267.593 777.088 266.435 Q779.171 265.278 781.879 265.278 Q786.347 265.278 788.639 268.056 Q790.93 270.81 790.93 276.181 Z" fill="#000000" fill-rule="evenodd" fill-opacity="1" /><path clip-path="url(#clip240)" d="M 0 0 M819.611 270.88 Q821.208 268.009 823.43 266.644 Q825.652 265.278 828.662 265.278 Q832.713 265.278 834.912 268.125 Q837.111 270.949 837.111 276.181 L837.111 291.829 L832.828 291.829 L832.828 276.319 Q832.828 272.593 831.509 270.787 Q830.189 268.982 827.481 268.982 Q824.171 268.982 822.25 271.181 Q820.328 273.38 820.328 277.176 L820.328 291.829 L816.046 291.829 L816.046 276.319 Q816.046 272.569 814.727 270.787 Q813.407 268.982 810.652 268.982 Q807.389 268.982 805.467 271.204 Q803.546 273.403 803.546 277.176 L803.546 291.829 L799.264 291.829 L799.264 265.903 L803.546 265.903 L803.546 269.931 Q805.004 267.546 807.041 266.412 Q809.078 265.278 811.879 265.278 Q814.703 265.278 816.671 266.713 Q818.662 268.148 819.611 270.88 Z" fill="#000000" fill-rule="evenodd" fill-opacity="1" /></svg>
