<?xml version="1.0" encoding="utf-8"?>
<svg xmlns="http://www.w3.org/2000/svg" xmlns:xlink="http://www.w3.org/1999/xlink" width="600" height="400" viewBox="0 0 2400 1600">
<defs>
  <clipPath id="clip480">
    <rect x="0" y="0" width="2400" height="1600"/>
  </clipPath>
</defs>
<path clip-path="url(#clip480)" d="
M0 1600 L2400 1600 L2400 0 L0 0  Z
  " fill="#ffffff" fill-rule="evenodd" fill-opacity="1"/>
<defs>
  <clipPath id="clip481">
    <rect x="480" y="0" width="1681" height="1600"/>
  </clipPath>
</defs>
<path clip-path="url(#clip480)" d="
M252.764 1423.18 L2352.76 1423.18 L2352.76 47.2441 L252.764 47.2441  Z
  " fill="#ffffff" fill-rule="evenodd" fill-opacity="1"/>
<defs>
  <clipPath id="clip482">
    <rect x="252" y="47" width="2101" height="1377"/>
  </clipPath>
</defs>
<polyline clip-path="url(#clip482)" style="stroke:#000000; stroke-width:2; stroke-opacity:0.1; fill:none" points="
  312.198,1423.18 312.198,47.2441 
  "/>
<polyline clip-path="url(#clip482)" style="stroke:#000000; stroke-width:2; stroke-opacity:0.1; fill:none" points="
  422.26,1423.18 422.26,47.2441 
  "/>
<polyline clip-path="url(#clip482)" style="stroke:#000000; stroke-width:2; stroke-opacity:0.1; fill:none" points="
  532.323,1423.18 532.323,47.2441 
  "/>
<polyline clip-path="url(#clip482)" style="stroke:#000000; stroke-width:2; stroke-opacity:0.1; fill:none" points="
  642.385,1423.18 642.385,47.2441 
  "/>
<polyline clip-path="url(#clip482)" style="stroke:#000000; stroke-width:2; stroke-opacity:0.1; fill:none" points="
  752.448,1423.18 752.448,47.2441 
  "/>
<polyline clip-path="url(#clip482)" style="stroke:#000000; stroke-width:2; stroke-opacity:0.1; fill:none" points="
  862.51,1423.18 862.51,47.2441 
  "/>
<polyline clip-path="url(#clip482)" style="stroke:#000000; stroke-width:2; stroke-opacity:0.1; fill:none" points="
  972.573,1423.18 972.573,47.2441 
  "/>
<polyline clip-path="url(#clip482)" style="stroke:#000000; stroke-width:2; stroke-opacity:0.1; fill:none" points="
  1082.63,1423.18 1082.63,47.2441 
  "/>
<polyline clip-path="url(#clip482)" style="stroke:#000000; stroke-width:2; stroke-opacity:0.1; fill:none" points="
  1192.7,1423.18 1192.7,47.2441 
  "/>
<polyline clip-path="url(#clip482)" style="stroke:#000000; stroke-width:2; stroke-opacity:0.1; fill:none" points="
  1302.76,1423.18 1302.76,47.2441 
  "/>
<polyline clip-path="url(#clip482)" style="stroke:#000000; stroke-width:2; stroke-opacity:0.1; fill:none" points="
  1412.82,1423.18 1412.82,47.2441 
  "/>
<polyline clip-path="url(#clip482)" style="stroke:#000000; stroke-width:2; stroke-opacity:0.1; fill:none" points="
  1522.88,1423.18 1522.88,47.2441 
  "/>
<polyline clip-path="url(#clip482)" style="stroke:#000000; stroke-width:2; stroke-opacity:0.1; fill:none" points="
  1632.95,1423.18 1632.95,47.2441 
  "/>
<polyline clip-path="url(#clip482)" style="stroke:#000000; stroke-width:2; stroke-opacity:0.1; fill:none" points="
  1743.01,1423.18 1743.01,47.2441 
  "/>
<polyline clip-path="url(#clip482)" style="stroke:#000000; stroke-width:2; stroke-opacity:0.1; fill:none" points="
  1853.07,1423.18 1853.07,47.2441 
  "/>
<polyline clip-path="url(#clip482)" style="stroke:#000000; stroke-width:2; stroke-opacity:0.1; fill:none" points="
  1963.13,1423.18 1963.13,47.2441 
  "/>
<polyline clip-path="url(#clip482)" style="stroke:#000000; stroke-width:2; stroke-opacity:0.1; fill:none" points="
  2073.2,1423.18 2073.2,47.2441 
  "/>
<polyline clip-path="url(#clip482)" style="stroke:#000000; stroke-width:2; stroke-opacity:0.1; fill:none" points="
  2183.26,1423.18 2183.26,47.2441 
  "/>
<polyline clip-path="url(#clip482)" style="stroke:#000000; stroke-width:2; stroke-opacity:0.1; fill:none" points="
  2293.32,1423.18 2293.32,47.2441 
  "/>
<polyline clip-path="url(#clip480)" style="stroke:#000000; stroke-width:4; stroke-opacity:1; fill:none" points="
  252.764,1423.18 2352.76,1423.18 
  "/>
<polyline clip-path="url(#clip480)" style="stroke:#000000; stroke-width:4; stroke-opacity:1; fill:none" points="
  312.198,1423.18 312.198,1406.67 
  "/>
<polyline clip-path="url(#clip480)" style="stroke:#000000; stroke-width:4; stroke-opacity:1; fill:none" points="
  422.26,1423.18 422.26,1406.67 
  "/>
<polyline clip-path="url(#clip480)" style="stroke:#000000; stroke-width:4; stroke-opacity:1; fill:none" points="
  532.323,1423.18 532.323,1406.67 
  "/>
<polyline clip-path="url(#clip480)" style="stroke:#000000; stroke-width:4; stroke-opacity:1; fill:none" points="
  642.385,1423.18 642.385,1406.67 
  "/>
<polyline clip-path="url(#clip480)" style="stroke:#000000; stroke-width:4; stroke-opacity:1; fill:none" points="
  752.448,1423.18 752.448,1406.67 
  "/>
<polyline clip-path="url(#clip480)" style="stroke:#000000; stroke-width:4; stroke-opacity:1; fill:none" points="
  862.51,1423.18 862.51,1406.67 
  "/>
<polyline clip-path="url(#clip480)" style="stroke:#000000; stroke-width:4; stroke-opacity:1; fill:none" points="
  972.573,1423.18 972.573,1406.67 
  "/>
<polyline clip-path="url(#clip480)" style="stroke:#000000; stroke-width:4; stroke-opacity:1; fill:none" points="
  1082.63,1423.18 1082.63,1406.67 
  "/>
<polyline clip-path="url(#clip480)" style="stroke:#000000; stroke-width:4; stroke-opacity:1; fill:none" points="
  1192.7,1423.18 1192.7,1406.67 
  "/>
<polyline clip-path="url(#clip480)" style="stroke:#000000; stroke-width:4; stroke-opacity:1; fill:none" points="
  1302.76,1423.18 1302.76,1406.67 
  "/>
<polyline clip-path="url(#clip480)" style="stroke:#000000; stroke-width:4; stroke-opacity:1; fill:none" points="
  1412.82,1423.18 1412.82,1406.67 
  "/>
<polyline clip-path="url(#clip480)" style="stroke:#000000; stroke-width:4; stroke-opacity:1; fill:none" points="
  1522.88,1423.18 1522.88,1406.67 
  "/>
<polyline clip-path="url(#clip480)" style="stroke:#000000; stroke-width:4; stroke-opacity:1; fill:none" points="
  1632.95,1423.18 1632.95,1406.67 
  "/>
<polyline clip-path="url(#clip480)" style="stroke:#000000; stroke-width:4; stroke-opacity:1; fill:none" points="
  1743.01,1423.18 1743.01,1406.67 
  "/>
<polyline clip-path="url(#clip480)" style="stroke:#000000; stroke-width:4; stroke-opacity:1; fill:none" points="
  1853.07,1423.18 1853.07,1406.67 
  "/>
<polyline clip-path="url(#clip480)" style="stroke:#000000; stroke-width:4; stroke-opacity:1; fill:none" points="
  1963.13,1423.18 1963.13,1406.67 
  "/>
<polyline clip-path="url(#clip480)" style="stroke:#000000; stroke-width:4; stroke-opacity:1; fill:none" points="
  2073.2,1423.18 2073.2,1406.67 
  "/>
<polyline clip-path="url(#clip480)" style="stroke:#000000; stroke-width:4; stroke-opacity:1; fill:none" points="
  2183.26,1423.18 2183.26,1406.67 
  "/>
<polyline clip-path="url(#clip480)" style="stroke:#000000; stroke-width:4; stroke-opacity:1; fill:none" points="
  2293.32,1423.18 2293.32,1406.67 
  "/>
<path clip-path="url(#clip480)" d="M 0 0 M312.198 1452.37 Q308.587 1452.37 306.758 1455.94 Q304.952 1459.48 304.952 1466.61 Q304.952 1473.71 306.758 1477.28 Q308.587 1480.82 312.198 1480.82 Q315.832 1480.82 317.637 1477.28 Q319.466 1473.71 319.466 1466.61 Q319.466 1459.48 317.637 1455.94 Q315.832 1452.37 312.198 1452.37 M312.198 1448.67 Q318.008 1448.67 321.063 1453.27 Q324.142 1457.86 324.142 1466.61 Q324.142 1475.33 321.063 1479.94 Q318.008 1484.52 312.198 1484.52 Q306.388 1484.52 303.309 1479.94 Q300.253 1475.33 300.253 1466.61 Q300.253 1457.86 303.309 1453.27 Q306.388 1448.67 312.198 1448.67 Z" fill="#000000" fill-rule="evenodd" fill-opacity="1" /><path clip-path="url(#clip480)" d="M 0 0 M396.948 1479.92 L404.587 1479.92 L404.587 1453.55 L396.276 1455.22 L396.276 1450.96 L404.54 1449.29 L409.216 1449.29 L409.216 1479.92 L416.855 1479.92 L416.855 1483.85 L396.948 1483.85 L396.948 1479.92 Z" fill="#000000" fill-rule="evenodd" fill-opacity="1" /><path clip-path="url(#clip480)" d="M 0 0 M436.299 1452.37 Q432.688 1452.37 430.86 1455.94 Q429.054 1459.48 429.054 1466.61 Q429.054 1473.71 430.86 1477.28 Q432.688 1480.82 436.299 1480.82 Q439.934 1480.82 441.739 1477.28 Q443.568 1473.71 443.568 1466.61 Q443.568 1459.48 441.739 1455.94 Q439.934 1452.37 436.299 1452.37 M436.299 1448.67 Q442.11 1448.67 445.165 1453.27 Q448.244 1457.86 448.244 1466.61 Q448.244 1475.33 445.165 1479.94 Q442.11 1484.52 436.299 1484.52 Q430.489 1484.52 427.411 1479.94 Q424.355 1475.33 424.355 1466.61 Q424.355 1457.86 427.411 1453.27 Q430.489 1448.67 436.299 1448.67 Z" fill="#000000" fill-rule="evenodd" fill-opacity="1" /><path clip-path="url(#clip480)" d="M 0 0 M511.096 1479.92 L527.415 1479.92 L527.415 1483.85 L505.471 1483.85 L505.471 1479.92 Q508.133 1477.16 512.716 1472.53 Q517.323 1467.88 518.503 1466.54 Q520.749 1464.01 521.628 1462.28 Q522.531 1460.52 522.531 1458.83 Q522.531 1456.07 520.587 1454.34 Q518.665 1452.6 515.563 1452.6 Q513.364 1452.6 510.911 1453.37 Q508.48 1454.13 505.702 1455.68 L505.702 1450.96 Q508.526 1449.82 510.98 1449.25 Q513.434 1448.67 515.471 1448.67 Q520.841 1448.67 524.036 1451.35 Q527.23 1454.04 527.23 1458.53 Q527.23 1460.66 526.42 1462.58 Q525.633 1464.48 523.526 1467.07 Q522.948 1467.74 519.846 1470.96 Q516.744 1474.15 511.096 1479.92 Z" fill="#000000" fill-rule="evenodd" fill-opacity="1" /><path clip-path="url(#clip480)" d="M 0 0 M547.23 1452.37 Q543.619 1452.37 541.79 1455.94 Q539.985 1459.48 539.985 1466.61 Q539.985 1473.71 541.79 1477.28 Q543.619 1480.82 547.23 1480.82 Q550.864 1480.82 552.67 1477.28 Q554.498 1473.71 554.498 1466.61 Q554.498 1459.48 552.67 1455.94 Q550.864 1452.37 547.23 1452.37 M547.23 1448.67 Q553.04 1448.67 556.096 1453.27 Q559.174 1457.86 559.174 1466.61 Q559.174 1475.33 556.096 1479.94 Q553.04 1484.52 547.23 1484.52 Q541.42 1484.52 538.341 1479.94 Q535.286 1475.33 535.286 1466.61 Q535.286 1457.86 538.341 1453.27 Q541.42 1448.67 547.23 1448.67 Z" fill="#000000" fill-rule="evenodd" fill-opacity="1" /><path clip-path="url(#clip480)" d="M 0 0 M631.228 1465.22 Q634.584 1465.94 636.459 1468.2 Q638.357 1470.47 638.357 1473.81 Q638.357 1478.92 634.839 1481.72 Q631.32 1484.52 624.839 1484.52 Q622.663 1484.52 620.348 1484.08 Q618.057 1483.67 615.603 1482.81 L615.603 1478.3 Q617.547 1479.43 619.862 1480.01 Q622.177 1480.59 624.7 1480.59 Q629.098 1480.59 631.39 1478.85 Q633.705 1477.12 633.705 1473.81 Q633.705 1470.75 631.552 1469.04 Q629.422 1467.3 625.603 1467.3 L621.575 1467.3 L621.575 1463.46 L625.788 1463.46 Q629.237 1463.46 631.066 1462.09 Q632.894 1460.7 632.894 1458.11 Q632.894 1455.45 630.996 1454.04 Q629.121 1452.6 625.603 1452.6 Q623.681 1452.6 621.482 1453.02 Q619.283 1453.44 616.644 1454.31 L616.644 1450.15 Q619.307 1449.41 621.621 1449.04 Q623.959 1448.67 626.019 1448.67 Q631.343 1448.67 634.445 1451.1 Q637.547 1453.5 637.547 1457.63 Q637.547 1460.5 635.904 1462.49 Q634.26 1464.45 631.228 1465.22 Z" fill="#000000" fill-rule="evenodd" fill-opacity="1" /><path clip-path="url(#clip480)" d="M 0 0 M657.223 1452.37 Q653.612 1452.37 651.783 1455.94 Q649.978 1459.48 649.978 1466.61 Q649.978 1473.71 651.783 1477.28 Q653.612 1480.82 657.223 1480.82 Q660.857 1480.82 662.663 1477.28 Q664.491 1473.71 664.491 1466.61 Q664.491 1459.48 662.663 1455.94 Q660.857 1452.37 657.223 1452.37 M657.223 1448.67 Q663.033 1448.67 666.089 1453.27 Q669.167 1457.86 669.167 1466.61 Q669.167 1475.33 666.089 1479.94 Q663.033 1484.52 657.223 1484.52 Q651.413 1484.52 648.334 1479.94 Q645.279 1475.33 645.279 1466.61 Q645.279 1457.86 648.334 1453.27 Q651.413 1448.67 657.223 1448.67 Z" fill="#000000" fill-rule="evenodd" fill-opacity="1" /><path clip-path="url(#clip480)" d="M 0 0 M740.619 1453.37 L728.813 1471.81 L740.619 1471.81 L740.619 1453.37 M739.392 1449.29 L745.272 1449.29 L745.272 1471.81 L750.202 1471.81 L750.202 1475.7 L745.272 1475.7 L745.272 1483.85 L740.619 1483.85 L740.619 1475.7 L725.017 1475.7 L725.017 1471.19 L739.392 1449.29 Z" fill="#000000" fill-rule="evenodd" fill-opacity="1" /><path clip-path="url(#clip480)" d="M 0 0 M767.934 1452.37 Q764.323 1452.37 762.494 1455.94 Q760.688 1459.48 760.688 1466.61 Q760.688 1473.71 762.494 1477.28 Q764.323 1480.82 767.934 1480.82 Q771.568 1480.82 773.373 1477.28 Q775.202 1473.71 775.202 1466.61 Q775.202 1459.48 773.373 1455.94 Q771.568 1452.37 767.934 1452.37 M767.934 1448.67 Q773.744 1448.67 776.799 1453.27 Q779.878 1457.86 779.878 1466.61 Q779.878 1475.33 776.799 1479.94 Q773.744 1484.52 767.934 1484.52 Q762.123 1484.52 759.045 1479.94 Q755.989 1475.33 755.989 1466.61 Q755.989 1457.86 759.045 1453.27 Q762.123 1448.67 767.934 1448.67 Z" fill="#000000" fill-rule="evenodd" fill-opacity="1" /><path clip-path="url(#clip480)" d="M 0 0 M837.209 1449.29 L855.566 1449.29 L855.566 1453.23 L841.492 1453.23 L841.492 1461.7 Q842.51 1461.35 843.529 1461.19 Q844.547 1461 845.566 1461 Q851.353 1461 854.732 1464.18 Q858.112 1467.35 858.112 1472.76 Q858.112 1478.34 854.64 1481.44 Q851.168 1484.52 844.848 1484.52 Q842.672 1484.52 840.404 1484.15 Q838.158 1483.78 835.751 1483.04 L835.751 1478.34 Q837.834 1479.48 840.056 1480.03 Q842.279 1480.59 844.756 1480.59 Q848.76 1480.59 851.098 1478.48 Q853.436 1476.38 853.436 1472.76 Q853.436 1469.15 851.098 1467.05 Q848.76 1464.94 844.756 1464.94 Q842.881 1464.94 841.006 1465.36 Q839.154 1465.77 837.209 1466.65 L837.209 1449.29 Z" fill="#000000" fill-rule="evenodd" fill-opacity="1" /><path clip-path="url(#clip480)" d="M 0 0 M877.325 1452.37 Q873.714 1452.37 871.885 1455.94 Q870.079 1459.48 870.079 1466.61 Q870.079 1473.71 871.885 1477.28 Q873.714 1480.82 877.325 1480.82 Q880.959 1480.82 882.765 1477.28 Q884.593 1473.71 884.593 1466.61 Q884.593 1459.48 882.765 1455.94 Q880.959 1452.37 877.325 1452.37 M877.325 1448.67 Q883.135 1448.67 886.19 1453.27 Q889.269 1457.86 889.269 1466.61 Q889.269 1475.33 886.19 1479.94 Q883.135 1484.52 877.325 1484.52 Q871.515 1484.52 868.436 1479.94 Q865.38 1475.33 865.38 1466.61 Q865.38 1457.86 868.436 1453.27 Q871.515 1448.67 877.325 1448.67 Z" fill="#000000" fill-rule="evenodd" fill-opacity="1" /><path clip-path="url(#clip480)" d="M 0 0 M957.978 1464.71 Q954.83 1464.71 952.978 1466.86 Q951.149 1469.01 951.149 1472.76 Q951.149 1476.49 952.978 1478.67 Q954.83 1480.82 957.978 1480.82 Q961.126 1480.82 962.955 1478.67 Q964.806 1476.49 964.806 1472.76 Q964.806 1469.01 962.955 1466.86 Q961.126 1464.71 957.978 1464.71 M967.26 1450.06 L967.26 1454.31 Q965.501 1453.48 963.695 1453.04 Q961.913 1452.6 960.154 1452.6 Q955.524 1452.6 953.07 1455.73 Q950.64 1458.85 950.293 1465.17 Q951.658 1463.16 953.718 1462.09 Q955.779 1461 958.255 1461 Q963.464 1461 966.473 1464.18 Q969.505 1467.32 969.505 1472.76 Q969.505 1478.09 966.357 1481.31 Q963.209 1484.52 957.978 1484.52 Q951.982 1484.52 948.811 1479.94 Q945.64 1475.33 945.64 1466.61 Q945.64 1458.41 949.529 1453.55 Q953.418 1448.67 959.968 1448.67 Q961.728 1448.67 963.51 1449.01 Q965.316 1449.36 967.26 1450.06 Z" fill="#000000" fill-rule="evenodd" fill-opacity="1" /><path clip-path="url(#clip480)" d="M 0 0 M987.561 1452.37 Q983.95 1452.37 982.121 1455.94 Q980.316 1459.48 980.316 1466.61 Q980.316 1473.71 982.121 1477.28 Q983.95 1480.82 987.561 1480.82 Q991.195 1480.82 993.001 1477.28 Q994.829 1473.71 994.829 1466.61 Q994.829 1459.48 993.001 1455.94 Q991.195 1452.37 987.561 1452.37 M987.561 1448.67 Q993.371 1448.67 996.427 1453.27 Q999.505 1457.86 999.505 1466.61 Q999.505 1475.33 996.427 1479.94 Q993.371 1484.52 987.561 1484.52 Q981.751 1484.52 978.672 1479.94 Q975.616 1475.33 975.616 1466.61 Q975.616 1457.86 978.672 1453.27 Q981.751 1448.67 987.561 1448.67 Z" fill="#000000" fill-rule="evenodd" fill-opacity="1" /><path clip-path="url(#clip480)" d="M 0 0 M1055.99 1449.29 L1078.21 1449.29 L1078.21 1451.28 L1065.67 1483.85 L1060.78 1483.85 L1072.59 1453.23 L1055.99 1453.23 L1055.99 1449.29 Z" fill="#000000" fill-rule="evenodd" fill-opacity="1" /><path clip-path="url(#clip480)" d="M 0 0 M1097.33 1452.37 Q1093.72 1452.37 1091.89 1455.94 Q1090.09 1459.48 1090.09 1466.61 Q1090.09 1473.71 1091.89 1477.28 Q1093.72 1480.82 1097.33 1480.82 Q1100.97 1480.82 1102.77 1477.28 Q1104.6 1473.71 1104.6 1466.61 Q1104.6 1459.48 1102.77 1455.94 Q1100.97 1452.37 1097.33 1452.37 M1097.33 1448.67 Q1103.14 1448.67 1106.2 1453.27 Q1109.28 1457.86 1109.28 1466.61 Q1109.28 1475.33 1106.2 1479.94 Q1103.14 1484.52 1097.33 1484.52 Q1091.52 1484.52 1088.45 1479.94 Q1085.39 1475.33 1085.39 1466.61 Q1085.39 1457.86 1088.45 1453.27 Q1091.52 1448.67 1097.33 1448.67 Z" fill="#000000" fill-rule="evenodd" fill-opacity="1" /><path clip-path="url(#clip480)" d="M 0 0 M1177.57 1467.44 Q1174.24 1467.44 1172.32 1469.22 Q1170.42 1471 1170.42 1474.13 Q1170.42 1477.25 1172.32 1479.04 Q1174.24 1480.82 1177.57 1480.82 Q1180.9 1480.82 1182.82 1479.04 Q1184.75 1477.23 1184.75 1474.13 Q1184.75 1471 1182.82 1469.22 Q1180.93 1467.44 1177.57 1467.44 M1172.89 1465.45 Q1169.89 1464.71 1168.2 1462.65 Q1166.53 1460.59 1166.53 1457.63 Q1166.53 1453.48 1169.47 1451.07 Q1172.43 1448.67 1177.57 1448.67 Q1182.73 1448.67 1185.67 1451.07 Q1188.61 1453.48 1188.61 1457.63 Q1188.61 1460.59 1186.92 1462.65 Q1185.26 1464.71 1182.27 1465.45 Q1185.65 1466.24 1187.52 1468.53 Q1189.42 1470.82 1189.42 1474.13 Q1189.42 1479.15 1186.34 1481.84 Q1183.29 1484.52 1177.57 1484.52 Q1171.85 1484.52 1168.77 1481.84 Q1165.72 1479.15 1165.72 1474.13 Q1165.72 1470.82 1167.62 1468.53 Q1169.51 1466.24 1172.89 1465.45 M1171.18 1458.06 Q1171.18 1460.75 1172.85 1462.25 Q1174.54 1463.76 1177.57 1463.76 Q1180.58 1463.76 1182.27 1462.25 Q1183.98 1460.75 1183.98 1458.06 Q1183.98 1455.38 1182.27 1453.88 Q1180.58 1452.37 1177.57 1452.37 Q1174.54 1452.37 1172.85 1453.88 Q1171.18 1455.38 1171.18 1458.06 Z" fill="#000000" fill-rule="evenodd" fill-opacity="1" /><path clip-path="url(#clip480)" d="M 0 0 M1207.73 1452.37 Q1204.12 1452.37 1202.29 1455.94 Q1200.49 1459.48 1200.49 1466.61 Q1200.49 1473.71 1202.29 1477.28 Q1204.12 1480.82 1207.73 1480.82 Q1211.37 1480.82 1213.17 1477.28 Q1215 1473.71 1215 1466.61 Q1215 1459.48 1213.17 1455.94 Q1211.37 1452.37 1207.73 1452.37 M1207.73 1448.67 Q1213.54 1448.67 1216.6 1453.27 Q1219.68 1457.86 1219.68 1466.61 Q1219.68 1475.33 1216.6 1479.94 Q1213.54 1484.52 1207.73 1484.52 Q1201.92 1484.52 1198.84 1479.94 Q1195.79 1475.33 1195.79 1466.61 Q1195.79 1457.86 1198.84 1453.27 Q1201.92 1448.67 1207.73 1448.67 Z" fill="#000000" fill-rule="evenodd" fill-opacity="1" /><path clip-path="url(#clip480)" d="M 0 0 M1277.89 1483.13 L1277.89 1478.88 Q1279.65 1479.71 1281.45 1480.15 Q1283.26 1480.59 1284.99 1480.59 Q1289.62 1480.59 1292.05 1477.49 Q1294.51 1474.36 1294.85 1468.02 Q1293.51 1470.01 1291.45 1471.07 Q1289.39 1472.14 1286.89 1472.14 Q1281.71 1472.14 1278.67 1469.01 Q1275.67 1465.87 1275.67 1460.43 Q1275.67 1455.1 1278.81 1451.88 Q1281.96 1448.67 1287.19 1448.67 Q1293.19 1448.67 1296.34 1453.27 Q1299.51 1457.86 1299.51 1466.61 Q1299.51 1474.78 1295.62 1479.66 Q1291.75 1484.52 1285.2 1484.52 Q1283.44 1484.52 1281.64 1484.18 Q1279.83 1483.83 1277.89 1483.13 M1287.19 1468.48 Q1290.34 1468.48 1292.17 1466.33 Q1294.02 1464.18 1294.02 1460.43 Q1294.02 1456.7 1292.17 1454.55 Q1290.34 1452.37 1287.19 1452.37 Q1284.04 1452.37 1282.19 1454.55 Q1280.36 1456.7 1280.36 1460.43 Q1280.36 1464.18 1282.19 1466.33 Q1284.04 1468.48 1287.19 1468.48 Z" fill="#000000" fill-rule="evenodd" fill-opacity="1" /><path clip-path="url(#clip480)" d="M 0 0 M1317.91 1452.37 Q1314.3 1452.37 1312.47 1455.94 Q1310.66 1459.48 1310.66 1466.61 Q1310.66 1473.71 1312.47 1477.28 Q1314.3 1480.82 1317.91 1480.82 Q1321.54 1480.82 1323.35 1477.28 Q1325.18 1473.71 1325.18 1466.61 Q1325.18 1459.48 1323.35 1455.94 Q1321.54 1452.37 1317.91 1452.37 M1317.91 1448.67 Q1323.72 1448.67 1326.78 1453.27 Q1329.85 1457.86 1329.85 1466.61 Q1329.85 1475.33 1326.78 1479.94 Q1323.72 1484.52 1317.91 1484.52 Q1312.1 1484.52 1309.02 1479.94 Q1305.97 1475.33 1305.97 1466.61 Q1305.97 1457.86 1309.02 1453.27 Q1312.1 1448.67 1317.91 1448.67 Z" fill="#000000" fill-rule="evenodd" fill-opacity="1" /><path clip-path="url(#clip480)" d="M 0 0 M1372.43 1479.92 L1380.07 1479.92 L1380.07 1453.55 L1371.76 1455.22 L1371.76 1450.96 L1380.02 1449.29 L1384.7 1449.29 L1384.7 1479.92 L1392.34 1479.92 L1392.34 1483.85 L1372.43 1483.85 L1372.43 1479.92 Z" fill="#000000" fill-rule="evenodd" fill-opacity="1" /><path clip-path="url(#clip480)" d="M 0 0 M1411.78 1452.37 Q1408.17 1452.37 1406.34 1455.94 Q1404.54 1459.48 1404.54 1466.61 Q1404.54 1473.71 1406.34 1477.28 Q1408.17 1480.82 1411.78 1480.82 Q1415.41 1480.82 1417.22 1477.28 Q1419.05 1473.71 1419.05 1466.61 Q1419.05 1459.48 1417.22 1455.94 Q1415.41 1452.37 1411.78 1452.37 M1411.78 1448.67 Q1417.59 1448.67 1420.65 1453.27 Q1423.73 1457.86 1423.73 1466.61 Q1423.73 1475.33 1420.65 1479.94 Q1417.59 1484.52 1411.78 1484.52 Q1405.97 1484.52 1402.89 1479.94 Q1399.84 1475.33 1399.84 1466.61 Q1399.84 1457.86 1402.89 1453.27 Q1405.97 1448.67 1411.78 1448.67 Z" fill="#000000" fill-rule="evenodd" fill-opacity="1" /><path clip-path="url(#clip480)" d="M 0 0 M1441.94 1452.37 Q1438.33 1452.37 1436.5 1455.94 Q1434.7 1459.48 1434.7 1466.61 Q1434.7 1473.71 1436.5 1477.28 Q1438.33 1480.82 1441.94 1480.82 Q1445.58 1480.82 1447.38 1477.28 Q1449.21 1473.71 1449.21 1466.61 Q1449.21 1459.48 1447.38 1455.94 Q1445.58 1452.37 1441.94 1452.37 M1441.94 1448.67 Q1447.75 1448.67 1450.81 1453.27 Q1453.89 1457.86 1453.89 1466.61 Q1453.89 1475.33 1450.81 1479.94 Q1447.75 1484.52 1441.94 1484.52 Q1436.13 1484.52 1433.05 1479.94 Q1430 1475.33 1430 1466.61 Q1430 1457.86 1433.05 1453.27 Q1436.13 1448.67 1441.94 1448.67 Z" fill="#000000" fill-rule="evenodd" fill-opacity="1" /><path clip-path="url(#clip480)" d="M 0 0 M1482.49 1479.92 L1490.13 1479.92 L1490.13 1453.55 L1481.82 1455.22 L1481.82 1450.96 L1490.08 1449.29 L1494.76 1449.29 L1494.76 1479.92 L1502.4 1479.92 L1502.4 1483.85 L1482.49 1483.85 L1482.49 1479.92 Z" fill="#000000" fill-rule="evenodd" fill-opacity="1" /><path clip-path="url(#clip480)" d="M 0 0 M1512.65 1479.92 L1520.29 1479.92 L1520.29 1453.55 L1511.98 1455.22 L1511.98 1450.96 L1520.25 1449.29 L1524.92 1449.29 L1524.92 1479.92 L1532.56 1479.92 L1532.56 1483.85 L1512.65 1483.85 L1512.65 1479.92 Z" fill="#000000" fill-rule="evenodd" fill-opacity="1" /><path clip-path="url(#clip480)" d="M 0 0 M1552.01 1452.37 Q1548.39 1452.37 1546.57 1455.94 Q1544.76 1459.48 1544.76 1466.61 Q1544.76 1473.71 1546.57 1477.28 Q1548.39 1480.82 1552.01 1480.82 Q1555.64 1480.82 1557.44 1477.28 Q1559.27 1473.71 1559.27 1466.61 Q1559.27 1459.48 1557.44 1455.94 Q1555.64 1452.37 1552.01 1452.37 M1552.01 1448.67 Q1557.82 1448.67 1560.87 1453.27 Q1563.95 1457.86 1563.95 1466.61 Q1563.95 1475.33 1560.87 1479.94 Q1557.82 1484.52 1552.01 1484.52 Q1546.19 1484.52 1543.12 1479.94 Q1540.06 1475.33 1540.06 1466.61 Q1540.06 1457.86 1543.12 1453.27 Q1546.19 1448.67 1552.01 1448.67 Z" fill="#000000" fill-rule="evenodd" fill-opacity="1" /><path clip-path="url(#clip480)" d="M 0 0 M1592.55 1479.92 L1600.19 1479.92 L1600.19 1453.55 L1591.88 1455.22 L1591.88 1450.96 L1600.15 1449.29 L1604.82 1449.29 L1604.82 1479.92 L1612.46 1479.92 L1612.46 1483.85 L1592.55 1483.85 L1592.55 1479.92 Z" fill="#000000" fill-rule="evenodd" fill-opacity="1" /><path clip-path="url(#clip480)" d="M 0 0 M1625.93 1479.92 L1642.25 1479.92 L1642.25 1483.85 L1620.31 1483.85 L1620.31 1479.92 Q1622.97 1477.16 1627.55 1472.53 Q1632.16 1467.88 1633.34 1466.54 Q1635.59 1464.01 1636.47 1462.28 Q1637.37 1460.52 1637.37 1458.83 Q1637.37 1456.07 1635.42 1454.34 Q1633.5 1452.6 1630.4 1452.6 Q1628.2 1452.6 1625.75 1453.37 Q1623.32 1454.13 1620.54 1455.68 L1620.54 1450.96 Q1623.36 1449.82 1625.82 1449.25 Q1628.27 1448.67 1630.31 1448.67 Q1635.68 1448.67 1638.87 1451.35 Q1642.07 1454.04 1642.07 1458.53 Q1642.07 1460.66 1641.26 1462.58 Q1640.47 1464.48 1638.36 1467.07 Q1637.79 1467.74 1634.68 1470.96 Q1631.58 1474.15 1625.93 1479.92 Z" fill="#000000" fill-rule="evenodd" fill-opacity="1" /><path clip-path="url(#clip480)" d="M 0 0 M1662.07 1452.37 Q1658.46 1452.37 1656.63 1455.94 Q1654.82 1459.48 1654.82 1466.61 Q1654.82 1473.71 1656.63 1477.28 Q1658.46 1480.82 1662.07 1480.82 Q1665.7 1480.82 1667.51 1477.28 Q1669.34 1473.71 1669.34 1466.61 Q1669.34 1459.48 1667.51 1455.94 Q1665.7 1452.37 1662.07 1452.37 M1662.07 1448.67 Q1667.88 1448.67 1670.93 1453.27 Q1674.01 1457.86 1674.01 1466.61 Q1674.01 1475.33 1670.93 1479.94 Q1667.88 1484.52 1662.07 1484.52 Q1656.26 1484.52 1653.18 1479.94 Q1650.12 1475.33 1650.12 1466.61 Q1650.12 1457.86 1653.18 1453.27 Q1656.26 1448.67 1662.07 1448.67 Z" fill="#000000" fill-rule="evenodd" fill-opacity="1" /><path clip-path="url(#clip480)" d="M 0 0 M1702.62 1479.92 L1710.26 1479.92 L1710.26 1453.55 L1701.95 1455.22 L1701.95 1450.96 L1710.21 1449.29 L1714.88 1449.29 L1714.88 1479.92 L1722.52 1479.92 L1722.52 1483.85 L1702.62 1483.85 L1702.62 1479.92 Z" fill="#000000" fill-rule="evenodd" fill-opacity="1" /><path clip-path="url(#clip480)" d="M 0 0 M1746.13 1465.22 Q1749.49 1465.94 1751.37 1468.2 Q1753.26 1470.47 1753.26 1473.81 Q1753.26 1478.92 1749.75 1481.72 Q1746.23 1484.52 1739.75 1484.52 Q1737.57 1484.52 1735.26 1484.08 Q1732.96 1483.67 1730.51 1482.81 L1730.51 1478.3 Q1732.45 1479.43 1734.77 1480.01 Q1737.08 1480.59 1739.61 1480.59 Q1744.01 1480.59 1746.3 1478.85 Q1748.61 1477.12 1748.61 1473.81 Q1748.61 1470.75 1746.46 1469.04 Q1744.33 1467.3 1740.51 1467.3 L1736.48 1467.3 L1736.48 1463.46 L1740.7 1463.46 Q1744.14 1463.46 1745.97 1462.09 Q1747.8 1460.7 1747.8 1458.11 Q1747.8 1455.45 1745.9 1454.04 Q1744.03 1452.6 1740.51 1452.6 Q1738.59 1452.6 1736.39 1453.02 Q1734.19 1453.44 1731.55 1454.31 L1731.55 1450.15 Q1734.21 1449.41 1736.53 1449.04 Q1738.87 1448.67 1740.93 1448.67 Q1746.25 1448.67 1749.35 1451.1 Q1752.45 1453.5 1752.45 1457.63 Q1752.45 1460.5 1750.81 1462.49 Q1749.17 1464.45 1746.13 1465.22 Z" fill="#000000" fill-rule="evenodd" fill-opacity="1" /><path clip-path="url(#clip480)" d="M 0 0 M1772.13 1452.37 Q1768.52 1452.37 1766.69 1455.94 Q1764.88 1459.48 1764.88 1466.61 Q1764.88 1473.71 1766.69 1477.28 Q1768.52 1480.82 1772.13 1480.82 Q1775.76 1480.82 1777.57 1477.28 Q1779.4 1473.71 1779.4 1466.61 Q1779.4 1459.48 1777.57 1455.94 Q1775.76 1452.37 1772.13 1452.37 M1772.13 1448.67 Q1777.94 1448.67 1781 1453.27 Q1784.07 1457.86 1784.07 1466.61 Q1784.07 1475.33 1781 1479.94 Q1777.94 1484.52 1772.13 1484.52 Q1766.32 1484.52 1763.24 1479.94 Q1760.19 1475.33 1760.19 1466.61 Q1760.19 1457.86 1763.24 1453.27 Q1766.32 1448.67 1772.13 1448.67 Z" fill="#000000" fill-rule="evenodd" fill-opacity="1" /><path clip-path="url(#clip480)" d="M 0 0 M1812.68 1479.92 L1820.32 1479.92 L1820.32 1453.55 L1812.01 1455.22 L1812.01 1450.96 L1820.27 1449.29 L1824.95 1449.29 L1824.95 1479.92 L1832.59 1479.92 L1832.59 1483.85 L1812.68 1483.85 L1812.68 1479.92 Z" fill="#000000" fill-rule="evenodd" fill-opacity="1" /><path clip-path="url(#clip480)" d="M 0 0 M1854.88 1453.37 L1843.07 1471.81 L1854.88 1471.81 L1854.88 1453.37 M1853.65 1449.29 L1859.53 1449.29 L1859.53 1471.81 L1864.46 1471.81 L1864.46 1475.7 L1859.53 1475.7 L1859.53 1483.85 L1854.88 1483.85 L1854.88 1475.7 L1839.28 1475.7 L1839.28 1471.19 L1853.65 1449.29 Z" fill="#000000" fill-rule="evenodd" fill-opacity="1" /><path clip-path="url(#clip480)" d="M 0 0 M1882.19 1452.37 Q1878.58 1452.37 1876.75 1455.94 Q1874.95 1459.48 1874.95 1466.61 Q1874.95 1473.71 1876.75 1477.28 Q1878.58 1480.82 1882.19 1480.82 Q1885.83 1480.82 1887.63 1477.28 Q1889.46 1473.71 1889.46 1466.61 Q1889.46 1459.48 1887.63 1455.94 Q1885.83 1452.37 1882.19 1452.37 M1882.19 1448.67 Q1888 1448.67 1891.06 1453.27 Q1894.14 1457.86 1894.14 1466.61 Q1894.14 1475.33 1891.06 1479.94 Q1888 1484.52 1882.19 1484.52 Q1876.38 1484.52 1873.3 1479.94 Q1870.25 1475.33 1870.25 1466.61 Q1870.25 1457.86 1873.3 1453.27 Q1876.38 1448.67 1882.19 1448.67 Z" fill="#000000" fill-rule="evenodd" fill-opacity="1" /><path clip-path="url(#clip480)" d="M 0 0 M1922.74 1479.92 L1930.38 1479.92 L1930.38 1453.55 L1922.07 1455.22 L1922.07 1450.96 L1930.33 1449.29 L1935.01 1449.29 L1935.01 1479.92 L1942.65 1479.92 L1942.65 1483.85 L1922.74 1483.85 L1922.74 1479.92 Z" fill="#000000" fill-rule="evenodd" fill-opacity="1" /><path clip-path="url(#clip480)" d="M 0 0 M1952.14 1449.29 L1970.5 1449.29 L1970.5 1453.23 L1956.42 1453.23 L1956.42 1461.7 Q1957.44 1461.35 1958.46 1461.19 Q1959.48 1461 1960.5 1461 Q1966.28 1461 1969.66 1464.18 Q1973.04 1467.35 1973.04 1472.76 Q1973.04 1478.34 1969.57 1481.44 Q1966.1 1484.52 1959.78 1484.52 Q1957.6 1484.52 1955.33 1484.15 Q1953.09 1483.78 1950.68 1483.04 L1950.68 1478.34 Q1952.76 1479.48 1954.99 1480.03 Q1957.21 1480.59 1959.69 1480.59 Q1963.69 1480.59 1966.03 1478.48 Q1968.37 1476.38 1968.37 1472.76 Q1968.37 1469.15 1966.03 1467.05 Q1963.69 1464.94 1959.69 1464.94 Q1957.81 1464.94 1955.94 1465.36 Q1954.08 1465.77 1952.14 1466.65 L1952.14 1449.29 Z" fill="#000000" fill-rule="evenodd" fill-opacity="1" /><path clip-path="url(#clip480)" d="M 0 0 M1992.25 1452.37 Q1988.64 1452.37 1986.82 1455.94 Q1985.01 1459.48 1985.01 1466.61 Q1985.01 1473.71 1986.82 1477.28 Q1988.64 1480.82 1992.25 1480.82 Q1995.89 1480.82 1997.69 1477.28 Q1999.52 1473.71 1999.52 1466.61 Q1999.52 1459.48 1997.69 1455.94 Q1995.89 1452.37 1992.25 1452.37 M1992.25 1448.67 Q1998.07 1448.67 2001.12 1453.27 Q2004.2 1457.86 2004.2 1466.61 Q2004.2 1475.33 2001.12 1479.94 Q1998.07 1484.52 1992.25 1484.52 Q1986.44 1484.52 1983.37 1479.94 Q1980.31 1475.33 1980.31 1466.61 Q1980.31 1457.86 1983.37 1453.27 Q1986.44 1448.67 1992.25 1448.67 Z" fill="#000000" fill-rule="evenodd" fill-opacity="1" /><path clip-path="url(#clip480)" d="M 0 0 M2032.8 1479.92 L2040.44 1479.92 L2040.44 1453.55 L2032.13 1455.22 L2032.13 1450.96 L2040.4 1449.29 L2045.07 1449.29 L2045.07 1479.92 L2052.71 1479.92 L2052.71 1483.85 L2032.8 1483.85 L2032.8 1479.92 Z" fill="#000000" fill-rule="evenodd" fill-opacity="1" /><path clip-path="url(#clip480)" d="M 0 0 M2072.73 1464.71 Q2069.59 1464.71 2067.73 1466.86 Q2065.91 1469.01 2065.91 1472.76 Q2065.91 1476.49 2067.73 1478.67 Q2069.59 1480.82 2072.73 1480.82 Q2075.88 1480.82 2077.71 1478.67 Q2079.56 1476.49 2079.56 1472.76 Q2079.56 1469.01 2077.71 1466.86 Q2075.88 1464.71 2072.73 1464.71 M2082.02 1450.06 L2082.02 1454.31 Q2080.26 1453.48 2078.45 1453.04 Q2076.67 1452.6 2074.91 1452.6 Q2070.28 1452.6 2067.83 1455.73 Q2065.4 1458.85 2065.05 1465.17 Q2066.41 1463.16 2068.48 1462.09 Q2070.54 1461 2073.01 1461 Q2078.22 1461 2081.23 1464.18 Q2084.26 1467.32 2084.26 1472.76 Q2084.26 1478.09 2081.11 1481.31 Q2077.97 1484.52 2072.73 1484.52 Q2066.74 1484.52 2063.57 1479.94 Q2060.4 1475.33 2060.4 1466.61 Q2060.4 1458.41 2064.29 1453.55 Q2068.17 1448.67 2074.72 1448.67 Q2076.48 1448.67 2078.27 1449.01 Q2080.07 1449.36 2082.02 1450.06 Z" fill="#000000" fill-rule="evenodd" fill-opacity="1" /><path clip-path="url(#clip480)" d="M 0 0 M2102.32 1452.37 Q2098.71 1452.37 2096.88 1455.94 Q2095.07 1459.48 2095.07 1466.61 Q2095.07 1473.71 2096.88 1477.28 Q2098.71 1480.82 2102.32 1480.82 Q2105.95 1480.82 2107.76 1477.28 Q2109.59 1473.71 2109.59 1466.61 Q2109.59 1459.48 2107.76 1455.94 Q2105.95 1452.37 2102.32 1452.37 M2102.32 1448.67 Q2108.13 1448.67 2111.18 1453.27 Q2114.26 1457.86 2114.26 1466.61 Q2114.26 1475.33 2111.18 1479.94 Q2108.13 1484.52 2102.32 1484.52 Q2096.51 1484.52 2093.43 1479.94 Q2090.37 1475.33 2090.37 1466.61 Q2090.37 1457.86 2093.43 1453.27 Q2096.51 1448.67 2102.32 1448.67 Z" fill="#000000" fill-rule="evenodd" fill-opacity="1" /><path clip-path="url(#clip480)" d="M 0 0 M2142.87 1479.92 L2150.51 1479.92 L2150.51 1453.55 L2142.2 1455.22 L2142.2 1450.96 L2150.46 1449.29 L2155.13 1449.29 L2155.13 1479.92 L2162.77 1479.92 L2162.77 1483.85 L2142.87 1483.85 L2142.87 1479.92 Z" fill="#000000" fill-rule="evenodd" fill-opacity="1" /><path clip-path="url(#clip480)" d="M 0 0 M2171.04 1449.29 L2193.26 1449.29 L2193.26 1451.28 L2180.71 1483.85 L2175.83 1483.85 L2187.63 1453.23 L2171.04 1453.23 L2171.04 1449.29 Z" fill="#000000" fill-rule="evenodd" fill-opacity="1" /><path clip-path="url(#clip480)" d="M 0 0 M2212.38 1452.37 Q2208.77 1452.37 2206.94 1455.94 Q2205.13 1459.48 2205.13 1466.61 Q2205.13 1473.71 2206.94 1477.28 Q2208.77 1480.82 2212.38 1480.82 Q2216.01 1480.82 2217.82 1477.28 Q2219.65 1473.71 2219.65 1466.61 Q2219.65 1459.48 2217.82 1455.94 Q2216.01 1452.37 2212.38 1452.37 M2212.38 1448.67 Q2218.19 1448.67 2221.25 1453.27 Q2224.32 1457.86 2224.32 1466.61 Q2224.32 1475.33 2221.25 1479.94 Q2218.19 1484.52 2212.38 1484.52 Q2206.57 1484.52 2203.49 1479.94 Q2200.44 1475.33 2200.44 1466.61 Q2200.44 1457.86 2203.49 1453.27 Q2206.57 1448.67 2212.38 1448.67 Z" fill="#000000" fill-rule="evenodd" fill-opacity="1" /><path clip-path="url(#clip480)" d="M 0 0 M2252.93 1479.92 L2260.57 1479.92 L2260.57 1453.55 L2252.26 1455.22 L2252.26 1450.96 L2260.52 1449.29 L2265.2 1449.29 L2265.2 1479.92 L2272.84 1479.92 L2272.84 1483.85 L2252.93 1483.85 L2252.93 1479.92 Z" fill="#000000" fill-rule="evenodd" fill-opacity="1" /><path clip-path="url(#clip480)" d="M 0 0 M2292.28 1467.44 Q2288.95 1467.44 2287.03 1469.22 Q2285.13 1471 2285.13 1474.13 Q2285.13 1477.25 2287.03 1479.04 Q2288.95 1480.82 2292.28 1480.82 Q2295.61 1480.82 2297.54 1479.04 Q2299.46 1477.23 2299.46 1474.13 Q2299.46 1471 2297.54 1469.22 Q2295.64 1467.44 2292.28 1467.44 M2287.6 1465.45 Q2284.6 1464.71 2282.91 1462.65 Q2281.24 1460.59 2281.24 1457.63 Q2281.24 1453.48 2284.18 1451.07 Q2287.14 1448.67 2292.28 1448.67 Q2297.44 1448.67 2300.38 1451.07 Q2303.32 1453.48 2303.32 1457.63 Q2303.32 1460.59 2301.63 1462.65 Q2299.97 1464.71 2296.98 1465.45 Q2300.36 1466.24 2302.23 1468.53 Q2304.13 1470.82 2304.13 1474.13 Q2304.13 1479.15 2301.05 1481.84 Q2298 1484.52 2292.28 1484.52 Q2286.56 1484.52 2283.48 1481.84 Q2280.43 1479.15 2280.43 1474.13 Q2280.43 1470.82 2282.33 1468.53 Q2284.22 1466.24 2287.6 1465.45 M2285.89 1458.06 Q2285.89 1460.75 2287.56 1462.25 Q2289.25 1463.76 2292.28 1463.76 Q2295.29 1463.76 2296.98 1462.25 Q2298.69 1460.75 2298.69 1458.06 Q2298.69 1455.38 2296.98 1453.88 Q2295.29 1452.37 2292.28 1452.37 Q2289.25 1452.37 2287.56 1453.88 Q2285.89 1455.38 2285.89 1458.06 Z" fill="#000000" fill-rule="evenodd" fill-opacity="1" /><path clip-path="url(#clip480)" d="M 0 0 M2322.44 1452.37 Q2318.83 1452.37 2317 1455.94 Q2315.2 1459.48 2315.2 1466.61 Q2315.2 1473.71 2317 1477.28 Q2318.83 1480.82 2322.44 1480.82 Q2326.08 1480.82 2327.88 1477.28 Q2329.71 1473.71 2329.71 1466.61 Q2329.71 1459.48 2327.88 1455.94 Q2326.08 1452.37 2322.44 1452.37 M2322.44 1448.67 Q2328.25 1448.67 2331.31 1453.27 Q2334.39 1457.86 2334.39 1466.61 Q2334.39 1475.33 2331.31 1479.94 Q2328.25 1484.52 2322.44 1484.52 Q2316.63 1484.52 2313.55 1479.94 Q2310.5 1475.33 2310.5 1466.61 Q2310.5 1457.86 2313.55 1453.27 Q2316.63 1448.67 2322.44 1448.67 Z" fill="#000000" fill-rule="evenodd" fill-opacity="1" /><path clip-path="url(#clip480)" d="M 0 0 M1017.43 1522.08 L1017.43 1528.35 Q1013.77 1526.6 1010.53 1525.74 Q1007.28 1524.88 1004.26 1524.88 Q999.004 1524.88 996.14 1526.92 Q993.307 1528.96 993.307 1532.71 Q993.307 1535.87 995.185 1537.49 Q997.095 1539.08 1002.38 1540.07 L1006.26 1540.86 Q1013.45 1542.23 1016.86 1545.7 Q1020.3 1549.14 1020.3 1554.93 Q1020.3 1561.84 1015.65 1565.4 Q1011.04 1568.97 1002.09 1568.97 Q998.718 1568.97 994.898 1568.2 Q991.111 1567.44 987.037 1565.94 L987.037 1559.32 Q990.952 1561.52 994.707 1562.63 Q998.463 1563.75 1002.09 1563.75 Q1007.6 1563.75 1010.59 1561.58 Q1013.58 1559.42 1013.58 1555.41 Q1013.58 1551.91 1011.42 1549.93 Q1009.28 1547.96 1004.38 1546.97 L1000.47 1546.21 Q993.275 1544.78 990.061 1541.72 Q986.846 1538.67 986.846 1533.22 Q986.846 1526.92 991.27 1523.29 Q995.726 1519.66 1003.52 1519.66 Q1006.87 1519.66 1010.34 1520.27 Q1013.8 1520.87 1017.43 1522.08 Z" fill="#000000" fill-rule="evenodd" fill-opacity="1" /><path clip-path="url(#clip480)" d="M 0 0 M1055.72 1533.76 L1055.72 1539.24 Q1053.24 1537.87 1050.73 1537.2 Q1048.24 1536.5 1045.7 1536.5 Q1040 1536.5 1036.85 1540.13 Q1033.7 1543.73 1033.7 1550.25 Q1033.7 1556.78 1036.85 1560.4 Q1040 1564 1045.7 1564 Q1048.24 1564 1050.73 1563.33 Q1053.24 1562.63 1055.72 1561.26 L1055.72 1566.68 Q1053.27 1567.82 1050.63 1568.39 Q1048.02 1568.97 1045.06 1568.97 Q1037.01 1568.97 1032.27 1563.91 Q1027.52 1558.85 1027.52 1550.25 Q1027.52 1541.53 1032.3 1536.53 Q1037.1 1531.54 1045.44 1531.54 Q1048.15 1531.54 1050.73 1532.11 Q1053.3 1532.65 1055.72 1533.76 Z" fill="#000000" fill-rule="evenodd" fill-opacity="1" /><path clip-path="url(#clip480)" d="M 0 0 M1082.11 1550.12 Q1075.01 1550.12 1072.27 1551.75 Q1069.54 1553.37 1069.54 1557.29 Q1069.54 1560.4 1071.57 1562.25 Q1073.64 1564.07 1077.18 1564.07 Q1082.04 1564.07 1084.97 1560.63 Q1087.93 1557.16 1087.93 1551.43 L1087.93 1550.12 L1082.11 1550.12 M1093.79 1547.71 L1093.79 1568.04 L1087.93 1568.04 L1087.93 1562.63 Q1085.93 1565.88 1082.94 1567.44 Q1079.94 1568.97 1075.62 1568.97 Q1070.14 1568.97 1066.89 1565.91 Q1063.68 1562.82 1063.68 1557.67 Q1063.68 1551.65 1067.69 1548.6 Q1071.73 1545.54 1079.72 1545.54 L1087.93 1545.54 L1087.93 1544.97 Q1087.93 1540.93 1085.26 1538.73 Q1082.62 1536.5 1077.81 1536.5 Q1074.76 1536.5 1071.86 1537.23 Q1068.96 1537.97 1066.29 1539.43 L1066.29 1534.02 Q1069.5 1532.78 1072.53 1532.17 Q1075.55 1531.54 1078.42 1531.54 Q1086.15 1531.54 1089.97 1535.55 Q1093.79 1539.56 1093.79 1547.71 Z" fill="#000000" fill-rule="evenodd" fill-opacity="1" /><path clip-path="url(#clip480)" d="M 0 0 M1111.65 1522.27 L1111.65 1532.4 L1123.71 1532.4 L1123.71 1536.95 L1111.65 1536.95 L1111.65 1556.3 Q1111.65 1560.66 1112.82 1561.9 Q1114.03 1563.14 1117.69 1563.14 L1123.71 1563.14 L1123.71 1568.04 L1117.69 1568.04 Q1110.91 1568.04 1108.34 1565.53 Q1105.76 1562.98 1105.76 1556.3 L1105.76 1536.95 L1101.46 1536.95 L1101.46 1532.4 L1105.76 1532.4 L1105.76 1522.27 L1111.65 1522.27 Z" fill="#000000" fill-rule="evenodd" fill-opacity="1" /><path clip-path="url(#clip480)" d="M 0 0 M1137.2 1522.27 L1137.2 1532.4 L1149.27 1532.4 L1149.27 1536.95 L1137.2 1536.95 L1137.2 1556.3 Q1137.2 1560.66 1138.38 1561.9 Q1139.59 1563.14 1143.25 1563.14 L1149.27 1563.14 L1149.27 1568.04 L1143.25 1568.04 Q1136.47 1568.04 1133.89 1565.53 Q1131.32 1562.98 1131.32 1556.3 L1131.32 1536.95 L1127.02 1536.95 L1127.02 1532.4 L1131.32 1532.4 L1131.32 1522.27 L1137.2 1522.27 Z" fill="#000000" fill-rule="evenodd" fill-opacity="1" /><path clip-path="url(#clip480)" d="M 0 0 M1187.46 1548.76 L1187.46 1551.62 L1160.53 1551.62 Q1160.92 1557.67 1164.16 1560.85 Q1167.44 1564 1173.27 1564 Q1176.64 1564 1179.79 1563.17 Q1182.97 1562.35 1186.09 1560.69 L1186.09 1566.23 Q1182.94 1567.57 1179.63 1568.27 Q1176.32 1568.97 1172.92 1568.97 Q1164.39 1568.97 1159.39 1564 Q1154.42 1559.04 1154.42 1550.57 Q1154.42 1541.82 1159.13 1536.69 Q1163.88 1531.54 1171.9 1531.54 Q1179.09 1531.54 1183.26 1536.18 Q1187.46 1540.8 1187.46 1548.76 M1181.6 1547.04 Q1181.54 1542.23 1178.9 1539.37 Q1176.29 1536.5 1171.96 1536.5 Q1167.06 1536.5 1164.1 1539.27 Q1161.17 1542.04 1160.73 1547.07 L1181.6 1547.04 Z" fill="#000000" fill-rule="evenodd" fill-opacity="1" /><path clip-path="url(#clip480)" d="M 0 0 M1217.73 1537.87 Q1216.74 1537.3 1215.57 1537.04 Q1214.42 1536.76 1213.02 1536.76 Q1208.05 1536.76 1205.38 1540 Q1202.74 1543.22 1202.74 1549.27 L1202.74 1568.04 L1196.85 1568.04 L1196.85 1532.4 L1202.74 1532.4 L1202.74 1537.93 Q1204.58 1534.69 1207.54 1533.13 Q1210.5 1531.54 1214.74 1531.54 Q1215.34 1531.54 1216.07 1531.63 Q1216.81 1531.7 1217.7 1531.85 L1217.73 1537.87 Z" fill="#000000" fill-rule="evenodd" fill-opacity="1" /><path clip-path="url(#clip480)" d="M 0 0 M1223.87 1532.4 L1229.73 1532.4 L1229.73 1568.04 L1223.87 1568.04 L1223.87 1532.4 M1223.87 1518.52 L1229.73 1518.52 L1229.73 1525.93 L1223.87 1525.93 L1223.87 1518.52 Z" fill="#000000" fill-rule="evenodd" fill-opacity="1" /><path clip-path="url(#clip480)" d="M 0 0 M1271.62 1546.53 L1271.62 1568.04 L1265.76 1568.04 L1265.76 1546.72 Q1265.76 1541.66 1263.79 1539.14 Q1261.81 1536.63 1257.87 1536.63 Q1253.12 1536.63 1250.39 1539.65 Q1247.65 1542.68 1247.65 1547.9 L1247.65 1568.04 L1241.76 1568.04 L1241.76 1532.4 L1247.65 1532.4 L1247.65 1537.93 Q1249.75 1534.72 1252.58 1533.13 Q1255.45 1531.54 1259.17 1531.54 Q1265.31 1531.54 1268.46 1535.36 Q1271.62 1539.14 1271.62 1546.53 Z" fill="#000000" fill-rule="evenodd" fill-opacity="1" /><path clip-path="url(#clip480)" d="M 0 0 M1306.75 1549.81 Q1306.75 1543.44 1304.11 1539.94 Q1301.5 1536.44 1296.76 1536.44 Q1292.05 1536.44 1289.41 1539.94 Q1286.8 1543.44 1286.8 1549.81 Q1286.8 1556.14 1289.41 1559.64 Q1292.05 1563.14 1296.76 1563.14 Q1301.5 1563.14 1304.11 1559.64 Q1306.75 1556.14 1306.75 1549.81 M1312.61 1563.62 Q1312.61 1572.72 1308.57 1577.15 Q1304.53 1581.6 1296.19 1581.6 Q1293.1 1581.6 1290.36 1581.13 Q1287.63 1580.68 1285.05 1579.72 L1285.05 1574.03 Q1287.63 1575.43 1290.14 1576.1 Q1292.65 1576.76 1295.26 1576.76 Q1301.03 1576.76 1303.89 1573.74 Q1306.75 1570.75 1306.75 1564.67 L1306.75 1561.77 Q1304.94 1564.92 1302.11 1566.48 Q1299.27 1568.04 1295.33 1568.04 Q1288.77 1568.04 1284.76 1563.05 Q1280.75 1558.05 1280.75 1549.81 Q1280.75 1541.53 1284.76 1536.53 Q1288.77 1531.54 1295.33 1531.54 Q1299.27 1531.54 1302.11 1533.1 Q1304.94 1534.66 1306.75 1537.81 L1306.75 1532.4 L1312.61 1532.4 L1312.61 1563.62 Z" fill="#000000" fill-rule="evenodd" fill-opacity="1" /><path clip-path="url(#clip480)" d="M 0 0 M1361.59 1550.12 Q1354.5 1550.12 1351.76 1551.75 Q1349.02 1553.37 1349.02 1557.29 Q1349.02 1560.4 1351.06 1562.25 Q1353.13 1564.07 1356.66 1564.07 Q1361.53 1564.07 1364.46 1560.63 Q1367.42 1557.16 1367.42 1551.43 L1367.42 1550.12 L1361.59 1550.12 M1373.28 1547.71 L1373.28 1568.04 L1367.42 1568.04 L1367.42 1562.63 Q1365.41 1565.88 1362.42 1567.44 Q1359.43 1568.97 1355.1 1568.97 Q1349.63 1568.97 1346.38 1565.91 Q1343.17 1562.82 1343.17 1557.67 Q1343.17 1551.65 1347.18 1548.6 Q1351.22 1545.54 1359.21 1545.54 L1367.42 1545.54 L1367.42 1544.97 Q1367.42 1540.93 1364.75 1538.73 Q1362.1 1536.5 1357.3 1536.5 Q1354.24 1536.5 1351.35 1537.23 Q1348.45 1537.97 1345.78 1539.43 L1345.78 1534.02 Q1348.99 1532.78 1352.01 1532.17 Q1355.04 1531.54 1357.9 1531.54 Q1365.64 1531.54 1369.46 1535.55 Q1373.28 1539.56 1373.28 1547.71 Z" fill="#000000" fill-rule="evenodd" fill-opacity="1" /><path clip-path="url(#clip480)" d="M 0 0 M1414.97 1546.53 L1414.97 1568.04 L1409.11 1568.04 L1409.11 1546.72 Q1409.11 1541.66 1407.14 1539.14 Q1405.17 1536.63 1401.22 1536.63 Q1396.48 1536.63 1393.74 1539.65 Q1391 1542.68 1391 1547.9 L1391 1568.04 L1385.12 1568.04 L1385.12 1532.4 L1391 1532.4 L1391 1537.93 Q1393.11 1534.72 1395.94 1533.13 Q1398.8 1531.54 1402.53 1531.54 Q1408.67 1531.54 1411.82 1535.36 Q1414.97 1539.14 1414.97 1546.53 Z" fill="#000000" fill-rule="evenodd" fill-opacity="1" /><path clip-path="url(#clip480)" d="M 0 0 M1450.11 1549.81 Q1450.11 1543.44 1447.47 1539.94 Q1444.86 1536.44 1440.12 1536.44 Q1435.41 1536.44 1432.76 1539.94 Q1430.15 1543.44 1430.15 1549.81 Q1430.15 1556.14 1432.76 1559.64 Q1435.41 1563.14 1440.12 1563.14 Q1444.86 1563.14 1447.47 1559.64 Q1450.11 1556.14 1450.11 1549.81 M1455.97 1563.62 Q1455.97 1572.72 1451.92 1577.15 Q1447.88 1581.6 1439.54 1581.6 Q1436.46 1581.6 1433.72 1581.13 Q1430.98 1580.68 1428.4 1579.72 L1428.4 1574.03 Q1430.98 1575.43 1433.5 1576.1 Q1436.01 1576.76 1438.62 1576.76 Q1444.38 1576.76 1447.25 1573.74 Q1450.11 1570.75 1450.11 1564.67 L1450.11 1561.77 Q1448.3 1564.92 1445.46 1566.48 Q1442.63 1568.04 1438.68 1568.04 Q1432.13 1568.04 1428.12 1563.05 Q1424.11 1558.05 1424.11 1549.81 Q1424.11 1541.53 1428.12 1536.53 Q1432.13 1531.54 1438.68 1531.54 Q1442.63 1531.54 1445.46 1533.1 Q1448.3 1534.66 1450.11 1537.81 L1450.11 1532.4 L1455.97 1532.4 L1455.97 1563.62 Z" fill="#000000" fill-rule="evenodd" fill-opacity="1" /><path clip-path="url(#clip480)" d="M 0 0 M1468.03 1518.52 L1473.89 1518.52 L1473.89 1568.04 L1468.03 1568.04 L1468.03 1518.52 Z" fill="#000000" fill-rule="evenodd" fill-opacity="1" /><path clip-path="url(#clip480)" d="M 0 0 M1516.63 1548.76 L1516.63 1551.62 L1489.7 1551.62 Q1490.09 1557.67 1493.33 1560.85 Q1496.61 1564 1502.44 1564 Q1505.81 1564 1508.96 1563.17 Q1512.14 1562.35 1515.26 1560.69 L1515.26 1566.23 Q1512.11 1567.57 1508.8 1568.27 Q1505.49 1568.97 1502.09 1568.97 Q1493.56 1568.97 1488.56 1564 Q1483.59 1559.04 1483.59 1550.57 Q1483.59 1541.82 1488.3 1536.69 Q1493.05 1531.54 1501.07 1531.54 Q1508.26 1531.54 1512.43 1536.18 Q1516.63 1540.8 1516.63 1548.76 M1510.78 1547.04 Q1510.71 1542.23 1508.07 1539.37 Q1505.46 1536.5 1501.13 1536.5 Q1496.23 1536.5 1493.27 1539.27 Q1490.34 1542.04 1489.9 1547.07 L1510.78 1547.04 Z" fill="#000000" fill-rule="evenodd" fill-opacity="1" /><path clip-path="url(#clip480)" d="M 0 0 M1561.03 1518.58 Q1556.77 1525.9 1554.7 1533.06 Q1552.63 1540.23 1552.63 1547.58 Q1552.63 1554.93 1554.7 1562.16 Q1556.8 1569.35 1561.03 1576.64 L1555.94 1576.64 Q1551.17 1569.16 1548.78 1561.93 Q1546.42 1554.71 1546.42 1547.58 Q1546.42 1540.48 1548.78 1533.29 Q1551.13 1526.09 1555.94 1518.58 L1561.03 1518.58 Z" fill="#000000" fill-rule="evenodd" fill-opacity="1" /><path clip-path="url(#clip480)" d="M 0 0 M1582.55 1523.77 Q1580 1523.77 1578.25 1525.55 Q1576.5 1527.3 1576.5 1529.85 Q1576.5 1532.36 1578.25 1534.11 Q1580 1535.83 1582.55 1535.83 Q1585.09 1535.83 1586.85 1534.11 Q1588.6 1532.36 1588.6 1529.85 Q1588.6 1527.34 1586.81 1525.55 Q1585.06 1523.77 1582.55 1523.77 M1582.55 1519.66 Q1584.59 1519.66 1586.46 1520.46 Q1588.34 1521.22 1589.71 1522.69 Q1591.17 1524.12 1591.91 1525.93 Q1592.64 1527.75 1592.64 1529.85 Q1592.64 1534.05 1589.68 1536.98 Q1586.75 1539.88 1582.48 1539.88 Q1578.19 1539.88 1575.32 1537.01 Q1572.46 1534.15 1572.46 1529.85 Q1572.46 1525.58 1575.39 1522.62 Q1578.32 1519.66 1582.55 1519.66 Z" fill="#000000" fill-rule="evenodd" fill-opacity="1" /><path clip-path="url(#clip480)" d="M 0 0 M1604.06 1518.58 L1609.16 1518.58 Q1613.93 1526.09 1616.29 1533.29 Q1618.67 1540.48 1618.67 1547.58 Q1618.67 1554.71 1616.29 1561.93 Q1613.93 1569.16 1609.16 1576.64 L1604.06 1576.64 Q1608.3 1569.35 1610.37 1562.16 Q1612.47 1554.93 1612.47 1547.58 Q1612.47 1540.23 1610.37 1533.06 Q1608.3 1525.9 1604.06 1518.58 Z" fill="#000000" fill-rule="evenodd" fill-opacity="1" /><polyline clip-path="url(#clip482)" style="stroke:#000000; stroke-width:2; stroke-opacity:0.1; fill:none" points="
  252.764,1423.18 2352.76,1423.18 
  "/>
<polyline clip-path="url(#clip482)" style="stroke:#000000; stroke-width:2; stroke-opacity:0.1; fill:none" points="
  252.764,1147.99 2352.76,1147.99 
  "/>
<polyline clip-path="url(#clip482)" style="stroke:#000000; stroke-width:2; stroke-opacity:0.1; fill:none" points="
  252.764,872.806 2352.76,872.806 
  "/>
<polyline clip-path="url(#clip482)" style="stroke:#000000; stroke-width:2; stroke-opacity:0.1; fill:none" points="
  252.764,597.618 2352.76,597.618 
  "/>
<polyline clip-path="url(#clip482)" style="stroke:#000000; stroke-width:2; stroke-opacity:0.1; fill:none" points="
  252.764,322.431 2352.76,322.431 
  "/>
<polyline clip-path="url(#clip482)" style="stroke:#000000; stroke-width:2; stroke-opacity:0.1; fill:none" points="
  252.764,47.2441 2352.76,47.2441 
  "/>
<polyline clip-path="url(#clip480)" style="stroke:#000000; stroke-width:4; stroke-opacity:1; fill:none" points="
  252.764,1423.18 252.764,47.2441 
  "/>
<polyline clip-path="url(#clip480)" style="stroke:#000000; stroke-width:4; stroke-opacity:1; fill:none" points="
  252.764,1423.18 277.964,1423.18 
  "/>
<polyline clip-path="url(#clip480)" style="stroke:#000000; stroke-width:4; stroke-opacity:1; fill:none" points="
  252.764,1147.99 277.964,1147.99 
  "/>
<polyline clip-path="url(#clip480)" style="stroke:#000000; stroke-width:4; stroke-opacity:1; fill:none" points="
  252.764,872.806 277.964,872.806 
  "/>
<polyline clip-path="url(#clip480)" style="stroke:#000000; stroke-width:4; stroke-opacity:1; fill:none" points="
  252.764,597.618 277.964,597.618 
  "/>
<polyline clip-path="url(#clip480)" style="stroke:#000000; stroke-width:4; stroke-opacity:1; fill:none" points="
  252.764,322.431 277.964,322.431 
  "/>
<polyline clip-path="url(#clip480)" style="stroke:#000000; stroke-width:4; stroke-opacity:1; fill:none" points="
  252.764,47.2441 277.964,47.2441 
  "/>
<path clip-path="url(#clip480)" d="M 0 0 M116.135 1442.97 L123.774 1442.97 L123.774 1416.61 L115.464 1418.27 L115.464 1414.01 L123.728 1412.35 L128.404 1412.35 L128.404 1442.97 L136.042 1442.97 L136.042 1446.91 L116.135 1446.91 L116.135 1442.97 Z" fill="#000000" fill-rule="evenodd" fill-opacity="1" /><path clip-path="url(#clip480)" d="M 0 0 M155.487 1415.43 Q151.876 1415.43 150.047 1418.99 Q148.241 1422.53 148.241 1429.66 Q148.241 1436.77 150.047 1440.33 Q151.876 1443.88 155.487 1443.88 Q159.121 1443.88 160.927 1440.33 Q162.755 1436.77 162.755 1429.66 Q162.755 1422.53 160.927 1418.99 Q159.121 1415.43 155.487 1415.43 M155.487 1411.72 Q161.297 1411.72 164.352 1416.33 Q167.431 1420.91 167.431 1429.66 Q167.431 1438.39 164.352 1443 Q161.297 1447.58 155.487 1447.58 Q149.677 1447.58 146.598 1443 Q143.542 1438.39 143.542 1429.66 Q143.542 1420.91 146.598 1416.33 Q149.677 1411.72 155.487 1411.72 Z" fill="#000000" fill-rule="evenodd" fill-opacity="1" /><path clip-path="url(#clip480)" d="M 0 0 M167.431 1405.82 L191.543 1405.82 L191.543 1409.02 L167.431 1409.02 L167.431 1405.82 Z" fill="#000000" fill-rule="evenodd" fill-opacity="1" /><path clip-path="url(#clip480)" d="M 0 0 M199.781 1391.42 L214.695 1391.42 L214.695 1394.61 L203.26 1394.61 L203.26 1401.5 Q204.088 1401.22 204.915 1401.08 Q205.743 1400.93 206.57 1400.93 Q211.272 1400.93 214.018 1403.51 Q216.764 1406.09 216.764 1410.49 Q216.764 1415.02 213.943 1417.54 Q211.122 1420.04 205.987 1420.04 Q204.219 1420.04 202.376 1419.74 Q200.552 1419.44 198.596 1418.84 L198.596 1415.02 Q200.288 1415.94 202.094 1416.39 Q203.899 1416.85 205.912 1416.85 Q209.166 1416.85 211.065 1415.13 Q212.965 1413.42 212.965 1410.49 Q212.965 1407.55 211.065 1405.84 Q209.166 1404.13 205.912 1404.13 Q204.388 1404.13 202.865 1404.47 Q201.36 1404.81 199.781 1405.52 L199.781 1391.42 Z" fill="#000000" fill-rule="evenodd" fill-opacity="1" /><path clip-path="url(#clip480)" d="M 0 0 M114.931 1167.79 L122.57 1167.79 L122.57 1141.42 L114.26 1143.09 L114.26 1138.83 L122.524 1137.16 L127.2 1137.16 L127.2 1167.79 L134.839 1167.79 L134.839 1171.72 L114.931 1171.72 L114.931 1167.79 Z" fill="#000000" fill-rule="evenodd" fill-opacity="1" /><path clip-path="url(#clip480)" d="M 0 0 M154.283 1140.24 Q150.672 1140.24 148.843 1143.8 Q147.038 1147.35 147.038 1154.48 Q147.038 1161.58 148.843 1165.15 Q150.672 1168.69 154.283 1168.69 Q157.917 1168.69 159.723 1165.15 Q161.552 1161.58 161.552 1154.48 Q161.552 1147.35 159.723 1143.8 Q157.917 1140.24 154.283 1140.24 M154.283 1136.54 Q160.093 1136.54 163.149 1141.14 Q166.227 1145.73 166.227 1154.48 Q166.227 1163.2 163.149 1167.81 Q160.093 1172.39 154.283 1172.39 Q148.473 1172.39 145.394 1167.81 Q142.339 1163.2 142.339 1154.48 Q142.339 1145.73 145.394 1141.14 Q148.473 1136.54 154.283 1136.54 Z" fill="#000000" fill-rule="evenodd" fill-opacity="1" /><path clip-path="url(#clip480)" d="M 0 0 M166.227 1130.64 L190.339 1130.64 L190.339 1133.83 L166.227 1133.83 L166.227 1130.64 Z" fill="#000000" fill-rule="evenodd" fill-opacity="1" /><path clip-path="url(#clip480)" d="M 0 0 M208.978 1119.54 L199.386 1134.53 L208.978 1134.53 L208.978 1119.54 M207.981 1116.23 L212.758 1116.23 L212.758 1134.53 L216.764 1134.53 L216.764 1137.69 L212.758 1137.69 L212.758 1144.31 L208.978 1144.31 L208.978 1137.69 L196.301 1137.69 L196.301 1134.02 L207.981 1116.23 Z" fill="#000000" fill-rule="evenodd" fill-opacity="1" /><path clip-path="url(#clip480)" d="M 0 0 M115.853 892.598 L123.492 892.598 L123.492 866.232 L115.182 867.899 L115.182 863.64 L123.446 861.973 L128.121 861.973 L128.121 892.598 L135.76 892.598 L135.76 896.533 L115.853 896.533 L115.853 892.598 Z" fill="#000000" fill-rule="evenodd" fill-opacity="1" /><path clip-path="url(#clip480)" d="M 0 0 M155.205 865.052 Q151.594 865.052 149.765 868.617 Q147.959 872.158 147.959 879.288 Q147.959 886.394 149.765 889.959 Q151.594 893.501 155.205 893.501 Q158.839 893.501 160.644 889.959 Q162.473 886.394 162.473 879.288 Q162.473 872.158 160.644 868.617 Q158.839 865.052 155.205 865.052 M155.205 861.348 Q161.015 861.348 164.07 865.955 Q167.149 870.538 167.149 879.288 Q167.149 888.015 164.07 892.621 Q161.015 897.204 155.205 897.204 Q149.395 897.204 146.316 892.621 Q143.26 888.015 143.26 879.288 Q143.26 870.538 146.316 865.955 Q149.395 861.348 155.205 861.348 Z" fill="#000000" fill-rule="evenodd" fill-opacity="1" /><path clip-path="url(#clip480)" d="M 0 0 M167.149 855.449 L191.261 855.449 L191.261 858.647 L167.149 858.647 L167.149 855.449 Z" fill="#000000" fill-rule="evenodd" fill-opacity="1" /><path clip-path="url(#clip480)" d="M 0 0 M210.971 853.982 Q213.698 854.566 215.222 856.409 Q216.764 858.252 216.764 860.96 Q216.764 865.117 213.905 867.392 Q211.046 869.668 205.78 869.668 Q204.012 869.668 202.132 869.311 Q200.27 868.972 198.276 868.276 L198.276 864.609 Q199.856 865.53 201.737 866.001 Q203.617 866.471 205.667 866.471 Q209.241 866.471 211.103 865.06 Q212.984 863.65 212.984 860.96 Q212.984 858.478 211.234 857.086 Q209.504 855.675 206.401 855.675 L203.128 855.675 L203.128 852.553 L206.551 852.553 Q209.354 852.553 210.84 851.443 Q212.325 850.315 212.325 848.209 Q212.325 846.046 210.783 844.898 Q209.26 843.732 206.401 843.732 Q204.84 843.732 203.053 844.071 Q201.266 844.409 199.122 845.124 L199.122 841.739 Q201.285 841.137 203.166 840.836 Q205.066 840.535 206.739 840.535 Q211.065 840.535 213.585 842.51 Q216.106 844.466 216.106 847.814 Q216.106 850.146 214.77 851.763 Q213.435 853.362 210.971 853.982 Z" fill="#000000" fill-rule="evenodd" fill-opacity="1" /><path clip-path="url(#clip480)" d="M 0 0 M116.624 617.411 L124.263 617.411 L124.263 591.045 L115.953 592.712 L115.953 588.453 L124.217 586.786 L128.893 586.786 L128.893 617.411 L136.531 617.411 L136.531 621.346 L116.624 621.346 L116.624 617.411 Z" fill="#000000" fill-rule="evenodd" fill-opacity="1" /><path clip-path="url(#clip480)" d="M 0 0 M155.976 589.865 Q152.365 589.865 150.536 593.429 Q148.73 596.971 148.73 604.101 Q148.73 611.207 150.536 614.772 Q152.365 618.314 155.976 618.314 Q159.61 618.314 161.416 614.772 Q163.244 611.207 163.244 604.101 Q163.244 596.971 161.416 593.429 Q159.61 589.865 155.976 589.865 M155.976 586.161 Q161.786 586.161 164.841 590.767 Q167.92 595.351 167.92 604.101 Q167.92 612.828 164.841 617.434 Q161.786 622.017 155.976 622.017 Q150.166 622.017 147.087 617.434 Q144.031 612.828 144.031 604.101 Q144.031 595.351 147.087 590.767 Q150.166 586.161 155.976 586.161 Z" fill="#000000" fill-rule="evenodd" fill-opacity="1" /><path clip-path="url(#clip480)" d="M 0 0 M167.92 580.262 L192.032 580.262 L192.032 583.46 L167.92 583.46 L167.92 580.262 Z" fill="#000000" fill-rule="evenodd" fill-opacity="1" /><path clip-path="url(#clip480)" d="M 0 0 M203.504 590.738 L216.764 590.738 L216.764 593.936 L198.934 593.936 L198.934 590.738 Q201.097 588.5 204.821 584.739 Q208.564 580.958 209.523 579.867 Q211.347 577.817 212.062 576.407 Q212.796 574.977 212.796 573.604 Q212.796 571.366 211.216 569.956 Q209.655 568.545 207.134 568.545 Q205.348 568.545 203.354 569.166 Q201.379 569.786 199.122 571.047 L199.122 567.21 Q201.417 566.288 203.41 565.818 Q205.404 565.348 207.059 565.348 Q211.423 565.348 214.018 567.529 Q216.613 569.711 216.613 573.36 Q216.613 575.09 215.955 576.651 Q215.316 578.193 213.604 580.3 Q213.134 580.845 210.614 583.46 Q208.094 586.055 203.504 590.738 Z" fill="#000000" fill-rule="evenodd" fill-opacity="1" /><path clip-path="url(#clip480)" d="M 0 0 M116.323 342.224 L123.962 342.224 L123.962 315.858 L115.652 317.525 L115.652 313.266 L123.916 311.599 L128.592 311.599 L128.592 342.224 L136.231 342.224 L136.231 346.159 L116.323 346.159 L116.323 342.224 Z" fill="#000000" fill-rule="evenodd" fill-opacity="1" /><path clip-path="url(#clip480)" d="M 0 0 M155.675 314.678 Q152.064 314.678 150.235 318.242 Q148.43 321.784 148.43 328.914 Q148.43 336.02 150.235 339.585 Q152.064 343.126 155.675 343.126 Q159.309 343.126 161.115 339.585 Q162.943 336.02 162.943 328.914 Q162.943 321.784 161.115 318.242 Q159.309 314.678 155.675 314.678 M155.675 310.974 Q161.485 310.974 164.541 315.58 Q167.619 320.164 167.619 328.914 Q167.619 337.64 164.541 342.247 Q161.485 346.83 155.675 346.83 Q149.865 346.83 146.786 342.247 Q143.73 337.64 143.73 328.914 Q143.73 320.164 146.786 315.58 Q149.865 310.974 155.675 310.974 Z" fill="#000000" fill-rule="evenodd" fill-opacity="1" /><path clip-path="url(#clip480)" d="M 0 0 M167.619 305.075 L191.731 305.075 L191.731 308.273 L167.619 308.273 L167.619 305.075 Z" fill="#000000" fill-rule="evenodd" fill-opacity="1" /><path clip-path="url(#clip480)" d="M 0 0 M200.589 315.551 L206.796 315.551 L206.796 294.129 L200.044 295.483 L200.044 292.023 L206.758 290.668 L210.557 290.668 L210.557 315.551 L216.764 315.551 L216.764 318.748 L200.589 318.748 L200.589 315.551 Z" fill="#000000" fill-rule="evenodd" fill-opacity="1" /><path clip-path="url(#clip480)" d="M 0 0 M146.058 67.0365 L153.697 67.0365 L153.697 40.6709 L145.387 42.3376 L145.387 38.0784 L153.651 36.4117 L158.327 36.4117 L158.327 67.0365 L165.966 67.0365 L165.966 70.9717 L146.058 70.9717 L146.058 67.0365 Z" fill="#000000" fill-rule="evenodd" fill-opacity="1" /><path clip-path="url(#clip480)" d="M 0 0 M185.41 39.4904 Q181.799 39.4904 179.97 43.0552 Q178.165 46.5968 178.165 53.7264 Q178.165 60.8329 179.97 64.3977 Q181.799 67.9393 185.41 67.9393 Q189.044 67.9393 190.85 64.3977 Q192.678 60.8329 192.678 53.7264 Q192.678 46.5968 190.85 43.0552 Q189.044 39.4904 185.41 39.4904 M185.41 35.7867 Q191.22 35.7867 194.276 40.3932 Q197.354 44.9765 197.354 53.7264 Q197.354 62.4532 194.276 67.0597 Q191.22 71.643 185.41 71.643 Q179.6 71.643 176.521 67.0597 Q173.466 62.4532 173.466 53.7264 Q173.466 44.9765 176.521 40.3932 Q179.6 35.7867 185.41 35.7867 Z" fill="#000000" fill-rule="evenodd" fill-opacity="1" /><path clip-path="url(#clip480)" d="M 0 0 M207.059 17.9827 Q204.125 17.9827 202.639 20.8791 Q201.172 23.7567 201.172 29.5495 Q201.172 35.3235 202.639 38.2199 Q204.125 41.0975 207.059 41.0975 Q210.012 41.0975 211.479 38.2199 Q212.965 35.3235 212.965 29.5495 Q212.965 23.7567 211.479 20.8791 Q210.012 17.9827 207.059 17.9827 M207.059 14.9735 Q211.78 14.9735 214.263 18.7162 Q216.764 22.4402 216.764 29.5495 Q216.764 36.64 214.263 40.3828 Q211.78 44.1067 207.059 44.1067 Q202.338 44.1067 199.837 40.3828 Q197.354 36.64 197.354 29.5495 Q197.354 22.4402 199.837 18.7162 Q202.338 14.9735 207.059 14.9735 Z" fill="#000000" fill-rule="evenodd" fill-opacity="1" /><path clip-path="url(#clip480)" d="M 0 0 M16.4842 1242.18 L16.4842 1233.52 L56.238 1212.45 L16.4842 1212.45 L16.4842 1206.21 L64.0042 1206.21 L64.0042 1214.87 L24.2503 1235.94 L64.0042 1235.94 L64.0042 1242.18 L16.4842 1242.18 Z" fill="#000000" fill-rule="evenodd" fill-opacity="1" /><path clip-path="url(#clip480)" d="M 0 0 M32.4621 1179.86 Q32.4621 1184.57 36.1542 1187.3 Q39.8145 1190.04 46.212 1190.04 Q52.6095 1190.04 56.3017 1187.34 Q59.9619 1184.6 59.9619 1179.86 Q59.9619 1175.18 56.2698 1172.44 Q52.5777 1169.7 46.212 1169.7 Q39.8781 1169.7 36.186 1172.44 Q32.4621 1175.18 32.4621 1179.86 M27.4968 1179.86 Q27.4968 1172.22 32.4621 1167.86 Q37.4273 1163.5 46.212 1163.5 Q54.9649 1163.5 59.9619 1167.86 Q64.9272 1172.22 64.9272 1179.86 Q64.9272 1187.53 59.9619 1191.89 Q54.9649 1196.22 46.212 1196.22 Q37.4273 1196.22 32.4621 1191.89 Q27.4968 1187.53 27.4968 1179.86 Z" fill="#000000" fill-rule="evenodd" fill-opacity="1" /><path clip-path="url(#clip480)" d="M 0 0 M33.8307 1133.13 Q33.2578 1134.12 33.0032 1135.3 Q32.7167 1136.44 32.7167 1137.84 Q32.7167 1142.81 35.9632 1145.48 Q39.1779 1148.12 45.2253 1148.12 L64.0042 1148.12 L64.0042 1154.01 L28.3562 1154.01 L28.3562 1148.12 L33.8944 1148.12 Q30.6479 1146.28 29.0883 1143.32 Q27.4968 1140.36 27.4968 1136.12 Q27.4968 1135.52 27.5923 1134.79 Q27.656 1134.06 27.8151 1133.16 L33.8307 1133.13 Z" fill="#000000" fill-rule="evenodd" fill-opacity="1" /><path clip-path="url(#clip480)" d="M 0 0 M35.1993 1100.38 Q31.2526 1098.18 29.3747 1095.13 Q27.4968 1092.07 27.4968 1087.94 Q27.4968 1082.37 31.4117 1079.34 Q35.2948 1076.32 42.4881 1076.32 L64.0042 1076.32 L64.0042 1082.21 L42.679 1082.21 Q37.5546 1082.21 35.072 1084.02 Q32.5894 1085.84 32.5894 1089.56 Q32.5894 1094.11 35.6131 1096.75 Q38.6368 1099.39 43.8567 1099.39 L64.0042 1099.39 L64.0042 1105.28 L42.679 1105.28 Q37.5228 1105.28 35.072 1107.1 Q32.5894 1108.91 32.5894 1112.7 Q32.5894 1117.19 35.6449 1119.83 Q38.6686 1122.47 43.8567 1122.47 L64.0042 1122.47 L64.0042 1128.36 L28.3562 1128.36 L28.3562 1122.47 L33.8944 1122.47 Q30.616 1120.46 29.0564 1117.66 Q27.4968 1114.86 27.4968 1111.01 Q27.4968 1107.13 29.4702 1104.42 Q31.4436 1101.69 35.1993 1100.38 Z" fill="#000000" fill-rule="evenodd" fill-opacity="1" /><path clip-path="url(#clip480)" d="M 0 0 M46.0847 1048.44 Q46.0847 1055.53 47.7079 1058.27 Q49.3312 1061.01 53.2461 1061.01 Q56.3653 1061.01 58.2114 1058.97 Q60.0256 1056.9 60.0256 1053.37 Q60.0256 1048.5 56.5881 1045.57 Q53.1188 1042.61 47.3897 1042.61 L46.0847 1042.61 L46.0847 1048.44 M43.6657 1036.76 L64.0042 1036.76 L64.0042 1042.61 L58.5933 1042.61 Q61.8398 1044.62 63.3994 1047.61 Q64.9272 1050.6 64.9272 1054.93 Q64.9272 1060.4 61.8716 1063.65 Q58.7843 1066.87 53.6281 1066.87 Q47.6125 1066.87 44.5569 1062.85 Q41.5014 1058.81 41.5014 1050.82 L41.5014 1042.61 L40.9285 1042.61 Q36.8862 1042.61 34.6901 1045.29 Q32.4621 1047.93 32.4621 1052.73 Q32.4621 1055.79 33.1941 1058.69 Q33.9262 1061.58 35.3903 1064.26 L29.9795 1064.26 Q28.7381 1061.04 28.1334 1058.02 Q27.4968 1054.99 27.4968 1052.13 Q27.4968 1044.39 31.5072 1040.57 Q35.5176 1036.76 43.6657 1036.76 Z" fill="#000000" fill-rule="evenodd" fill-opacity="1" /><path clip-path="url(#clip480)" d="M 0 0 M14.479 1024.69 L14.479 1018.84 L64.0042 1018.84 L64.0042 1024.69 L14.479 1024.69 Z" fill="#000000" fill-rule="evenodd" fill-opacity="1" /><path clip-path="url(#clip480)" d="M 0 0 M28.3562 1006.58 L28.3562 1000.73 L64.0042 1000.73 L64.0042 1006.58 L28.3562 1006.58 M14.479 1006.58 L14.479 1000.73 L21.895 1000.73 L21.895 1006.58 L14.479 1006.58 Z" fill="#000000" fill-rule="evenodd" fill-opacity="1" /><path clip-path="url(#clip480)" d="M 0 0 M28.3562 991.018 L28.3562 963.2 L33.7034 963.2 L59.3254 985.225 L59.3254 963.2 L64.0042 963.2 L64.0042 991.814 L58.657 991.814 L33.035 969.788 L33.035 991.018 L28.3562 991.018 Z" fill="#000000" fill-rule="evenodd" fill-opacity="1" /><path clip-path="url(#clip480)" d="M 0 0 M44.7161 923.764 L47.5806 923.764 L47.5806 950.691 Q53.6281 950.309 56.8109 947.063 Q59.9619 943.784 59.9619 937.96 Q59.9619 934.586 59.1344 931.435 Q58.3069 928.252 56.6518 925.133 L62.1899 925.133 Q63.5267 928.284 64.227 931.594 Q64.9272 934.904 64.9272 938.31 Q64.9272 946.84 59.9619 951.837 Q54.9967 956.802 46.5303 956.802 Q37.7774 956.802 32.6531 952.092 Q27.4968 947.349 27.4968 939.328 Q27.4968 932.135 32.1438 927.966 Q36.7589 923.764 44.7161 923.764 M42.9973 929.621 Q38.1912 929.684 35.3266 932.326 Q32.4621 934.936 32.4621 939.265 Q32.4621 944.166 35.2312 947.126 Q38.0002 950.055 43.0292 950.5 L42.9973 929.621 Z" fill="#000000" fill-rule="evenodd" fill-opacity="1" /><path clip-path="url(#clip480)" d="M 0 0 M33.7671 890.694 L14.479 890.694 L14.479 884.838 L64.0042 884.838 L64.0042 890.694 L58.657 890.694 Q61.8398 892.54 63.3994 895.373 Q64.9272 898.174 64.9272 902.121 Q64.9272 908.582 59.771 912.656 Q54.6147 916.698 46.212 916.698 Q37.8093 916.698 32.6531 912.656 Q27.4968 908.582 27.4968 902.121 Q27.4968 898.174 29.0564 895.373 Q30.5842 892.54 33.7671 890.694 M46.212 910.651 Q52.6732 910.651 56.3653 908.009 Q60.0256 905.335 60.0256 900.689 Q60.0256 896.042 56.3653 893.368 Q52.6732 890.694 46.212 890.694 Q39.7508 890.694 36.0905 893.368 Q32.3984 896.042 32.3984 900.689 Q32.3984 905.335 36.0905 908.009 Q39.7508 910.651 46.212 910.651 Z" fill="#000000" fill-rule="evenodd" fill-opacity="1" /><path clip-path="url(#clip480)" d="M 0 0 M29.4065 829.329 L34.9447 829.329 Q33.6716 831.812 33.035 834.485 Q32.3984 837.159 32.3984 840.023 Q32.3984 844.384 33.7352 846.58 Q35.072 848.744 37.7456 848.744 Q39.7826 848.744 40.9603 847.185 Q42.1061 845.625 43.1565 840.915 L43.6021 838.909 Q44.9389 832.671 47.3897 830.061 Q49.8086 827.419 54.1691 827.419 Q59.1344 827.419 62.0308 831.366 Q64.9272 835.281 64.9272 842.156 Q64.9272 845.02 64.3543 848.14 Q63.8132 851.227 62.6992 854.664 L56.6518 854.664 Q58.3387 851.418 59.198 848.267 Q60.0256 845.116 60.0256 842.029 Q60.0256 837.891 58.6251 835.663 Q57.1929 833.435 54.6147 833.435 Q52.2276 833.435 50.9545 835.058 Q49.6813 836.65 48.5037 842.092 L48.0262 844.129 Q46.8804 849.572 44.5251 851.991 Q42.138 854.41 38.0002 854.41 Q32.9713 854.41 30.2341 850.845 Q27.4968 847.28 27.4968 840.724 Q27.4968 837.477 27.9743 834.612 Q28.4517 831.748 29.4065 829.329 Z" fill="#000000" fill-rule="evenodd" fill-opacity="1" /><path clip-path="url(#clip480)" d="M 0 0 M29.7248 792.44 L35.1993 792.44 Q33.8307 794.922 33.1623 797.437 Q32.4621 799.919 32.4621 802.466 Q32.4621 808.163 36.0905 811.314 Q39.6872 814.465 46.212 814.465 Q52.7369 814.465 56.3653 811.314 Q59.9619 808.163 59.9619 802.466 Q59.9619 799.919 59.2935 797.437 Q58.5933 794.922 57.2247 792.44 L62.6355 792.44 Q63.7814 794.89 64.3543 797.532 Q64.9272 800.142 64.9272 803.102 Q64.9272 811.155 59.8664 815.897 Q54.8057 820.64 46.212 820.64 Q37.491 820.64 32.4939 815.865 Q27.4968 811.059 27.4968 802.72 Q27.4968 800.015 28.0697 797.437 Q28.6108 794.859 29.7248 792.44 Z" fill="#000000" fill-rule="evenodd" fill-opacity="1" /><path clip-path="url(#clip480)" d="M 0 0 M46.0847 766.054 Q46.0847 773.152 47.7079 775.889 Q49.3312 778.626 53.2461 778.626 Q56.3653 778.626 58.2114 776.589 Q60.0256 774.52 60.0256 770.987 Q60.0256 766.117 56.5881 763.189 Q53.1188 760.229 47.3897 760.229 L46.0847 760.229 L46.0847 766.054 M43.6657 754.373 L64.0042 754.373 L64.0042 760.229 L58.5933 760.229 Q61.8398 762.234 63.3994 765.226 Q64.9272 768.218 64.9272 772.547 Q64.9272 778.021 61.8716 781.268 Q58.7843 784.483 53.6281 784.483 Q47.6125 784.483 44.5569 780.472 Q41.5014 776.43 41.5014 768.441 L41.5014 760.229 L40.9285 760.229 Q36.8862 760.229 34.6901 762.903 Q32.4621 765.545 32.4621 770.351 Q32.4621 773.406 33.1941 776.303 Q33.9262 779.199 35.3903 781.873 L29.9795 781.873 Q28.7381 778.658 28.1334 775.634 Q27.4968 772.61 27.4968 769.746 Q27.4968 762.012 31.5072 758.192 Q35.5176 754.373 43.6657 754.373 Z" fill="#000000" fill-rule="evenodd" fill-opacity="1" /><path clip-path="url(#clip480)" d="M 0 0 M18.2347 736.517 L28.3562 736.517 L28.3562 724.454 L32.9077 724.454 L32.9077 736.517 L52.2594 736.517 Q56.6199 736.517 57.8613 735.339 Q59.1026 734.13 59.1026 730.47 L59.1026 724.454 L64.0042 724.454 L64.0042 730.47 Q64.0042 737.249 61.4897 739.827 Q58.9434 742.405 52.2594 742.405 L32.9077 742.405 L32.9077 746.702 L28.3562 746.702 L28.3562 742.405 L18.2347 742.405 L18.2347 736.517 Z" fill="#000000" fill-rule="evenodd" fill-opacity="1" /><path clip-path="url(#clip480)" d="M 0 0 M18.2347 710.959 L28.3562 710.959 L28.3562 698.896 L32.9077 698.896 L32.9077 710.959 L52.2594 710.959 Q56.6199 710.959 57.8613 709.781 Q59.1026 708.571 59.1026 704.911 L59.1026 698.896 L64.0042 698.896 L64.0042 704.911 Q64.0042 711.691 61.4897 714.269 Q58.9434 716.847 52.2594 716.847 L32.9077 716.847 L32.9077 721.144 L28.3562 721.144 L28.3562 716.847 L18.2347 716.847 L18.2347 710.959 Z" fill="#000000" fill-rule="evenodd" fill-opacity="1" /><path clip-path="url(#clip480)" d="M 0 0 M44.7161 660.701 L47.5806 660.701 L47.5806 687.628 Q53.6281 687.246 56.8109 684 Q59.9619 680.722 59.9619 674.897 Q59.9619 671.523 59.1344 668.372 Q58.3069 665.189 56.6518 662.07 L62.1899 662.07 Q63.5267 665.221 64.227 668.531 Q64.9272 671.841 64.9272 675.247 Q64.9272 683.777 59.9619 688.774 Q54.9967 693.739 46.5303 693.739 Q37.7774 693.739 32.6531 689.029 Q27.4968 684.286 27.4968 676.266 Q27.4968 669.072 32.1438 664.903 Q36.7589 660.701 44.7161 660.701 M42.9973 666.558 Q38.1912 666.621 35.3266 669.263 Q32.4621 671.873 32.4621 676.202 Q32.4621 681.103 35.2312 684.064 Q38.0002 686.992 43.0292 687.437 L42.9973 666.558 Z" fill="#000000" fill-rule="evenodd" fill-opacity="1" /><path clip-path="url(#clip480)" d="M 0 0 M33.8307 630.432 Q33.2578 631.419 33.0032 632.597 Q32.7167 633.743 32.7167 635.143 Q32.7167 640.108 35.9632 642.782 Q39.1779 645.424 45.2253 645.424 L64.0042 645.424 L64.0042 651.312 L28.3562 651.312 L28.3562 645.424 L33.8944 645.424 Q30.6479 643.578 29.0883 640.618 Q27.4968 637.658 27.4968 633.424 Q27.4968 632.82 27.5923 632.088 Q27.656 631.355 27.8151 630.464 L33.8307 630.432 Z" fill="#000000" fill-rule="evenodd" fill-opacity="1" /><path clip-path="url(#clip480)" d="M 0 0 M28.3562 624.29 L28.3562 618.433 L64.0042 618.433 L64.0042 624.29 L28.3562 624.29 M14.479 624.29 L14.479 618.433 L21.895 618.433 L21.895 624.29 L14.479 624.29 Z" fill="#000000" fill-rule="evenodd" fill-opacity="1" /><path clip-path="url(#clip480)" d="M 0 0 M42.4881 576.547 L64.0042 576.547 L64.0042 582.403 L42.679 582.403 Q37.6183 582.403 35.1038 584.377 Q32.5894 586.35 32.5894 590.297 Q32.5894 595.039 35.6131 597.776 Q38.6368 600.514 43.8567 600.514 L64.0042 600.514 L64.0042 606.402 L28.3562 606.402 L28.3562 600.514 L33.8944 600.514 Q30.6797 598.413 29.0883 595.58 Q27.4968 592.716 27.4968 588.992 Q27.4968 582.849 31.3163 579.698 Q35.1038 576.547 42.4881 576.547 Z" fill="#000000" fill-rule="evenodd" fill-opacity="1" /><path clip-path="url(#clip480)" d="M 0 0 M45.7664 541.408 Q39.4007 541.408 35.8996 544.05 Q32.3984 546.66 32.3984 551.402 Q32.3984 556.113 35.8996 558.755 Q39.4007 561.365 45.7664 561.365 Q52.1003 561.365 55.6014 558.755 Q59.1026 556.113 59.1026 551.402 Q59.1026 546.66 55.6014 544.05 Q52.1003 541.408 45.7664 541.408 M59.58 535.552 Q68.683 535.552 73.1071 539.594 Q77.5631 543.636 77.5631 551.975 Q77.5631 555.062 77.0857 557.8 Q76.6401 560.537 75.6852 563.115 L69.9879 563.115 Q71.3884 560.537 72.0568 558.023 Q72.7252 555.508 72.7252 552.898 Q72.7252 547.137 69.7015 544.273 Q66.7096 541.408 60.6303 541.408 L57.7339 541.408 Q60.885 543.222 62.4446 546.055 Q64.0042 548.888 64.0042 552.834 Q64.0042 559.391 59.0071 563.402 Q54.01 567.412 45.7664 567.412 Q37.491 567.412 32.4939 563.402 Q27.4968 559.391 27.4968 552.834 Q27.4968 548.888 29.0564 546.055 Q30.616 543.222 33.7671 541.408 L28.3562 541.408 L28.3562 535.552 L59.58 535.552 Z" fill="#000000" fill-rule="evenodd" fill-opacity="1" /><path clip-path="url(#clip480)" d="M 0 0 M28.3562 502.768 L28.3562 496.912 L64.0042 496.912 L64.0042 502.768 L28.3562 502.768 M14.479 502.768 L14.479 496.912 L21.895 496.912 L21.895 502.768 L14.479 502.768 Z" fill="#000000" fill-rule="evenodd" fill-opacity="1" /><path clip-path="url(#clip480)" d="M 0 0 M42.4881 455.025 L64.0042 455.025 L64.0042 460.882 L42.679 460.882 Q37.6183 460.882 35.1038 462.855 Q32.5894 464.829 32.5894 468.775 Q32.5894 473.518 35.6131 476.255 Q38.6368 478.992 43.8567 478.992 L64.0042 478.992 L64.0042 484.881 L28.3562 484.881 L28.3562 478.992 L33.8944 478.992 Q30.6797 476.892 29.0883 474.059 Q27.4968 471.194 27.4968 467.47 Q27.4968 461.327 31.3163 458.176 Q35.1038 455.025 42.4881 455.025 Z" fill="#000000" fill-rule="evenodd" fill-opacity="1" /><path clip-path="url(#clip480)" d="M 0 0 M18.2347 437.552 L28.3562 437.552 L28.3562 425.489 L32.9077 425.489 L32.9077 437.552 L52.2594 437.552 Q56.6199 437.552 57.8613 436.374 Q59.1026 435.164 59.1026 431.504 L59.1026 425.489 L64.0042 425.489 L64.0042 431.504 Q64.0042 438.284 61.4897 440.862 Q58.9434 443.44 52.2594 443.44 L32.9077 443.44 L32.9077 447.737 L28.3562 447.737 L28.3562 443.44 L18.2347 443.44 L18.2347 437.552 Z" fill="#000000" fill-rule="evenodd" fill-opacity="1" /><path clip-path="url(#clip480)" d="M 0 0 M44.7161 387.294 L47.5806 387.294 L47.5806 414.221 Q53.6281 413.839 56.8109 410.593 Q59.9619 407.314 59.9619 401.49 Q59.9619 398.116 59.1344 394.965 Q58.3069 391.782 56.6518 388.663 L62.1899 388.663 Q63.5267 391.814 64.227 395.124 Q64.9272 398.434 64.9272 401.84 Q64.9272 410.37 59.9619 415.367 Q54.9967 420.332 46.5303 420.332 Q37.7774 420.332 32.6531 415.622 Q27.4968 410.879 27.4968 402.858 Q27.4968 395.665 32.1438 391.496 Q36.7589 387.294 44.7161 387.294 M42.9973 393.151 Q38.1912 393.214 35.3266 395.856 Q32.4621 398.466 32.4621 402.795 Q32.4621 407.696 35.2312 410.656 Q38.0002 413.585 43.0292 414.03 L42.9973 393.151 Z" fill="#000000" fill-rule="evenodd" fill-opacity="1" /><path clip-path="url(#clip480)" d="M 0 0 M42.4881 348.05 L64.0042 348.05 L64.0042 353.906 L42.679 353.906 Q37.6183 353.906 35.1038 355.88 Q32.5894 357.853 32.5894 361.8 Q32.5894 366.542 35.6131 369.279 Q38.6368 372.017 43.8567 372.017 L64.0042 372.017 L64.0042 377.905 L28.3562 377.905 L28.3562 372.017 L33.8944 372.017 Q30.6797 369.916 29.0883 367.083 Q27.4968 364.219 27.4968 360.495 Q27.4968 354.352 31.3163 351.201 Q35.1038 348.05 42.4881 348.05 Z" fill="#000000" fill-rule="evenodd" fill-opacity="1" /><path clip-path="url(#clip480)" d="M 0 0 M29.4065 313.643 L34.9447 313.643 Q33.6716 316.126 33.035 318.799 Q32.3984 321.473 32.3984 324.337 Q32.3984 328.698 33.7352 330.894 Q35.072 333.058 37.7456 333.058 Q39.7826 333.058 40.9603 331.499 Q42.1061 329.939 43.1565 325.229 L43.6021 323.223 Q44.9389 316.985 47.3897 314.375 Q49.8086 311.733 54.1691 311.733 Q59.1344 311.733 62.0308 315.68 Q64.9272 319.595 64.9272 326.47 Q64.9272 329.335 64.3543 332.454 Q63.8132 335.541 62.6992 338.979 L56.6518 338.979 Q58.3387 335.732 59.198 332.581 Q60.0256 329.43 60.0256 326.343 Q60.0256 322.205 58.6251 319.977 Q57.1929 317.749 54.6147 317.749 Q52.2276 317.749 50.9545 319.372 Q49.6813 320.964 48.5037 326.406 L48.0262 328.443 Q46.8804 333.886 44.5251 336.305 Q42.138 338.724 38.0002 338.724 Q32.9713 338.724 30.2341 335.159 Q27.4968 331.594 27.4968 325.038 Q27.4968 321.791 27.9743 318.927 Q28.4517 316.062 29.4065 313.643 Z" fill="#000000" fill-rule="evenodd" fill-opacity="1" /><path clip-path="url(#clip480)" d="M 0 0 M28.3562 302.408 L28.3562 296.551 L64.0042 296.551 L64.0042 302.408 L28.3562 302.408 M14.479 302.408 L14.479 296.551 L21.895 296.551 L21.895 302.408 L14.479 302.408 Z" fill="#000000" fill-rule="evenodd" fill-opacity="1" /><path clip-path="url(#clip480)" d="M 0 0 M18.2347 278.504 L28.3562 278.504 L28.3562 266.441 L32.9077 266.441 L32.9077 278.504 L52.2594 278.504 Q56.6199 278.504 57.8613 277.327 Q59.1026 276.117 59.1026 272.457 L59.1026 266.441 L64.0042 266.441 L64.0042 272.457 Q64.0042 279.236 61.4897 281.815 Q58.9434 284.393 52.2594 284.393 L32.9077 284.393 L32.9077 288.689 L28.3562 288.689 L28.3562 284.393 L18.2347 284.393 L18.2347 278.504 Z" fill="#000000" fill-rule="evenodd" fill-opacity="1" /><path clip-path="url(#clip480)" d="M 0 0 M67.3143 243.907 Q73.68 246.389 75.6216 248.745 Q77.5631 251.1 77.5631 255.047 L77.5631 259.726 L72.6615 259.726 L72.6615 256.288 Q72.6615 253.869 71.5157 252.532 Q70.3699 251.195 66.1048 249.572 L63.4312 248.522 L28.3562 262.94 L28.3562 256.734 L56.238 245.594 L28.3562 234.454 L28.3562 228.247 L67.3143 243.907 Z" fill="#000000" fill-rule="evenodd" fill-opacity="1" /><polyline clip-path="url(#clip482)" style="stroke:#009af9; stroke-width:8; stroke-opacity:1; fill:none" points="
  312.198,47.2441 323.265,47.3431 334.333,47.6402 345.401,48.1353 356.469,48.8284 367.536,49.7195 378.604,50.8086 389.672,52.0956 400.74,53.5805 411.807,55.2633 
  422.875,57.1437 433.943,59.2218 445.01,61.4973 456.078,63.9702 467.146,66.6402 478.214,69.5071 489.281,72.5704 500.349,75.83 511.417,79.2853 522.485,82.9359 
  533.552,86.781 544.62,90.82 555.688,95.0521 566.756,99.4763 577.823,104.091 588.891,108.896 599.959,113.889 611.027,119.069 622.094,124.433 633.162,129.979 
  644.23,135.706 655.297,141.609 666.365,147.687 677.433,153.935 688.501,160.35 699.568,166.927 710.636,173.662 721.704,180.548 732.772,187.581 743.839,194.755 
  754.907,202.061 765.975,209.492 777.043,217.04 788.11,224.697 799.178,232.452 810.246,240.295 821.313,248.216 832.381,256.203 843.449,264.245 854.517,272.329 
  865.584,280.443 876.652,288.573 887.72,296.708 898.788,304.833 909.855,312.938 920.923,321.009 931.991,329.036 943.059,337.008 954.126,344.916 965.194,352.753 
  976.262,360.512 987.329,368.189 998.397,375.781 1009.46,383.287 1020.53,390.709 1031.6,398.049 1042.67,405.313 1053.74,412.507 1064.8,419.64 1075.87,426.722 
  1086.94,433.764 1098.01,440.777 1109.07,447.773 1120.14,454.766 1131.21,461.767 1142.28,468.788 1153.35,475.841 1164.41,482.935 1175.48,490.077 1186.55,497.275 
  1197.62,504.53 1208.68,511.843 1219.75,519.211 1230.82,526.625 1241.89,534.074 1252.96,541.54 1264.02,548.998 1275.09,556.419 1286.16,563.767 1297.23,570.996 
  1308.29,578.055 1319.36,584.886 1330.43,591.424 1341.5,597.599 1352.56,603.338 1363.63,608.569 1374.7,613.22 1385.77,617.227 1396.84,620.536 1407.9,623.107 
  1418.97,624.916 1430.04,625.957 1441.11,626.244 1452.17,625.807 1463.24,624.693 1474.31,622.963 1485.38,620.686 1496.45,617.937 1507.51,614.792 1518.58,611.327 
  1529.65,607.616 1540.72,603.725 1551.78,599.716 1562.85,595.645 1573.92,591.559 1584.99,587.499 1596.05,583.501 1607.12,579.594 1618.19,575.803 1629.26,572.146 
  1640.33,568.64 1651.39,565.296 1662.46,562.123 1673.53,559.129 1684.6,556.316 1695.66,553.687 1706.73,551.243 1717.8,548.983 1728.87,546.905 1739.94,545.006 
  1751,543.282 1762.07,541.73 1773.14,540.343 1784.21,539.116 1795.27,538.044 1806.34,537.12 1817.41,536.337 1828.48,535.689 1839.55,535.168 1850.61,534.766 
  1861.68,534.478 1872.75,534.294 1883.82,534.208 1894.88,534.211 1905.95,534.297 1917.02,534.457 1928.09,534.684 1939.15,534.971 1950.22,535.311 1961.29,535.695 
  1972.36,536.119 1983.43,536.574 1994.49,537.055 2005.56,537.555 2016.63,538.068 2027.7,538.591 2038.76,539.116 2049.83,539.64 2060.9,540.159 2071.97,540.668 
  2083.04,541.164 2094.1,541.645 2105.17,542.107 2116.24,542.548 2127.31,542.967 2138.37,543.361 2149.44,543.731 2160.51,544.073 2171.58,544.389 2182.64,544.678 
  2193.71,544.938 2204.78,545.171 2215.85,545.375 2226.92,545.552 2237.98,545.702 2249.05,545.824 2260.12,545.918 2271.19,545.986 2282.25,546.026 2293.32,546.039 
  
  "/>
<polyline clip-path="url(#clip482)" style="stroke:#e26f46; stroke-width:8; stroke-opacity:1; fill:none" points="
  312.198,47.2441 323.265,47.7217 334.333,49.1559 345.401,51.5511 356.469,54.9147 367.536,59.2569 378.604,64.5911 389.672,70.9337 400.74,78.304 411.807,86.7244 
  422.875,96.22 433.943,106.818 445.01,118.549 456.078,131.442 467.146,145.527 478.214,160.827 489.281,177.359 500.349,195.123 511.417,214.09 522.485,234.186 
  533.552,255.264 544.62,277.072 555.688,299.201 566.756,321.038 577.823,341.737 588.891,360.241 599.959,375.423 611.027,386.352 622.094,392.595 633.162,394.382 
  644.23,392.52 655.297,388.114 666.365,382.274 677.433,375.933 688.501,369.787 699.568,364.311 710.636,359.808 721.704,356.456 732.772,354.347 743.839,353.517 
  754.907,353.96 765.975,355.648 777.043,358.53 788.11,362.541 799.178,367.6 810.246,373.614 821.313,380.47 832.381,388.041 843.449,396.179 854.517,404.717 
  865.584,413.474 876.652,422.255 887.72,430.862 898.788,439.107 909.855,446.823 920.923,453.886 931.991,460.221 943.059,465.818 954.126,470.723 965.194,475.039 
  976.262,478.912 987.329,482.508 998.397,486.005 1009.46,489.572 1020.53,493.359 1031.6,497.491 1042.67,502.06 1053.74,507.12 1064.8,512.686 1075.87,518.731 
  1086.94,525.179 1098.01,531.908 1109.07,538.748 1120.14,545.479 1131.21,551.85 1142.28,557.585 1153.35,562.42 1164.41,566.127 1175.48,568.555 1186.55,569.654 
  1197.62,569.489 1208.68,568.228 1219.75,566.122 1230.82,563.47 1241.89,560.588 1252.96,557.783 1264.02,555.333 1275.09,553.486 1286.16,552.45 1297.23,552.405 
  1308.29,553.498 1319.36,555.857 1330.43,559.593 1341.5,564.799 1352.56,571.56 1363.63,579.947 1374.7,590.013 1385.77,601.786 1396.84,615.248 1407.9,630.302 
  1418.97,646.722 1430.04,664.071 1441.11,681.595 1452.17,698.116 1463.24,712.013 1474.31,721.43 1485.38,724.823 1496.45,721.627 1507.51,712.552 1518.58,699.22 
  1529.65,683.489 1540.72,666.945 1551.78,650.723 1562.85,635.55 1573.92,621.845 1584.99,609.834 1596.05,599.621 1607.12,591.24 1618.19,584.688 1629.26,579.94 
  1640.33,576.963 1651.39,575.717 1662.46,576.159 1673.53,578.237 1684.6,581.888 1695.66,587.031 1706.73,593.548 1717.8,601.276 1728.87,609.974 1739.94,619.305 
  1751,628.802 1762.07,637.853 1773.14,645.712 1784.21,651.562 1795.27,654.647 1806.34,654.444 1817.41,650.807 1828.48,644.013 1839.55,634.672 1850.61,623.554 
  1861.68,611.432 1872.75,598.974 1883.82,586.7 1894.88,574.986 1905.95,564.086 1917.02,554.158 1928.09,545.291 1939.15,537.523 1950.22,530.855 1961.29,525.262 
  1972.36,520.697 1983.43,517.096 1994.49,514.381 2005.56,512.458 2016.63,511.219 2027.7,510.542 2038.76,510.292 2049.83,510.322 2060.9,510.477 2071.97,510.599 
  2083.04,510.534 2094.1,510.142 2105.17,509.308 2116.24,507.948 2127.31,506.019 2138.37,503.521 2149.44,500.494 2160.51,497.019 2171.58,493.201 2182.64,489.166 
  2193.71,485.047 2204.78,480.979 2215.85,477.086 2226.92,473.484 2237.98,470.271 2249.05,467.531 2260.12,465.332 2271.19,463.725 2282.25,462.747 2293.32,462.419 
  
  "/>
<polyline clip-path="url(#clip482)" style="stroke:#3da44d; stroke-width:8; stroke-opacity:1; fill:none" points="
  312.198,47.2441 323.265,48.596 334.333,52.6647 345.401,59.4889 356.469,69.1355 367.536,81.7012 378.604,97.3168 389.672,116.151 400.74,138.416 411.807,164.365 
  422.875,194.29 433.943,228.484 445.01,267.143 456.078,310.098 467.146,356.17 478.214,401.849 489.281,439.748 500.349,460.353 511.417,460.277 522.485,446.375 
  533.552,428.105 544.62,411.396 555.688,398.784 566.756,391.066 577.823,388.352 588.891,390.534 599.959,397.482 611.027,409.107 622.094,425.378 633.162,446.31 
  644.23,471.9 655.297,501.996 666.365,535.985 677.433,572.167 688.501,606.745 699.568,633.253 710.636,644.964 721.704,640.562 732.772,625.57 743.839,607.122 
  754.907,590.044 765.975,576.728 777.043,568.169 788.11,564.743 799.178,566.612 810.246,573.907 821.313,586.803 832.381,605.521 843.449,630.251 854.517,660.903 
  865.584,696.426 876.652,733.291 887.72,763.357 898.788,775.342 909.855,765.107 920.923,741.084 931.991,714.28 943.059,691.077 954.126,673.988 965.194,663.735 
  976.262,660.396 987.329,663.848 998.397,673.873 1009.46,690.065 1020.53,711.521 1031.6,736.226 1042.67,760.214 1053.74,777.453 1064.8,782.498 1075.87,775.076 
  1086.94,760.426 1098.01,744.84 1109.07,732.655 1120.14,726.174 1131.21,726.471 1142.28,733.972 1153.35,748.622 1164.41,769.607 1175.48,794.47 1186.55,817.654 
  1197.62,830.333 1208.68,825.765 1219.75,806.537 1230.82,781.597 1241.89,758.501 1252.96,741.264 1264.02,731.667 1275.09,730.589 1286.16,738.74 1297.23,757.052 
  1308.29,786.902 1319.36,830.108 1330.43,887.675 1341.5,951.839 1352.56,982.912 1363.63,944.511 1374.7,880.721 1385.77,825.952 1396.84,785.782 1407.9,759.003 
  1418.97,744.021 1430.04,739.852 1441.11,746.196 1452.17,763.459 1463.24,792.888 1474.31,836.918 1485.38,899.719 1496.45,986.437 1507.51,1083.33 1518.58,1085.24 
  1529.65,998.324 1540.72,924.039 1551.78,873.783 1562.85,842.452 1573.92,826.103 1584.99,822.489 1596.05,830.465 1607.12,849.505 1618.19,879.118 1629.26,917.541 
  1640.33,958.448 1651.39,986.549 1662.46,985.595 1673.53,960.854 1684.6,930.991 1695.66,907.665 1706.73,895.111 1717.8,894.81 1728.87,907.926 1739.94,936.448 
  1751,984.168 1762.07,1057.81 1773.14,1161.81 1784.21,1218.89 1795.27,1124.01 1806.34,1026.08 1817.41,958.571 1828.48,913.725 1839.55,885.337 1850.61,869.535 
  1861.68,863.493 1872.75,864.411 1883.82,868.671 1894.88,871.462 1905.95,867.866 1917.02,855.649 1928.09,836.924 1939.15,816.319 1950.22,798.168 1961.29,785.427 
  1972.36,779.932 1983.43,782.946 1994.49,795.531 2005.56,818.58 2016.63,851.987 2027.7,891.043 2038.76,917.563 2049.83,903.889 2060.9,854.693 2071.97,798.237 
  2083.04,748.939 2094.1,709.888 2105.17,680.798 2116.24,660.803 2127.31,649.121 2138.37,645.136 2149.44,648.301 2160.51,657.909 2171.58,672.665 2182.64,689.954 
  2193.71,705.027 2204.78,711.439 2215.85,704.668 2226.92,686.183 2237.98,661.94 2249.05,637.716 2260.12,617.057 2271.19,601.675 2282.25,592.282 2293.32,589.13 
  
  "/>
<path clip-path="url(#clip480)" d="
M1872.62 335.029 L2282.76 335.029 L2282.76 93.1086 L1872.62 93.1086  Z
  " fill="#ffffff" fill-rule="evenodd" fill-opacity="1"/>
<polyline clip-path="url(#clip480)" style="stroke:#000000; stroke-width:4; stroke-opacity:1; fill:none" points="
  1872.62,335.029 2282.76,335.029 2282.76,93.1086 1872.62,93.1086 1872.62,335.029 
  "/>
<polyline clip-path="url(#clip480)" style="stroke:#009af9; stroke-width:4; stroke-opacity:1; fill:none" points="
  1895.95,153.589 2035.95,153.589 
  "/>
<path clip-path="url(#clip480)" d="M 0 0 M2059.29 134.85 L2063.57 134.85 L2063.57 156.123 L2076.28 144.943 L2081.72 144.943 L2067.97 157.072 L2082.29 170.869 L2076.74 170.869 L2063.57 158.207 L2063.57 170.869 L2059.29 170.869 L2059.29 134.85 Z" fill="#000000" fill-rule="evenodd" fill-opacity="1" /><path clip-path="url(#clip480)" d="M 0 0 M2097.85 157.836 Q2092.69 157.836 2090.7 159.017 Q2088.71 160.197 2088.71 163.045 Q2088.71 165.313 2090.19 166.656 Q2091.69 167.975 2094.26 167.975 Q2097.8 167.975 2099.93 165.475 Q2102.09 162.952 2102.09 158.785 L2102.09 157.836 L2097.85 157.836 M2106.35 156.077 L2106.35 170.869 L2102.09 170.869 L2102.09 166.933 Q2100.63 169.295 2098.45 170.429 Q2096.28 171.54 2093.13 171.54 Q2089.15 171.54 2086.78 169.318 Q2084.45 167.072 2084.45 163.322 Q2084.45 158.947 2087.36 156.725 Q2090.3 154.503 2096.11 154.503 L2102.09 154.503 L2102.09 154.086 Q2102.09 151.147 2100.14 149.549 Q2098.22 147.929 2094.72 147.929 Q2092.5 147.929 2090.4 148.461 Q2088.29 148.994 2086.35 150.059 L2086.35 146.123 Q2088.68 145.221 2090.88 144.781 Q2093.08 144.318 2095.16 144.318 Q2100.79 144.318 2103.57 147.234 Q2106.35 150.151 2106.35 156.077 Z" fill="#000000" fill-rule="evenodd" fill-opacity="1" /><path clip-path="url(#clip480)" d="M 0 0 M2130.74 149.341 L2160.42 149.341 L2160.42 153.23 L2130.74 153.23 L2130.74 149.341 M2130.74 158.785 L2160.42 158.785 L2160.42 162.721 L2130.74 162.721 L2130.74 158.785 Z" fill="#000000" fill-rule="evenodd" fill-opacity="1" /><path clip-path="url(#clip480)" d="M 0 0 M2199.75 152.234 Q2203.1 152.952 2204.98 155.221 Q2206.88 157.489 2206.88 160.822 Q2206.88 165.938 2203.36 168.739 Q2199.84 171.54 2193.36 171.54 Q2191.18 171.54 2188.87 171.1 Q2186.58 170.683 2184.12 169.827 L2184.12 165.313 Q2186.07 166.447 2188.38 167.026 Q2190.7 167.605 2193.22 167.605 Q2197.62 167.605 2199.91 165.869 Q2202.22 164.133 2202.22 160.822 Q2202.22 157.767 2200.07 156.054 Q2197.94 154.318 2194.12 154.318 L2190.09 154.318 L2190.09 150.475 L2194.31 150.475 Q2197.76 150.475 2199.59 149.109 Q2201.41 147.721 2201.41 145.128 Q2201.41 142.466 2199.52 141.054 Q2197.64 139.619 2194.12 139.619 Q2192.2 139.619 2190 140.035 Q2187.8 140.452 2185.16 141.332 L2185.16 137.165 Q2187.83 136.424 2190.14 136.054 Q2192.48 135.684 2194.54 135.684 Q2199.86 135.684 2202.96 138.114 Q2206.07 140.522 2206.07 144.642 Q2206.07 147.512 2204.42 149.503 Q2202.78 151.471 2199.75 152.234 Z" fill="#000000" fill-rule="evenodd" fill-opacity="1" /><polyline clip-path="url(#clip480)" style="stroke:#e26f46; stroke-width:4; stroke-opacity:1; fill:none" points="
  1895.95,214.069 2035.95,214.069 
  "/>
<path clip-path="url(#clip480)" d="M 0 0 M2059.29 195.33 L2063.57 195.33 L2063.57 216.603 L2076.28 205.423 L2081.72 205.423 L2067.97 217.552 L2082.29 231.349 L2076.74 231.349 L2063.57 218.687 L2063.57 231.349 L2059.29 231.349 L2059.29 195.33 Z" fill="#000000" fill-rule="evenodd" fill-opacity="1" /><path clip-path="url(#clip480)" d="M 0 0 M2097.85 218.316 Q2092.69 218.316 2090.7 219.497 Q2088.71 220.677 2088.71 223.525 Q2088.71 225.793 2090.19 227.136 Q2091.69 228.455 2094.26 228.455 Q2097.8 228.455 2099.93 225.955 Q2102.09 223.432 2102.09 219.265 L2102.09 218.316 L2097.85 218.316 M2106.35 216.557 L2106.35 231.349 L2102.09 231.349 L2102.09 227.413 Q2100.63 229.775 2098.45 230.909 Q2096.28 232.02 2093.13 232.02 Q2089.15 232.02 2086.78 229.798 Q2084.45 227.552 2084.45 223.802 Q2084.45 219.427 2087.36 217.205 Q2090.3 214.983 2096.11 214.983 L2102.09 214.983 L2102.09 214.566 Q2102.09 211.627 2100.14 210.029 Q2098.22 208.409 2094.72 208.409 Q2092.5 208.409 2090.4 208.941 Q2088.29 209.474 2086.35 210.539 L2086.35 206.603 Q2088.68 205.701 2090.88 205.261 Q2093.08 204.798 2095.16 204.798 Q2100.79 204.798 2103.57 207.714 Q2106.35 210.631 2106.35 216.557 Z" fill="#000000" fill-rule="evenodd" fill-opacity="1" /><path clip-path="url(#clip480)" d="M 0 0 M2130.74 209.821 L2160.42 209.821 L2160.42 213.71 L2130.74 213.71 L2130.74 209.821 M2130.74 219.265 L2160.42 219.265 L2160.42 223.201 L2130.74 223.201 L2130.74 219.265 Z" fill="#000000" fill-rule="evenodd" fill-opacity="1" /><path clip-path="url(#clip480)" d="M 0 0 M2196.16 212.205 Q2193.01 212.205 2191.16 214.358 Q2189.33 216.511 2189.33 220.261 Q2189.33 223.988 2191.16 226.163 Q2193.01 228.316 2196.16 228.316 Q2199.31 228.316 2201.14 226.163 Q2202.99 223.988 2202.99 220.261 Q2202.99 216.511 2201.14 214.358 Q2199.31 212.205 2196.16 212.205 M2205.44 197.553 L2205.44 201.812 Q2203.68 200.978 2201.88 200.539 Q2200.09 200.099 2198.34 200.099 Q2193.71 200.099 2191.25 203.224 Q2188.82 206.349 2188.47 212.668 Q2189.84 210.654 2191.9 209.589 Q2193.96 208.502 2196.44 208.502 Q2201.65 208.502 2204.65 211.673 Q2207.69 214.821 2207.69 220.261 Q2207.69 225.585 2204.54 228.802 Q2201.39 232.02 2196.16 232.02 Q2190.16 232.02 2186.99 227.437 Q2183.82 222.83 2183.82 214.103 Q2183.82 205.909 2187.71 201.048 Q2191.6 196.164 2198.15 196.164 Q2199.91 196.164 2201.69 196.511 Q2203.5 196.858 2205.44 197.553 Z" fill="#000000" fill-rule="evenodd" fill-opacity="1" /><polyline clip-path="url(#clip480)" style="stroke:#3da44d; stroke-width:4; stroke-opacity:1; fill:none" points="
  1895.95,274.549 2035.95,274.549 
  "/>
<path clip-path="url(#clip480)" d="M 0 0 M2059.29 255.81 L2063.57 255.81 L2063.57 277.083 L2076.28 265.903 L2081.72 265.903 L2067.97 278.032 L2082.29 291.829 L2076.74 291.829 L2063.57 279.167 L2063.57 291.829 L2059.29 291.829 L2059.29 255.81 Z" fill="#000000" fill-rule="evenodd" fill-opacity="1" /><path clip-path="url(#clip480)" d="M 0 0 M2097.85 278.796 Q2092.69 278.796 2090.7 279.977 Q2088.71 281.157 2088.71 284.005 Q2088.71 286.273 2090.19 287.616 Q2091.69 288.935 2094.26 288.935 Q2097.8 288.935 2099.93 286.435 Q2102.09 283.912 2102.09 279.745 L2102.09 278.796 L2097.85 278.796 M2106.35 277.037 L2106.35 291.829 L2102.09 291.829 L2102.09 287.893 Q2100.63 290.255 2098.45 291.389 Q2096.28 292.5 2093.13 292.5 Q2089.15 292.5 2086.78 290.278 Q2084.45 288.032 2084.45 284.282 Q2084.45 279.907 2087.36 277.685 Q2090.3 275.463 2096.11 275.463 L2102.09 275.463 L2102.09 275.046 Q2102.09 272.107 2100.14 270.509 Q2098.22 268.889 2094.72 268.889 Q2092.5 268.889 2090.4 269.421 Q2088.29 269.954 2086.35 271.019 L2086.35 267.083 Q2088.68 266.181 2090.88 265.741 Q2093.08 265.278 2095.16 265.278 Q2100.79 265.278 2103.57 268.194 Q2106.35 271.111 2106.35 277.037 Z" fill="#000000" fill-rule="evenodd" fill-opacity="1" /><path clip-path="url(#clip480)" d="M 0 0 M2130.74 270.301 L2160.42 270.301 L2160.42 274.19 L2130.74 274.19 L2130.74 270.301 M2130.74 279.745 L2160.42 279.745 L2160.42 283.681 L2130.74 283.681 L2130.74 279.745 Z" fill="#000000" fill-rule="evenodd" fill-opacity="1" /><path clip-path="url(#clip480)" d="M 0 0 M2186.39 287.893 L2194.03 287.893 L2194.03 261.528 L2185.72 263.195 L2185.72 258.935 L2193.98 257.269 L2198.66 257.269 L2198.66 287.893 L2206.3 287.893 L2206.3 291.829 L2186.39 291.829 L2186.39 287.893 Z" fill="#000000" fill-rule="evenodd" fill-opacity="1" /><path clip-path="url(#clip480)" d="M 0 0 M2219.77 287.893 L2236.09 287.893 L2236.09 291.829 L2214.15 291.829 L2214.15 287.893 Q2216.81 285.139 2221.39 280.509 Q2226 275.856 2227.18 274.514 Q2229.42 271.991 2230.3 270.255 Q2231.21 268.495 2231.21 266.806 Q2231.21 264.051 2229.26 262.315 Q2227.34 260.579 2224.24 260.579 Q2222.04 260.579 2219.59 261.343 Q2217.15 262.107 2214.38 263.657 L2214.38 258.935 Q2217.2 257.801 2219.65 257.222 Q2222.11 256.644 2224.15 256.644 Q2229.52 256.644 2232.71 259.329 Q2235.9 262.014 2235.9 266.505 Q2235.9 268.634 2235.09 270.556 Q2234.31 272.454 2232.2 275.046 Q2231.62 275.718 2228.52 278.935 Q2225.42 282.13 2219.77 287.893 Z" fill="#000000" fill-rule="evenodd" fill-opacity="1" /></svg>
